
<svg xmlns="http://www.w3.org/2000/svg" version="1.1" xmlns:xlink="http://www.w3.org/1999/xlink" preserveAspectRatio="none" x="0px" y="0px" width="450px" height="480px" viewBox="0 0 450 480">
<defs>
<g id="circulo_0_Layer0_0_FILL">
<path fill="#000000" stroke="none" d="
M 29.35 -29.35
Q 17.2 -41.5 0 -41.5 -17.2 -41.5 -29.35 -29.35 -41.5 -17.2 -41.5 0 -41.5 17.2 -29.35 29.35 -17.2 41.5 0 41.5 17.2 41.5 29.35 29.35 41.5 17.2 41.5 0 41.5 -17.2 29.35 -29.35 Z"/>
</g>

<g id="circulo_0_Layer0_1_FILL">
<path fill="#F1F1F1" stroke="none" d="
M -2.2 -47.5
Q -21.9 -47.5 -35.85 -33.55 -49.8 -19.6 -49.8 0.1 -49.8 19.8 -35.85 33.7 -21.9 47.65 -2.2 47.65 17.5 47.65 31.45 33.7 45.4 19.8 45.4 0.1 45.4 -19.6 31.45 -33.55 17.5 -47.5 -2.2 -47.5 Z"/>
</g>

<g id="circulo_0_Layer0_1_STROKES_1_FILL">
<path fill="#F1F1F1" stroke="none" d="
M 46.35 9.85
Q 46.35 9.45 46.3 9.45
L 46.1 11.4 46.35 9.85
M 45.85 13.15
L 45.8 13.65 45.9 12.85 45.85 13.15
M -25.8 -49.95
L -26.7 -49.55
Q -26.9 -49.3 -27.05 -49.2
L -27.2 -49.25 -27.4 -49.2
Q -27.45 -49.2 -27.6 -48.95 -27.9 -48.95 -28.15 -48.75 -28.2 -48.55 -28.7 -48.2
L -30.5 -47.3 -35 -44.45
Q -35.2 -44.65 -35.4 -44.5 -35.45 -44.4 -35.4 -44.35 -35.3 -44.3 -35.4 -44.2
L -36.05 -43.6
Q -36.15 -43.55 -36.3 -43.45 -36.4 -43.35 -36.4 -43.4 -36.45 -43.45 -36.5 -43.45 -36.8 -43.45 -37.3 -42.95
L -37.9 -42.35 -38.35 -42.2 -38.6 -42.05 -39.1 -41.5 -39.3 -41.2 -39.6 -40.9
Q -40.05 -40.65 -40.3 -40.5
L -40.5 -40.25 -40.65 -40.1 -40.75 -39.95
Q -40.9 -39.85 -41.1 -39.75 -41.25 -39.65 -41.4 -39.35
L -41.45 -39.3 -41.55 -39.25 -41.55 -39.2 -41.6 -39.2 -41.7 -39.1 -41.95 -38.95
Q -42.1 -38.8 -42.3 -38.45
L -42.55 -38.3 -43.15 -37.85
Q -43.35 -37.7 -43.6 -37.25
L -44.3 -36.9 -44.8 -36.35 -45.85 -35.4
Q -46 -35.2 -46.15 -34.9
L -48.8 -31.8 -49.5 -30.6 -49.95 -30.35 -50.3 -30.05
Q -50.5 -29.85 -50.75 -29.05
L -51.1 -28.7
Q -51.2 -28.55 -51.3 -28.15 -51.45 -27.95 -51.55 -28.1
L -51.8 -27.85 -52 -27.5 -52.3 -26.75 -53.9 -24.3 -54.4 -23.3 -54.8 -22.8 -55.45 -21.35 -55.7 -20.95 -55.9 -20.2
Q -56.05 -19.9 -56.5 -19.4 -56.55 -19.25 -56.55 -18.95 -56.55 -18.7 -56.7 -18.5 -56.9 -18.15 -56.95 -17.85 -56.95 -17.45 -57 -17.25 -57.3 -17 -57.4 -16.7
L -57.5 -15.95 -57.7 -15.3 -58.25 -14.2 -58.35 -13.55
Q -58.6 -12.9 -58.65 -12.65 -58.55 -12.3 -58.6 -12 -58.65 -11.75 -58.95 -10.8
L -59.25 -9.45
Q -59.35 -8.8 -59.5 -8.55 -60.1 -7.2 -59.85 -6.4 -60.2 -5.95 -60.25 -5.65 -60.35 -5.25 -60.1 -4.2 -59.9 -3.35 -60.25 -3.15 -60.25 -3.3 -60.2 -3.85 -60.2 -4.3 -60.4 -4.25
L -60.5 -0.5 -60.55 -0.1 -60.55 0.1 -60.65 0.45 -60.75 0.15 -60.75 -0.05
Q -60.75 -0.1 -60.9 -0.05
L -60.9 0.1 -60.95 0.1 -61 1.65
Q -61.1 2 -61.15 2 -60.8 2.1 -60.9 2.75
L -60.9 3.55
Q -60.75 3.3 -60.75 3.85
L -60.75 4.4 -60.6 4.8
Q -60.7 4.8 -60.9 4.7 -61.05 4.65 -61.15 4.85
L -60.95 5.85
Q -60.9 6.35 -60.7 6.7 -60.7 6.75 -60.55 6.8 -60.45 6.85 -60.4 7.15
L -60.45 8.1 -60.4 8.55 -60.3 8.95
Q -60.2 9.45 -60.35 9.5 -60.45 9.55 -60.55 9.25 -60.65 8.95 -60.8 8.95
L -60.85 9.9 -60.75 10.85
Q -60.7 11 -60.55 11.15 -60.35 11.3 -60.3 11.45
L -60.15 11.8 -60.05 12.35 -59.85 13 -60.2 12.75
Q -60.3 12.9 -60.15 13.05 -59.95 13.25 -59.95 13.35 -59.95 13.45 -60.3 13.6
L -60.2 14.25
Q -60.15 14.45 -59.85 14.7 -59.55 14.9 -59.65 15.1 -59.75 15.1 -59.9 14.8
L -59.7 16.5 -59.5 17.25
Q -59.3 17.3 -59.4 16.95 -59.5 16.6 -59.3 16.65 -59.1 17 -59.2 17.25 -59.2 17.6 -59.1 17.8 -59.1 17.9 -59.35 17.95 -59.45 18 -59.3 18.4 -59.25 18.6 -59.1 18.6 -58.95 18.6 -58.9 18.75 -59.1 18.95 -58.7 19.4
L -58.5 20.2 -58.25 20.4
Q -57.85 20.95 -58.1 21.05 -58.25 21.1 -58.5 20.2 -58.7 20.5 -58.45 21.3
L -57.85 22.55 -57.65 23.75
Q -57.55 24 -57.3 24.3
L -56.45 25.7
Q -56.6 25.9 -56.25 26.6
L -55.6 27.65 -55.45 28.35
Q -55.3 28.7 -54.85 29.35
L -54.7 30
Q -54.55 30.4 -54.2 30.95 -54 31.25 -54.1 31.4 -54.2 31.5 -53.9 31.9
L -53.5 32.35
Q -53.35 32.7 -53.2 32.95
L -52.85 33.3
Q -52.75 33.65 -52.6 33.95 -52.45 34 -52.35 34.15
L -50.9 36.3 -50.65 36.25
Q -50.45 36.2 -50.2 36.6 -50.15 36.9 -50.4 36.75 -50.7 36.55 -50.75 36.65 -50.45 36.9 -50.1 37.5
L -49.75 38.1
Q -49.5 38.2 -49.35 38.45
L -49.05 39.05 -47.55 40.95 -47.45 41.05 -46.15 42 -45.6 42.5 -45.4 42.75 -45.1 43.05
Q -44.6 43.65 -44 44.1
L -44.3 44.4
Q -44.05 44.7 -43.85 44.75 -43.6 44.7 -43.5 44.75 -43.6 45.1 -43.3 45.4
L -42.45 46
Q -42.5 46 -42.15 46.4 -41.6 46.95 -41 47.3 -40.9 47.5 -41.15 47.45 -41.35 47.4 -41.25 47.6
L -39.7 48.8
Q -39.45 48.95 -38.85 49.3
L -38.7 49.45 -38.55 49.55 -37.8 50.4 -35.6 51.9
Q -34.9 52.5 -34.25 52.9
L -32.9 53.7 -32.55 53.85 -32.25 54.05 -31.6 54.4 -29.6 55.7 -28.75 55.9 -28.25 56.1 -25.75 57.5 -24.95 57.75 -24.55 58.1
Q -23.8 58.15 -23.5 58.25 -23.2 58.45 -22.8 58.8 -22.05 58.9 -21.75 59
L -20.9 59.3 -20.2 59.65 -19.85 59.65 -18.35 60.05
Q -17.4 60.45 -16.9 60.55 -16.05 60.65 -15.75 60.75
L -15.1 61
Q -14.5 61 -14.45 61
L -13.45 61.35
Q -13.5 61.35 -13.35 61.5
L -12.5 61.5 -11.65 61.65 -11.4 61.65 -11.15 61.6 -10.65 61.6
Q -10.35 61.65 -9.7 61.85 -9.05 62.1 -9 62.1
L -8.3 62.2 -2.65 62.15 -2.45 62.1 -2.1 62.1 0 61.75 0.75 61.7
Q 1.05 61.65 1.6 61.65
L 4.85 61.2 5.45 61 5.85 60.75
Q 5.812109375 60.765625 5.85 60.5 6.15 60.25 6.15 60.15
L 5.95 59.85
Q 5.95 59.6 5.95 59.55 5.95 59.45 5.55 59.35 5.25 59.25 4.95 59.25 4.6 59.25 4.1 59.2
L 3.3 59.2
Q 3.25 59.25 3.15 59.15
L 2.2 59.3 1.55 59.25
Q 1.2 59.4 0.95 59.4
L -0.1 59.3 -1.05 59.4 -2.1 59.3 -2.3 59.3 -2.35 59.25 -2.65 59.25
Q -2.8 59.15 -3.05 59.25
L -3.25 59.3 -3.4 59.3 -3.45 59.35 -3.55 59.35
Q -4 59.3 -5.1 59.1
L -5.25 59.05 -5.4 59.05 -5.75 59.1 -6.5 59.1
Q -6.85 59.05 -7.3 58.95
L -7.85 58.95
Q -8.05 59 -8.25 58.95 -8.4 58.95 -8.85 58.65 -9.1 58.7 -9.65 58.7
L -10.4 58.6
Q -10.45 58.6 -11.05 58.4 -11.35 58.35 -11.7 58.45 -11.85 58.4 -12 58.3 -12.1 58.2 -12.3 58.15 -12.65 58.3 -13.05 58.2 -13.25 58.15 -13.7 57.95 -13.5 57.913671875 -13.5 57.75
L -13.8 57.75 -14.05 57.7 -14.45 57.7 -15.15 57.85
Q -15.15 57.7 -15.5 57.65 -16.1 57.55 -16.2 57.5 -16.35 57.4 -16.45 57.25
L -16.8 57.05 -17.9 56.9
Q -18.5 56.9 -18.8 56.6 -18.8 56.5 -18.5 56.6 -18.2 56.65 -18.3 56.5 -18.45 56.45 -18.75 56.5 -19.05 56.55 -19.3 56.5 -19.55 56.45 -20.15 56.1 -20.75 56.05 -20.95 55.95
L -21.4 55.7
Q -21.95 55.55 -22 55.45 -21.95 55.4 -21.65 55.45 -21.35 55.5 -21.3 55.4
L -23.4 54.7 -23.75 54.7
Q -24.15 54.6 -24.7 54.35 -24.95 54.1 -25.5 53.85
L -26.25 53.65 -26.7 53.2 -27 53 -27.35 52.9
Q -27.25 53 -27.25 53.05 -27.3 53.15 -27.4 53.05 -27.75 52.55 -28.1 52.3
L -28.9 51.95
Q -29.7 51.7 -29.75 51.65 -29.9 51.55 -30.05 51.3 -30.2 51.05 -30.45 50.9
L -31.15 50.6
Q -31.2 50.6 -31.5 50.55 -31.7 50.45 -31.7 50.3 -31.65 50.2 -31.4 50.3 -31.1 50.45 -31.05 50.4
L -33.2 48.95 -33.35 48.8
Q -33.5 48.75 -33.5 48.85 -33.45 49 -33.65 48.9
L -34.05 48.65 -35.1 47.75
Q -35.25 47.8 -35.45 47.65 -35.65 47.3 -35.85 47.15
L -36.65 46.65 -37.35 46.05
Q -37.4 45.9 -37.65 45.65
L -39 44.65 -39.25 44.2
Q -39.2 44.15 -39.05 44.2 -38.95 44.3 -38.9 44.3
L -39.25 43.8 -39.7 43.3
Q -40.1 42.8 -40.7 42.4 -41.1 42.4 -41.25 42.3
L -41.85 41.65
Q -42.4 41.2 -42.45 40.95 -42.35 40.8 -42 40.95 -41.65 41.15 -41.55 41.1 -41.95 40.7 -42.2 40.65 -42.4 40.65 -42.75 40.6
L -42.8 40.5 -42.85 40.5 -42.9 40.45 -43 40.4 -43.1 40.25 -43.25 39.95 -43.4 39.5 -43.45 39.45 -43.45 39.4 -43.5 39.35
Q -44.3 38.7 -44.4 38.2
L -43.4 39.05 -42.95 39.55 -42.55 39.9 -42.65 40.05
Q -42.75 40.15 -42.65 40.15
L -42.6 40.2 -42.6 40.25 -42.55 40.25 -42.55 40.3 -42.5 40.35
Q -42.4 40.55 -42.25 40.5 -42.05 40.4 -42 40.45 -41.95 40.45 -41.3 41.25 -40.7 42 -40.25 42.35 -39.95 42.65 -39.5 42.9
L -39.25 43.2
Q -39.1 43.45 -39.05 43.5
L -38.35 44.2 -38.15 44.35
Q -38.05 44.4 -37.75 44.4 -37.55 44.45 -37.4 44.6 -37.25 44.7 -37.25 44.9 -37.35 45 -37.05 45.15 -36.65 45.15 -36.25 45.65 -35.65 46.25 -35.3 46.4 -35.4 46.5 -35.6 46.55
L -33.8 47.45
Q -33.3 47.75 -33.25 48 -32.9 48 -32.65 48.25 -32.45 48.45 -32.1 48.85
L -31.6 49.15
Q -31.55 49.2 -30.75 49.45
L -29.95 49.7 -29.45 50.15 -28.5 50.7 -27.65 51
Q -27.65 51.05 -27.85 51.2 -28 51.25 -27.65 51.4 -27.25 51.6 -27.2 51.45 -27.15 51.3 -27.1 51.3
L -26.55 51.7 -26.35 51.75 -25.4 52.1
Q -25.15 52.35 -24.9 52.45
L -24.55 52.5 -24.15 52.75 -24.05 52.8 -23.9 52.85 -23.6 52.9 -23.1 53.05
Q -22.85 53.35 -22.75 53.35 -21.4 53.6 -20.8 53.9 -20.4 54.25 -20.1 54.35
L -17.55 54.95 -17.25 55.1 -16.75 55.1 -16.4 55.2 -13.45 55.8
Q -13.1 55.7 -12.85 55.8 -12.75 55.95 -12.4 56 -11.7 55.95 -11.3 56
L -10.6 56.2 -8.45 56.35
Q -8.1 56.55 -7.85 56.55
L -6.95 56.45 -6.4 56.5 -6.2 56.6 -5.2 56.55 -5 56.6 -4.8 56.6 -4.1 56.7
Q -4 56.75 -4.05 56.9
L -3.65 56.8 -3.55 56.8 -3.5 56.75 -3.35 56.75 -2.4 56.55 -2.1 56.55 -1.9 56.5 -1.1 56.45
Q -1.05 56.5 -0.95 56.55 -0.7 56.65 -0.25 56.55
L 0.5 56.5
Q 1.45 56.75 2 56.6 1.8 56.45 2 56.4 2.3 56.3 2.95 56.25
L 3.5 56.25 3.95 56.15
Q 4.2 56.1 4.8 55.8
L 7.2 55.45 7.5 55.35 8.4 55.15 9.15 55.1 9.85 54.85 10.6 54.7
Q 10.85 54.6 11.2 54.45 11.45 54.4 12.1 54.3
L 12.65 54.05 15.95 52.95
Q 16.65 52.7 17.9 52
L 18.35 51.9 19 51.5 19.45 51.4
Q 19.85 51.2 20.6 50.6
L 21.1 50.5 24.65 48.35 25.35 48 26.3 47.35 29.1 45.05 29.4 44.85 31.85 42.65 32.1 42.35 32.25 42.25 32.35 42.1 32.85 41.55
Q 32.8 41.5 32.4 41.85 32.05 42.15 31.95 42.05
L 32.5 41.4 33.05 40.9
Q 33.45 40.7 33.15 41.25 33.3 41.15 33.95 40.5
L 34.15 40.3 34.7 39.65 35.2 39.25 35.2 39.1 35.75 38.4 35.8 38.3 35.85 38.25 35.9 38.25 35.95 38.2 37.85 35.75
Q 38.2 35.5 38.45 35.15
L 38.75 34.65 39.25 34.1 39.35 33.95 39.45 33.7
Q 39.55 33.45 39.5 33.4 39.35 33.5 39.15 33.9 38.95 34.2 38.85 34.2
L 40 32.5 40.4 31.75
Q 40.75 31.4 40.85 31.2
L 41.45 30.3 42.95 27.35 43.2 26.3
Q 43.35 25.95 43.8 25
L 44.45 23.35
Q 44.6 23.1 44.55 23.45 44.75 23 44.75 22.45 44.85 22.25 44.9 22.1 45.1 21.9 45.1 22 45 22.45 44.8 22.65 45.1 22.6 45.45 20.9
L 45.55 20.2 45.75 19.5
Q 45.7 19.35 45.55 19.85 45.45 20.35 45.4 20.25
L 45.8 18.75
Q 46.1 17.6 46.2 17.45
L 46.1 18 46.35 16.95
Q 46.55 16.45 46.45 16.2 46.35 17.1 46.2 17.15
L 46.35 16
Q 46.45 15.75 46.35 15.75
L 46.25 16.1 46.15 17.1 46 17.4 45.1 21 44.95 21.3 44.3 23.15 44.25 23.35 42.85 26.55 42.55 27.1 41.85 28.75 41.35 29.45 41 30.1 40.8 30.4 40.35 31.35
Q 40.25 31.55 39.85 32.05
L 39.05 33.15
Q 38.8 33.65 38.45 34
L 38 34.55
Q 37.75 34.8 37.6 35
L 37.15 35.7 36.35 36.7 36.15 36.9
Q 36.05 37.05 35.85 37.4
L 35.45 37.8 34.8 38.7 34.7 38.8 34.65 38.9 34.5 39.1 34.25 39.35 33.65 39.8 32.7 40.7
Q 32.85 40.35 32.4 40.8 32.05 41.1 31.95 41.35 31.65 41.8 31.6 41.85
L 30.95 42.4
Q 30.8 42.55 30.6 42.9
L 28.8 44.4 28.2 44.75 26.05 46.6 25.9 46.6
Q 25.55 46.65 25 47.15
L 22.45 48.85 22.3 48.9 21.85 49.2 20 50.1
Q 19.8 50.15 19 50.7
L 12.15 53.35 11 53.55 9.25 54.05
Q 8.7 53.95 8.35 54.05 8.1 54.35 7.5 54.45
L 4.85 54.95 4.5 54.95 3.55 55.2 2.95 55.15
Q 3 55.2 2.8 55.2 2.25 55.05 1.9 55.2 1.8 55.25 1.8 55.45 1.8 55.6 1.5 55.6 1.4 55.6 1.2 55.5 1 55.4 0.9 55.4 0.65 55.35 0 55.45
L -0.4 55.55 -0.95 55.6 -1.85 55.5 -2.05 55.55 -2.3 55.55 -2.6 55.6 -4.8 55.5 -4.95 55.55 -6 55.6 -6.85 55.4 -8.6 55.25 -9.05 55.25 -9.45 55.2 -10.15 55.2
Q -10.25 55.2 -10.35 55.25 -10.45 55.35 -10.6 55.3 -10.8 55.3 -10.85 55.15 -10.9 55 -11.15 55
L -12.1 55.05
Q -12.45 54.85 -13.05 54.65
L -14.15 54.55 -17.7 53.8
Q -18.4 53.55 -18.55 53.5
L -19.65 53.25 -19.95 53.05 -20.55 52.75 -23 51.95 -24.7 51.1 -25.4 50.9 -26 50.6 -26.3 50.4
Q -26.6 50.3 -27.1 50.25
L -28.4 49.35 -28.75 49.15
Q -29.3 49.05 -29.5 48.95
L -31 47.75
Q -31.25 47.5 -31.6 47.35
L -32.8 46.5 -33.5 46.15
Q -33.75 45.8 -34 45.6
L -35.5 44.7 -36.55 43.8
Q -36.9 43.6 -37.05 43.5
L -37.6 43.2 -38.45 42.35
Q -38.95 41.85 -38.85 41.45
L -31.2 47.05
Q -30.75 47.15 -30.6 47.2 -30.55 47.35 -30.5 47.35
L -30.3 47.35
Q -29.3 47.85 -29 47.75 -28.7 47.8 -28.3 48.05 -27.85 48.3 -27.75 48.3 -27.5 47.75 -27.55 47.3
L -26.75 47.85
Q -26.35 48 -26.05 47.85 -26 47.95 -25.85 48 -25.7 48.05 -25.65 48.05 -25.4 48.25 -25.25 48.5 -25.05 48.65 -24.7 48.7 -24.55 48.75 -24.25 49.05
L -24 49.25 -23.7 49.35
Q -23.5 49.3 -23.75 49.1 -23.9 48.95 -23.7 49 -23.4 49.4 -23.05 49.45
L -22.75 49.6 -22.45 49.7
Q -22.3 49.85 -22.05 49.9
L -21.45 50.05
Q -21.3 50.15 -20.8 50.5
L -20.5 50.65
Q -20.5 50.75 -20.35 50.75
L -20.2 50.8
Q -20.1 50.85 -19.75 50.85 -19.35 50.8 -19.15 50.9 -18.75 51.2 -18.5 51.25 -18.1 51.15 -17.9 51.35 -17.65 51.6 -16.65 51.75
L -15.3 52.15 -15.05 52.25 -14.7 52.3
Q -14.25 52.25 -14 52.3 -13.8 52.5 -13.6 52.55 -13.3 52.5 -13 52.55
L -12.5 52.75 -12 52.85
Q -11.5 52.8 -11.3 52.8 -10.5 52.9 -10.4 52.95
L -10 53.05 -9.6 53.25 -8.9 53.15
Q -8.45 53.05 -8.45 53.25 -8.4 53.35 -8.75 53.4 -7.5 53.5 -7.4 53.25 -7.4 53.4 -6.85 53.5
L -6.3 53.6 -5.7 53.6 -5 53.5 -4.75 53.5 -3.8 53.65 -2.1 53.6 -2.05 53.55 -1.3 53.55
Q -0.8 53.7 -0.6 53.65 -0.4 53.55 -0.15 53.55 0 53.65 0.2 53.6
L 0.8 53.4
Q 0.9 53.4 1.15 53.5 1.4 53.55 1.5 53.5 1.55 53.35 1.15 53.4 0.75 53.4 0.9 53.2 1.2 53.15 2.15 53.15 2.65 53.15 3.2 52.95 3.4 53 3.3 53.1 3.2 53.2 3.35 53.2 3.4 53.1 3.85 53
L 4.25 52.95 4.6 52.85 6.6 52.65
Q 6.6 52.75 6.2 52.8 5.8 52.85 5.95 53
L 6.85 52.85 7.05 52.8 7.3 52.7 7.75 52.6 8.4 52.65
Q 8.75 52.65 8.9 52.5 9.15 52.4 8.85 52.35
L 8.45 52.35
Q 8.5 52.2 8.85 52.15 9.45 52.05 9.55 52 9.8 51.9 10.05 51.7
L 10.55 51.8 11 51.65
Q 11.2 51.6 11.1 51.75
L 9.95 52
Q 9.4 52.15 9.35 52.5
L 15.3 50.65
Q 15.45 50.45 15.1 50.45 14.75 50.4 14.75 50.25
L 15.65 49.9
Q 15.65 49.95 15.55 50.05 15.4 50.15 15.5 50.2
L 19.3 48.6 21.15 47.6 21.8 47.1
Q 21.8 47.25 22 47.15 22.2 47.1 22.2 47.2 21.7 47.6 21.75 47.6 22.4 47.35 23.25 46.8 23.45 46.7 24 46.1
L 24.6 45.7 24.9 45.35 25.4 45
Q 25.6 44.7 25.8 44.6
L 27 43.85
Q 27.15 43.75 27 43.75 26.9 43.7 27.1 43.5 27.3 43.5 27.75 43.2 27.95 43.2 28.05 43.1
L 28.35 42.8 29.4 42.1 30.1 41.4 30.3 41.15 30.55 41 30.8 40.7 31.3 40.4
Q 31.3 40.2 31.45 40.1 31.85 39.95 32 39.7 32.05 39.6 31.85 39.65 31.7 39.7 31.85 39.5
L 32.4 39.05
Q 32.75 38.75 32.9 38.6 33.35 38 33.55 37.8 33.6 37.95 33.75 37.8 33.75 37.75 33.75 37.65 33.8 37.45 33.9 37.4 34 37.35 34 37.4 34 37.5 34.05 37.55
L 34.5 37.1 34.55 37 34.65 36.9 36.35 34.95
Q 37 34.1 37.05 33.9 37.276953125 33.6119140625 37.55 33.1
L 37.8 32.75 38.1 32.45
Q 38.25 32.2 38.45 31.85 38.5 31.85 38.5 32.05
L 38.95 31.2 39.4 30.65
Q 39.9 29.85 40.8 28.1
L 41.4 27.15 41.4 27 43.1 23.65 43.3 22.95 43.45 22.75 44.9 18.3 45.4 15.85 45 17.45
Q 44.95 17.6 44.85 17.8
L 44.85 17.95 44.4 19.5
Q 44.15 20.1 44.05 20.15
L 44.7 18.15 44.75 17.8 45.55 14.7 45.55 14.45 46.05 11.25 46.05 11.1 46.1 10.9 46.2 9.05
Q 46.35 8.1 46.2 8.25
L 46.2 8.65 45.7 13.3 45.6 13.65 45.55 14 44.55 18.3 44.15 19.15 43.85 20.2 43.75 20.45 43.7 20.65 42.4 23.75 42.25 24 41.9 24.85 40.6 27.3 39.7 28.85
Q 39.5 29.05 39.35 29.25
L 39.15 29.8
Q 39.15 29.75 38.9 30.1
L 38.7 30.45 37 32.65 36.5 33.1 35.9 33.85 35.7 34.15 35.35 34.45
Q 35.25 34.65 35.1 35
L 34.1 36.2 34.05 36.3 34 36.3 34 36.35 33.9 36.5 33.05 37.35 32.85 37.5 32.15 38.2 31.9 38.55 31.2 39.05 28.95 41.1 28.4 41.45 25.6 43.55 25.25 43.7 24.35 44.3 23.9 44.75 22.3 45.65 21.9 46.05 21 46.5 20.35 46.7 19.5 47.3 18.7 47.55 18.1 47.9
Q 17.95 48 17.6 48.1
L 16.05 48.8 15.45 48.9 14.8 49.15 14.1 49.25
Q 14.2 49.25 13.75 49.45
L 13.2 49.7 12.55 49.9 12.5 49.75
Q 12.25 49.75 11.75 50
L 11.3 50.2 10.6 50.25 10.25 50.5 9.95 50.5 9.7 50.65 9.35 50.75 8.4 50.9
Q 7.6 51 7.5 51.05 7 51.3 6.8 51.3 6.6 51.2 6.4 51.25 6.1 51.4 5.85 51.4
L 5.25 51.4 4.35 51.5 3.6 51.7
Q 3.2 51.6 2.9 51.65 2.65 51.7 2.5 51.8 2.4 51.85 2.2 51.75 2.05 51.65 1.3 51.75
L 0 51.85 -1.05 51.7 -1.35 51.7 -2.15 51.9 -4.9 51.85 -5.05 51.8
Q -5.25 51.8 -5.6 51.65
L -7.15 51.55 -7.4 51.7 -7.7 51.75
Q -8.05 51.75 -8.8 51.45 -9.2 51.35 -10.05 51.3
L -10.45 51.1 -13.1 50.6 -13.85 50.3 -15.65 50 -16.55 49.6 -17.1 49.55
Q -17.35 49.45 -17.45 49.3 -18 49.25 -18.3 49.1
L -19.35 48.8 -20.6 48.25 -20.75 48.2 -21.65 47.8
Q -21.75 47.85 -21.95 47.75 -22.05 47.6 -22.3 47.45
L -22.9 47.15
Q -23.2 47.05 -23.25 46.95
L -24.1 46.3
Q -24.7 46 -25 46.05 -25.2 45.7 -25.5 45.55
L -26.2 45.35
Q -26.55 45.25 -26.85 45.05
L -28.2 44.1 -28.1 43.95
Q -28.2 43.8 -28.75 43.55
L -29.5 43.3 -30.1 42.7 -30.6 42.45 -31.1 42.1 -32.6 40.85
Q -33.05 40.65 -33.2 40.5 -33.35 40.35 -33.35 40.25
L -33.55 40 -34.1 39.6
Q -33.9 39.45 -33.9 39.2
L -34.25 38.9
Q -34.5 38.8 -34.4 38.7 -34.25 38.6 -33.95 38.8
L -33.45 39.25 -32.05 40.1 -31.85 40.45 -31.55 40.8 -30.9 41.25
Q -30.45 41.35 -30.35 41.45
L -29.9 41.85 -29.7 41.9
Q -29.8 41.8 -29.85 41.6 -29.9 41.4 -29.75 41.45 -29.35 41.55 -29.2 41.9 -28.95 42.35 -28.9 42.4 -28.8 42.5 -28.65 42.5 -28.4 42.65 -28.3 42.7 -28.15 42.8 -27.95 42.7 -28.25 42.55 -28.4 42.4 -28.55 42.2 -28.3 42.2 -28 42.4 -27.9 42.7
L -27.75 43 -27.5 43.25 -26.4 43.8 -26.1 44.05 -24.6 44.95 -24.3 45.25
Q -24.2 44.9 -23.65 45.1
L -22.9 45.55 -23 45.65 -22.75 45.8 -22.7 46.05 -22.25 46.3 -21.85 46.45
Q -21.85 46.3 -21.5 45.95
L -21.25 46.1 -21.2 46.25
Q -21.2 46.4 -21.5 46.3
L -21.2 46.45
Q -21.05 46.5 -21 46.45
L -20.8 46.35 -20.35 46.4
Q -20.1 46.5 -20.05 46.7
L -20.4 46.65 -20.6 46.65
Q -20.35 47 -19.35 47.15 -19 47.4 -18.75 47.5 -18.6 47.4 -18.45 47.45
L -18 47.75 -16.85 48.2 -16.2 48.35 -15.45 48.3 -13.75 48.6 -12.75 49.15
Q -12.15 48.95 -11.75 48.95 -11.65 49.2 -10.95 49.15
L -10.7 49.35
Q -10.5 49.45 -10 49.45
L -9.25 49.45
Q -9.1 49.75 -8.6 49.75 -8.55 49.65 -8.75 49.5 -8.9 49.45 -8.55 49.45 -8.3 49.5 -8.4 49.65 -8.5 49.9 -8.2 49.95 -7.75 50 -7.75 49.8 -7.8 49.6 -7.75 49.55 -7.5 49.5 -7.35 49.65 -7.15 49.9 -7.1 49.9
L -6.45 49.9
Q -6.35 50.05 -6.05 50.1
L -5.4 50.05 -3.5 50.2 -3 50.2 -2.7 50.25 -2.25 50.15 -2.1 50.15 -1.95 50.1 -0.55 49.95
Q -0.45 50.05 -0.45 50.1 -0.55 50.2 -0.55 50.25 -0.25 50.25 -0.25 50.1 -0.25 50 0 49.95 0.4 49.8 1.1 49.9
L 1.7 49.9 2.2 49.8
Q 2.25 49.9 2.1 50.05 2.35 50.15 2.85 50.05
L 3.9 49.75 4.1 49.75 4.25 49.7 4.75 49.6
Q 4.95 49.6 5.3 49.65
L 5.95 49.4 7.3 49.25
Q 7.5 49.2 7.8 49.05
L 9.15 48.9 10.05 48.65 10.75 48.6
Q 10.95 48.5 11.35 48.25 11.4 48.35 12.1 48.25
L 13.1 47.95 13.7 47.55
Q 14.05 47.5 14.35 47.35
L 15.75 46.75 16.2 46.5
Q 15.7 46.9 16.25 46.75 16.55 46.6 16.5 46.5 16.4 46.45 16.45 46.4 16.9 46.2 17.4 45.95
L 17.7 45.95 17.95 45.8
Q 18.6486328125 45.600390625 18.65 45.4 18.6521484375 45.4994140625 19.2 45.35 19.9 44.55 20.65 44.35 20.7 44.3 20.7 44.45 20.8 44.5 21.15 44.25
L 21.65 43.9
Q 21.9 43.85 22.15 43.65
L 22.55 43.35
Q 22.75 43.15 22.9 43.1
L 24.75 42.05 25.2 41.65 25.45 41.5 30.5 37.2 31.15 36.5
Q 31.4 36.55 31.65 36.3
L 31.8 35.95 31.95 35.75 32.7 35 32.75 35 32.75 34.95 34.3 33.25 34.75 32.65 35.05 32.35 35.5 31.55 36.45 30.5 36.65 30.2 36.9 29.95 37.25 29.4 36.6 30.05 36.35 30.2
Q 36.05 30.95 35.8 30.95 36.15 30.55 36.45 29.9 36.55 29.7 36.8 29.5
L 37.2 28.85 37.7 28.25 38 27.65
Q 38.45 27.05 38.3 27.05
L 33.8 33.05 33 33.7 32.55 34.15 32.35 34.4 32.3 34.5 32.25 34.5 32.25 34.55 32.15 34.7 31.25 35.65
Q 31.05 35.85 30.75 36.1
L 30.25 36.7
Q 30.1 36.8 29.65 37.05 29.55 37.15 28.8 37.85
L 27.55 38.85 27.1 39.3
Q 26.85 39.5 26.3 39.75
L 24.95 40.8 24.85 40.9 20.9 43.4 19.7 43.9
Q 19.15 44.25 18.8 44.45
L 17.2 45.15 16.75 45.3 16.55 45.4 13.5 46.6 13.1 46.65 12.35 46.85
Q 12.1 47 11.85 47.05
L 9.85 47.55 9.55 47.65 8.65 47.8 8 48 7.45 47.95
Q 7.25 48.1 7.05 48.1
L 5.9 48.3
Q 5.6 48.25 5.5 48.25
L 3.05 48.65 2.25 48.95
Q 2.05 48.8 1.8 48.8
L 1.5 48.75 1.25 48.75 0.6 48.85 0.25 48.85 -0.05 48.9 -1.15 48.9 -1.5 48.85
Q -1.75 48.85 -2.05 48.75
L -2.15 48.8 -2.2 48.8 -2.2 48.85 -2.3 48.85 -2.45 48.9
Q -2.75 48.85 -3.1 48.75
L -4.6 48.8 -5.75 48.7 -6.1 48.6
Q -5.9 48.4 -6 48.25 -6.2 48 -6.2 47.9
L -7.15 47.8
Q -7.65 47.65 -7.7 47.45
L -4.65 47.8 -3.6 47.65
Q -3.35 47.75 -3.05 47.7
L -2.85 47.65 -2.85 47.6 -2.7 47.6 -2.6 47.65 -2.45 47.75 -1.8 47.75 -1.55 47.65 -1.5 47.6 -1.4 47.6 -0.65 47.55
Q -1.2 47.6 -0.65 47.65
L -0.65 47.6 -0.6 47.6 -0.55 47.55 -0.45 47.55 -0.4 47.6 -0.35 47.7 0 47.65 0.25 47.55 1.5 47.5 5.6 47 5.25 47.1 4.8 47.15
Q 4.2 47.25 4.2 47.45 4.6 47.3 5.1 47.35 5.3 47.3 5.6 47.15
L 6.2 47.1
Q 6.55 47.1 6.75 46.9
L 6.2 46.9 7.35 46.7 12.05 45.5 12.2 45.5 12.7 45.35 12.4 45.4 15 44.45 15.3 44.3 15.65 44.2 19.95 42.15
Q 20 42.1 20.05 42.1
L 20.3 41.95
Q 20.35 41.95 20.75 41.75 20.9 41.55 21.4 41.3
L 23.25 40.2 23.65 39.9 24 39.7 24.3 39.45 25.45 38.65 25.75 38.4 25.95 38.3 26.05 38.2 28.4 36.2 28.65 36.05 28.9 35.8 29.4 35.4 30.65 34.15 31.25 33.65 31.3 33.55 31.4 33.5 33.7 31 33.85 30.8 34.05 30.65 38.55 24.45 38.65 24.2 38.95 23.8 41.3 19.3 42.95 15 44.35 9.5 44.35 9.25 44.55 8.4 45.05 3.85 45.05 3.7 45.1 3.55 45.15 0.45 45.1 0.6
Q 45.1 0 45.05 0.1
L 44.55 7.2 44.35 8.2
Q 44.05 10 43.7 11.35
L 43 13.95 42.95 14.25 40.3 20.9 39.7 22 39.6 22.25 39.45 22.45 37.9 25.05 37.65 25.35 37.1 26.3 36.9 26.5 35.85 27.85 39.55 22.05 39.75 21.55 39.9 21.3 39.95 21.15 40.45 20.1
Q 40.55 20 40.65 19.65
L 40.95 19.1 41.35 17.9 41.25 18.05 41.2 18.1
Q 41.25 18.025 41.25 17.95
L 38.15 24 34.75 28.9 29.95 34.1
Q 29.9 34.2 29.65 34.35
L 29.3 34.75 29 34.95
Q 28.7 35.25 26.6 37.05
L 26.5 37.15 26.35 37.25 26.15 37.45 24.5 38.65 24.05 38.9 22.75 39.8 22.55 39.9 22.15 40.15 21.9 40.35 16.95 42.95 16.85 43.05 14.5 44 14.1 44.1 11.4 45
Q 11.2 45.1 10.8 45.2
L 2.5 46.7 2.2 46.7 1.6 46.8 -2.15 46.9 -2.15 46.85 -3.45 46.85 -3.95 46.8 -4.95 46.8
Q -5.5 46.8 -5.8 46.75
L -6.7 46.65 -7.1 46.65 -9.35 46.4 -14.6 45.3 -14.8 45.2 -15.05 45.15 -15.9 44.9 -16 44.8 -16.45 44.65
Q -16.5 44.65 -16.45 44.6
L -17.85 44 -18.3 43.85 -18.85 43.55 -19.45 43.35 -21.05 42.55
Q -21 42.5 -21.1 42.45
L -21.85 41.95 -23.65 41.1 -28.15 38.25 -28.45 38 -28.6 37.9 -28.75 37.75 -29.65 37.1 -29.9 36.85 -30.45 36.45 -34.4 32.75 -34.6 32.6 -34.65 32.5 -34.8 32.35 -35 32.1 -36.35 30.65
Q -36.55 30.4 -37 29.9
L -36 30.9 -35.65 31.35 -34.6 32.4 -34.6 32.45 -34.55 32.45 -34.35 32.7 -33.05 33.85 -32.55 34.4 -30.35 36.2 -30.25 36.3 -30.1 36.4 -29.6 36.85 -29.4 37 -29.15 37.1 -28.4 37.65 -28.25 37.8 -27.95 38 -27.6 38.3 -27.25 38.45 -27.15 38.55 -26.3 39.05
Q -24.75 40.1 -22.8 41.1
L -17.25 43.45 -11.9 44.95 -11.4 45 -9.7 45.35 -9.1 45.4 -8.5 45.55 -6.9 45.75
Q -6.3 45.8 -3.45 45.95 -3.15 46 -2.3 46
L -2 46 -1.65 46.05 2.15 45.95
Q 3.55 45.9 4.35 45.7 4.35 45.65 4.2 45.6 4.05 45.55 4.2 45.5
L 4.55 45.45 4.7 45.45 4.9 45.4 5.45 45.35
Q 5.4984375 45.3984375 5.55 45.4
L 6.45 45.35 8.4 44.95
Q 8.65 44.85 8.6 44.8
L 11 44.1 11.25 44 11.45 43.85
Q 11.5 43.8 11.45 43.75
L 11.4 43.75 11.5 43.7 11.4 43.6 8.25 44.3 7.65 44.5 1.6 45.35 1.2 45.35 0.85 45.4 -2.15 45.45 -2.3 45.5 -3.3 45.5 -3.55 45.45 -3.8 45.45 -4.25 45.5 -4.55 45.45 -5.85 45.4
Q -6.45 45.3 -6.6 45.3
L -6.85 45.3 -7.45 45.2 -7.8 45.2 -9 45.05 -15.15 43.75 -19.85 42.05 -20.45 41.75 -20.6 41.7 -20.75 41.6 -22.35 40.8 -22.65 40.7 -25.75 38.9 -26.1 38.65 -27.15 38.1
Q -27.3 37.95 -27.2 37.95
L -28.95 36.8
Q -29.45 36.3 -29.7 36.15
L -29.3 36.5 -30 35.95 -34 32.35 -34.4 31.9 -34.8 31.55 -34.95 31.35 -37.4 28.7 -40.75 24.15 -42.1 21.9 -42.3 21.6 -44.35 17.45 -45.65 13.75 -45.85 13.3 -45.95 12.7 -46.35 11.25 -47.35 5.6 -47.35 5.2 -47.55 4.15
Q -47.5 4.2 -47.5 3.8
L -47.55 3.5 -47.55 3.3 -47.65 2.45 -47.6 1.6 -47.65 1.2 -47.65 -1.8 -47.6 -2.1 -47.35 -5.5 -47.35 -5.8 -47.3 -6.1 -47.25 -6.85 -47.15 -7.2 -46.9 -9 -45.55 -14.4 -45.4 -14.75
Q -45.5 -14.4 -45.5 -14.35
L -45.1 -15.4 -45 -15.75
Q -44.95 -15.9 -44.95 -16
L -44.65 -16.85 -43.1 -20.2 -43 -20.5 -42.65 -21.2 -42.55 -21.3 -42.5 -21.45 -42.1 -22.2 -41.7 -22.7 -41.7 -22.85
Q -41.3 -23.35 -40.85 -24.15
L -39.85 -25.6
Q -40 -25.5 -39.6 -26.05 -39.7 -25.85 -39.5 -26.1 -39.05 -26.6 -38.85 -26.95
L -37.65 -28.5 -37.35 -28.8 -35.2 -31.3 -35 -31.6 -34.45 -32.15 -34.45 -32.2 -34.35 -32.25 -30.65 -35.65 -30.25 -35.95 -30 -36.2 -29.55 -36.45 -29.3 -36.7
Q -28.8 -37.15 -28.5 -37.25
L -28.35 -37.3 -28.05 -37.55 -27.95 -37.6
Q -27.95 -37.65 -28.3 -37.45
L -27.45 -38.05 -27.25 -38.15 -26.2 -38.9 -26.05 -38.95 -26.7 -38.35 -27.15 -38.1 -28.1 -37.4 -28.45 -37.2 -30.35 -35.65
Q -30 -35.9 -30.4 -35.55
L -31.2 -34.95 -35.15 -31.15 -35.3 -30.95 -35.5 -30.8
Q -35.05 -31.18046875 -35.05 -31.1
L -36.1 -29.95 -36.4 -29.55 -36.8 -29.2
Q -37.2 -28.8 -37.25 -28.65
L -36.8 -29.1
Q -36.7 -29.1 -37 -28.75 -37 -28.8 -37 -28.85 -37 -28.9 -37.2 -28.65 -37.5 -28.25 -37.15 -28.55
L -37.55 -28.1 -37.6 -28.15 -39.35 -25.75 -39.45 -25.55
Q -39.65 -25.25 -40 -24.75 -40.15 -24.55 -40.4 -24.15
L -40.1 -24.7 -41.15 -23.05 -41.3 -22.85
Q -41.35 -22.75 -41.25 -22.8 -41.2 -22.8 -41.35 -22.6
L -43 -19.45 -43.4 -18.35 -43.8 -17.6 -44.35 -16.15 -44.4 -15.9 -44.3 -16.2 -44.2 -16.3 -44.35 -15.8 -44.5 -15.5
Q -44.4 -16.1 -44.55 -15.55
L -44.7 -15.2 -45.25 -13.35
Q -45.2 -13.25 -45.3 -12.9
L -45.7 -11.5 -45.75 -11 -45.9 -10.65 -46.1 -9.85 -46 -10 -45.95 -10.1
Q -45.95 -10.05 -46 -9.95
L -46.15 -9.2
Q -46.2 -9.25 -46.2 -9.5
L -46.3 -8.85
Q -46.4 -8.5 -46.3 -8.5
L -46.25 -8.85 -46.15 -9.1 -46.8 -5.05 -46.8 -4.6 -46.9 -3.95 -46.85 -3.7 -46.9 -3.3 -46.95 -1.75
Q -46.85 -1.6 -46.95 -1.2
L -46.95 -0.55
Q -46.85 -0.55 -46.85 -0.4
L -46.9 0 -46.75 3.85 -46.65 4.35 -46.65 4.85 -46.6 4.75 -46.55 4.85 -46.4 6.45 -46.3 6.8 -46.15 7.85 -46.15 8.3 -46.05 8.7 -46 9.15 -45.95 9.05 -45.9 9.15 -45.55 10.65 -45.5 11.15 -45.3 11.7 -45.25 12 -43.95 16.05 -43.85 16.15 -43.75 16.35 -42.45 19.35 -42.2 19.8 -42.1 20.05 -41.95 20.25 -40.25 23.1 -40.05 23.55 -39.85 23.7 -39.6 24.1 -39.05 24.75 -38.75 25.25 -37.95 26.3
Q -37.996875 26.346875 -38.1 26.25 -37.7958984375 26.555078125 -37.6 26.8
L -37.3 27.3 -36.7 27.95
Q -36.55 28.2 -36.55 28.1
L -37.6 26.65 -36.05 28.65 -35.75 28.85 -34.65 30.1 -34.4 30.3 -34.3 30.4 -34.1 30.55
Q -33.85 30.85 -33.85 30.95 -33.85 31.05 -34.15 30.75
L -34.3 30.6 -34.35 30.5 -34.95 29.85 -35.2 29.65 -35.1 29.75 -35.05 29.85 -34.5 30.4 -34.45 30.5 -34.35 30.55 -34.2 30.75 -33.65 31.2 -33.55 31.25 -33 31.75
Q -33.34140625 31.4703125 -33.15 31.7
L -32.05 32.7 -31.85 32.85 -29.9 34.55
Q -29.35 35 -29.3 34.95
L -29.85 34.5 -29.9 34.4 -30.5 33.95 -30.7 33.7 -33 31.65 -33.2 31.4 -33.3 31.3 -33.4 31.25 -33.4 31.2 -34.1 30.5 -34.2 30.35 -34.9 29.7 -36.8 27.55
Q -37.1 27.2 -38.6 25.15
L -39.1 24.5 -42.1 19.5 -43.8 15.65 -44.1 14.7 -44.35 14.15 -45.3 10.85 -45.4 10.25
Q -45.5 10.15 -45.55 9.9
L -46.25 5.75 -46.25 5.55
Q -46.25 5.5 -46.4 4.1
L -46.6 1.35 -46.55 0.75 -46.6 0.25 -46.65 -2.3 -46.6 -2.6 -46.5 -4.9 -45.85 -9.4
Q -45.8 -9.35 -45.65 -9.85 -45.65 -9.95 -45.75 -9.85
L -45.75 -10
Q -45.55 -10.5 -45.4 -11.4
L -44.85 -13.6 -44.65 -14.15 -44.55 -14.65 -44.35 -15.1 -44.2 -15.65 -43.75 -16.5
Q -43.65 -16.85 -43.95 -16.3
L -42 -20.7
Q -41.95 -20.9 -41.65 -21.35
L -41.45 -21.75 -41.4 -21.9 -41.25 -22.1
Q -41.15 -22.3 -40.8 -22.8
L -40 -24.15
Q -39.65 -24.9 -39 -25.7
L -38.7 -26.05 -38.4 -26.55 -34.35 -31.45 -34.1 -31.65 -34.05 -31.7 -33.95 -31.7 -33.15 -32.55
Q -33 -32.65 -32.85 -32.9
L -31.1 -34.6 -30.8 -34.8 -30.65 -35 -30.5 -35.05 -29.95 -35.5 -29.85 -35.65 -29.7 -35.75 -29.5 -35.95 -29.1 -36.2 -28.8 -36.45
Q -28.4 -36.7 -28.4 -36.75
L -28.65 -36.6 -28.3 -36.9 -27.15 -37.7 -26.8 -38 -26.45 -38.2 -26.25 -38.35 -26.05 -38.45 -24.55 -39.45 -24.3 -39.55
Q -24.9 -39.2 -24.7 -39.25
L -23.85 -39.75
Q -23.95 -39.75 -23.55 -40
L -22.95 -40.4 -22.65 -40.5 -22.55 -40.6 -22.4 -40.65 -21.55 -41.15 -20.1 -41.75 -19.7 -42 -17.5 -42.9
Q -17.25 -42.9 -17.15 -42.95
L -16.5 -43.25 -12.4 -44.45 -11.9 -44.5 -12.25 -44.4
Q -12.4 -44.4 -12.45 -44.35
L -7.75 -45.25 -7.4 -45.25 -6.15 -45.4 -6.05 -45.45 -5.3 -45.55
Q -5.1 -45.5 -4.45 -45.55 -4.85 -45.55 -4.55 -45.6
L -3.45 -45.7 0.45 -45.7
Q 1.45 -45.65 1.45 -45.6 1.6 -45.7 2.35 -45.6
L 4.7 -45.4 5.15 -45.3 5.8 -45.25 6.25 -45.15 6.9 -45.1 7.9 -44.9 8.2 -44.8 9.55 -44.55 10.15 -44.35 10.1 -44.45 10.3 -44.4
Q 10.6 -44.3 11.25 -44.05 11.55 -44 11.5 -44.05
L 12.2 -43.85 12.55 -43.7 14.2 -43.2 14.4 -43.05 16.5 -42.25 16.7 -42.1
Q 17.5 -41.8 17.5 -41.75 17.75 -41.75 18.1 -41.55
L 18.65 -41.25
Q 18.85 -41.15 18.8 -41.25
L 19.45 -40.9 19.45 -40.85 20.75 -40.15
Q 20.65 -40.25 21 -40.05
L 21.65 -39.7
Q 21.85 -39.5 22.25 -39.25
L 22.45 -39.2 25.95 -36.75
Q 25.9 -36.85 26.3 -36.55 26.3 -36.45 26.35 -36.4
L 28.65 -34.5
Q 28.4 -34.8 28.7 -34.55
L 30.55 -32.85 30.6 -32.75 30.65 -32.75 36 -26.6 37.5 -24.45 39.4 -20.95 39.5 -20.7 39.65 -20.5 39.9 -20.05 39.8 -20.25 40 -19.95 40.05 -19.75 40.15 -19.6 40.15 -19.8
Q 40.05 -19.95 40.2 -19.9
L 40.55 -19.25
Q 40.6265625 -19.1734375 40.5 -19.5
L 40.95 -18.55
Q 41 -18.55 41 -18.6 41 -18.55 41.2 -18.15 41.25 -18.15 41.2 -18.4
L 43.25 -12.6 43.25 -12.45 44 -9.45 44.1 -9.25
Q 44.05 -9.55 44.05 -9.6 44.090625 -9.6 44.1 -9.4 44.0662109375 -9.812109375 44.2 -9.5
L 44.1 -10.15 44.1 -10.3 43.5 -12.95 43.45 -13.25 43.65 -12.9 43.5 -13.45 43.5 -13.65 43.25 -14.55
Q 43.35 -15.05 43.55 -14.4
L 44.25 -12.05
Q 44.35 -12.3 44.45 -11.8
L 45.15 -8 45.2 -7.35 45.3 -6.85 45.6 -1.95 45.65 -2.3 45.65 -4.15
Q 45.65 -4.4 45.6 -4.4
L 45.45 -6.35 45.5 -6.35
Q 45.5 -6.45 45.4 -7.25 45.4 -7.3 45.3 -8.4
L 45.1 -9.85 45.1 -10.1 45 -10.65 44.85 -11.1 44.8 -11.6 44.7 -12 44.7 -12.55 44.65 -12.8 44.65 -13.15 44.3 -15.05 44.4 -14.9 44.4 -15.2
Q 44.4 -15.3 44.5 -15.4
L 44.35 -16.3 44.35 -16.6 44.4 -16.9 44.3 -17.4 44.35 -17.3 44.2 -17.8
Q 44.2 -17.85 44.3 -17.7
L 44.15 -18.4 44.2 -18.55 44 -19.05
Q 44 -19.3 43.95 -19.45
L 43.7 -19.95 43.65 -20.2 43.3 -21.4 43.2 -21.5 43 -22 42.7 -22.3 42.5 -22.6 42.4 -22.6
Q 42.4 -22.65 42.3 -22.85 42.2 -22.85 42.2 -22.65
L 41.7 -23.45
Q 41.65 -23.05 41.45 -23.3 41.4 -23.6 41.05 -24.35
L 41.1 -24.5 40.2 -26.35 40 -26.5
Q 39.85 -26.95 39.7 -27.1
L 39.1 -27.55 38.9 -27.85
Q 38.7 -27.9 38.45 -28.25 38.2 -28.8 38 -29.05
L 37.8 -29.35 37.5 -29.7 36.1 -31.8 35.75 -32.2 35.65 -32.35 35.25 -32.8 34.15 -34.4 34.05 -34.45 34 -34.5 33.4 -35.3 33.35 -35.4 33.3 -35.4 33.3 -35.45 33.2 -35.55 33.15 -35.65
Q 33 -35.8 32.5 -36.2
L 31.6 -37.55 31.05 -38 30.7 -38.4 29.75 -39.15
Q 29.35 -39.45 29.25 -39.65
L 29.05 -39.9 28 -40.65 27.65 -41.1
Q 27.4 -41.35 26.65 -41.8
L 26 -42.3 24.65 -43.55 23.75 -43.95 23.15 -44.55 23 -44.65 22.8 -44.75 21.65 -45.55
Q 21.35 -45.8 21 -46.15
L 19.5 -46.95
Q 19.35 -47 19.3 -47 19.25 -46.95 19.1 -47.05 18.8 -47.2 17.75 -47.4
L 17.5 -47.65
Q 17.286328125 -47.7923828125 17.15 -47.8 17.35 -47.8662109375 17.35 -47.95 17 -48.25 16.75 -48.4
L 15.7 -48.75
Q 15.15 -49.05 15.05 -48.95 14.9 -49 14.75 -49.2 14.65 -49.35 14.45 -49.4 14.45 -49.25 14.45 -49.2 14.45 -49.15 14.2 -49.2 14.05 -49.5 13.45 -49.65
L 10.6 -50.7 9.85 -50.85 9.2 -50.75
Q 8.9 -50.65 8.55 -50.85 8.55 -50.9 8.75 -50.9 8.9 -50.9 8.85 -51
L 8.15 -51.15
Q 7.9 -51.25 7.75 -51.15 7.35 -51.05 7 -51.1 6.95 -51.25 7.35 -51.25
L 7.1 -51.35
Q 6.9 -51.45 6.95 -51.55
L 7.95 -51.4 8.2 -51.4 8.8 -51.25
Q 8.95 -51.25 9.2 -51.1
L 9.75 -51.1 11.95 -50.45
Q 12.2 -50.4 12.65 -50.35
L 14.3 -49.75 14.5 -49.7 16.65 -48.85 17.2 -48.75 18.15 -48.35 18.85 -48.2 18.95 -48.05 19.2 -48
Q 19.05 -48.3 19.45 -48.3 20 -48.3 20.05 -48.4
L 18.55 -49.35 18.3 -49.4 17.55 -49.65 16.95 -50.05
Q 16.8 -50.15 16.15 -50.4
L 15.75 -50.65 12.55 -51.6 12.15 -51.85 11.75 -52 9.45 -52.45 8.75 -52.7 8.4 -52.75 8.05 -52.75 0.6 -53.85 0.15 -53.85 -0.6 -53.75 -1 -53.75 -2.05 -53.9 -2.1 -53.95 -2.5 -53.95
Q -2.8 -54 -3.45 -54
L -7.7 -53.85
Q -7.95 -53.85 -8.6 -53.9
L -9.05 -53.75
Q -9.5 -53.6 -9.6 -53.6 -9.8 -53.75 -10 -53.65 -10.2 -53.7 -10.1 -53.8 -10.05 -53.95 -10.2 -54 -10.6 -54 -10.6 -53.8 -10.7 -53.6 -10.9 -53.55 -11.1 -53.6 -11.4 -53.5
L -11.75 -53.45
Q -11.8 -53.45 -11.9 -53.55 -12 -53.65 -12.25 -53.6 -12.55 -53.55 -12.45 -53.45 -12.3 -53.3 -12.5 -53.25
L -12.85 -53.3 -13.3 -53.2
Q -14.2 -53.05 -14.25 -53.05
L -15 -53.15 -15.4 -52.95 -15.6 -52.95 -15.8 -52.9 -16.15 -52.9
Q -16.5 -52.8 -17 -52.6 -17.25 -52.55 -17.2 -52.7 -17.4 -52.8 -17.85 -52.7
L -18.15 -52.6 -18.5 -52.4
Q -19.4 -51.95 -19.45 -51.95 -19.55 -51.95 -19.2 -52.2
L -19.5 -52.05 -19.8 -51.8
Q -20.05 -51.65 -20.35 -51.75 -20.15 -51.85 -19.8 -52 -20.25 -52 -20.55 -51.7 -21 -51.3 -21.1 -51.25
L -21.75 -51.05 -22.1 -50.9 -22.5 -50.8 -24.35 -50.15
Q -24.5 -50.1 -24.75 -50.15 -25.05 -50.15 -25.15 -50.15
L -25.55 -50 -25.8 -49.95
M -16.3 -50.7
Q -16.65 -50.5 -17.2 -50.4 -17.85 -50.2 -17.9 -50.45 -17.65 -50.6 -17.5 -50.65 -17.2 -50.55 -17.15 -50.55 -16.9 -50.7 -16.7 -50.75 -16.35 -50.9 -16.3 -50.7
M -6.35 -51.95
Q -6.6 -51.9 -6.5 -51.75 -6.95 -51.8 -6.7 -52 -6.35 -52.25 -6.1 -52.05 -6.1 -52 -6.35 -51.95
M -2.45 -52.65
L -2.45 -52.8 -1.5 -52.75 -1.5 -52.65 -2.45 -52.65
M -3.15 -51.3
Q -3.35 -51.35 -3.3 -51.45 -2.6 -51.45 -2.45 -51.15 -3 -51.15 -3 -51.1 -3.15 -51.1 -3 -51.15 -2.9 -51.3 -3.15 -51.3
M -44.95 -32.8
Q -44.8 -33.05 -44.75 -32.85 -44.9 -32.55 -45.25 -32.35 -45.75 -32.55 -45.25 -33.05 -45.3 -32.8 -45.2 -32.65 -45.15 -32.6 -44.95 -32.8
M -42.25 -31.05
Q -42.1 -31.25 -42.25 -31.2 -42.5 -31.15 -42.5 -31.25 -42.05 -31.35 -41.25 -32.15 -40.3 -33.15 -39.75 -33.75
L -38.5 -35
Q -38.3 -35.4 -38.2 -35.5
L -38.05 -35.6 -38 -35.65 -37.85 -35.65 -37.55 -35.8 -36.95 -36.4 -36.7 -36.55 -35.4 -37.8 -35.1 -38.25
Q -34.85 -38.6 -34.55 -38.7 -34.45 -38.75 -34.25 -38.75 -34 -38.95 -33.65 -39.35
L -33.05 -39.65
Q -32.45 -39.85 -32.45 -39.75 -32.6 -39.5 -32.85 -39.4
L -33.3 -39.1
Q -33.9 -38.7 -33.65 -38.7
L -34 -38.65
Q -34.1 -38.35 -34.2 -38.25
L -35.3 -37.5 -35.55 -37.2 -35.65 -37 -36.2 -36.5
Q -36.4 -36.55 -36.55 -36.4
L -36.75 -36.2 -36.9 -35.95
Q -37.15 -35.55 -37.25 -35.5
L -37.55 -35.35 -37.6 -35.35 -37.6 -35.3 -37.75 -35.3 -37.95 -35.2
Q -37.95 -34.95 -38.25 -34.75
L -38.6 -34.5
Q -38.65 -34.45 -38.7 -34.25
L -39.35 -33.65 -39.45 -33.5 -39.6 -33.4 -40.55 -32.3
Q -40.7 -32.05 -40.65 -31.85 -40.8 -31.65 -41.1 -31.5 -41.15 -31.4 -41.2 -31.1 -41.35 -31.2 -41.4 -31.1
L -41.6 -30.7 -41.75 -30.5 -42.25 -30.05 -42.85 -29.15
Q -43.2 -28.65 -44.15 -27.55 -44.35 -27.3 -44.55 -26.85
L -45.15 -26.25
Q -45.55 -25.7 -46.2 -24.5 -46.3 -24.35 -46.55 -24.25
L -46.65 -23.85 -47 -23.4 -47.2 -23.05 -47.3 -22.3 -47.6 -21.7 -47.75 -21.05 -47.95 -20.55 -48.1 -20.35 -48.15 -20.2 -48.25 -20.1
Q -48.6 -19.55 -48.75 -19.1
L -48.9 -18.5
Q -49 -18.1 -49.2 -17.8
L -49.4 -17.75
Q -49.5 -17.55 -49.55 -17.1 -49.7 -16.9 -50 -16.65
L -50.3 -16.05 -50.9 -13.8 -51 -13.55 -51.1 -13.4 -51.1 -13
Q -51.4 -12.6 -51.45 -12.4
L -51.45 -11.95 -51.65 -11.45
Q -51.7 -10.8 -51.8 -10.5 -51.95 -10.25 -52 -9.95 -51.85 -9.7 -51.9 -9.4 -52.1 -9.1 -52.1 -8.9 -52.3 -8.9 -52.25 -9.15 -52.2 -9.25 -52.15 -9.6
L -52.15 -9.95 -52.2 -10.3 -51.5 -13.1
Q -51.4 -13.7 -51.45 -13.8 -51.5 -14 -51.5 -14.1 -51.45 -14.15 -51.3 -14.65
L -51.15 -15.35 -49.65 -19.5
Q -49.6 -19.75 -49.35 -19.95 -49.3 -20.3 -49.35 -20.85
L -48.85 -21.8 -48.75 -22.15
Q -48.7 -22.1 -48.7 -21.9 -48.7 -21.75 -48.55 -21.75 -48.35 -22.3 -48.55 -22.35
L -48.15 -22.8 -46.75 -25.5 -46.5 -25.5 -46.45 -25.9 -46.35 -26.2 -46.1 -26.55 -45.9 -26.5
Q -45.85 -26.55 -45.7 -26.8 -45.35 -27.05 -45.3 -27.15
L -45.05 -27.65 -43.4 -29.7 -43.05 -30.3
Q -42.6 -30.95 -42.25 -31.05
M -47.25 -29.65
Q -47.2 -29.4 -47.9 -28.55 -48.15 -28.7 -47.8 -29.15 -47.5 -29.6 -47.25 -29.65
M -46.8 -30
Q -46.95 -29.9 -47.3 -29.7 -47.4 -29.95 -47.15 -30.2 -46.75 -30.4 -46.65 -30.5 -46.6 -30.2 -46.8 -30
M -50.1 -25.95
Q -49.75 -26.25 -49.6 -26.1 -50 -25.35 -50.4 -25.4 -50.4 -25.65 -50.1 -25.95
M -49.25 -27.15
Q -49.1 -27.45 -48.9 -27.25
L -49.2 -26.75
Q -49.45 -26.8 -49.25 -27.15
M -52.25 -23.5
Q -52.15 -23.95 -51.9 -23.8
L -52 -23.45 -52.2 -23
Q -52.35 -23 -52.25 -23.5
M -52.8 -22.25
Q -52.65 -22.35 -52.5 -22.6
L -52.5 -22.4 -52.7 -22.05
Q -52.9 -21.6 -53.1 -21.7 -52.95 -22.05 -52.8 -22.25
M -52.25 -21.85
Q -52.15 -22.25 -52 -22.2 -51.85 -22.15 -51.95 -21.8
L -52.2 -21.15 -52.5 -21.3 -52.25 -21.85
M -51.25 -22.9
Q -51.5 -22.55 -51.8 -22.6
L -51 -23.7
Q -51 -23.25 -51.25 -22.9
M -53.5 -18.75
Q -53.15 -19.3 -53.45 -19.45 -53.45 -19.75 -53.25 -19.85 -52.95 -20 -52.95 -20.05 -52.95 -20.7 -52.6 -20.85 -52.35 -20.8 -52.55 -20.5 -52.8 -20.15 -52.85 -20 -53 -19.45 -53.15 -19.1 -53.35 -18.5 -53.65 -18.4 -53.8 -18.25 -53.5 -18.75
M -54.8 -17.5
Q -54.7 -18.05 -54.4 -17.85 -54.45 -17.7 -54.65 -17.25
L -54.85 -16.75 -54.9 -17.05 -54.8 -17.5
M -55.15 -13.3
Q -55.25 -12.9 -55.45 -13.05 -55.45 -13.45 -55.2 -13.75 -54.95 -13.65 -55.15 -13.3
M -53.45 -7.5
Q -53.45 -7.75 -53.35 -7.85 -53.3 -7.95 -53.15 -7.9 -53.05 -7.5 -53.15 -7.1 -53.55 -6.95 -53.45 -7.5
M -57.7 -5.4
Q -57.7 -4.9 -57.9 -5
L -57.9 -5.4 -57.75 -6.65
Q -57.5 -6.75 -57.65 -6.15
L -57.7 -5.4
M -53.25 -4.1
L -53.35 -3.1
Q -53.6 -3.05 -53.7 -3.7 -53.7 -4.2 -53.5 -4.6 -53.15 -4.55 -53.25 -4.1
M -53.45 -1.4
Q -53.7 -1.5 -53.55 -1.9 -53.45 -2.3 -53.2 -2.25 -53.15 -1.95 -53.25 -1.75 -53.4 -1.5 -53.45 -1.4
M -53.55 -0.3
Q -53.6 -0.65 -53.55 -1 -53.35 -0.95 -53.25 -0.15
L -53.25 0.15 -53.3 0.4
Q -53.35 0.7 -53.55 0.7
L -53.55 -0.3
M -17.4 -47.6
L -18.1 -47.4
Q -18.15 -47.35 -18.45 -47.15 -18.6 -47.05 -18.7 -47.1 -18.6 -47.4 -17.95 -47.7 -17.25 -47.95 -16.95 -47.9 -16.95 -47.7 -17.4 -47.6
M -19.8 -46.85
L -19.95 -46.7 -20.35 -46.5
Q -20.9 -46.3 -20.9 -46.5 -20.5 -46.65 -20.3 -46.65 -19.85625 -46.783203125 -19.8 -46.85
M -20.85 -49.3
Q -21.3 -49.1 -21.3 -49.35
L -20.5 -49.65
Q -20.4 -49.5 -20.85 -49.3
M -23.2 -48.7
Q -23.05 -48.9 -22.8 -48.95 -22.55 -48.95 -22.45 -48.75 -23.15 -48.5 -23.2 -48.7
M -24.3 -44.75
Q -24.6 -44.8 -24.6 -44.75 -24.95 -44.45 -25.15 -44.3
L -25.45 -44.1 -27.75 -42.9 -28.05 -42.65
Q -28.25 -42.85 -27.85 -43.1
L -27.15 -43.5
Q -26.9 -43.85 -26.75 -43.9 -26.55 -44.05 -25.95 -44.15
L -24.75 -44.8 -24.4 -44.95
Q -24.15 -45.05 -24.1 -44.95 -24.2 -44.8 -24.3 -44.75
M -22.2 -45.7
Q -22.35 -46.05 -21.95 -46.2
L -21.55 -46.35 -21.1 -46.6
Q -20.8 -46.3 -21.3 -46.1
L -22.2 -45.7
M -27.1 -46.85
Q -27.35 -46.95 -26.85 -47.15 -26.4 -47.4 -26.45 -47.15
L -27.1 -46.85
M -25.7 -47.5
L -25.95 -47.35 -26.2 -47.3
Q -26.15 -47.4 -26.2 -47.55 -25.35 -47.85 -25.2 -47.6 -25.3 -47.65 -25.7 -47.5
M -28.3 -42.55
L -28.7 -42.15 -30.1 -41.35
Q -30.25 -41.5 -30 -41.7
L -29.4 -42 -28.8 -42.45
Q -28.5 -42.7 -28.3 -42.55
M -35.5 -40.55
L -36.4 -40
Q -36.45 -40.25 -35.9 -40.7
L -35.05 -41.25
Q -34.95 -41 -35.5 -40.55
M -31.65 -40.5
L -31.25 -40.9
Q -31 -41.15 -30.8 -41.15 -30.8 -40.85 -31.3 -40.45
L -31.75 -40.15 -32.25 -39.95
Q -32.4 -40.2 -31.65 -40.5
M -34.5 -41.45
Q -34.7 -41.25 -34.85 -41.25 -34.95 -41.4 -34.75 -41.55 -34.5 -41.75 -34.35 -41.75 -34.25 -41.6 -34.5 -41.45
M 1.75 -50.95
Q 1.8 -51.1 2.4 -50.85 2.35 -50.7 2.1 -50.75 1.8 -50.85 1.75 -50.95
M 0.4 -51.8
Q 0.45 -51.65 0 -51.7 -0.4 -51.8 -0.4 -51.95 0 -51.95 0.4 -51.8
M 3.35 -52.05
Q 4.1 -51.95 4.05 -51.75 3.8 -51.7 3.55 -51.8 3.25 -51.9 3.35 -52.05
M 6.55 -51.55
Q 6.75 -51.2 6.1 -51.3 5.5 -51.4 5.6 -51.65 5.7 -51.65 6.55 -51.55
M 6.7 48.75
Q 6.7 48.9 6.45 48.9 6.2 49 6.05 48.9 6.05 48.6 6.7 48.75
M 14.85 46.65
Q 14.8 46.55 15.05 46.45 15.3 46.35 15.45 46.35 15.45 46.65 14.85 46.65
M 13.4 47.1
Q 13.35 47.2 12.85 47.4 12.65 47.25 12.8 47.15 12.95 47.05 13.2 47.05 13.45 47 13.4 47.1
M 17.85 45.2
L 17.95 45.4 17.45 45.6
Q 17.6 45.3 17.85 45.2
M 16.5 45.8
L 16.7 45.75 16.9 45.65
Q 17.15 45.55 17.15 45.6 17.2 45.7 16.85 45.9
L 16.35 46.15
Q 16.5 46.05 16.55 46 16.65 45.9 16.5 45.8
M 39.4 29.75
Q 39.7 29.85 39.05 30.6 38.45 31.35 38.65 30.75
L 39.05 30.35 39.4 29.75
M 34.55 32.6
L 34.45 32.5 35.65 31.1
Q 35.65 31.2 35.15 31.9
L 34.55 32.6
M 37.7 32.45
Q 37.75 32.45 37.95 32.3 37.25 33.25 37.15 33.1 37.55 32.5 37.7 32.45
M 36.75 33.65
Q 36.9 33.65 36.7 33.9 36.4 34.25 36.3 34.35 35.9 35 35.6 35.2 35.6 35.15 35.8 34.85
L 36.75 33.65
M 37.75 35.65
L 37.3 36.2
Q 37 36.5 36.9 36.45 37 36.35 37.4 35.9 37.6 35.6 37.6 35.5 37.95 35.1 37.75 35.65
M 38.25 34.85
Q 38.05 35.05 38.05 34.95
L 38.95 33.7
Q 39.1 33.8 38.6 34.4
L 38.25 34.85
M 29.6 37.55
Q 29.65 37.4 30 37.15 30.3 36.85 30.35 37 30.1 37.45 29.6 37.55
M 28.6 38.4
Q 28.65 38.45 28 39.1 27.1 39.85 26.9 39.7
L 28.6 38.4
M 26.9 43.25
Q 27.25 43 27.3 42.95 27.35 43.05 27.05 43.3 26.8 43.5 26.65 43.55 26.6 43.45 26.9 43.25
M 26 40.45
L 26.35 40.25
Q 26.45 40.35 26.25 40.45
L 26.1 40.6 25.15 41.35 25.05 41.2
Q 25.1 41.2 25.65 40.75
L 26 40.45
M 27.9 42.45
Q 28.25 42.2 28.35 42.25 28.2 42.65 27.55 42.85 27.55 42.7 27.9 42.45
M 22.1 43.25
Q 22.05 43.15 22.65 42.85
L 23 42.55
Q 23.3 42.35 23.4 42.35 23.45 42.45 22.85 42.85
L 22.1 43.25
M 24.55 45.45
Q 24.5 45.65 24.2 45.85 24.05 45.9 23.7 46.05
L 23.2 46.55
Q 22.9 46.85 22.45 47.05 22.35 46.9 22.15 46.75
L 22.8 46.45 24.55 45.45
M 21.55 43.55
Q 21.1 43.85 21.05 43.55
L 21.85 43.1
Q 22 43.2 21.55 43.55
M 22.1 46.5
L 21.6 46.8
Q 21.4 46.85 21.2 47.05 21.15 47 20.9 47.15
L 21.2 46.85 21.75 46.5 22.85 45.95
Q 22.7 46.25 22.1 46.5
M 25.1 47.55
Q 25.15 47.45 25.25 47.4 25.45 47.4 25.5 47.35
L 27.1 46.25
Q 27 46.45 27.05 46.5
L 25.95 47.3
Q 25.35 47.65 25.1 47.55
M 32.3 38.55
Q 32.55 38.3 32.7 38.35
L 32.2 38.9
Q 32 39.1 31.85 39.05
L 32.3 38.55
M 15.5 52.5
Q 16.25 52.3 16.3 52.4 16 52.6 15.75 52.7 15.55 52.7 15.5 52.5
M 17.7 51.85
Q 17.45 51.95 16.8 52.1 16.9 51.9 17.3 51.75 17.75 51.6 17.7 51.85
M 14.05 50.1
Q 13.6 50.3 13.65 50.05
L 14.3 49.8
Q 14.5 49.95 14.05 50.1
M 10.65 51
Q 10.8 50.9 11.05 50.85 11.35 50.8 11.4 50.9 11 51.05 10.9 51.1 10.7 51.15 10.65 51
M 12.1 51.45
Q 11.75 51.55 11.8 51.4
L 12.35 51.2
Q 12.7 51.1 12.65 51.25
L 12.1 51.45
M 14.1 53.3
L 13.75 53.4 13.3 53.45
Q 13.4 53.3 13.95 53.1 14.55 52.9 14.45 53.15
L 14.1 53.3
M 7 52.4
Q 6.6 52.55 6.55 52.3
L 7.35 52.15
Q 7.85 52.25 7.9 52.4 7.65 52.4 7.35 52.55 7.05 52.65 6.9 52.6 7.15 52.5 7.15 52.4
L 7 52.4
M 6.8 55.25
Q 6.25 55.35 6.4 55.1 7 54.95 7.3 55 7.4 55.15 6.8 55.25
M 3.5 52.35
Q 2.95 52.45 3 52.25 3.25 52.1 3.85 52.1 4.05 52.25 3.5 52.35
M 0.5 49.55
Q 0.15 49.65 0 49.55 -0.15 49.55 -0.15 49.4
L 0.25 49.4
Q 0.5 49.4 0.5 49.55
M 3 55.55
Q 3.4 55.45 3.65 55.55 3.8 55.6 3.95 55.8 3.35 56 3.2 55.85 3 55.8 3 55.55
M 1.5 55.75
Q 1.7 55.7 1.75 55.85 1.8 55.95 1.6 56 1.35 56.05 0.95 55.95 1.25 55.75 1.5 55.75
M -39.25 33.7
Q -39.3 33.95 -39.65 33.6 -40.05 33.2 -39.85 33.2 -39.85 32.95 -39.5 33.3
L -39.3 33.55 -39.25 33.7
M -39.75 35.85
L -39.75 35.9
Q -39.75 36.1 -39.9 36.1
L -40 36.05 -40.05 35.95 -40.15 35.85 -40.25 35.6
Q -40.25 35.35 -40 35.4
L -39.75 35.85
M -40.45 36.55
L -40.5 36.55 -40.55 36.5
Q -40.95 36.25 -41.1 35.85 -40.95 35.65 -40.6 36
L -40 36.5
Q -40.05 36.65 -40.2 36.65
L -40.35 36.6 -40.45 36.55
M -38.35 36.25
L -38.3 36.3 -38.15 36.4
Q -37.85 36.7 -37.8 36.85 -37.95 36.9 -38.4 36.55
L -38.45 36.45 -38.5 36.4 -38.55 36.4 -38.55 36.35 -38.65 36.2
Q -38.75 36.05 -38.65 35.95
L -38.4 36.2 -38.35 36.2 -38.35 36.25
M -37.1 36.4
Q -37.35 36.15 -37.35 36 -37.3 35.95 -37.1 36.15 -36.8 36.45 -36.75 36.5 -36.85 36.6 -37.1 36.4
M -36.2 36.9
Q -36.05 36.9 -35.75 37.1
L -35.3 37.55 -34.65 38
Q -34.3 38.35 -34.55 38.55
L -34.8 38.3
Q -34.8 38.2 -35.05 38.05 -35.1 38.2 -35 38.3
L -34.75 38.6
Q -34.4 38.95 -34.6 39.2 -35.05 39.05 -34.85 38.65 -34.9 38.6 -35.15 38.45 -35.35 38.35 -35.4 38.25 -35.55 38.05 -35.45 37.65
L -35.9 37.25
Q -36.1 37.15 -36.2 36.9
M -32.1 39.35
Q -31.95 39.55 -32.05 39.7 -32.3 39.5 -32.45 39.4 -32.65 39.25 -32.5 39.15 -32.3 39.2 -32.1 39.35
M -33 38.3
Q -33.3 38 -33.15 37.9 -32.65 38.3 -32.6 38.45 -32.7 38.6 -33 38.3
M -34.85 40.15
L -34.65 39.9
Q -34.3 40.15 -34.35 40.35 -34.45 40.55 -34.85 40.15
M -33.75 40.7
Q -33.3 41.15 -33.45 41.25 -33.45 41.3 -33.75 41
L -34.3 40.6
Q -34.15 40.3 -33.75 40.7
M -34.25 42.65
L -34.9 42.15 -35.15 42.05
Q -35.15 41.9 -34.9 42 -34.65 42.25 -34.65 42.1 -34.55 42.05 -34.85 41.85 -35.15 41.65 -34.95 41.55
L -34.1 42.2
Q -33.75 42.55 -33.7 42.8 -33.1 42.8 -32.95 42.95 -33 43.25 -33.45 42.9
L -33 43.4 -31.7 44.3
Q -31.45 44.65 -31.45 44.85
L -31.85 44.65
Q -32.05 44.6 -32.15 44.4
L -32.7 43.8
Q -33.25 43.6 -33.7 43.25 -33.65 43.25 -33.75 43.1 -33.8 43.1 -34.25 42.65
M -33.95 41.7
Q -34.1 41.8 -34.35 41.7
L -35.45 40.9
Q -35.7 40.65 -35.95 40.55
L -35.65 40.25 -35.3 40.65 -33.95 41.7
M -31.05 40.75
Q -31.15 40.65 -31.1 40.4 -30.75 40.45 -30.6 40.7 -30.5 40.95 -30.6 41.15 -31 40.9 -31.05 40.75
M -36.55 40.05
Q -36.85 39.75 -36.65 39.65
L -36.35 39.85 -36.1 40.1
Q -36.2 40.35 -36.55 40.05
M -37 37.6
Q -36.65 37.95 -36.95 38.15
L -37.55 37.55
Q -37.95 37.25 -37.7 37.1
L -37 37.6
M -38.15 37.6
Q -38.2 37.6 -38.45 37.45 -38.65 37.3 -38.7 37.55 -39.15 37.1 -38.9 37 -38.7 37.25 -38.45 37.35 -38.2 37.4 -38.15 37.6
M -38.65 38.5
Q -38.85 38.5 -38.9 38.35 -38.95 38.15 -39 38.05 -39.05 38 -39.3 37.75 -39.5 37.55 -39.25 37.5 -38.5 38.1 -38.65 38.5
M -39.45 40.95
Q -39.05 41.25 -39.25 41.5 -39.3 41.5 -40.1 40.7 -41.2 39.75 -41.1 39.55
L -40.15 40.3 -39.95 40.75 -39.45 40.95
M -37.1 44.45
Q -37.45 44.15 -37.15 44.05 -36.8 44.25 -36.6 44.6 -36.7 44.75 -37.1 44.45
M -37.65 43.7
Q -37.7 43.75 -37.95 43.65 -38.55 43.5 -38.75 43 -38 43.45 -37.75 43.4 -37.55 43.6 -37.65 43.7
M -30.8 44.35
Q -30.75 44.1 -30.45 44.35 -30.15 44.55 -30.35 44.7
L -30.8 44.35
M -31.15 44.85
Q -30.35 45.05 -30.7 45.3 -31.1 45.45 -31.15 44.85
M -30.9 48.9
L -30.75 48.7
Q -30.45 48.95 -30.25 49.05 -30.4 49.2 -30.9 48.9
M -27.15 42.3
L -26.55 42.7
Q -26.75 42.85 -27.1 42.65
L -27.4 42.45 -27.65 42.2
Q -27.6 42.15 -27.45 42.2
L -27.15 42.3
M -27.1 46.15
Q -27.15 46.25 -27.45 46.25
L -27.85 46.25
Q -28.15 46.1 -28.4 45.9
L -27.85 45.85 -27.1 46.15
M -28.95 44.35
Q -28.8 44.5 -28.55 44.8 -28.5 44.85 -28.25 44.9 -28.05 45 -27.95 45.15 -28.2 45.2 -28.95 44.8 -29.65 44.3 -29.45 44.1 -29.1 44.1 -28.95 44.35
M -26.35 46.65
L -25.7 47.15
Q -25.4 47.45 -25.7 47.5
L -26.65 46.85
Q -26.65 46.8 -26.35 46.65
M -21.25 45.5
L -20.9 45.6 -21 45.85 -21.35 45.7 -21.55 45.5 -21.25 45.5
M -23.6 44.5
Q -23.6 44.4 -23.35 44.4 -23.1 44.45 -23 44.6 -22.9 44.75 -23.2 44.9 -23.6 44.65 -23.6 44.5
M -24.75 46.9
L -24.9 47.15
Q -24.95 47.15 -25.45 46.75 -25.35 46.6 -24.75 46.9
M -24.2 48.5
Q -24.5 48.15 -24.7 48.05
L -25.15 47.9
Q -25.45 47.9 -25.6 47.65 -25.05 47.6 -24.5 47.7 -25.05 47.85 -24.35 48.05
L -23.65 48.2 -23.35 48.3 -23.15 48.45
Q -23.3 48.6 -23.6 48.45 -23.6 48.5 -23.4 48.75 -23.25 48.9 -23.5 48.9
L -23.95 48.75 -24.2 48.5
M -22.7 49
L -22.35 49.1 -21.5 49.45 -22.2 49.4 -22.9 49.05
Q -22.9 49 -22.7 49
M -22.2 48.45
Q -22.55 48.3 -22.7 48.25 -22.95 48.1 -22.8 48 -22.1 48.2 -22.2 48.45
M -20.55 48.85
Q -20.65 49.1 -21.15 48.9 -21.6 48.7 -21.6 48.5
L -21.05 48.6 -20.55 48.85
M -16.25 47.3
L -16.5 47.45 -16.8 47.4
Q -17.2 47.35 -17.6 47.1 -17.4 47 -17 47.1
L -16.25 47.3
M -14 48.1
Q -13.55 47.85 -13.2 48.2 -13.25 48.35 -13.55 48.3 -13.85 48.25 -14 48.1
M -14.1 48
Q -14.2 48.15 -14.65 48.05 -14.9 47.95 -15.45 47.8 -15.3 47.65 -14.85 47.75 -14.35 47.85 -14.1 48
M -8.25 49.25
L -8.9 49.2
Q -8.95 49.15 -8.9 49.05 -9.4 49.05 -9.25 48.85 -9.05 48.8 -9 48.9 -8.95 48.95 -8.9 49.05
L -8.45 49.05
Q -8.2 49.05 -8.25 49.25
M -53.85 1.95
Q -53.65 2.2 -53.65 2.75
L -53.6 3.75 -53.3 5.25 -53.3 5.5
Q -53.25 5.8 -53.3 6.05
L -52.9 9.65 -52.9 10.25 -52.8 10.9
Q -52.8 11.1 -52.7 11.15 -52.65 11.15 -52.65 11.35
L -52.6 11.75
Q -52.6 12.3 -52.8 12.35 -52.8 12.05 -52.95 11.75
L -53.05 11.2
Q -53.25 10.4 -53.25 10
L -53.35 8.95
Q -53.45 8.2 -53.65 7.8 -53.7 7.55 -53.75 7.5 -53.85 7.45 -53.95 7.05
L -54 6.65 -54 5.35 -53.8 4.7
Q -53.95 4.4 -53.95 4.05
L -54 3.4 -53.85 1.95
M -58 4.5
Q -57.9 4.95 -58.1 4.9
L -58.2 4
Q -58 4.1 -58 4.5
M -57.5 11.5
Q -57.15 11.85 -57.5 12.15 -57.95 11.2 -57.5 11.5
M -52.1 13.9
L -51.8 15.15
Q -51.65 15.75 -52.2 15.55 -52.15 15.55 -52.15 15.25
L -52.25 14.95
Q -52.2 14.6 -52.25 14.35
L -52.45 13.7 -52.55 13
Q -52.4 12.9 -52.25 13 -52.1 13.15 -52.05 13.15 -51.95 13.4 -52.1 13.9
M -51 17.95
Q -51 18.3 -51.15 18.3 -51.3 17.95 -51.35 17.75 -51.45 17.45 -51.25 17.45
L -51.1 17.65 -51 17.95
M -53.25 23.2
Q -53.2 23.15 -53.25 23
L -53.1 22.95
Q -53.05 23.05 -52.95 23.05
L -52.8 23.3
Q -52.85 23.3 -52.85 23.5
L -53 23.55
Q -53.05 23.45 -53.15 23.45
L -53.25 23.2
M -55.1 21.7
L -54.9 22.3 -54.8 22.85
Q -55.1 22.7 -55.25 22.15 -55.5 21.25 -55.65 21 -55.4 21 -55.1 21.7
M -52.6 24.15
L -52.25 24.7
Q -52.5 25 -53 23.9
L -52.8 24 -52.6 24.15
M -50.3 21.05
L -50.6 20.4 -50.7 19.7
Q -50.7 19.4 -50.55 19.3 -50.45 19.95 -49.9 21.3
L -50.1 21.25 -50.3 21.05
M -49.6 21.95
Q -49.1 22.1 -49.15 22.5 -49.25 22.7 -49.45 22.4 -49.6 22.25 -49.6 21.95
M -44.85 29.6
Q -44.7 29.8 -44.9 29.85
L -45.9 27.95 -46.15 27.65 -46.9 26.9
Q -46.7 26.6 -46.35 26.95
L -45.75 27.7 -45.05 28.9
Q -45.05 28.946875 -44.95 29.4
L -44.85 29.6
M -44.55 29.85
Q -44.5 29.7 -44.4 29.65 -44.1 30.25 -43.75 30.55 -43.75 30.6 -43.75 30.85 -43.7 31.1 -43.9 31.15 -44.25 31.05 -44.2 30.5 -44.25 30.45 -44.45 30.35 -44.65 30.3 -44.75 30.05 -44.6 30 -44.55 29.85
M -43.15 30.6
Q -43.4 30.35 -43.2 30.3 -43 30.35 -42.8 30.65 -42.6 30.95 -42.8 31.05 -42.85 30.95 -43.15 30.6
M -45.15 27.05
Q -44.7 27.6 -44.95 27.85
L -46.3 25.6
Q -46.15 25.45 -46.05 25.7 -45.9 26 -45.85 26.1
L -45.15 27.05
M -47.55 25.25
Q -47.75 24.85 -47.45 24.8
L -47.1 25.4
Q -47 25.65 -47.15 25.8
L -47.4 25.55 -47.55 25.25
M -49.85 26.5
Q -49.65 26.45 -49.3 27.1 -48.95 27.7 -48.9 28 -49.05 28 -49.45 27.4
L -49.75 26.9 -49.85 26.5
M -50.4 28.55
Q -50.25 28.65 -50.25 28.75
L -50.15 28.95
Q -50.15 29.15 -50.25 29.2 -50.7 28.55 -50.4 28.55
M -50.1 29.6
Q -49.95 29.5 -49.75 29.75 -49.5 30.1 -49.4 30.25 -49.55 30.4 -49.7 30.15 -49.85 30.05 -50.1 29.6
M -48.55 30.05
Q -48.5 30.35 -48.2 30.7 -47.95 31.15 -48 31.3
L -48.5 30.7
Q -48.8 30.1 -48.55 30.05
M -48.05 32.8
Q -48 32.75 -47.7 32.75 -47.6 33.05 -47.4 33.25 -47.6 33.55 -48.05 32.8
M -48.75 31.15
Q -48.55 31.4 -48.8 31.5 -48.95 31.45 -49.15 31.15 -49.25 30.85 -49.1 30.8
L -48.75 31.15
M -46.65 34.15
L -46.5 34.45 -46.25 34.7
Q -46.5 34.9 -46.8 34.55 -47 34.1 -46.9 33.85 -46.75 33.85 -46.65 34.15
M -45.95 35.55
Q -46.4 35.1 -46.15 34.95
L -45.35 35.9 -45.6 35.85 -45.8 35.7 -45.95 35.55
M -47.45 34.7
Q -47.3 34.5 -47.05 34.75 -46.8 34.9 -46.7 35.2 -46.9 35.2 -47.15 35.05 -47.45 34.85 -47.45 34.7
M -45.8 36.7
Q -45.6 36.75 -45.75 36.6 -45.8 36.55 -45.7 36.4 -45.625 36.6625 -45.65 36.7
L -45.65 36.7 -45.05 37.25
Q -44.65 37.65 -44.6 37.85 -44.8 38.1 -45.25 37.65
L -46 36.8
Q -46 36.7 -45.8 36.7
M -46 36.05
Q -46.15 36.3 -46.5 35.95 -46.85 35.55 -46.5 35.45 -46.1 35.65 -46 36.05
M -40.75 32.25
Q -41 32.05 -41.05 31.85 -40.85 31.85 -40.6 32.1 -40.4 32.3 -40.35 32.5 -40.5 32.45 -40.75 32.25
M -43 31.9
Q -42.8 31.8 -42.65 32.1 -42.5 32.45 -42.7 32.55
L -43 31.9
M -41.2 33.1
Q -41.1 33 -40.6 33.5 -40.8 33.7 -41 33.5 -41.2 33.3 -41.2 33.1
M -41.75 32.4
Q -41.55 32.4 -41.35 32.65 -41.65 33.05 -41.95 32.65 -42 32.4 -41.75 32.4
M -44.65 37.05
Q -44.95 36.7 -44.65 36.65
L -44.25 37.1
Q -44.35 37.35 -44.65 37.05
M -52.55 25.2
Q -52.05 25.45 -51.95 25.6 -51.8 25.85 -51.85 26.2
L -50.85 27.4
Q -50.75 27.6 -51 27.65
L -51 27.85 -50.9 27.95
Q -51.05 28 -51.25 27.7 -51.6 27.35 -51.7 27.35 -51.8 27.1 -51.7 27.1 -51.55 27.1 -51.45 27.05 -51.55 26.85 -51.7 26.75 -51.85 26.7 -51.9 26.6 -51.95 26.5 -52.1 26 -52.2 25.55 -52.55 25.2
M -42.4 37.8
Q -42.05 38.15 -42.3 38.25 -43.3 37.5 -42.95 37.35 -42.7 37.45 -42.4 37.8
M -41.6 38.9
Q -41.4 39.1 -41.65 39.25 -41.9 39.05 -42 38.7 -41.8 38.65 -41.6 38.9
M -44 37.95
L -44.2 37.65
Q -44.1 37.6 -43.85 37.75 -43.6 37.85 -43.5 37.65 -43.3 37.8 -43.3 38 -43.3 38.3 -43.3 38.35
L -43.1 38.6
Q -42.95 38.75 -43.1 38.8 -43.35 38.5 -43.75 38.2
L -44 37.95
M -44.55 40.35
L -44.45 40.45
Q -44.2 40.6 -44.2 40.8 -44.35 40.85 -44.5 40.7
L -44.65 40.55 -44.65 40.5
Q -44.75 40.45 -44.85 40.25
L -44.7 40.25 -44.55 40.35
M -2.65 52.95
Q -3.05 53.05 -2.95 52.85 -2.85 52.75 -2.4 52.75
L -2.1 52.75 -2.05 52.8
Q -1.9 52.8 -2 52.95
L -2.65 52.95
M -4.4 53.1
Q -4 53.2 -4.1 53.35
L -4.6 53.3 -4.8 53.25 -4.85 53.2 -4.95 53.2
Q -4.9 53.1 -4.4 53.1
M -1 53.1
L -1 53.4 -1.9 53.4 -2.1 53.45 -2.15 53.45 -2.15 53.4 -2.3 53.4
Q -2.45 53.4 -2.45 53.25
L -2 53.25 -1 53.1
M -6.4 52.35
Q -6.65 52.3 -6.75 52.1 -6.55 52.05 -6.45 52.15
L -6.3 52.3 -6.15 52.3 -5.95 52.25
Q -5.7 52.25 -5.75 52.45
L -6.15 52.45 -6.4 52.35
M -5.5 53.1
Q -5.55 53.1 -5.5 52.9 -5.6 52.85 -5.95 52.95 -6.2 53 -6.2 52.85 -6 52.65 -5.6 52.8 -5.15 52.95 -4.95 53 -5.1 53.25 -5.5 53.1
M -3.2 56.45
L -3.5 56.45
Q -3.6 56.15 -2.85 56.15 -2.8 56.3 -3 56.4
L -3.2 56.45
M -12.05 52.25
L -11.45 52.45
Q -11.15 52.55 -11.25 52.65
L -11.45 52.65 -11.7 52.6 -12.25 52.55 -12.7 52.45 -13.05 52.3
Q -13.05 52.15 -12.6 52.15 -12.15 52.15 -12.05 52.25
M -12.45 51.4
Q -12.35 51.3 -11.45 51.5 -11.45 51.7 -11.8 51.6 -12 51.55 -12.45 51.4
M -14.65 55.15
Q -14.75 55.05 -14.7 54.95 -14.1 55.2 -13.8 55.25 -13.9 55.35 -14.4 55.25
L -14.65 55.15
M -11.1 52.7
Q -10.9 52.6 -10.9 52.5 -10.4 52.6 -10.05 52.65 -10.2 52.8 -11.1 52.7
M -16.9 51.25
Q -17.2 51.2 -17.35 51.05 -17.3 50.9 -16.6 51.1 -16.6 51.3 -16.9 51.25
M -19.15 53.9
Q -19.25 54.15 -19.8 53.95
L -20.8 53.55
Q -20.2 53.65 -20.15 53.45 -19.5 53.85 -19.15 53.9
M -15.95 55.05
Q -16.05 54.85 -16.05 54.8 -15.9 54.75 -15 55.05 -15.2 55.15 -15.95 55.05
M -19.9 57.7
L -19.15 57.9
Q -19.1 58.1 -19.35 57.9
L -19.9 57.95
Q -20.3 57.85 -20.45 57.65 -20.4 57.5 -19.9 57.7
M -9.3 55.95
Q -10.4 56.1 -10.2 55.65 -9.2 55.75 -9.3 55.95
M -24.4 51.75
L -23.75 52.15
Q -23.25 52.5 -23.2 52.5
L -23.65 52.55 -24.1 52.3
Q -24.65 52 -24.4 51.75
M -28.65 49.9
Q -28.4 49.9 -28.1 50.1 -27.75 50.3 -27.85 50.45 -28.05 50.5 -28.4 50.3 -28.7 50.1 -28.65 49.9
M -41.4 -24.9
L -41 -25.4 -41.85 -24.05 -42.25 -23.25 -42.5 -22.95 -45.9 -15.35 -46.05 -14.75 -46.3 -14.2 -46.8 -12.65
Q -46.7 -12.7 -46.8 -12.4
L -47.3 -10 -47.4 -9.7 -48 -5.75 -48.2 1.25 -48.15 1.9 -48.2 2.25 -48.1 2.75 -48.15 3.15 -47.8 6.25 -47.65 6.85 -47.45 8.55
Q -47.35 9 -47.4 8.95
L -47.15 9.9
Q -47.1 10.35 -47.2 10 -47.15 10.2 -46.95 11
L -46.85 11.6 -46.7 12.05 -46.6 12.55 -46.15 14.1
Q -46 14.4 -46 14.45
L -45.9 14.9 -45.15 16.9 -45.05 17.25 -44.05 19.5 -44 19.75 -43.95 19.9 -43 21.85 -42.7 22.3 -42.6 22.55 -42.35 22.85
Q -42.25 23.1 -42.15 23.3
L -41.5 24.35 -41.35 24.7 -41.1 25 -39.4 27.55 -39.05 27.95 -38.85 28.25 -33.85 33.85
Q -33.9 33.85 -34.8 33.05
L -34.95 32.85 -35.05 32.75 -35.1 32.65 -35.7 32.05 -35.85 31.95 -35.9 31.85 -36.65 31.15 -37.25 30.4 -37.45 30.2 -37.6 29.95 -39.65 27.55
Q -39.9 27.15 -40 27.1
L -41.8 24.55 -42.15 23.85 -42.85 22.8 -43.1 22.25 -43.3 21.95 -43.45 21.6 -44.4 19.9 -44.55 19.5
Q -44.65 19.25 -44.8 19.2
L -47.45 11.6 -48 8.65 -48.1 8.3 -48.25 7.25 -48.3 7.1 -48.3 6.95 -48.35 6.7 -48.65 3.3 -48.7 -0.95 -48.65 -1 -48.65 -1.3 -48.6 -1.55
Q -48.7 -1.9 -48.65 -2.2
L -48.65 -1.95 -48.55 -3.3 -48.6 -3.2
Q -48.65 -3.3 -48.5 -4.45
L -48.4 -4.7
Q -48.35 -4.9 -48.4 -4.95
L -47.35 -11.3 -47.3 -11.65 -45.35 -17.5 -45.25 -17.7 -45.2 -17.85 -43.7 -21.05
Q -43.6 -21.2 -43.45 -21.35
L -42.8 -22.65 -42.6 -22.9 -42.2 -23.65 -42.05 -23.85 -41.4 -24.9
M -55.7 -14.2
L -55.9 -13.45 -56.15 -12.9
Q -56.05 -12.6 -56.1 -12.25
L -56.15 -12.05 -56.25 -12
Q -56.5 -12 -56.55 -11.9 -56.65 -11.75 -56.7 -11.15
L -56.9 -10.9 -57.1 -10.5
Q -57.15 -10.35 -56.95 -10.3 -56.8 -10.25 -56.9 -10 -56.95 -9.65 -57.05 -9.75 -57.25 -9.9 -57.3 -9.9
L -57.45 -9
Q -57.4 -8.75 -57.2 -9.15 -57.05 -9.55 -56.95 -9.25
L -57 -8.55 -57.15 -7.9
Q -57.2 -7.8 -57.3 -7.75 -57.45 -7.7 -57.45 -7.65
L -58.05 -6
Q -58.25 -5.05 -58.05 -4.55
L -58 -4.6 -57.95 -4.75
Q -57.85 -4.85 -57.85 -4.7 -58.05 -4.3 -58 -4.1 -57.85 -4.1 -57.85 -3.95
L -57.75 -3.5
Q -57.75 -3.3 -57.85 -3.2 -57.95 -3.1 -57.95 -3.05 -58 -2.9 -57.9 -2.7
L -57.8 -2.45
Q -58 -2.05 -58 -1.8 -58.05 -1.7 -57.95 -1.5
L -57.9 -1.35 -57.85 -1.25 -57.85 -1.15
Q -58.05 -1 -58.05 -0.55
L -58 0.85 -58.1 1.5 -58.35 2.1 -58.15 3.25
Q -58.35 3.05 -58.5 3.3
L -58.45 4 -58.4 4.3 -58.4 4.65
Q -58.4 4.85 -58.55 5.25
L -58.3 7.2 -58.3 7.5
Q -58.25 7.8 -58.1 7.75 -57.9 7.65 -57.9 7.75 -57.85 8 -58.15 8.1 -58.1 8.45 -57.9 8.55 -57.85 8.75 -57.9 9
L -57.75 10.05 -57.85 10.55 -57.85 11.55 -57.65 12.85
Q -57.45 13.4 -57 13.95 -57.1 14 -57.05 14.3 -56.95 14.65 -57 14.75 -57 14.8 -57.15 14.8 -57.15 15.05 -57 15.7 -57.15 15.85 -57.1 15.9
L -57.05 16.65
Q -56.95 17.15 -56.7 17.55
L -56.5 17.85 -56.35 18 -56.2 18.2
Q -56.5 18.25 -56.5 18.8 -56.4 19.15 -56 19.8 -55.9 20.2 -55.95 20.95 -55.9 21.3 -55.4 22.25
L -55.2 23.2 -54.65 24.35 -54.55 25 -54.1 25.5 -53.85 25.9
Q -53.75 26.15 -53.8 26.2 -53.9 26.4 -53.85 26.45 -53.65 26.75 -53.6 26.8
L -53.45 27.25
Q -53.3 27.55 -53.15 27.45 -53 27.7 -53.05 27.85 -53.15 28.05 -53.1 28.15 -53.1 28.35 -52.9 28.45
L -52.75 28.6 -52.65 28.8
Q -52.75 29.1 -52.55 29.3 -52.35 29.5 -52.3 29.45 -52.2 29.3 -52.1 29.4 -52 29.6 -52 29.8
L -51.8 30.15
Q -51.75 30.2 -51.35 30.6 -51.05 30.85 -51.15 31 -51.35 31.4 -50.85 31.6 -50.8 31.75 -50.75 32.5 -50.4 32.65 -49.9 33.45 -49.35 34.3 -49.4 34.6
L -48.95 35.15
Q -48.7 35.4 -48.6 35.35 -48.45 35.55 -48.65 35.55 -48.8 35.5 -48.75 35.7
L -47.65 36.75 -47.25 37.3 -46.8 38.3
Q -46.55 38.8 -46.1 38.75 -46.1 38.95 -45.8 39.25
L -45.7 39.4 -45.55 39.5 -45.3 39.8
Q -45.3 40.1 -45.05 40.45
L -44.8 40.7 -44.75 40.7 -44.75 40.75 -44.6 40.9 -44.05 41.75 -43.95 41.8 -43.95 41.85 -43.8 42 -43.6 42.15
Q -43.05 42.45 -42.8 42.65 -42.55 42.95 -42.5 43.2 -42.45 43.25 -42.25 43.35 -42.1 43.5 -42.25 43.65 -42.05 43.95 -41.6 44.1 -41.35 44.3 -41.25 44.65 -40.3 45.4 -40.25 45.45
L -40 45.65
Q -40.15 45.75 -40.1 45.75 -39.8 46.1 -39.15 46.6 -38.95 46.75 -38.3 47.05 -38 47.25 -37.8 47.7 -37.55 47.95 -37.25 48 -36.95 48.2 -36.65 48.6
L -35.2 49.55
Q -35 49.7 -34.75 50.05 -34.55 50.2 -33.9 50.55 -33.8 50.65 -33.6 50.9
L -32.5 51.65
Q -32.3 51.75 -32.05 51.8 -31.8 51.95 -31.55 52.25 -31.05 52.6 -29.65 53.25
L -28.7 53.9 -27.8 54.3 -27.5 54.4 -26.8 54.9 -25.4 55.4 -24.85 55.8 -24.05 56.1 -23.85 56.15 -23.65 56.25 -23.25 56.35
Q -22.75 56.5 -22.5 56.7
L -21.85 57.1
Q -22.3 57.15 -22.9 56.85 -23.25 56.7 -24 56.35 -24.8 56.1 -24.95 56 -25.2 55.8 -25.35 55.7 -25.45 55.65 -25.7 55.65
L -25.8 55.6 -26.4 55.2 -27.05 55.05 -27.5 54.75 -30.55 53.25 -31.1 52.85
Q -30.8 52.9 -30.75 52.9
L -32.4 52.15
Q -32.7 51.75 -32.85 51.6 -33.15 51.55 -33.35 51.45
L -35.45 49.95
Q -35.85 49.8 -35.95 49.75
L -36.1 49.45 -36.5 49.2 -36.95 48.7 -37.55 48.4 -40.15 46.3
Q -40.6 45.65 -40.65 45.65
L -41.7 44.9 -43.25 43.35
Q -43.3 43.1 -43.35 43.05 -43.5 43 -43.75 42.75 -43.95 42.55 -44.1 42.2
L -44.2 42.1 -44.25 42.1 -44.35 42 -44.4 42 -44.7 41.85 -44.7 41.7 -44.85 41.7 -45.05 41.4 -45.1 41.25 -45.15 41.2 -45.2 41.1 -46.85 39.45
Q -47.05 39.15 -47.15 38.75
L -47.5 38.1 -48.25 37.35
Q -48.85 36.65 -49.25 36
L -50.15 34.6
Q -50.55 34.1 -50.8 34.05 -50.9 33.6 -51.15 33.1
L -53 29.9 -53.3 29.2
Q -53.25 29 -53.1 29.3 -52.9 29.55 -52.85 29.5 -52.8 29.4 -53.1 28.9
L -53.5 28.2
Q -53.75 28.2 -53.45 28.65 -53.2 29.1 -53.4 29.05 -53.45 28.9 -53.65 28.75 -53.8 28.65 -53.9 28.4 -53.7 28.25 -53.8 28
L -55.1 25.6 -55.3 24.8
Q -55.6 24.3 -55.7 23.95
L -56 22.85 -56.85 20.8 -57.45 18.4 -57.55 18.2 -57.8 17.25 -57.85 16.6 -58.7 13.6 -58.85 12.65
Q -58.9 12.5 -58.8 12.3 -58.7 12.15 -58.7 12.1 -58.8 11.45 -58.85 11.05
L -59.1 9.95 -59.15 8.4
Q -59.3193359375 7.72265625 -59.35 7.75
L -59.25 7 -59.4 6.25
Q -59.35 5.35 -59.35 4.85 -59.45 4.45 -59.4 4.25 -59.25 3 -59.25 1.95 -59.35 1.65 -59.35 1.35
L -59.3 0.75 -59.35 0.35 -59.4 0.15 -59.4 -0.05
Q -59.5 -0.3 -59.3 -0.55 -59.2 -0.75 -59.2 -0.95
L -59.2 -1.65 -59 -2.6 -59 -2.7 -58.9 -3.05 -58.85 -3.55
Q -58.75 -3.8 -58.85 -4.05
L -58.85 -4.6 -58.35 -7.75 -57.9 -8.9 -57.45 -11
Q -57.4 -11.15 -57.45 -11.45 -57.4 -11.7 -57.15 -12.05
L -57.05 -12.65
Q -56.95 -13.15 -56.85 -13.2 -56.8 -13.3 -56.55 -13.45
L -56.4 -14.35 -56.05 -14.85
Q -55.75 -15.25 -55.75 -15.75 -55.5 -15.6 -55.7 -14.95 -55.95 -14.3 -55.7 -14.2
M -29.85 -44.75
L -28.1 -45.65
Q -28.05 -45.55 -28.25 -45.3 -28.45 -45.1 -28.55 -45.05 -28.85 -44.85 -29.95 -44.4 -30.05 -44.35 -30.15 -44.15 -30.35 -44.25 -30.35 -44.2 -30.6 -44.1 -30.8 -43.85
L -31.75 -43.5
Q -31.85 -43.7 -31.65 -43.8
L -31.4 -43.9 -31.2 -43.95
Q -30.9 -44.25 -30.75 -44.25 -30.7 -44.3 -30.55 -44.2
L -29.85 -44.75
M 23.95 -39.5
L 24.35 -39.15 25.7 -38.25 25.85 -38.1 27.8 -36.6 28.1 -36.3
Q 29.35 -35.35 31 -33.6
L 25 -38.6 17.65 -42.85
Q 17.5 -42.95 17.95 -42.9
L 19.1 -42.35 19.75 -41.95 20.1 -41.8 23.95 -39.5
M 32.8 34.65
L 32.65 34.75 31.8 35.7 31.55 35.9
Q 31.5 36.05 31.3 36.05 31.2 36.2 31.05 36.2
L 33 34.2
Q 33.05 34.3 32.8 34.65
M -39.75 39.25
L -39.35 39.45 -38.5 40.45 -35.65 42.9
Q -35.85 43.15 -36.3 42.7
L -37.6 41.55
Q -37.75 41.5 -37.95 41.3
L -39.8 39.75
Q -40.05 39.55 -40.5 38.95
L -40.7 38.8 -40.8 38.75 -40.85 38.75 -40.85 38.7 -40.9 38.65 -40.95 38.65
Q -41.2 38.5 -41.25 38.45 -41.4 38.3 -41.7 37.8
L -41.85 37.65 -42 37.45 -42.4 37.05
Q -42.5 36.9 -43.15 36.25
L -46.7 32
Q -46.9 31.75 -47.2 31.1
L -47.75 30.25
Q -47.85 30.2 -47.95 30
L -48.35 29.45 -48.65 28.85 -48.4 28.7
Q -48.1 29 -48.05 29.15
L -47.9 29.6 -47.5 30.25 -43.45 35.45
Q -43.05 35.75 -42.8 36
L -42.55 36.4 -42.5 36.5 -42.45 36.55 -42 37.1 -41.7 37.4 -41.35 37.65 -40.95 38.2 -40.75 38.3 -40.6 38.45 -40.55 38.45 -40.5 38.5 -40.1 38.75
Q -39.95 39.05 -39.75 39.25
M -14.95 51.65
Q -14.45 51.8 -14.3 51.8
L -13.55 51.75
Q -13.35 51.9 -13.2 52.2
L -15.3 51.75
Q -15.3 51.55 -14.95 51.65
M -57.85 -8.15
Q -57.95 -7.5 -57.55 -7.65
L -57.5 -8.7
Q -57.75 -8.8 -57.85 -8.15
M -0.8 47.9
L -1.1 47.85
Q -1.15 48.05 -0.8 48.05 -0.45 48.05 -0.45 47.9 -0.7 47.95 -0.8 47.9
M 17.1 49.9
Q 17.1 49.7 16.65 49.9 16.2 50.1 16.3 50.25
L 17.1 49.9
M 18.3 49.4
Q 18.8 49.1 18.85 48.9
L 18 49.3
Q 17.5 49.55 17.5 49.7 17.8 49.7 18.3 49.4
M 18.55 -47.5
Q 18.05 -47.7 18 -47.55 18.05 -47.4 18.25 -47.35 18.4 -47.35 18.5 -47.35
L 18.7 -47.3 18.9 -47.2
Q 19.15 -47.05 19.2 -47.1
L 18.55 -47.5 Z"/>
</g>

<g id="circulo_copy_0_Layer0_0_STROKES_1_FILL">
<path fill="#F1F1F1" stroke="none" d="
M 213.25 16.8
Q 213.0892578125 20.9009765625 212.9 23.55
L 212.55 27.4 213.25 16.8
M -61.45 204.8
L -61.35 204.85 -60.55 205.05 -61.45 204.8
M -83.35 197.1
Q -88.6 194.85 -93.05 192.7 -93.440625 192.5095703125 -93.85 192.3
L -87.55 195.5
Q -83.2 197.4 -79.55 198.8 -74.55 200.8 -69.55 202.4 -65.95 203.65 -60.35 205.25 -59.15 205.55 -60.85 205.05
L -61.3 204.9 -61.35 204.85 -61.4 204.85 -61.45 204.8 -76.45 199.85 -83.35 197.1
M -102.55 187.75
L -102.6 187.75 -102 188.05
Q -102.2595703125 187.912890625 -102.55 187.75
M -117.05 194.8
L -116.65 195 -119.2 193.4 -117.05 194.8
M 169.6 -136.1
Q 169.7123046875 -135.9630859375 169.8 -135.85
L 170 -135.65 169.6 -136.1
M -138.4 -162.1
L -139 -161.6
Q -138.8083984375 -161.71875 -138.65 -161.85 -137.8 -162.6 -137.65 -162.7 -137.55 -162.85 -138.4 -162.1
M -129.05 -170
L -129 -170 -128.65 -170.3 -129.15 -169.95 -129.05 -170
M -128.65 -170.3
L -128.65 -170.3 -127.35 -171.3
Q -126.0029296875 -172.262109375 -125.85 -172.45
L -127.05 -171.55 -126.4 -172.05
Q -125.4 -172.85 -127 -171.65
L -128.65 -170.3
M -68.5 -200.5
Q -68 -200.7 -67.9 -200.7
L -67.85 -200.75 -69.35 -200.25 -68.5 -200.5
M -73.25 -201.45
L -74.5 -201 -73.7 -201.25
Q -73.37265625 -201.390234375 -73.25 -201.45
M 199.25 -82.4
L 198.55 -83.95 199.15 -82.55
Q 199.35 -81.95 199.4 -81.95 199.45 -81.9 199.25 -82.4
M -107.5 -200.25
L -107.6 -200.25 -97.85 -205.3 -84.85 -210.85
Q -83.7048828125 -211.323828125 -83.45 -211.45 -83.709765625 -211.3419921875 -84.85 -210.95 -88.55 -209.6 -95.55 -206.6
L -103.3 -203 -114.4 -197.15
Q -120.3 -193.85 -126.05 -190.1 -130.45 -187.25 -134.25 -184.5 -139.65 -180.7 -144.9 -176.4 -149.9 -172.3 -154.75 -167.9
L -159.55 -163.45 -161.75 -161.25 -161.9 -161.15 -164.85 -158.2 -158.2 -165.25
Q -153.75 -169.4 -151.5 -171.35
L -150 -172.7 -149.6 -173 -149.25 -173.35 -145.75 -176.25
Q -140.75 -180.4 -136.65 -183.4
L -134.8 -184.8
Q -134.2 -185.2 -133.95 -185.45
L -129.9 -188.35 -137.25 -183.35
Q -140.05 -181.35 -141.95 -179.9 -146.65 -176.35 -152.2 -171.55
L -149.4 -174.1
Q -148.7 -174.8 -148.8 -174.8 -148.95 -174.85 -150.3 -174 -150.65 -173.8 -150.4 -174.15
L -144.35 -179.55
Q -140.55 -182.7 -135.95 -186.15 -129.5 -190.95 -122.1 -195.55 -122.004296875 -195.6099609375 -121.95 -195.7
L -131.9 -189.65
Q -140.29765625 -183.959765625 -149 -176.85 -149.775 -176.2 -150.55 -175.55 -150.876171875 -175.276171875 -151.2 -175
L -153.45 -173 -153.8 -172.75 -160.55 -166.65 -170.25 -157
Q -170.6119140625 -156.61953125 -170.95 -156.25 -171.115625 -156.073828125 -171.3 -155.9
L -172.35 -154.75
Q -175.2 -151.75 -178.65 -147.7
L -189.15 -134.55 -200.55 -117.6 -208.7 -103.05 -208.8 -102.75 -218.7 -79.65 -220.1 -75.6 -220.1 -75.5 -221.2 -72.2 -221.3 -71.75 -221.4 -71.6 -221.4 -71.5 -221.5 -71.15
Q -223.4 -65.15 -225.5 -56.55
L -225.9 -54.85 -225.95 -54.4 -228.05 -43.75
Q -229.7 -34.05 -230.4 -24.6
L -230.8 -15.1
Q -230.8 -14.2 -230.55 -16.2
L -228.45 -32.45
Q -228.3 -33.3 -228.35 -32.4
L -229.85 -14.15 -229.9 -13.85 -230.05 -9.3 -230.1 -9 -230 10.4
Q -229.6 17.45 -229.3 20.85 -229.05 24.35 -228.4 29.5
L -227.6 35.25
Q -227.3 37.3 -227.3 37.05 -226.3 43.35 -225.55 46.95 -224.6 51.6 -223.45 56.3 -222.45 60.2 -221.1 65.1 -219.7 69.85 -218.5 73.4
L -215.7 81.1
Q -214.1 85.3 -212.8 88.3
L -206.85 101.15
Q -204 106.7 -200.9 111.95 -198.5 116.1 -195.4 120.9
L -186.3 133.7
Q -183.55 137.25 -180.8 140.5
L -179.55 141.9
Q -179.3 142.15 -179.4 141.95
L -182.2 138.2
Q -186.05 133.1 -188.8 129.2 -193.5 122.65 -197.4 116.15
L -198.5 114.3
Q -197.50234375 115.890234375 -196.5 117.5 -192.55 123.75 -189.35 128.25 -185.05 134.2 -181.25 138.9
L -172.45 149.3 -161.9 160.3 -161.75 160.4 -161.65 160.55 -161.55 160.6 -153.35 168.3
Q -149.45 171.85 -143.55 176.65 -139.2 180.15 -133.9 184
L -133.4 184.25 -122.5 191.25 -123.5 190.6
Q -124.75 189.8 -123.1 190.8
L -120.2 192.5
Q -128.7572265625 187.141015625 -137 180.9 -130.9 185.35 -126.4 188.3 -122.35 191.05 -117.55 193.9 -116.4927734375 194.5369140625 -115.35 195.2 -111.960546875 197.1642578125 -107.75 199.4
L -112 197 -112.35 196.75 -104.35 201
Q -100.8 202.8 -96.65 204.7
L -82.75 210.35 -82.45 210.5 -59.6 217.45
Q -59.55 217.45 -59.25 217.5
L -59 217.55 -48.85 219.8 -48.05 219.9 -47.45 220.05 -46.75 220.1
Q -48.0033203125 219.8744140625 -46.65 220.1
L -36.35 221.65
Q -34.2 221.95 -34 221.95
L -23.65 222.95
Q -20.2 223.2 -21.15 223.05
L -26.35 222.6
Q -31.9 222.1 -36.05 221.5 -42.15 220.65 -46.8 219.75
L -63.35 216
Q -68.5 214.6 -72.35 213.4 -78.3 211.5 -81.85 210.15 -86.55 208.4 -91.65 206.25 -101.55 202 -111.15 196.65 -120.25 191.6 -129.45 185.2
L -151.85 166.95 -159.85 159.35 -160.1 159.05 -164.35 154.75
Q -169.95 148.85 -173.95 144.15
L -179.05 138
Q -182.2 134.05 -184.2 131.25 -185 130.1 -184.4 130.9 -183.05 132.65 -181.9 134.1
L -174.4 143.2
Q -174.25 143.45 -173.85 143.85
L -158.95 159.7
Q -158.7 160 -158.65 160.05
L -145.3 172.2 -144.8 172.55 -142.75 174.3
Q -138.05 178.1 -134.7 180.55 -130.05 184 -126.1 186.65 -116.9 192.85 -107.1 198.1 -101.5 201.1 -96.75 203.25 -92 205.45 -85.85 207.95 -79.7 210.35 -74.5 212.05
L -62.75 215.55
Q -57 217.1 -50.7 218.4 -43.5 219.8 -38.35 220.55
L -25.85 222
Q -18.3 222.65 -13.2 222.75
L -9.65 222.85 -9.25 222.9 -0.55 222.9
Q 4.65 222.85 12.1 222.4 24.3 221.6 37.2 219.35 43.45 218.25 49.5 216.8 55.5 215.35 61.55 213.5 67.55 211.7 73.25 209.6
L 84.55 205.05
Q 90.5 202.35 95.35 199.9 100.75 197.1 105.6 194.3 111.1 191.05 115.3 188.25 119.5 185.5 124.4 181.9 129.25 178.25 132.9 175.3
L 140.75 168.5
Q 144.3 165.35 148.05 161.7
L 154.75 154.9
Q 158 151.55 160.9 148.15
L 165.15 143.2
Q 165.3 143.1 165.5 142.8
L 172.75 133.65 181.1 121.55
Q 183.6 117.7 185 115.3 188.05 110.25 189.95 106.5
L 192.15 102.2
Q 192.45 101.6 192.45 101.55
L 192.3 101.8
Q 189.7 106.7 188.25 109.3
L 175.25 129.6 163.7 144.3 152 157.05 151.95 157.15 146.5 162.5
Q 143.55 165.35 139.35 169.1 139.4 169 137.75 170.35
L 132.7 174.55
Q 128 178.3 124.15 181.1
L 119.8 184
Q 122.4412109375 182.187109375 125.3 180.05 130.05 176.5 134.3 172.95 139.55 168.55 142.8 165.5
L 157.95 150.3
Q 161.45 146.55 164.6 142.75 166.2 140.85 170.55 135.35
L 173.3 131.65 173.65 131.25 185 114.1
Q 187 110.8 189.45 106.25 193.6 98.65 197.4 89.8 201.1 80.85 203.75 72.75
L 206.25 64.2
Q 207.05 61.35 208.35 55.75 209.2 52.2 210.05 47.55
L 210.8 41.9
Q 210.253515625 45.4826171875 209.35 50 208.1 56.2 206.85 61.05
L 203.15 73.65
Q 200.7 80.85 198.25 86.8 192.5 100.9 184.65 114
L 171.5 133.35 170.85 134.15
Q 169.1 136.5 165.65 140.75
L 153.55 154.25 153.4 154.45 148.25 159.6
Q 144.75 163 141.9 165.6
L 144.3 163.3 139.15 167.85
Q 138.6 168.35 138.35 168.55
L 138.65 168.25 134.75 171.55
Q 131.25 174.45 129.95 175.45
L 115.6 185.85 104.3 192.8 98.95 195.6 99.65 195.25
Q 101.4 194.2 101.6 194.1 102.25 193.7 100.9 194.45
L 87.75 201
Q 83 203.15 77.05 205.45
L 56.15 212.35
Q 51.5 213.6 47.9 214.4 39.3 216.35 29.7 217.7 20.15 219.05 9.45 219.65
L 4.85 219.7 7.2 219.6
Q 7.8 219.6 8.8 219.5
L 12.55 219.25 13.05 219.15
Q 13 219.15 12.8 219.15
L 10.45 219.2
Q 9.9 219.2 9.55 219.25
L -14.35 219.05
Q -21.15 218.7 -25.85 218.2 -30.6 217.75 -36.85 216.85 -40.3353515625 216.320703125 -44.55 215.55
L -42.1 215.9
Q -40.8 216.1 -41.35 215.95
L -55.65 212.8
Q -60.8 211.6 -65.85 210.05
L -75.15 207
Q -75.5 206.95 -76 206.7
L -78.55 205.8
Q -86.25 202.9 -93.5 199.55
L -85.95 202.55 -102.35 194.75
Q -107.1 192.2 -111.15 189.8
L -122.45 182.6
Q -131.05 176.75 -138.95 170.25 -142.9 167 -146.5 163.75
L -150.2 160.15 -149.65 160.65
Q -150.2435546875 160.0908203125 -150.85 159.5 -148.7509765625 161.4560546875 -146.55 163.45
L -141.05 168.2
Q -140.65 168.6 -140.4 168.75
L -139.1 169.9
Q -138.15 170.6 -136.3 172.15
L -116.2 186.4
Q -112.7 188.65 -108.1 191.25 -95.6 198.25 -82.7 203.3 -75.95 205.95 -68.65 208.25
L -53.9 212.2
Q -39.5 215.6 -23.4 217 -16.05 217.65 -8.05 217.8
L -7.1 217.8 -6.65 217.85 2.3 217.8
Q 2.9 217.8 3.2 217.75
L 6.95 217.65
Q 21.65 217.05 35.55 214.75
L 52.6 211.15 60.8 208.9
Q 71.2 205.8 81.3 201.55 85.05 200 89.5 197.85
L 91.05 197.05
Q 89.46875 197.80078125 87.9 198.5
L 71.9 204.75
Q 66.5 206.7 60.45 208.45 54.8 210.05 51.95 210.7
L 59 208.8 79.75 201.55
Q 84.95 199.4 87.4 198.25 92.5 195.9 95.95 194.05
L 108 187.2 106.65 187.9
Q 106.3 188.15 106.25 188.15 106.2 188.15 106.7 187.8
L 125.35 175.1 124.55 175.6
Q 124.4 175.7 124.15 175.85 124.05 175.9 124.2 175.75
L 126.5 173.95 126.4 174.05 117.45 180.45
Q 112.6 183.7 107.2 186.95
L 97.95 192.15
Q 97.25 192.45 96.2 193.05
L 94.35 193.95
Q 86.5 197.95 76.8 201.75 72.1 203.6 67.3 205.15 61.6 207.05 57.25 208.2 46.8 211.1 36.75 212.75 27.5 214.35 18.15 215.1 14.58515625 215.38828125 10.9 215.55 12.0375 215.475 13.15 215.4
L 22.35 214.65
Q 27.25 214.1 31.85 213.45
L 41.65 211.75
Q 52.2 209.7 62.3 206.65 67.9 204.9 73.15 203
L 84.35 198.45
Q 89.3 196.3 93.8 194 97.1 192.35 102.05 189.6 107.65 186.35 110.4 184.6 114.385546875 182.103515625 118.8 178.95
L 117.35 179.95
Q 117.2 180 118.5 179.1
L 120.65 177.5
Q 120.6 177.5 119.95 177.9
L 111.2 183.7
Q 108.25 185.55 103.9 188.05 101.2 189.65 95.25 192.75 89.8 195.5 85.65 197.3 81.4 199.2 75.65 201.4 70.7 203.3 65.9 204.8 62.05 206.05 57 207.4 54 208.25 48.85 209.45 45.85 210.15 40.55 211.2
L 32.15 212.6
Q 27.9 213.2 23.6 213.65 17.9 214.25 15 214.45
L 8.45 214.8
Q 7.75 214.8 7.4 214.85
L -11.25 214.8
Q -29.3 214.1 -46.6 210.65 -55.55 208.85 -64.1 206.3 -73.05 203.7 -81.2 200.4 -89.35 197.2 -97.75 192.95 -105.7 188.95 -113.55 184.05 -116.9 182 -121.15 179.1
L -128.5 173.85
Q -136.05 168.1 -142.5 162.45
L -153.3 152.25 -153.45 152.15 -155.5 150.1
Q -156.5 149 -157.05 148.5
L -158.55 146.85
Q -159.1 146.35 -160.1 145.25
L -167.45 136.9
Q -173.6724609375 129.5412109375 -179.1 121.75 -177.4375 124.05 -175.7 126.4
L -170.9 132.5
Q -170.6 132.95 -169.9 133.75 -169.6 134.2 -168.9 135
L -167.85 136.25
Q -163.1 141.8 -158.8 146.4
L -143.25 161.5 -137.55 166.4
Q -134.9 168.65 -131.65 171.15
L -128.6 173.5
Q -127.55 174.25 -125.5 175.75
L -108.4 186.9 -85.1 198.55
Q -71.55 204.25 -57.05 207.95
L -43.5 210.95
Q -36.7 212.15 -30.65 212.9 -23.95 213.7 -18.75 214.05 -13.85 214.4 -8.1 214.55
L 4.3 214.55
Q 4.85 214.55 5.1 214.5 11.3 214.35 16.75 213.9 22 213.5 27.3 212.85 33.3 212.05 37.05 211.4 42.1 210.55 46.45 209.55 51.3 208.5 55.9 207.25 60.85 205.95 65.75 204.35 70.5 202.8 76.35 200.6
L 92.8 193.3 99.3 189.9 99.65 189.75 99.95 189.55
Q 104.6 187.05 110 183.65 114.2 181.05 119.4 177.4 125 173.45 128.5 170.65 132.8 167.25 137.5 163.2 142.1 159.2 146.75 154.7
L 156.6 144.55
Q 157.0060546875 144.135546875 157.4 143.7
L 158.7 142.3 158.7 142.25
Q 165.566015625 134.6095703125 171.3 126.95 177.55 118.65 182.75 110.1 185.4 105.65 187.4 102.1
L 191.6 93.95 191.7 93.7 191.85 93.45 197.1 81.75 202.5 66.8
Q 204.45 60.5 205.95 54.65 207.5 48.35 208.45 43.25 209.5 37.85 210.25 32.35
L 209.95 34.25 210.8 27.5 207.85 45.5 207.8 45.6 207.7 46.35
Q 207.6904296875 46.3787109375 207.65 46.4
L 207.65 46.45 204.4 59.75 197.1 80.95 196.45 82.45
Q 194.1 88.15 190.95 94.5
L 178.4 116.15
Q 172.3 125.3 165.35 133.75 162.05 137.75 158.75 141.4 154.9 145.7 152.1 148.55 149.1 151.6 145.35 155.2
L 135.25 164.25
Q 131.1 167.8 125.9 171.75
L 116.15 178.7
Q 111.15 182.1 106.15 185.05 101.35 187.95 95.8 190.8
L 85.25 195.85
Q 78.9 198.6 74.5 200.25 64 204.2 52.55 207.05 46.25 208.6 41.4 209.5 35.65 210.55 30.2 211.3 18.8 212.85 7.85 213.2 2.3 213.45 -3.2 213.35 -7.85 213.35 -14.25 213 -25.85 212.35 -36.05 210.8 -47.15 209.05 -57.3 206.4 -68.15 203.5 -77.7 199.85 -88.05 195.9 -97.1 191.25 -105.85 186.8 -115.3 180.75 -123.4 175.55 -132.25 168.55 -140.35 162.1 -147.8 154.95 -155.55 147.55 -162 140.2 -168.6 132.85 -174.8 124.35 -181.15 115.7 -186.45 106.8 -191.75 97.65 -196.2 88.05 -200.6 78.3 -203.85 68.35 -207.2 58.4 -209.45 48 -211.7 37.75 -212.9 27.3 -214.15 16.7 -214.35 6.55
L -214.4 2.1 -214.15 10.45
Q -213.95 16.25 -213.3 22.8 -212.8 27.9 -211.75 35.05 -210.65 41.95 -209.55 46.9
L -206.85 58.15
Q -205.4 63.4 -203.7 68.55 -202.25 72.9 -200.3 77.9 -197.15 85.9 -193.7 92.9 -189.85 100.85 -184.85 109.1 -182.5 112.95 -180.05 116.6
L -175.1 123.7
Q -165.95 136.3 -154.4 148.15
L -144.05 158.2
Q -139.4 162.4 -134.05 166.8 -124.95 174.15 -115.8 180.1
L -109.8 183.6
Q -112.141015625 182.16484375 -114.6 180.6 -119.25 177.5 -122.35 175.3 -127.6 171.55 -131.55 168.4
L -143.4 158.25 -151.9 150.15 -162.3 139 -172.8 126.05 -184.7 108.5 -185.25 107.5
Q -188.05 102.8 -190 99.15 -192.5 94.5 -194.85 89.4
L -199.8 77.8
Q -202.15 71.7 -204.1 65.45
L -206.45 56.3 -206.25 56.95 -207.8 50.45 -207.95 50 -209.25 42.95
Q -208.35 47.3 -207.75 49.85
L -206.6 54.55 -206.55 54.9 -203.25 66.1 -199 77.5
Q -197.25 82 -194.65 87.65 -192.45 92.55 -189.1 98.85
L -186.85 102.95
Q -186.75 103.1 -186.1 104.25
L -183.15 109.15
Q -180.2 113.85 -178.15 116.8
L -174.5 121.95
Q -172 125.5 -168.75 129.55
L -165.85 133
Q -168.603515625 129.5828125 -170.8 126.7
L -178 116.65
Q -181.65 111.15 -184.4 106.5 -188.55 99.5 -191.7 93 -195.75 84.7 -198.85 76.75 -202.3 67.75 -204.85 58.55 -207.4 49.35 -209.2 39.3 -210.85 29.85 -211.65 20.05 -212.1 15.35 -212.25 10.8 -212.4 7.8 -212.5 1.95
L -211.9 -17.2 -211.85 -17.4 -210.6 -29.8 -208.85 -40.25
Q -208.55 -41.8 -208.4 -42
L -202.45 -65.2 -202.35 -65.4 -202.35 -65.5 -202.3 -65.55 -202.2 -65.95 -201.2 -68.9 -201.1 -69.3 -200.95 -69.65 -195.45 -83.75 -188.65 -97.65 -181.85 -109.1
Q -181.1 -110.2 -181.7 -109.25
L -192.85 -88.3
Q -195.65 -82.15 -197.95 -76.15
L -199.25 -72.6 -199.3 -72.4 -202.55 -62.45
Q -204.75 -55 -206.25 -48.05 -206.4806640625 -46.980078125 -206.7 -45.95
L -206.65 -46.1 -208.25 -37.75
Q -208.2708984375 -37.623828125 -208.3 -37.5 -208.371875 -37.008203125 -208.45 -36.55
L -208.6 -35.7
Q -208.5994140625 -35.5244140625 -208.65 -35.35
L -208.85 -33.9
Q -209.9 -27.05 -210.5 -19.45
L -211.15 4.9 -210.5 16.15 -210.45 16.5 -210.55 14.65
Q -210.5376953125 14.4638671875 -210.55 14.25
L -210.75 10.8
Q -210.7353515625 10.44296875 -210.75 10.1
L -210.6 -13.8 -210.1 -20.65
Q -209.8603515625 -23.59765625 -209.45 -26.95 -209.4474609375 -27.135546875 -209.35 -27.85
L -209.15 -29.5 -209.15 -29.55 -206.25 -46.6
Q -206.09609375 -47.35078125 -206 -48
L -205.8 -48.75 -205.8 -48.8 -205.6 -49.6
Q -205.5884765625 -49.65 -205.6 -49.7 -205.5634765625 -49.75 -205.55 -49.8 -204.26640625 -55.3669921875 -202.4 -61.85
L -201.4 -65.05 -201.4 -65.15 -201.35 -65.2 -199.05 -72.15 -198.9 -72.45 -198.8 -72.8 -191.1 -91.1
Q -187.45 -98.7 -183.65 -105.15 -180.5837890625 -110.3294921875 -178.1 -114.1
L -177.95 -114.4
Q -177.748046875 -114.63984375 -177.6 -114.9
L -168.3 -127.8
Q -165.8 -131 -162.45 -135 -158.95 -139.05 -155.85 -142.45
L -142.4 -155.9 -143.1 -155.25
Q -141.35 -156.9 -137.95 -159.9
L -123.1 -171.8
Q -114.35 -178.25 -105.45 -183.4 -101.6 -185.65 -97.7 -187.75 -95.2 -189.1 -90.75 -191.25
L -79.15 -196.35
Q -73.95 -198.4 -68.4 -200.3
L -59.15 -203.15 -59.25 -203.15 -64.7 -201.6
Q -66.2572265625 -201.128125 -71.1 -199.6
L -71.3 -199.55
Q -71.411328125 -199.491015625 -71.55 -199.45
L -82 -195.65 -83 -195.2
Q -87.15 -193.5 -92.2 -191.1 -94.9 -189.85 -99.25 -187.55 -104.05 -185 -108.2 -182.5
L -111.4 -180.6
Q -116 -177.75 -120.35 -174.75
L -131.25 -166.7
Q -132.05 -166.05 -131.5 -166.55 -131.144921875 -166.865625 -131.1 -167 -131.13984375 -166.8951171875 -131.4 -166.7
L -135.35 -163.55
Q -139.9 -159.75 -144.2 -155.85
L -150.65 -149.6 -150.8 -149.5 -158.2 -141.75
Q -160.75 -139 -163.65 -135.6 -166.95 -131.6 -168.75 -129.35
L -175 -121.05 -175.05 -120.95 -175.15 -120.85 -177.4 -117.65 -177.5 -117.45 -178.05 -116.65
Q -182.25 -110.55 -186.35 -103.35 -190.15 -96.6 -193.75 -89.05 -197.1 -81.8 -200.25 -73.4
L -205.1 -58.25 -205.15 -57.95 -207.95 -46.4 -208.05 -46.1 -208.95 -41.4
Q -209.8 -36.5 -209.85 -36.25
L -210.25 -33.85 -209.7 -37.8 -209.6 -38.15 -207.75 -47.8
Q -207.689453125 -48.0830078125 -207.65 -48.4 -207.39140625 -49.4654296875 -207.15 -50.55
L -205.9 -55.7
Q -205.5263671875 -57.0875 -205.2 -58.5
L -203.15 -65.8 -203.1 -66.05 -198.8 -78.2
Q -196.7 -83.65 -193.8 -90
L -182.2 -111.35 -166.65 -133
Q -164.9 -135.3 -160.55 -140.2
L -154.1 -147.15 -144.85 -156.25 -149.4 -152.15 -140.2 -160.75
Q -138.99765625 -161.8125 -137.6 -163
L -141.65 -159.7 -151.45 -150.45 -151.6 -150.35 -161.65 -139.65 -176.1 -121.6 -186.65 -105.3 -186.75 -105.05 -186.9 -104.8
Q -191.3 -97.3 -195.25 -88.75
L -200.1 -77.25 -203.8 -66.7 -203.95 -66.35 -204 -66.15 -204 -66.05 -204.05 -66 -210.05 -42.3
Q -210.759375 -38.5705078125 -211.4 -34.7
L -210.45 -41.85
Q -209.1 -48.75 -207.55 -54.95
L -204.4 -66.05 -204.3 -66.25 -199.2 -80.45
Q -198.5064453125 -82.1685546875 -197.75 -84.05
L -197.2 -85.25
Q -197.1255859375 -85.4244140625 -197.05 -85.6
L -194.9 -90.35
Q -194.8138671875 -90.5318359375 -194.75 -90.75
L -194.45 -91.3
Q -194.308203125 -91.5951171875 -194.2 -91.9
L -189.2 -101.45 -189.05 -101.85 -188.8 -102.2 -187.6 -104.35
Q -184.5 -109.75 -180.7 -115.55
L -165.15 -136.35
Q -162.5 -139.5 -160.95 -141.15
L -147.8 -154.75
Q -143.5 -158.9 -138.65 -163.05 -129.65 -170.8 -119.6 -177.75
L -108.15 -185.05
Q -103.35 -187.9 -98.3 -190.5 -93.25 -193.1 -90.15 -194.5
L -84.1 -197.2 -89.55 -194.95
Q -94.2 -192.8 -98.7 -190.5
L -109.4 -184.55 -123.05 -175.6
Q -123.1 -175.55 -123.65 -175.15
L -137.75 -164.2 -138.05 -163.9 -140.2 -162.05
Q -144.7 -158.1 -149.15 -153.9 -157.1 -146.3 -164.8 -137.4 -168.95 -132.5 -172.5 -127.95
L -180.55 -116.7
Q -185.2 -109.65 -189.05 -102.85 -193.55 -94.85 -197.7 -85.4
L -203.6 -70.35 -203.7 -70 -203.85 -69.7 -204.95 -66.25
Q -209.65 -51.65 -212.15 -35.7 -213.3 -28.45 -214 -20.45
L -214.2 -17.6 -214.25 -17.35 -214.75 7.85 -213.6 24.5
Q -212.05 39.45 -208.6 53.35
L -204.7 67.25 -199.8 80.7 -194 93.65
Q -191 99.75 -187.3 106.1
L -173.2 127.25 -165.55 136.8 -165.25 137.1 -165 137.45 -152.6 150.85 -143.15 159.8
Q -138.45 164.1 -132.6 168.8
L -112.8 182.85 -90.25 195.05 -83.45 198 -65.3 204.55
Q -64.3 204.85 -58.5 206.5
L -41.25 210.35 -19.95 213.05
Q -18.75 213.15 -18.2 213.15
L -12.8 213.5
Q -12.2 213.5 -11.9 213.55
L 8.95 213.55
Q 9.55 213.55 9.85 213.5
L 10.8 213.5
Q 12 213.4 12.6 213.4 19.95 212.95 27.3 212.05 39.348046875 210.5587890625 50.6 207.9 49.044140625 208.304296875 47.75 208.6 41.95 209.9 36.85 210.75 30.35 211.85 24.6 212.45 18.3 213.2 11.9 213.5 5.1 213.9 -0.55 213.9
L -11.9 213.7
Q -17.35 213.45 -21.5 213.1
L -27.75 212.5 -28.15 212.5 -28.45 212.45
Q -32.7 212 -37.8 211.15 -42.55 210.4 -46.9 209.5
L -55.7 207.5
Q -60.8 206.2 -64.2 205.15
L -78.55 200.3 -78.75 200.2 -79.25 200.05 -83.05 198.5 -83.55 198.35 -94.85 193.25
Q -98.6 191.45 -101.65 189.75
L -119.9 178.7
Q -125.85 174.65 -130.3 171.2 -134.6 167.9 -139.4 163.85
L -152.6 151.65 -152.65 151.55 -163.65 139.9
Q -174.3 127.7 -182.95 114.45 -191.75 100.85 -198.05 86.6
L -201.6 78.15 -206.7 63.3
Q -208.15 58.45 -209 55
L -209.7 52.4 -214 28.8
Q -214.25 27.4 -214.3 26.25
L -214.6 23.75 -215.8 -0.2 -215.75 -0.55 -215.5 -12.7 -213.3 -34.7 -208.45 -58.15 -207.25 -62.3
Q -205.45 -68.45 -202.8 -75.85 -200.1 -83.05 -197.05 -89.6 -193.75 -96.8 -189.85 -103.85 -185.55 -111.45 -181.4 -117.7
L -177.95 -122.75 -177.85 -122.85 -177.8 -122.95 -168.1 -135.6 -167.75 -135.95 -166.8 -137.15
Q -164.25 -140.2 -161.55 -143.15 -159.35 -145.65 -156.15 -148.95
L -141.6 -162.9 -133.85 -169.4
Q -133.45 -169.75 -131.05 -171.65
L -128.25 -173.8
Q -122.8333984375 -177.8171875 -118.2 -180.95 -118.3 -180.95 -117.8 -181.3
L -106.8 -188.25 -110.8 -186.1
Q -116.15 -183.1 -121 -179.85
L -126.5 -176
Q -130 -173.45 -133.65 -170.6 -137.2 -167.85 -141.75 -163.9 -146.4 -159.9 -150.1 -156.35 -158.05 -148.85 -165.1 -140.8 -168 -137.5 -170.8 -134.1
L -171.1 -133.8 -167.05 -138.75
Q -162.9 -143.6 -158.95 -147.7
L -153.95 -152.9 -153.8 -153 -142.2 -163.85
Q -133.8 -171.2 -124.5 -177.85 -115.25 -184.4 -105.6 -189.8 -100.6 -192.65 -95.65 -195.05 -90.8 -197.4 -85.25 -199.75 -79.9 -202 -74.45 -203.95 -69.15 -205.8 -63.15 -207.55 -51 -211 -39 -212.95 -33.1 -213.95 -26.1 -214.65
L -21.1 -215.15
Q -20.55 -215.15 -20.25 -215.2
L -17.75 -215.4
Q -17.15 -215.4 -16.05 -215.5
L -11.7 -215.7
Q -11.15 -215.7 -10.85 -215.75
L -6.5 -215.85
Q -5.95 -215.85 -5.65 -215.9
L 12.65 -215.55
Q 22.85 -214.95 32.55 -213.55
L 52.15 -209.8 64 -206.55 54.05 -209.5
Q 52.05 -210.05 50.7 -210.4 49.7 -210.7 49.05 -210.8
L 44.65 -211.85 44.25 -211.9 40.85 -212.6
Q 53.95 -210.2 66.9 -205.95
L 67.3 -205.85 83.2 -199.85 89.75 -196.9
Q 92.75 -195.55 98.6 -192.5
L 110.05 -186.05
Q 110.2 -185.95 110.1 -186.05 119.9 -179.9 129.1 -172.75 137.75 -165.95 146.25 -157.85
L 151.15 -153 151.4 -152.8 161.2 -142.25
Q 167.6 -134.9 173.6 -126.75 176.3 -123.1 178.8 -119.35
L 191.1 -98.35 197.55 -84.4
Q 195.95 -88.4 193.65 -93.4
L 189.05 -102.75
Q 188.5 -103.85 188.9 -103.15 186.45 -107.65 184.4 -111.1 181.5 -115.9 179 -119.65 173.15 -128.65 165.85 -137.5 161.45 -142.8 158.3 -146.25
L 152.1 -152.85 152 -153 150.35 -154.65
Q 148.325 -156.6875 146.3 -158.7 148.4591796875 -156.6671875 150.5 -154.6
L 155.85 -149.1 156 -148.9 161.8 -142.5
Q 165.3 -138.55 168.95 -133.95
L 171.7 -130.5 172.05 -129.95 172.75 -129.1 167.7 -135.9
Q 165.0248046875 -139.3130859375 161.55 -143.4
L 163.75 -141
Q 164.05 -140.6 164.1 -140.6
L 163.8 -141 173.3 -129 173.85 -128.2
Q 178.35 -122 181.55 -116.9 186.75 -108.75 191.7 -99.05 193.6025390625 -95.2447265625 195.25 -91.6
L 192.1 -98.9
Q 193.50078125 -96.08671875 195.15 -92.45 197.45 -87.5 199.55 -82
L 202.45 -74.05 206.3 -61.3 208.25 -53.25
Q 209.1 -49.45 210 -44.3
L 212.05 -29.7
Q 212.1 -29.3005859375 212.15 -28.8
L 211.85 -32.65
Q 211.1 -39.5 210.05 -45.2
L 207.9 -55.75 207.85 -56.15 204.4 -69
Q 202.3 -75.7 200.8 -79.65 198.95 -84.8 196.75 -89.85 194.5 -95.05 192.05 -99.95 189.45 -105.25 186.6 -110.15
L 185.25 -112.5 188.35 -107.4
Q 188.05 -108 187.35 -109.25
L 184.2 -114.75
Q 182.2 -118.2 179.2 -122.7
L 172.6 -132.1
Q 171.0802734375 -134.172265625 168.9 -137
L 162.95 -144.35
Q 162.15 -145.35 161.7 -145.8
L 148.5 -159.95
Q 148.5486328125 -159.95 148.05 -160.45
L 143 -165.25
Q 140.8 -167.35 136.7 -170.9 133.25 -173.8 129.15 -177.1 124.5 -180.7 120.55 -183.5 110.6 -190.55 100.55 -196
L 95.1 -198.9 78.75 -206.35 86.3 -203.25 86.65 -203.15 85.85 -203.6 81.45 -205.55
Q 77.1 -207.4 73.1 -208.9
L 67.4 -210.95
Q 66.15 -211.4 64.1 -212.05
L 52.45 -215.4
Q 47.5 -216.7 43.2 -217.55 38.25 -218.6 32.7 -219.5 30.5181640625 -219.8388671875 28.05 -220.2
L 31.8 -219.75
Q 35.75 -219.2 41.3 -218.15 47.05 -217 52.05 -215.75 58.05 -214.3 62.95 -212.75
L 85.8 -204.3 71.5 -210.3 58.85 -214.45 58.6 -214.55 57.95 -214.7
Q 52.1 -216.4 46.1 -217.75 38.2 -219.5 29.4 -220.8
L 29.55 -220.8 32.45 -220.4
Q 28.6173828125 -221.0041015625 25.05 -221.45 20.15 -222.05 13.7 -222.6
L 7.75 -222.95 7.45 -223 -6.6 -223.3
Q -13.2 -223.2 -16.55 -223.05 -20.8 -222.85 -27 -222.35 -32.25 -221.85 -38.35 -221
L -39.9 -220.8 -40.25 -220.7 -51.15 -218.8 -63.55 -216
Q -68.45 -214.75 -72.85 -213.35 -78.75 -211.5 -84.45 -209.35
L -106.4 -199.5
Q -110.7 -197.25 -114.85 -194.8 -119.25 -192.25 -123.85 -189.25
L -133.35 -182.75
Q -138.8 -178.75 -143.2 -175.2 -148.25 -171.05 -153.35 -166.4 -152.55 -167.35 -152.85 -167.15
L -160.75 -160.05 -170.55 -149.95
Q -172.2744140625 -148.0865234375 -173.95 -146.2
L -169.9 -151.1
Q -165.75 -155.6 -161.5 -159.8
L -161.25 -160.1 -159.4 -161.9 -159.15 -162.1 -158.9 -162.4 -152.95 -167.9
Q -149.2 -171.3 -144.5 -175.25 -140.6 -178.45 -136.3 -181.7 -132.7 -184.4 -128.65 -187.2 -125.15 -189.65 -121.85 -191.75 -117.85 -194.3 -111.8 -197.75
L -107.5 -200.25
M -145.6 -156.9
L -145.05 -157.4
Q -144.67734375 -157.7361328125 -144.35 -158.05 -144.958984375 -157.4611328125 -145.6 -156.9
M -169.9 130.85
Q -169.532421875 131.315625 -169.2 131.75 -169.9634765625 130.808203125 -170.7 129.85 -170.3044921875 130.34453125 -169.9 130.85
M -174.85 124.35
Q -174.5162109375 124.8158203125 -174.2 125.3
L -174.55 124.8
Q -174.8 124.45 -174.9 124.3
L -174.85 124.35
M -107.95 -200.05
Q -107.9580078125 -200.024609375 -108 -200
L -115.35 -195.95
Q -115.5384765625 -195.855859375 -115.7 -195.8
L -107.95 -200.05
M -196.4 -115.85
L -195.45 -117.45
Q -195.3 -117.75 -192.35 -122.35
L -189.3 -126.6 -191.25 -123.75
Q -193.870703125 -119.9267578125 -196.4 -115.85
L -202 -106.2
Q -200.76953125 -108.3921875 -199.5 -110.6 -197.9666015625 -113.264453125 -196.4 -115.85
M -182.45 -107.25
L -182.6 -107 -182.55 -107.1 -182.45 -107.25
M -211.95 -33.95
L -211.95 -33.8 -213.45 -19.05 -212.6 -25.15
Q -212.7298828125 -23.976953125 -212.85 -22.8
L -213.1 -17.5 -211.8 -29.95 -210.25 -39.65 -212.6 -21.55 -213.45 0.4 -213.15 -16.1 -213.95 2.55 -213.45 15.55
Q -212.85 24.65 -211.55 33.85 -210.9 38.2 -210.05 42.75
L -206.05 59.65
Q -205.3 62.4 -203.6 67.7
L -199.5 79.15 -199.4 79.35 -197.4 84.1 -197.25 84.55 -200.45 77.05 -203.35 68.85
Q -205.05 63.9 -206.65 58 -208.2 52.2 -209 48.55 -209.65 45.6 -210.75 39.9 -211.55 35.45 -212.1 31.25 -212.7 26.8 -213.15 21.9 -213.7 16.9 -213.9 11.1
L -214.15 -1.8 -214.2 -1.8 -213.5 -18.4 -213.85 -15.15 -212.5 -30.6 -211.95 -33.95
M 150.1 -155.65
L 149.65 -156.1 150.1 -155.65
Q 150.3384765625 -155.415625 150.55 -155.2
L 158.05 -147.25 150.55 -155.2
Q 150.3384765625 -155.415625 150.1 -155.65
M 176.3 -126.35
Q 177.0375 -125.3375 177.8 -124.25
L 178.6 -123.05
Q 177.49296875 -124.649609375 176.3 -126.35
M 115.8 186.75
Q 116.1283203125 186.5349609375 116.45 186.3
L 112.15 189.25
Q 108.25 191.7 104.8 193.7 101.15 195.8 96.6 198.2 91.85 200.65 87.45 202.65 82 205.1 77.45 206.9 70.95 209.4 66.6 210.8 65.45859375 211.18046875 64.3 211.55 64.8251953125 211.3650390625 65.35 211.2 75.8 207.8 85.6 203.4 96.3 198.65 105.95 192.9 111.15 189.85 115.8 186.75
M -157.4 153.15
L -160.9 149.75
Q -163.15 147.4 -167.9 142.05 -173.165234375 135.9642578125 -177.75 129.9
L -177.5 130.15 -176.05 132.05
Q -171.15 138.3 -166.15 143.9
L -157.4 153.15
M -213.55 3.65
L -213.5 4.6
Q -213.4 9.7 -213.05 15.65
L -211.85 28.3
Q -211.05 35 -209.6 42.6 -209.249609375 44.421875 -208.9 46.2
L -210.45 39.3
Q -211.65 32.25 -212.35 25.85
L -213.6 8.2 -213.55 3.65
M -213.25 7.25
L -213.25 6.05
Q -213.19453125 8.499609375 -213.05 11.45 -212.8 16.95 -212.35 21.55 -211.9849609375 25.6646484375 -211.4 30.05
L -211.65 28.45
Q -212.1 25 -212.65 18.7 -213.15 11.75 -213.25 7.25
M -192.05 95.65
L -191.6 96.45
Q -191.408203125 96.8265625 -191.25 97.2
L -192.05 95.65
M -177.4 120.1
L -179.05 117.75
Q -183.95 110.35 -186.8 105.4
L -187.7 103.75
Q -186.7943359375 105.334375 -185.9 106.85 -182.9 111.85 -181.25 114.3 -179.475 117.023828125 -177.4 120.1
M -199.5 -110.6
Q -200.76953125 -108.3921875 -202 -106.2
L -196.4 -115.85
Q -197.9666015625 -113.264453125 -199.5 -110.6
M -57.6 217.95
L -59 217.55 -59.6 217.45 -57.6 217.95 Z"/>
</g>
</defs>

<g id="movieClip_1" transform="matrix( 0.9637451171875, 0, 0, 0.9637451171875, 227.15,239.95) ">
<g transform="matrix( 1, 0, 0, 1, 0,0) ">
<use xlink:href="#circulo_0_Layer0_0_FILL"/>
</g>

<g transform="matrix( 1, 0, 0, 1, 0,0) ">
<use xlink:href="#circulo_0_Layer0_1_FILL"/>

<use xlink:href="#circulo_0_Layer0_1_STROKES_1_FILL"/>
</g>
</g>

<g transform="matrix( -0.69085693359375, -0.70709228515625, 0.69085693359375, -0.70709228515625, 224.25,239.25) ">
<g transform="matrix( 1, 0, 0, 1, 0,0) ">
<use xlink:href="#circulo_copy_0_Layer0_0_STROKES_1_FILL"/>
</g>
</g>
</svg>
