<?xml version="1.0" encoding="UTF-8" standalone="no"?>
<svg
   xmlns:dc="http://purl.org/dc/elements/1.1/"
   xmlns:cc="http://creativecommons.org/ns#"
   xmlns:rdf="http://www.w3.org/1999/02/22-rdf-syntax-ns#"
   xmlns:svg="http://www.w3.org/2000/svg"
   xmlns="http://www.w3.org/2000/svg"
   viewBox="0 0 133.33333 133.33333"
   height="133.33333"
   width="133.33333"
   xml:space="preserve"
   id="svg2"
   version="1.1"><metadata
     id="metadata8"><rdf:RDF><cc:Work
         rdf:about=""><dc:format>image/svg+xml</dc:format><dc:type
           rdf:resource="http://purl.org/dc/dcmitype/StillImage" /></cc:Work></rdf:RDF></metadata><defs
     id="defs6"><clipPath
       id="clipPath20"
       clipPathUnits="userSpaceOnUse"><path
         id="path18"
         d="M 14.569,1.36699 H 87.5697 V 100.526 H 14.569 Z" /></clipPath><clipPath
       id="clipPath30"
       clipPathUnits="userSpaceOnUse"><path
         id="path28"
         d="M 27.7578,2.375 H 69.418 V 47.8711 H 27.7578 Z" /></clipPath><clipPath
       id="clipPath44"
       clipPathUnits="userSpaceOnUse"><path
         id="path42"
         d="M 14.569,-0.525501 H 80.9361 V 58.9667 H 14.569 Z" /></clipPath><clipPath
       id="clipPath58"
       clipPathUnits="userSpaceOnUse"><path
         id="path56"
         d="m 20.9277,19.8684 h 66.642 V 98.633 h -66.642 z" /></clipPath></defs><g
     transform="matrix(1.3333333,0,0,-1.3333333,0,133.33333)"
     id="g10"><g
       id="g12"><g
         id="g14"><g
           clip-path="url(#clipPath20)"
           id="g16"><g
             transform="matrix(1,0,0,-1,0,100)"
             id="g22"><g
               id="g24"><g
                 clip-path="url(#clipPath30)"
                 id="g26"><g
                   transform="translate(68.6094,22.4023)"
                   id="g32"><path
                     id="path34"
                     style="fill:#ffb400;fill-opacity:1;fill-rule:nonzero;stroke:none"
                     d="m 0,0 c 0.5586,5.7734 -0.4766,11.8867 -4.5195,16.2773 -5.2813,6.3868 -13.1055,8.9414 -21.211,7.9063 -3.6875,-0.2539 -7.6758,-1.5274 -9.9336,-4.6094 -1.582,-1.5 -2.4882,-3.5234 -3.2695,-5.5195 -0.6211,-1.5039 -1.3398,-3.0391 -1.3945,-4.6875 -0.2735,-6.1211 1.2461,-12.3164 5.5898,-16.8281 C -25.5547,-19.7773 -1.293,-17.1211 0,0 Z" /></g></g></g></g><g
             transform="matrix(1,0,0,-1,0,100)"
             id="g36"><g
               id="g38"><g
                 clip-path="url(#clipPath44)"
                 id="g40"><g
                   transform="translate(36.3541,57.8651)"
                   id="g46"><path
                     id="path48"
                     style="fill:#ffb400;fill-opacity:1;fill-rule:nonzero;stroke:none"
                     d="m 0,0 c -2.4414,-0.6133 -4.8242,-1.4297 -7.0781,-2.5547 -4.3321,-2.168 -8.2031,-5.4844 -10.75,-9.6328 -1.3711,-2.2383 -2.4532,-4.7188 -3.0274,-7.2813 -0.5351,-2.3945 -0.6797,-4.8828 -0.5312,-7.3242 0.082,-1.3125 0.2422,-2.6172 0.5195,-3.8984 0.2852,-1.2969 0.7031,-2.5586 1.168,-3.7969 0.9414,-2.5 2.0703,-4.9062 3.5508,-7.1289 1.3164,-1.9726 2.8398,-3.8476 4.5468,-5.4883 0.8711,-0.8398 1.7579,-1.6601 2.7071,-2.4101 1.1015,-0.8711 2.2383,-1.6836 3.414,-2.4453 2.2071,-1.4297 4.6133,-2.5704 7.0899,-3.4414 2.3398,-0.8243 4.7539,-1.5079 7.2031,-1.9063 5.1133,-0.832 10.4297,-0.6406 15.4297,0.7539 2.9883,0.832 5.8125,2.168 8.418,3.8438 2.5351,1.625 4.7421,3.6523 6.6132,6.0156 1.836,2.3125 3.1368,5 3.9571,7.832 0.7265,2.4961 1.1015,5.0625 1.0351,7.668 -0.0625,2.5156 -0.4922,5.0234 -1.2226,7.4375 -0.3672,1.2226 -0.8282,2.3906 -1.3711,3.5508 -0.5547,1.1914 -1.2617,2.3164 -1.9805,3.4218 -1.4141,2.1758 -3.0391,4.2188 -4.8477,6.086 -1.8125,1.8711 -3.8671,3.5 -6,4.9961 -2.2499,1.5781 -4.7421,2.7656 -7.2109,3.957 -0.3555,0.168 -0.7148,0.332 -1.0859,0.4766 -0.5039,0.1953 -1.0117,0.2031 -1.5274,0.332 -0.582,0.1406 -1.1562,0.3281 -1.7422,0.4766 C 15.8984,-0.1133 14.5,0.1875 13.0898,0.4023 11.2422,0.6797 9.4023,0.8008 7.5352,0.8516 4.9961,0.8516 2.4727,0.6172 0,0 Z m 6.2109,-54.3086 c -2.4179,0.6602 -4.75,1.7188 -6.957,2.9023 -2.3437,1.2579 -4.543,2.7344 -6.5664,4.4649 -1.9531,1.668 -3.6641,3.5469 -5.2109,5.6016 -0.7266,0.9648 -1.3672,2.0078 -1.9766,3.0546 -0.6562,1.1329 -1.2656,2.3047 -1.7266,3.5352 -0.4453,1.1875 -0.75,2.4219 -1.0156,3.6641 -0.2578,1.2226 -0.457,2.457 -0.5703,3.7031 -0.2109,2.3711 0.0039,4.75 0.5469,7.0703 0.2929,1.2461 0.6562,2.4687 1.1172,3.6641 0.4531,1.1679 1.0429,2.2812 1.6953,3.3515 1.2851,2.1055 2.9101,4 4.8086,5.5782 2.4258,2.0117 5.2226,3.6054 8.2187,4.5859 1.6524,0.5351 3.3125,0.9023 5.0313,1.1523 1.6875,0.2422 3.4023,0.3282 5.1054,0.3282 2.6133,-0.0782 5.2188,-0.3907 7.7461,-1.0821 0.5547,-0.1523 1.1055,-0.3164 1.6485,-0.4922 0.4883,-0.1601 0.875,-0.4882 1.3593,-0.6679 0.4258,-0.1602 0.8672,-0.2696 1.293,-0.4102 1.1211,-0.3711 2.207,-0.8437 3.25,-1.3828 2.4961,-1.293 4.8555,-2.875 6.9375,-4.7578 1.957,-1.7734 3.7774,-3.7539 5.1836,-5.9922 1.4063,-2.2344 2.4727,-4.6797 3.332,-7.1641 0.8711,-2.5078 1.293,-5.1289 1.3594,-7.7734 0.0664,-2.5977 -0.3203,-5.2656 -1.1328,-7.7305 -0.4688,-1.4297 -1.1055,-2.789 -1.8672,-4.0859 -0.7539,-1.2891 -1.5703,-2.5625 -2.5508,-3.6914 -1.8984,-2.1953 -4.1601,-4.0625 -6.7187,-5.4375 -2.4258,-1.3086 -5.1289,-2.1953 -7.832,-2.7227 -1.7994,-0.3513 -3.6361,-0.5157 -5.476,-0.5157 -3.0491,-10e-5 -6.1085,0.451 -9.0319,1.2501 z" /></g></g></g></g><g
             transform="matrix(1,0,0,-1,0,100)"
             id="g50"><g
               id="g52"><g
                 clip-path="url(#clipPath58)"
                 id="g54"><g
                   transform="translate(40.6781,73.5637)"
                   id="g60"><path
                     id="path62"
                     style="fill:#000000;fill-opacity:1;fill-rule:nonzero;stroke:none"
                     d="m 0,0 c -0.1641,-0.207 -0.2461,-0.4648 -0.2891,-0.7187 -0.1132,-0.7032 0.086,-1.4805 0.418,-2.0938 0.1328,-0.2383 0.3047,-0.5039 0.4805,-0.7109 0.164,-0.1914 0.3945,-0.3164 0.5508,-0.5 0.0586,-0.0664 0.0429,-0.4493 0.0507,-0.5703 0.0118,-0.168 0.0235,-0.336 0.0352,-0.5 0.1016,-1.2735 0.25,-2.5391 0.332,-3.8125 0.1641,-2.4258 0.2774,-4.8516 0.4375,-7.2735 0.1797,-2.6797 0.3516,-5.3594 0.4922,-8.0391 0.0781,-1.4414 0.2031,-2.8789 0.293,-4.3164 0.1094,-1.6679 0.1758,-3.3359 0.2422,-5.0039 0.0625,-1.5273 0.1718,-3.0507 0.2695,-4.5742 0.0937,-1.4101 0.0937,-2.8203 0.1406,-4.2265 0.0469,-1.3047 0.1875,-2.5899 0.2774,-3.8868 0.0429,-0.5664 0.0625,-1.1328 0.0781,-1.6992 0.0117,-0.3476 0.0234,-0.6953 0.0351,-1.039 0.0157,-0.4493 0.0235,-0.9102 0.1719,-1.336 0.3672,-1.043 1.4727,-1.5703 2.4727,-1.7969 0.6484,-0.1484 1.2929,-0.3046 1.9375,-0.4531 0.5429,-0.1211 1.082,-0.2656 1.6211,-0.3945 0.8359,-0.2031 1.7265,-0.5 2.5937,-0.3672 0.4571,0.0664 0.9297,0.2656 1.1211,0.7227 0.1328,0.3085 0.0664,0.7031 0.0664,1.0351 0.0078,0.7188 0.086,1.4336 0.0508,2.1524 -0.0312,0.6914 -0.0078,1.3867 -0.0078,2.082 0,0.7031 -0.0195,1.4062 0,2.1094 0.043,1.4023 0.1523,2.8007 0.1523,4.207 0,1.2812 0.0508,2.5586 0.125,3.8398 0.086,1.4219 0.1914,2.8438 0.2305,4.2735 0.0391,1.2695 -0.0039,2.5351 0.0703,3.8086 0.082,1.3125 0.1914,2.6211 0.2305,3.9375 0.0351,1.1015 0.0625,2.2109 0.1797,3.3125 0.0586,0.5312 0.1172,1.0625 0.1718,1.5976 0.043,0.3867 0.0977,0.7735 0.1446,1.1602 0.0937,0.7148 -0.2227,1.4258 -0.6406,1.9922 -0.3868,0.5234 -0.9415,1.0078 -1.5899,1.1679 -0.4883,0.1172 -1.0078,-0.0234 -1.2344,-0.5039 -0.1718,-0.3711 -0.1093,-0.789 -0.0976,-1.1797 0.0117,-0.3632 0.0156,-0.7304 0.0195,-1.0937 0.0352,-2.4375 -0.1601,-4.8633 -0.2383,-7.3008 -0.039,-1.2812 -0.0586,-2.5625 -0.207,-3.8359 -0.1406,-1.2578 -0.1953,-2.5157 -0.25,-3.7774 -0.0664,-1.6054 -0.082,-3.2109 -0.2109,-4.8125 -0.1094,-1.4062 -0.2422,-2.8008 -0.2891,-4.2109 -0.0781,-2.4336 -0.4648,-4.8438 -0.6094,-7.2656 -0.0039,-0.0586 -0.0078,-0.1133 -0.0117,-0.168 -0.0977,-0.0039 -0.1953,0.0117 -0.293,0.0391 -0.1328,0.0273 -0.2695,0.0507 -0.4062,0.082 -0.293,0.0625 -0.586,0.125 -0.8789,0.1875 -0.1719,0.0351 -0.293,-0.0078 -0.3203,0.1875 -0.0118,0.1094 -0.0235,0.2226 -0.0391,0.3359 -0.0312,0.2852 -0.0586,0.5703 -0.0937,0.8555 -0.1329,1.1953 -0.168,2.3945 -0.254,3.5937 -0.0898,1.3399 -0.2812,2.668 -0.4335,4.004 -0.1368,1.2421 -0.211,2.4882 -0.3204,3.7382 -0.2695,3.1485 -0.6484,6.2891 -0.8554,9.4453 -0.1719,2.6719 -0.4414,5.3399 -0.6641,8.0079 -0.2617,3.1601 -0.5391,6.3164 -0.7695,9.4804 C 4.3789,-8.5742 4.3477,-7.0312 4.2187,-5.5 4.1914,-5.1445 4.1562,-4.7891 4.1172,-4.4336 4.0547,-3.8008 4.0312,-3.1367 3.7617,-2.5469 3.6914,-2.3984 3.6211,-2.25 3.5469,-2.1016 3.457,-1.9883 3.4062,-1.8555 3.3945,-1.707 3.2617,-1.2422 3.0234,-0.7891 2.7109,-0.4141 2.4609,-0.1172 2.1445,0.1602 1.7656,0.2812 1.4531,0.3789 1.1055,0.3867 0.7812,0.3906 0.4844,0.3125 0.2031,0.25 0,0 Z" /></g><g
                   transform="translate(60.4455,65.7768)"
                   id="g64"><path
                     id="path66"
                     style="fill:#000000;fill-opacity:1;fill-rule:nonzero;stroke:none"
                     d="m 0,0 c -0.4844,-0.2383 -0.6641,-0.6562 -0.6445,-1.1875 0.0195,-0.5 0.2383,-0.9453 0.3672,-1.4219 0.1836,-0.6797 0.289,-1.3867 0.3437,-2.0898 0.0859,-1.086 0.1563,-2.1758 0.0547,-3.2656 -0.1094,-1.1446 -0.3633,-2.3321 -0.8438,-3.3829 -0.1953,-0.4296 -0.457,-0.8125 -0.6211,-1.2578 -0.1015,-0.2695 -0.2109,-0.5195 -0.4218,-0.7226 -0.1758,-0.1719 -0.5664,-0.4531 -0.7813,-0.2266 -0.3789,0.3985 -0.5312,0.9727 -0.875,1.3985 -0.4297,0.5312 -1.039,1.0117 -1.7148,1.1718 -0.4844,0.1172 -1.0625,0.0664 -1.3438,-0.4062 -0.2929,-0.4922 -0.1054,-1.1367 0.1328,-1.6055 0.2383,-0.4648 0.586,-0.9062 0.9141,-1.3125 0.9961,-1.2383 2.3438,-2.3867 3.957,-2.6523 0.8125,-0.1328 1.6485,0.0351 2.336,0.4922 0.2461,0.164 0.4765,0.3515 0.707,0.5351 0.3555,0.2813 0.7227,0.5938 0.9063,1.0156 0.5546,1.2735 0.8203,2.6524 0.9296,4.0313 0.1211,1.5312 0.1368,3.0742 -0.0234,4.6015 -0.1172,1.1094 -0.332,2.2149 -0.5625,3.3047 -0.0547,0.2657 -0.0977,0.543 -0.1719,0.8047 -0.1289,0.4531 -0.3672,0.8867 -0.664,1.25 C 1.5599,-0.4102 0.9714,0.0317 0.3071,0.0318 0.2063,0.0318 0.1039,0.0216 0,0 Z" /></g><g
                   transform="translate(68.0508,69.2359)"
                   id="g68"><path
                     id="path70"
                     style="fill:#000000;fill-opacity:1;fill-rule:nonzero;stroke:none"
                     d="m 0,0 c -0.5156,-0.1641 -0.7695,-0.5391 -0.7695,-1.082 0,-0.586 0.332,-1.0508 0.4765,-1.5938 0.168,-0.6211 0.2657,-1.2539 0.3828,-1.8828 0.2344,-1.2734 0.4414,-2.5508 0.625,-3.8281 0.2032,-1.3945 0.3243,-2.7774 0.2891,-4.1836 -0.0156,-0.6289 -0.0508,-1.2578 -0.125,-1.8789 -0.082,-0.707 -0.2187,-1.4844 -0.5547,-2.1172 -0.0937,-0.1797 -0.2578,-0.5781 -0.5039,-0.457 -0.1094,0.0507 -0.2969,0.2851 -0.375,0.3711 -0.1094,0.1171 -0.2148,0.2461 -0.3164,0.375 -0.3867,0.4843 -0.7344,1.0039 -1.0469,1.5429 -0.3007,0.5157 -0.5937,1.043 -0.8476,1.586 -0.2813,0.6015 -0.6641,1.0781 -1.2227,1.457 -0.5937,0.3984 -1.4336,0.7383 -2.1562,0.5273 -0.5,-0.1484 -0.7852,-0.5742 -0.7305,-1.0898 0.0508,-0.4766 0.3398,-0.8594 0.5977,-1.2422 0.4336,-0.6484 0.8671,-1.2969 1.3359,-1.9141 0.8086,-1.0703 1.6367,-2.1406 2.6172,-3.0546 0.8594,-0.8047 1.832,-1.5469 2.9922,-1.8477 1.2031,-0.3164 2.5117,-0.082 3.2265,1.0156 0.5742,0.8789 0.7266,2.0196 0.8047,3.043 0.082,1.0742 0.0156,2.1602 -0.0664,3.2383 -0.1641,2.0937 -0.4297,4.1953 -0.8555,6.2539 -0.2031,0.9883 -0.4804,1.9609 -0.707,2.9492 C 3.0117,-3.5586 2.9297,-3.2812 2.9258,-3.0156 2.9219,-2.5312 2.8242,-2.1055 2.5859,-1.6719 2.1105,-0.802 1.2175,0.0088 0.1862,0.0088 0.1246,0.0088 0.0626,0.006 0,0 Z" /></g><g
                   transform="translate(74.193,67.6363)"
                   id="g72"><path
                     id="path74"
                     style="fill:#000000;fill-opacity:1;fill-rule:nonzero;stroke:none"
                     d="m 0,0 c -0.5234,-0.1445 -0.793,-0.5117 -0.8086,-1.0586 -0.0117,-0.3047 0.0586,-0.6172 0.168,-0.9023 0.1133,-0.3008 0.2969,-0.5391 0.4492,-0.8164 0.3047,-0.5586 0.4922,-1.2032 0.6836,-1.8086 0.3984,-1.2578 0.7578,-2.5157 0.9805,-3.8203 0.2421,-1.461 0.3632,-2.961 0.3007,-4.4415 -0.0273,-0.5742 -0.039,-1.164 -0.1718,-1.7265 -0.043,-0.1797 -0.1016,-0.3555 -0.1641,-0.5274 -0.0273,-0.0703 -0.2109,-0.5273 -0.2734,-0.5273 -0.1407,-0.0039 -0.2696,0.2422 -0.336,0.3359 -0.1445,0.2071 -0.2812,0.418 -0.4101,0.6328 -0.3555,0.586 -0.6485,1.2227 -0.9024,1.8555 -0.1054,0.2539 -0.207,0.5117 -0.289,0.7735 -0.1094,0.3437 -0.1758,0.625 -0.375,0.9335 -0.2657,0.4141 -0.625,0.7657 -1.0313,1.0391 -0.5039,0.3399 -1.1719,0.6172 -1.789,0.5039 -0.5118,-0.0937 -0.8399,-0.4844 -0.836,-1.0078 0.0039,-0.5234 0.3047,-0.9414 0.5195,-1.3945 0.1368,-0.2891 0.2735,-0.5742 0.418,-0.8633 0.6992,-1.4219 1.5195,-2.8242 2.5508,-4.0352 1.0508,-1.2422 2.6094,-2.5351 4.3516,-2.3593 1.9882,0.2031 2.3437,2.5273 2.457,4.1367 0.1133,1.7148 -0.1875,3.4375 -0.5078,5.1133 -0.3008,1.5586 -0.711,3.1093 -1.1836,4.625 -0.2539,0.8086 -0.5547,1.6093 -0.8594,2.3984 -0.0742,0.1836 -0.1211,0.3516 -0.1641,0.543 -0.1132,0.457 -0.3515,0.8906 -0.6367,1.2578 C 1.6421,-0.5081 0.9415,0.0039 0.1234,0.0039 0.0825,0.0039 0.0414,0.0026 0,0 Z" /></g><g
                   transform="translate(70.9526,93.4487)"
                   id="g76"><path
                     id="path78"
                     style="fill:#000000;fill-opacity:1;fill-rule:nonzero;stroke:none"
                     d="m 0,0 c 0.1992,-0.4648 0.5586,-0.9961 1.1055,-1.082 0.2187,-0.0352 0.457,0.0156 0.6406,0.1484 0.2227,0.1641 0.4375,0.1797 0.7148,0.125 0.543,-0.1016 1.0469,-0.4687 1.4571,-0.8242 0.4297,-0.375 0.8164,-0.793 1.1836,-1.2344 0.8437,-1.0273 1.6836,-2.1172 2.332,-3.2812 0.625,-1.1211 1.1641,-2.293 1.6406,-3.4883 0.9805,-2.4805 1.8203,-5.0117 2.418,-7.6172 0.5781,-2.543 0.9726,-5.1367 1.1758,-7.7383 0.0781,-1.0234 0.1054,-2.0547 0.0898,-3.082 -0.0195,-1.1328 -0.0469,-2.2852 -0.1953,-3.4063 -0.1797,-1.3047 -0.457,-2.6797 -1.0664,-3.8593 -0.2461,-0.4688 -0.5938,-0.9219 -1.0469,-1.2032 -0.2148,-0.1328 -0.4687,-0.2226 -0.7187,-0.1758 -0.1563,0.0313 -0.3086,0.1016 -0.4336,0.1954 -0.3321,0.2461 -0.5938,0.5586 -0.9453,0.7812 -0.4766,0.3047 -1.1133,0.5586 -1.6797,0.375 -0.5078,-0.1601 -0.7071,-0.6523 -0.6524,-1.1523 0.1367,-1.2422 1.25,-2.0274 2.2032,-2.6563 1.125,-0.7422 2.4257,-1.2851 3.8007,-1.164 1.3243,0.121 2.2735,1.0859 2.8711,2.2031 0.6172,1.1601 0.9219,2.4258 1.1016,3.7187 0.3711,2.7071 0.2773,5.4727 -0.0664,8.1758 -0.1953,1.5234 -0.4063,3.0313 -0.6914,4.5391 -0.336,1.7539 -0.7696,3.4922 -1.2266,5.2148 -0.7734,2.9024 -1.7148,5.7891 -2.9219,8.5391 -0.4206,0.9551 -0.8622,1.8973 -1.3279,2.8288 -0.2968,0.4222 -0.5915,0.8458 -0.883,1.2727 C 8.2734,-2.9609 7.7617,-2.043 7.293,-1.082 7.1641,-0.832 7.0312,-0.582 6.8945,-0.3398 6.7266,-0.0781 6.5547,0.1758 6.3711,0.4258 6.346,0.4591 6.3209,0.4924 6.2957,0.5257 6.2445,0.584 6.1928,0.6419 6.1406,0.6992 5.082,0.7266 4.0234,0.7578 2.9648,0.8164 1.8828,0.875 0.8047,0.9688 -0.2695,1.0859 -0.2344,0.6953 -0.1367,0.3125 0,0 Z" /></g><g
                   transform="translate(36.748,97.9533)"
                   id="g80"><path
                     id="path82"
                     style="fill:#000000;fill-opacity:1;fill-rule:nonzero;stroke:none"
                     d="m 0,0 c -0.2383,-0.2461 -0.3867,-0.5859 -0.5547,-0.875 -0.3516,-0.6016 -0.6875,-1.2109 -1.0391,-1.8086 -0.6992,-1.1875 -1.3515,-2.4062 -2.0312,-3.6055 -1.0508,-1.8476 -2.0859,-3.7031 -3.168,-5.5312 -0.5625,-0.9453 -1.1367,-1.8828 -1.6289,-2.8633 -0.5937,-1.1758 -1.2148,-2.3203 -1.9062,-3.4414 -0.711,-1.1523 -1.4102,-2.3047 -2.0391,-3.5039 -0.6055,-1.1563 -1.3594,-2.2188 -2.0703,-3.3086 -0.3125,-0.4766 -0.6719,-0.9414 -0.8906,-1.4648 -0.1914,-0.461 -0.2422,-0.8477 -0.0391,-1.3204 0.2539,-0.5976 0.7539,-1.0546 1.2695,-1.4257 0.9805,-0.711 1.875,-1.5469 2.7657,-2.3711 1.0312,-0.9571 2.0742,-1.8985 3.0976,-2.8633 0.9688,-0.9141 2.0547,-1.711 3.1758,-2.4297 1.0039,-0.6406 1.9297,-1.4023 2.8945,-2.1016 0.9961,-0.7226 1.9688,-1.4804 2.9297,-2.25 1.0196,-0.8164 2.0313,-1.6406 3.0391,-2.4726 0.4297,-0.3555 0.8633,-0.6914 1.3906,-0.8985 0.5625,-0.2226 1.2734,-0.3554 1.8555,-0.1093 0.4804,0.2031 0.7148,0.6601 0.5976,1.1679 -0.1718,0.7461 -0.8437,1.2344 -1.4414,1.6368 -2.1679,1.4609 -4.3359,2.9335 -6.3984,4.5429 -0.875,0.6797 -1.7852,1.3164 -2.6367,2.0235 -0.5664,0.4687 -1.1328,0.9257 -1.711,1.3789 -0.7421,0.5781 -1.4609,1.1757 -2.1796,1.7812 -1.1407,0.957 -2.2579,1.9414 -3.375,2.9258 -0.2618,0.2266 -0.5196,0.457 -0.7735,0.6953 -0.1367,0.125 -0.2539,0.168 -0.1953,0.3828 0.0313,0.125 0.1133,0.25 0.168,0.3672 0.2968,0.6367 0.6054,1.2734 0.8945,1.9141 0.543,1.207 1.25,2.3164 1.875,3.4804 0.6289,1.1719 1.168,2.3907 1.8203,3.5547 0.3399,0.6055 0.7305,1.1758 1.082,1.7735 0.3282,0.5586 0.6329,1.1367 0.9375,1.7109 0.5274,1 1.0547,2 1.6016,2.9922 1.3789,2.5117 2.7539,5.0312 4.125,7.5508 0.1406,0.2617 0.2774,0.5234 0.4219,0.7851 0.1172,0.2149 0.0742,0.2657 0.3594,0.2422 0.1953,-0.0156 0.3945,-0.039 0.5937,-0.0547 0.6875,-0.0586 1.375,-0.1367 2.0625,-0.1992 1.2813,-0.1172 2.5664,-0.2265 3.8477,-0.3398 3.0507,-0.2696 6.0937,-0.6367 9.1406,-0.9727 1.6836,-0.1875 3.3672,-0.3906 5.0508,-0.5664 1.625,-0.1719 3.25,-0.332 4.8711,-0.5508 2.5547,-0.3476 5.1054,-0.7461 7.6601,-1.1133 0.5938,-0.0859 1.1836,-0.1835 1.7735,-0.2929 0.5859,-0.1094 1.1796,-0.1524 1.7695,-0.2305 0.5351,-0.0703 1.0703,-0.1133 1.6055,-0.1914 0.1718,-0.0273 0.3046,-0.1094 0.4804,-0.1328 0.2383,-0.0352 0.4649,0.0273 0.6602,0.1641 0.3282,0.2284 0.5216,0.6015 0.6261,1.0016 -0.3104,0.5306 -0.5967,1.0743 -0.8683,1.6312 -0.1289,0.25 -0.2578,0.4961 -0.3945,0.7422 -0.168,0.2578 -0.3438,0.5117 -0.5235,0.7656 -0.0635,0.0842 -0.1277,0.1683 -0.1922,0.2523 -0.059,0.0058 -0.1189,0.0134 -0.1789,0.0211 -1.0117,0.0313 -2.0234,0.0586 -3.039,0.1133 -1.961,0.1094 -3.8985,0.3242 -5.8438,0.5977 -0.3711,0.0546 -0.75,0.0937 -1.1328,0.1445 -0.7617,0.0586 -1.5234,0.1094 -2.2812,0.1758 -1.6016,0.1367 -3.1954,0.3437 -4.7891,0.5312 -1.7422,0.207 -3.4883,0.3945 -5.2305,0.5977 -3.0664,0.3554 -6.1367,0.6836 -9.1992,1.0859 C 7.375,-0.3867 6.0625,-0.1914 4.75,-0.0156 3.5156,0.1484 2.2617,0.375 1.0195,0.4297 0.625,0.3945 0.2812,0.293 0,0 Z" /></g><g
                   transform="translate(83.7109,65.375)"
                   id="g84"><path
                     id="path86"
                     style="fill:#d9d9d9;fill-opacity:1;fill-rule:nonzero;stroke:none"
                     d="m 0,0 c 0.0156,1.0273 -0.0117,2.0586 -0.0898,3.082 -0.2032,2.6016 -0.5977,5.1953 -1.1758,7.7383 -0.5977,2.6055 -1.4375,5.1367 -2.418,7.6172 -0.4766,1.1953 -1.0156,2.3672 -1.6406,3.4883 -0.4844,0.8672 -1.0742,1.6953 -1.6914,2.4844 -0.3164,0.0351 -0.6367,0.0664 -0.9571,0.1093 -0.5898,0.0782 -1.1835,0.1211 -1.7695,0.2305 -0.5898,0.1094 -1.1797,0.207 -1.7734,0.293 -2.5547,0.3672 -5.1055,0.7656 -7.6602,1.1133 -1.6211,0.2187 -3.2461,0.3789 -4.8711,0.5507 -1.6836,0.1758 -3.3672,0.3789 -5.0508,0.5664 -3.0468,0.336 -6.0898,0.7032 -9.1406,0.9727 -1.2812,0.1133 -2.5664,0.2227 -3.8476,0.3398 -0.6875,0.0625 -1.375,0.1407 -2.0625,0.1993 -0.1993,0.0156 -0.3985,0.039 -0.5938,0.0546 -0.2851,0.0235 -0.2422,-0.0273 -0.3594,-0.2421 -0.1445,-0.2618 -0.2812,-0.5235 -0.4218,-0.7852 -1.3711,-2.5195 -2.7461,-5.0391 -4.125,-7.5508 -0.5469,-0.9922 -1.0743,-1.9922 -1.6016,-2.9922 -0.3047,-0.5742 -0.6094,-1.1523 -0.9375,-1.7109 -0.3516,-0.5977 -0.7422,-1.168 -1.082,-1.7734 -0.6524,-1.1641 -1.1914,-2.3829 -1.8203,-3.5547 -0.625,-1.1641 -1.3321,-2.2735 -1.875,-3.4805 -0.2891,-0.6406 -0.5977,-1.2773 -0.8946,-1.9141 -0.0547,-0.1172 -0.1367,-0.2422 -0.1679,-0.3672 -0.0586,-0.2148 0.0585,-0.2578 0.1953,-0.3828 0.2539,-0.2382 0.5117,-0.4687 0.7734,-0.6953 1.1172,-0.9844 2.2344,-1.9687 3.375,-2.9258 0.7188,-0.6054 1.4375,-1.2031 2.1797,-1.7812 0.5781,-0.4531 1.1445,-0.9102 1.7109,-1.3789 0.8516,-0.707 1.7617,-1.3438 2.6367,-2.0234 2.004,-1.5625 4.1094,-3 6.2149,-4.4219 -0.0234,0.3828 -0.0469,0.7656 -0.0742,1.1484 -0.1602,2.4219 -0.2735,4.8477 -0.4375,7.2735 -0.0821,1.2734 -0.2305,2.539 -0.3321,3.8124 -0.0117,0.1641 -0.0234,0.3321 -0.0351,0.5 -0.0078,0.1211 0.0078,0.504 -0.0508,0.5704 -0.1562,0.1836 -0.3867,0.3086 -0.5508,0.5 -0.1758,0.207 -0.3476,0.4726 -0.4804,0.7109 -0.3321,0.6133 -0.5313,1.3906 -0.418,2.0937 0.043,0.254 0.125,0.5118 0.289,0.7188 0.2032,0.25 0.4844,0.3125 0.7813,0.3906 0.3242,-0.0039 0.6719,-0.0117 0.9844,-0.1094 0.3789,-0.121 0.6953,-0.3984 0.9453,-0.6953 0.3125,-0.375 0.5508,-0.8281 0.6836,-1.2929 0.0117,-0.1485 0.0625,-0.2813 0.1523,-0.3946 0.0742,-0.1484 0.1446,-0.2968 0.2149,-0.4453 0.2695,-0.5898 0.2929,-1.2539 0.3554,-1.8867 0.0391,-0.3555 0.0743,-0.7109 0.1016,-1.0664 0.1289,-1.5312 0.1602,-3.0742 0.2695,-4.6055 0.2305,-3.164 0.5078,-6.3203 0.7696,-9.4804 0.2226,-2.668 0.4921,-5.336 0.664,-8.0079 0.2071,-3.1562 0.586,-6.2968 0.8555,-9.4453 0.1094,-1.25 0.1836,-2.4961 0.3203,-3.7382 0.1523,-1.336 0.3438,-2.6641 0.4336,-4.004 0.0859,-1.1992 0.1211,-2.3984 0.2539,-3.5937 0.0352,-0.2852 0.0625,-0.5703 0.0938,-0.8555 0.0156,-0.1133 0.0273,-0.2265 0.039,-0.3359 0.0274,-0.1953 0.1485,-0.1524 0.3203,-0.1875 0.293,-0.0625 0.586,-0.125 0.8789,-0.1875 0.1368,-0.0313 0.2735,-0.0547 0.4063,-0.082 0.0976,-0.0274 0.1953,-0.043 0.293,-0.0391 0.0039,0.0547 0.0078,0.1094 0.0117,0.168 0.1445,2.4218 0.5312,4.832 0.6093,7.2656 0.0469,1.4101 0.1797,2.8047 0.2891,4.2109 0.1289,1.6016 0.1445,3.2071 0.2109,4.8125 0.0547,1.2617 0.1094,2.5196 0.25,3.7774 0.1485,1.2734 0.168,2.5547 0.2071,3.8359 0.0781,2.4375 0.2734,4.8633 0.2383,7.3008 -0.0039,0.3633 -0.0079,0.7305 -0.0196,1.0937 -0.0117,0.3907 -0.0742,0.8086 0.0977,1.1797 0.2265,0.4805 0.7461,0.6211 1.2344,0.5039 0.6484,-0.1601 1.2031,-0.6445 1.5898,-1.1679 0.3984,-0.543 0.707,-1.2149 0.6484,-1.8985 0.4532,-0.2265 0.8516,-0.582 1.1602,-0.9609 0.3437,-0.4258 0.4961,-1 0.875,-1.3984 0.2148,-0.2266 0.6055,0.0546 0.7812,0.2265 0.211,0.2031 0.3204,0.4531 0.4219,0.7227 0.1641,0.4453 0.4258,0.8281 0.6211,1.2578 0.4805,1.0508 0.7344,2.2383 0.8438,3.3828 0.1015,1.0898 0.0312,2.1797 -0.0547,3.2656 -0.0547,0.7032 -0.1602,1.4102 -0.3438,2.0899 -0.1289,0.4765 -0.3476,0.9218 -0.3672,1.4218 -0.0195,0.5313 0.1602,0.9493 0.6446,1.1875 0.1054,0.0196 0.207,0.0313 0.3086,0.0313 0.664,0 1.25,-0.4414 1.6718,-0.957 0.2969,-0.3633 0.5352,-0.7969 0.6641,-1.25 0.0742,-0.2618 0.1172,-0.5391 0.1719,-0.8047 0.2304,-1.0899 0.4453,-2.1953 0.5625,-3.3047 0.0664,-0.6211 0.1015,-1.2461 0.1094,-1.8711 0.0429,-0.0234 0.0859,-0.0508 0.1289,-0.0781 0.5586,-0.3789 0.9414,-0.8555 1.2226,-1.4571 0.2539,-0.5429 0.5469,-1.0703 0.8477,-1.5859 0.3125,-0.5391 0.6601,-1.0586 1.0468,-1.543 0.1016,-0.1289 0.2071,-0.2578 0.3165,-0.375 0.0781,-0.0859 0.2656,-0.3203 0.375,-0.3711 0.2461,-0.1211 0.4101,0.2774 0.5039,0.4571 0.3359,0.6328 0.4726,1.4101 0.5547,2.1172 0.0742,0.6211 0.1093,1.25 0.125,1.8789 0.0351,1.4062 -0.086,2.789 -0.2891,4.1836 -0.1836,1.2773 -0.3906,2.5546 -0.625,3.8281 -0.1172,0.6289 -0.2149,1.2617 -0.3828,1.8828 -0.1446,0.543 -0.4766,1.0078 -0.4766,1.5937 0,0.543 0.2539,0.918 0.7695,1.0821 0.0625,0.0078 0.125,0.0117 0.1875,0.0117 1.0313,0 1.9219,-0.8125 2.3985,-1.6836 0.2383,-0.4336 0.3359,-0.8594 0.3398,-1.3437 0.0039,-0.2657 0.086,-0.543 0.1446,-0.7969 0.2265,-0.9883 0.5039,-1.961 0.707,-2.9492 0.3672,-1.7774 0.6172,-3.586 0.7812,-5.3946 0.1641,-0.164 0.3086,-0.3437 0.4336,-0.539 0.1993,-0.3086 0.2657,-0.5899 0.375,-0.9336 0.0821,-0.2617 0.1836,-0.5196 0.2891,-0.7735 0.2539,-0.6328 0.5469,-1.2695 0.9023,-1.8554 0.1289,-0.2149 0.2657,-0.4258 0.4102,-0.6328 0.0664,-0.0938 0.1953,-0.3399 0.3359,-0.336 0.0625,0 0.2461,0.457 0.2735,0.5274 0.0625,0.1718 0.1211,0.3476 0.164,0.5273 0.1328,0.5625 0.1446,1.1523 0.1719,1.7266 0.0625,1.4804 -0.0586,2.9804 -0.3008,4.4414 -0.2226,1.3047 -0.582,2.5625 -0.9804,3.8203 -0.1914,0.6054 -0.3789,1.25 -0.6836,1.8086 -0.1524,0.2773 -0.336,0.5156 -0.4493,0.8164 -0.1093,0.2851 -0.1796,0.5976 -0.1679,0.9023 0.0156,0.5469 0.2851,0.9141 0.8086,1.0586 0.0429,0.0039 0.0859,0.0039 0.125,0.0039 0.8164,0 1.5195,-0.5117 2.0156,-1.1445 0.2852,-0.3672 0.5234,-0.8008 0.6367,-1.2578 0.043,-0.1914 0.0899,-0.3594 0.1641,-0.543 0.3047,-0.7891 0.6054,-1.5898 0.8594,-2.3984 0.4609,-1.4727 0.8593,-2.9805 1.1562,-4.4961 0.0547,-0.0313 0.1055,-0.0625 0.1563,-0.0938 0.3515,-0.2226 0.6132,-0.5351 0.9453,-0.7812 0.125,-0.0938 0.2773,-0.1641 0.4336,-0.1953 0.25,-0.0469 0.5039,0.0429 0.7187,0.1758 0.4531,0.2812 0.8008,0.7343 1.0469,1.2031 0.6094,1.1797 0.8867,2.5547 1.0664,3.8594 C -0.0469,-2.2852 -0.0195,-1.1328 0,0 Z" /></g></g></g></g></g></g></g></g></svg>