<?xml version="1.0" encoding="UTF-8" standalone="no"?>
<svg
   xmlns:dc="http://purl.org/dc/elements/1.1/"
   xmlns:cc="http://creativecommons.org/ns#"
   xmlns:rdf="http://www.w3.org/1999/02/22-rdf-syntax-ns#"
   xmlns:svg="http://www.w3.org/2000/svg"
   xmlns="http://www.w3.org/2000/svg"
   viewBox="0 0 133.33333 133.33333"
   height="133.33333"
   width="133.33333"
   xml:space="preserve"
   id="svg2"
   version="1.1"><metadata
     id="metadata8"><rdf:RDF><cc:Work
         rdf:about=""><dc:format>image/svg+xml</dc:format><dc:type
           rdf:resource="http://purl.org/dc/dcmitype/StillImage" /></cc:Work></rdf:RDF></metadata><defs
     id="defs6"><clipPath
       id="clipPath20"
       clipPathUnits="userSpaceOnUse"><path
         id="path18"
         d="M 23.352,1.18879 H 83.7821 V 97.625 H 23.352 Z" /></clipPath><clipPath
       id="clipPath30"
       clipPathUnits="userSpaceOnUse"><path
         id="path28"
         d="M 27.7578,2.375 H 69.418 V 47.8711 H 27.7578 Z" /></clipPath><clipPath
       id="clipPath44"
       clipPathUnits="userSpaceOnUse"><path
         id="path42"
         d="M 23.352,20.8566 H 83.7821 V 98.8112 H 23.352 Z" /></clipPath></defs><g
     transform="matrix(1.3333333,0,0,-1.3333333,0,133.33333)"
     id="g10"><g
       id="g12"><g
         id="g14"><g
           clip-path="url(#clipPath20)"
           id="g16"><g
             transform="matrix(1,0,0,-1,0,100)"
             id="g22"><g
               id="g24"><g
                 clip-path="url(#clipPath30)"
                 id="g26"><g
                   transform="translate(68.6094,22.4023)"
                   id="g32"><path
                     id="path34"
                     style="fill:#ffb400;fill-opacity:1;fill-rule:nonzero;stroke:none"
                     d="m 0,0 c 0.5586,5.7734 -0.4766,11.8867 -4.5195,16.2773 -5.2813,6.3868 -13.1055,8.9414 -21.211,7.9063 -3.6875,-0.2539 -7.6758,-1.5274 -9.9336,-4.6094 -1.582,-1.5 -2.4882,-3.5234 -3.2695,-5.5195 -0.6211,-1.5039 -1.3398,-3.0391 -1.3945,-4.6875 -0.2735,-6.1211 1.2461,-12.3164 5.5898,-16.8281 C -25.5547,-19.7773 -1.293,-17.1211 0,0 Z" /></g></g></g></g><g
             transform="matrix(1,0,0,-1,0,100)"
             id="g36"><g
               id="g38"><g
                 clip-path="url(#clipPath44)"
                 id="g40"><g
                   transform="translate(81.6845,77.8193)"
                   id="g46"><path
                     id="path48"
                     style="fill:#000000;fill-opacity:1;fill-rule:nonzero;stroke:none"
                     d="M 0,0 C 0.2572,-3.1905 -0.1002,-6.3029 -0.2072,-9.4569 0.02,-13.2629 0,-17.0312 -0.2639,-20.8091 c -1.3999,0.2245 -2.92,0.7138 -4.0092,1.8151 0.0769,0.3042 -0.4076,-0.0666 -0.4811,-0.1288 -0.1303,-0.1292 -0.3942,-0.3212 -0.6348,-0.534 0.2205,2.0538 -0.0735,4.3636 0.1036,6.3222 0.3274,4.4539 0.3441,8.9569 -0.5513,13.4065 -0.1403,0.0979 -0.735,-0.4502 -0.7817,-0.4631 -0.2306,-0.2681 -0.999,-0.7515 -0.842,-1.1628 0.989,-4.7323 0.715,-9.4588 0.5045,-14.2007 -0.0635,-2.2737 0.0969,-4.6149 -0.3541,-6.8196 -1.2529,0.556 -2.8164,1.325 -3.919,0.3216 0.842,6.448 0.5012,13.2409 0.6215,19.8161 -0.0535,0.9679 -0.0201,2.0089 -0.127,2.9369 -0.1336,0.0077 -0.7216,-0.4509 -0.7551,-0.4763 -0.2572,-0.2666 -0.9688,-0.7493 -0.8619,-1.1773 0.1637,-7.6617 0.2071,-15.34 -0.558,-22.9056 -1.5335,-0.0217 -3.0603,0.1749 -4.5838,0.4846 0.0468,0.0755 0.0869,0.167 0.0134,0.1829 -0.5479,0.2344 -1.0056,-0.1925 -1.4065,-0.5563 -0.0301,-0.0374 -0.0635,-0.0706 -0.1003,-0.1076 0.4978,1.4208 0.2439,3.1462 0.1738,4.6737 -0.4544,3.8931 0.0568,7.7311 0.1403,11.5896 0.0334,0.8028 -0.0735,1.6644 0.1938,2.4069 0.0167,0.1201 -0.1604,0.0209 -0.1738,0.0177 -0.6247,-0.4057 -1.3664,-0.9179 -1.5869,-1.7569 -0.1704,-2.0567 -0.0835,-4.1671 -0.274,-6.2304 -0.2071,-2.578 -0.1837,-5.1731 0.0702,-7.7697 0.0501,-1.7255 0.4076,-3.8358 -0.6816,-5.1602 -1.5802,0.0981 -3.1338,0.7846 -4.7375,0.8255 -0.1169,0.1629 -0.9621,-0.5075 -1.4031,-1.0136 0.0567,1.571 0.1536,3.1358 0.2906,4.6943 -0.0033,0.0823 0.0434,0.1616 0.0067,0.2301 -0.0802,0.0632 -0.2105,-0.0426 -0.2639,-0.0747 -0.5079,-0.4085 -1.3231,-0.8424 -1.4032,-1.6307 -0.4277,-2.9717 -0.1972,-6.02 -0.3442,-9.0351 -0.1536,-5.1787 0.0869,-10.4268 0.1771,-15.6234 0.1771,-2.4007 0.6715,-5.0618 -0.5112,-7.1348 -2.2017,0.0829 -4.5203,0.3443 -6.6217,1.2691 -0.9489,1.5699 -1.0257,3.7383 -1.1493,5.554 -0.2105,3.1058 -0.3007,6.2164 -0.3007,9.3219 0.0234,5.983 -0.1938,11.9759 0.0969,17.9319 0.2539,0.4816 0.2906,1.1006 0.3107,1.6698 -0.0067,0.1137 -0.1403,0.0275 -0.1737,0.0177 -0.0401,-0.025 -0.0769,-0.0464 -0.117,-0.0753 0.6482,2.6934 0.5112,5.8965 0.8319,8.597 0.0067,0.4839 0.0501,0.9697 0.0568,1.4498 -0.1537,0.2002 -0.4209,0.2975 -0.6147,0.4609 -1.7874,1.196 -3.4679,2.5928 -5.105,4.0497 -0.3508,0.0083 -0.6482,-0.3848 -0.9321,-0.5952 -0.0535,-0.0516 -0.8386,-0.7919 -0.715,-0.9083 1.8141,-1.6584 3.7686,-3.1334 5.7164,-4.5026 -0.0902,-2.5456 -0.3775,-5.0682 -0.578,-7.5958 -0.01,-1.437 -0.2506,-2.8177 -0.8653,-4.0443 -2.479,1.7198 -4.8811,3.6345 -7.3668,5.3469 -3.1606,2.0009 -6.1207,4.5998 -7.6976,8.4751 -2.8064,4.8206 -0.5145,6.1779 2.3353,9.1126 3.9357,3.8883 7.4671,8.2919 11.6834,11.7423 1.2528,1.155 2.3052,2.5948 3.7385,3.4738 1.7607,0.4814 3.204,1.8599 4.7642,2.7941 1.0223,0.4103 2.1583,-0.1429 3.2207,-0.2154 2.5157,-0.2688 5.0382,-0.2528 7.5472,-0.1579 3.7252,-0.0841 7.457,-0.3833 11.1755,-0.1974 2.9167,-0.2058 6.5115,0.5965 8.9605,-1.7583 0.5913,-0.7799 0.5011,-1.8216 0.5679,-2.7669 C -0.1503,8.9344 0.0267,4.4672 0,0 Z m 1.48,-9.2448 c -0.1904,2.593 0.3675,5.1079 0.2673,7.6918 -0.1002,2.5878 -0.0935,5.1694 -0.137,7.7578 -0.2038,3.6484 -0.157,7.4309 -0.8152,11.0076 -1.2194,2.1595 -3.8287,1.9844 -5.7397,2.1913 -4.7676,0.1202 -9.5318,-0.0879 -14.306,0.267 -3.0002,-0.0941 -6.0237,-0.1947 -9.0239,0.3205 -2.1984,0.7507 -3.9156,-0.9754 -5.6262,-2.2057 -1.0925,-0.379 -2.4055,-0.9914 -3.2207,-1.8003 -1.6538,-1.1164 -2.8899,-2.8504 -4.4067,-4.1621 -3.381,-2.6583 -6.1273,-6.1342 -9.1609,-9.2342 -2.0881,-2.4275 -4.8143,-4.2287 -6.4146,-7.1411 -0.9789,-2.1784 0.2839,-4.485 1.3497,-6.3701 2.0079,-4.8609 6.555,-6.9958 10.2167,-9.7989 0.9354,-0.6511 1.8475,-1.34 2.7629,-2.0329 0.7818,-0.4939 1.754,-1.8386 2.636,-1.1234 0.4878,0.3198 0.9054,0.6905 1.2596,1.1077 -0.3575,-3.3624 -0.2539,-6.9581 -0.1871,-10.3955 0.2439,-1.6507 -0.4878,-16.6831 1.0257,-21.1797 -0.0769,-0.0855 -0.1537,-0.1749 -0.2272,-0.2605 -0.01,-0.019 -0.2138,-0.2886 -0.0902,-0.2956 0.2606,-0.1438 0.5245,-0.2722 0.7918,-0.3929 0.2105,-0.2582 0.451,-0.3657 0.725,-0.2954 1.9244,-0.7116 3.9857,-0.9231 5.9536,-0.9927 1.1927,-0.1306 2.2751,1.2606 2.93,2.2622 2.1282,3.6167 0.2973,8.2955 0.7383,12.4266 -0.0935,4.9585 -0.2372,9.9354 -0.0668,14.8749 0.8085,-0.1204 1.6204,-0.159 2.4222,-0.3572 0.8553,-0.2091 1.7473,-0.6819 2.5993,-0.34 1.1492,0.532 2.0212,1.6423 2.793,2.7466 1.9144,-0.6954 3.9824,-0.4347 5.9369,-0.7691 0.8018,-0.288 1.4266,0.6568 1.9544,1.2047 0.0735,0.4099 0.1437,0.8199 0.2005,1.2347 1.0624,-0.0881 2.048,-0.7148 3.0904,-0.9736 0.588,0.0914 1.0624,0.6268 1.5101,1.0426 0.6181,0.6795 0.9822,1.4986 1.1927,2.4006 2.0881,-1.5061 5.1852,-2.5113 6.712,0.1827 0.2673,0.4418 0.2506,1.0599 0.2773,1.5935 0.1871,3.2628 0.3642,6.5183 0.0768,9.8081 z" /></g><g
                   transform="translate(81.4766,68.3633)"
                   id="g50"><path
                     id="path52"
                     style="fill:#d9d9d9;fill-opacity:1;fill-rule:nonzero;stroke:none"
                     d="m 0,0 c 0.1094,3.1523 0.4648,6.2656 0.207,9.457 0.0274,4.4649 -0.1484,8.9336 -0.5429,13.4024 -0.0664,0.9453 0.0234,1.9844 -0.5704,2.7656 -2.4453,2.3555 -6.0429,1.5508 -8.957,1.7578 -3.7187,-0.1836 -7.4531,0.1133 -11.1758,0.1992 -2.5117,-0.0976 -5.0312,-0.1132 -7.5468,0.1563 -1.0625,0.0742 -2.1993,0.625 -3.2227,0.2148 -1.5586,-0.9336 -3.0039,-2.3125 -4.7656,-2.7929 -1.4336,-0.8789 -2.4844,-2.3204 -3.7383,-3.4727 -4.2148,-3.4531 -7.7461,-7.8555 -11.6836,-11.7422 -2.8477,-2.9375 -5.1406,-4.293 -2.332,-9.1133 1.5742,-3.875 4.5351,-6.4765 7.6953,-8.4765 2.4844,-1.711 4.8867,-3.625 7.3672,-5.3477 0.6133,1.2266 0.8554,2.6094 0.8672,4.0469 0.1992,2.5273 0.4843,5.0508 0.5781,7.5937 -1.9492,1.3711 -3.9024,2.8438 -5.7188,4.5039 -0.125,0.1172 0.6602,0.8555 0.7149,0.9063 0.2851,0.2109 0.582,0.6055 0.9336,0.5976 1.6367,-1.457 3.3164,-2.8554 5.1054,-4.0507 0.1914,-0.1641 0.461,-0.2618 0.6133,-0.461 -0.0078,-0.4804 -0.0508,-0.9648 -0.0547,-1.4492 -0.3242,-2.6992 -0.1875,-5.9023 -0.832,-8.5976 0.0391,0.0312 0.0742,0.0507 0.1133,0.0742 0.0351,0.0117 0.168,0.0976 0.1758,-0.0156 -0.0196,-0.5704 -0.0586,-1.1875 -0.3125,-1.6719 -0.2891,-5.9531 -0.0703,-11.9492 -0.0938,-17.9297 0,-3.1055 0.0899,-6.2148 0.3008,-9.3242 0.1211,-1.8125 0.1992,-3.9844 1.1484,-5.5508 2.1016,-0.9258 4.418,-1.1875 6.6211,-1.2695 1.1836,2.0703 0.6875,4.7343 0.5118,7.1328 -0.0899,5.1992 -0.3321,10.4453 -0.1797,15.625 0.1484,3.0156 -0.0821,6.0625 0.3476,9.0351 0.0781,0.7891 0.8946,1.2227 1.4024,1.6289 0.0507,0.0313 0.1836,0.1407 0.2617,0.0743 0.039,-0.0665 -0.0078,-0.1446 -0.0039,-0.2305 -0.1367,-1.5586 -0.2344,-3.1211 -0.293,-4.6914 0.4414,0.5039 1.2891,1.1758 1.4024,1.0117 1.6054,-0.0391 3.1601,-0.7266 4.7382,-0.8242 1.0899,1.3242 0.7344,3.4336 0.6836,5.1601 -0.2539,2.5977 -0.2773,5.1914 -0.0703,7.7696 0.1914,2.0625 0.1016,4.1718 0.2735,6.2304 0.2187,0.8399 0.9609,1.3516 1.5859,1.7578 0.0156,0.0039 0.1914,0.1016 0.1758,-0.0195 -0.2696,-0.7422 -0.1602,-1.6016 -0.1953,-2.4062 -0.0821,-3.8594 -0.5938,-7.6953 -0.1407,-11.5899 0.0703,-1.5273 0.3243,-3.2539 -0.1718,-4.6719 0.0351,0.0352 0.0703,0.0704 0.0976,0.1055 0.4024,0.3633 0.8594,0.793 1.4063,0.5586 0.0742,-0.0195 0.0351,-0.1094 -0.0118,-0.1836 1.5235,-0.3125 3.0508,-0.5078 4.5821,-0.4844 0.7656,7.5625 0.7226,15.2422 0.5586,22.9024 -0.1055,0.4297 0.6054,0.914 0.8633,1.1797 0.0312,0.0234 0.621,0.4843 0.7539,0.4765 0.1093,-0.9297 0.0742,-1.9687 0.1289,-2.9375 -0.1211,-6.5742 0.2187,-13.3672 -0.6211,-19.8164 1.1015,1.0039 2.664,0.2344 3.9179,-0.3203 0.4493,2.2031 0.2891,4.543 0.3555,6.8203 0.207,4.7383 0.4844,9.4649 -0.5078,14.1992 -0.1563,0.4102 0.6133,0.8946 0.8437,1.1641 0.0469,0.0117 0.6407,0.5586 0.7813,0.4609 0.8945,-4.4492 0.8789,-8.9531 0.5508,-13.4062 -0.1758,-1.957 0.1172,-4.2695 -0.1016,-6.3203 0.2383,0.2109 0.5039,0.4023 0.6328,0.5312 0.0742,0.0625 0.5586,0.4336 0.4805,0.1289 1.0898,-1.1015 2.6094,-1.5898 4.0117,-1.8125 C 0.207,-7.5742 0.2266,-3.8086 0,0 Z" /></g></g></g></g></g></g></g></g></svg>