<?xml version="1.0" encoding="UTF-8" standalone="no"?>
<svg
   xmlns:dc="http://purl.org/dc/elements/1.1/"
   xmlns:cc="http://creativecommons.org/ns#"
   xmlns:rdf="http://www.w3.org/1999/02/22-rdf-syntax-ns#"
   xmlns:svg="http://www.w3.org/2000/svg"
   xmlns="http://www.w3.org/2000/svg"
   viewBox="0 0 933.33331 133.33333"
   height="133.33333"
   width="933.33331"
   xml:space="preserve"
   id="svg2"
   version="1.1"><metadata
     id="metadata8"><rdf:RDF><cc:Work
         rdf:about=""><dc:format>image/svg+xml</dc:format><dc:type
           rdf:resource="http://purl.org/dc/dcmitype/StillImage" /></cc:Work></rdf:RDF></metadata><defs
     id="defs6"><clipPath
       id="clipPath20"
       clipPathUnits="userSpaceOnUse"><path
         id="path18"
         d="M 71.6237,25.495 H 693.25 V 69.6942 H 71.6237 Z" /></clipPath><clipPath
       id="clipPath46"
       clipPathUnits="userSpaceOnUse"><path
         id="path44"
         d="M -10.8792,16.6966 H 80.7299 V 83.238 h -91.6091 z" /></clipPath><clipPath
       id="clipPath56"
       clipPathUnits="userSpaceOnUse"><path
         id="path54"
         d="M -10.8792,16.6966 H 80.7299 V 83.238 h -91.6091 z" /></clipPath><clipPath
       id="clipPath66"
       clipPathUnits="userSpaceOnUse"><path
         id="path64"
         d="M -10.8792,19.208 H 70.1389 V 73.1346 H -10.8792 Z" /></clipPath><clipPath
       id="clipPath84"
       clipPathUnits="userSpaceOnUse"><path
         id="path82"
         d="M 10.0787,16.762 H 80.7299 V 83.3034 H 10.0787 Z" /></clipPath></defs><g
     transform="matrix(1.3333333,0,0,-1.3333333,0,133.33333)"
     id="g10"><g
       transform="matrix(1,0,0,-1,0,100)"
       id="g12"><g
         id="g14"><g
           clip-path="url(#clipPath20)"
           id="g16"><g
             transform="translate(71.8737,49.2561)"
             id="g22"><path
               id="path24"
               style="fill:#d9d9d9;fill-opacity:1;fill-rule:nonzero;stroke:none"
               d="m 0,0 c 0.2148,-0.7656 0.3594,-1.5508 0.4062,-2.3477 0.0075,-0.1353 0.013,-0.2715 0.0169,-0.4086 0.0871,-0.155 0.1782,-0.312 0.2707,-0.471 11.2897,-0.5305 27.2286,-1.0298 47.2984,-1.4368 50.0273,-1.1367 108.5234,-0.9726 167.1133,-0.8164 32.875,0.0899 65.8242,0.1797 97.4414,0.0469 70.8476,-0.0391 141.6797,0.0156 212.4375,0.1328 0,0 -0.7422,5.875 -0.7422,5.875 C 376.6016,0.4297 228.8711,0.3984 81.0898,0.5586 74.0469,0.582 67.3867,0.5937 61.1328,0.5937 33.2773,0.5937 13.1289,0.3672 0,0 Z" /></g><g
             transform="translate(618.4843,69.4051)"
             id="g26"><path
               id="path28"
               style="fill:#d9d9d9;fill-opacity:1;fill-rule:nonzero;stroke:none"
               d="m 0,0 c -0.2461,-0.5273 -0.5117,-1.0313 -0.7969,-1.4961 6.168,-2.0312 12.4649,-3.9609 18.0196,-6.3594 7.4726,-1.8828 13.0039,-5.5468 19.4023,-8.4687 -5.6562,-0.4883 -11.3281,-1.086 -16.4023,-0.8946 -6.5782,-0.2343 -13.1563,-0.4648 -19.7344,-0.6796 0,0 -3.3664,-9.6004 -3.3664,-9.6004 0,0 33.0291,-0.5004 33.0291,-0.5004 1.896,0.1039 3.7893,0.2267 5.6771,0.3703 -13.164,-5.6914 -27.8867,-9.9883 -42.164,-14.6445 -0.3282,-0.0977 -0.6172,-0.2149 -0.8711,-0.336 2.2304,-0.2344 4.457,-0.4648 6.6953,-0.6484 4.8594,-0.4024 9.7461,-0.3867 14.6289,-0.3438 1.6797,0.5274 3.3672,1.0391 5.0586,1.5352 3.6094,1.0547 7.0547,2.375 10.5117,3.8398 3.8984,1.6485 7.875,3.1133 11.8359,4.6094 3.9922,1.4961 7.9141,3.1445 11.836,4.8008 -0.0313,-0.0156 -0.0625,-0.0313 -0.0899,-0.0469 3.7461,1.5547 7.5313,2.9141 11.3555,4.2266 -0.0234,-0.0078 -0.0469,-0.0156 -0.0703,-0.0235 0.0234,0.0079 0.0469,0.0157 0.0703,0.0235 0.3203,0.1094 0.6328,0.2148 0.9453,0.3203 -0.1758,-0.0586 -0.3515,-0.1211 -0.5351,-0.1836 0.2304,0.0781 0.457,0.1523 0.6953,0.2383 1.3984,0.5039 2.8008,1.0156 4.1914,1.5351 0.0508,0.0235 0.0976,0.0352 0.1445,0.0508 1.4727,0.5508 2.9609,1.0703 4.4492,1.582 -1.1015,1.2657 -3.0703,2.129 -4.2656,3.3477 -0.6484,0.2227 -1.3008,0.4453 -1.957,0.6563 -1.4258,0.375 -2.8438,0.75 -4.2813,1.0703 -2.9062,0.6015 -5.8281,1.1679 -8.6914,1.9297 -3.4101,0.9101 -6.7226,1.9531 -10.0195,3.207 0.0625,-0.0234 0.1133,-0.0469 0.1758,-0.0703 -0.086,0.0312 -0.1602,0.0625 -0.2461,0.0937 -0.0586,0.0235 -0.1211,0.043 -0.1914,0.0742 0.0078,-0.0078 0.0078,-0.0078 0.0078,-0.0078 -0.0117,0.0078 -0.0274,0.0157 -0.043,0.0235 -0.0312,0.0078 -0.0625,0.0234 -0.1016,0.0312 0.0157,0 0.0313,-0.0078 0.0391,-0.0078 -0.0312,0.0078 -0.0547,0.0234 -0.082,0.0313 0.0156,-0.0079 0.0273,-0.0157 0.0429,-0.0235 -0.1367,0.0547 -0.2812,0.1133 -0.4179,0.168 0.0156,0 0.0234,-0.0078 0.0312,-0.0078 -4.6797,1.8633 -9.1367,4.25 -13.6093,6.5859 -0.1602,0.086 -0.3282,0.168 -0.4883,0.25 -2.3867,1.2149 -4.7774,2.4063 -7.1797,3.5899 -3.168,-0.086 -6.3281,-0.1289 -9.5117,-0.0235 C 9.8203,-0.0312 5.9141,0.0234 2,0.0391 1.3359,0.0312 0.6641,0.0234 0,0 Z" /></g><g
             transform="translate(684.375,45.1967)"
             id="g30"><path
               id="path32"
               style="fill:#d9d9d9;fill-opacity:1;fill-rule:nonzero;stroke:none"
               d="M 0,0 C -0.0153,-0.0076 -0.0305,-0.0153 -0.0459,-0.0229 0.1373,0.0458 0.3204,0.1068 0.5037,0.1755 0.3357,0.1145 0.1678,0.0611 0,0 Z" /></g><g
             transform="translate(548.4129,50.733)"
             id="g34"><path
               id="path36"
               style="fill:#d9d9d9;fill-opacity:1;fill-rule:nonzero;stroke:none"
               d="m 0,0 c 0,0 -11.303,-0.2804 -11.303,-0.2804 0,0 -8.789,-0.1836 -8.789,-0.1836 -0.0276,0.1078 -0.0519,0.2156 -0.071,0.3245 -0.8478,-0.0053 -1.6945,-0.0108 -2.5423,-0.0159 0,0 0.1406,-7.3086 0.1406,-7.3086 0,0 91.7383,-1.3906 91.7383,-1.3906 0,0 9.2305,9.6289 9.2305,9.6289 C 52.2759,0.4653 26.1422,0.1989 0,0 Z" /></g></g></g></g><g
       id="g38"><g
         id="g40"><g
           clip-path="url(#clipPath46)"
           id="g42"><g
             id="g48"><g
               id="g50"><g
                 clip-path="url(#clipPath56)"
                 id="g52"><g
                   transform="matrix(1,0,0,-1,0,100)"
                   id="g58"><g
                     id="g60"><g
                       clip-path="url(#clipPath66)"
                       id="g62"><g
                         transform="translate(-10.4609,70.3987)"
                         id="g68"><path
                           id="path70"
                           style="fill:#d9d9d9;fill-opacity:1;fill-rule:nonzero;stroke:none"
                           d="M 0,0 C 0.0186,-0.031 0.0435,-0.0621 0.0621,-0.0931 0.1008,-0.1245 0.1395,-0.1552 0.178,-0.1858 0.1053,5e-4 -0.0113,0.1501 -0.1683,0.2444 -0.1121,0.1632 -0.0562,0.0817 0,0 Z" /></g><g
                         transform="translate(69.2246,42.9369)"
                         id="g72"><path
                           id="path74"
                           style="fill:#d9d9d9;fill-opacity:1;fill-rule:nonzero;stroke:none"
                           d="m 0,0 c 0.6643,6.8599 -0.5649,14.1171 -5.3638,19.3319 -6.2702,7.5801 -15.5636,10.6158 -25.1861,9.3866 -4.3767,-0.3042 -9.1135,-1.8127 -11.7954,-5.4755 -1.8748,-1.7817 -2.955,-4.1842 -3.88,-6.5557 -0.7388,-1.7817 -1.5893,-3.6069 -1.6576,-5.5624 -0.3228,-7.2697 1.4838,-14.6263 6.6365,-19.9838 C -30.3389,-23.4789 -1.5334,-20.3252 0,0 Z" /></g></g></g></g><g
                   transform="matrix(1,0,0,-1,0,100)"
                   id="g76"><g
                     id="g78"><g
                       clip-path="url(#clipPath84)"
                       id="g80"><g
                         transform="translate(73.3406,44.2654)"
                         id="g86"><path
                           id="path88"
                           style="fill:#d9d9d9;fill-opacity:1;fill-rule:nonzero;stroke:none"
                           d="m 0,0 c -0.0062,-1.5396 -0.6643,-3.0482 -0.7822,-4.5816 0.0745,-2.2224 -0.9623,-4.1966 -1.6265,-6.2639 -1.6638,-2.0735 -2.7999,-4.5877 -4.414,-6.7357 -0.7698,-0.3353 -1.5644,-0.6333 -2.2535,-1.1547 -0.7015,-0.714 -1.5955,-0.8816 -2.564,-1.0057 -2.4211,-0.3849 -4.5319,-1.7011 -6.7916,-2.5267 -5.3638,-0.3973 -10.9883,-0.5029 -16.1968,1.0181 -3.5386,1.3782 -6.9593,3.1164 -10.0819,5.2582 -5.5687,3.7373 -8.1202,10.5351 -10.4172,16.5694 -0.3352,0.956 -0.3973,1.9741 -0.7015,2.9364 -0.0993,0.3166 -0.2359,0.627 -0.4159,0.9188 -0.2608,1.8251 -0.3539,3.6813 -0.4718,5.5127 -0.1987,2.0363 -0.2732,4.1656 0.7574,6.0156 1.2167,1.7259 1.8686,3.6876 2.7625,5.5563 1.6141,2.0176 3.2531,4.1035 5.1403,5.8728 1.4527,0.9995 3.2344,1.4527 4.6933,2.4646 5.6804,3.2158 12.6831,1.8997 18.9098,1.4216 6.8537,-2.1231 14.0302,-5.6741 18.6491,-11.3545 2.5391,-3.9483 3.2157,-8.7161 4.6063,-13.1239 C -0.9685,6.0715 -0.8691,5.3514 -0.8257,4.6561 -0.8381,4.6188 -0.8567,4.5816 -0.8691,4.5443 -0.8815,4.2525 -0.8505,3.9607 -0.7884,3.669 -0.7512,2.2597 -0.7512,0.9871 0,0 Z m 5.9722,-6.7482 c 0.329,2.564 1.1671,5.0969 0.2855,7.6546 C 6.1894,1.2975 6.1087,1.6948 5.997,2.0797 5.9784,2.5453 5.9535,3.0233 5.9535,3.4889 3.6441,13.8937 -1.1112,23.8886 -10.2434,29.9353 c -3.9545,2.9985 -8.5733,5.0347 -13.0679,7.0772 -5.9908,1.7258 -12.6583,1.7755 -18.8353,0.9064 -1.9183,-0.3042 -3.6752,-1.1609 -5.3079,-2.1791 -1.6203,-0.9374 -3.5013,-1.4713 -4.9106,-2.7315 -2.477,-2.7316 -5.4258,-5.37 -6.7171,-8.9086 -0.7884,-1.9742 -2.3591,-3.551 -2.893,-5.6493 -1.0367,-3.9111 -0.4966,-8.0519 -0.36,-12.0499 0.3476,-2.2783 0.7387,-5.2582 1.9555,-7.4683 0.4904,-1.3409 0.9623,-2.4832 1.1671,-3.0544 2.0052,-5.1899 4.5754,-10.5661 9.219,-13.8874 6.7854,-5.4134 14.9676,-8.741 23.6838,-8.8527 5.7238,-0.3911 11.5532,-0.1055 16.6872,2.6322 2.0922,0.4905 4.352,0.5463 6.0405,2.0735 1.5707,0.7636 3.2282,1.3906 4.0042,3.1227 1.2665,1.6017 2.0922,3.5075 3.4083,5.0285 1.1919,2.1852 2.1542,4.7306 2.1418,7.2572 z" /></g></g></g></g></g></g></g></g></g></g></g></svg>