
<svg xmlns="http://www.w3.org/2000/svg" version="1.1" xmlns:xlink="http://www.w3.org/1999/xlink" preserveAspectRatio="none" x="0px" y="0px" width="200px" height="200px" viewBox="0 0 200 200">
<defs>
<g id="icone_videoclipe_0_Layer0_1_MEMBER_0_FILL">
<path fill="#F1F1F1" stroke="none" d="
M 146.4 87.1
Q 146.35 86.2 146.35 85.25
L 64.9 84.8 145.4 66.2 140.85 47.4 53 67.65
Q 54.1 72.6 54.55 77.65 55.95 93.9 56.8 110.15 57.25 119.85 57.55 129.55 57.75 137.8 60.25 145.45 62.35 151.8 71.3 151.4 90.65 150.55 110.1 150.25 117.7 150.15 125 151.7 147.05 156.45 147 136.05 146.95 123.1 146.7 110.15 146.65 107.5 146.6 104.85 146.5 100.55 146.5 96.2 146.5 95.3 146.5 94.4 146.5 93.5 146.5 92.6 146.45 89.85 146.4 87.1
M 117.7 58.1
L 117.05 60.05
Q 116.75 61.05 116.6 62 116.2 63.65 116.15 63.75 115.9 64.4 115.2 65.6 114.75 66.5 114.2 68.5
L 104.65 70.7
Q 104.7 70.65 104.7 70.6 104.85 69.85 105 69.45 105.35 68.7 105.45 68.3 105.65 67.2 105.85 66.65 105.9 66.55 106.3 65.7 106.6 65.2 106.85 64.3 107.7 61.6 108.7 59.7
L 118.15 57.55
Q 118 57.65 117.9 57.8 117.75 57.95 117.7 58.1
M 103.2 60.95
Q 102.45 61.5 102.15 61.85
L 100.05 65
Q 98.3 67.9 97.2 71.45 97.1 72 96.85 72.5
L 87.6 74.65
Q 87.65 74.5 87.7 74.45 87.85 74.2 88 73.65 88.8 70.8 89.9 68.55
L 92.55 63.4 103.2 60.95
M 84.1 68.15
L 81.35 73.5
Q 80.55 75.05 80 76.4
L 67.75 79.2 69.6 77.7
Q 71.2 76.4 71.7 75.5 71.9 75.15 72.65 73.05 72.85 72.4 73.65 70.7
L 75.1 67.55
Q 75.15 67.45 75.2 67.35
L 86.65 64.75
Q 86 65.3 85.65 65.65 85 66.35 84.1 68.15
M 125.2 57.8
Q 125.2 57.75 125.25 57.7 125.85 56.35 125.95 56 126 55.85 126 55.75
L 137.5 53.1 139.65 62.65 121.55 66.85 121.8 66.6
Q 122.3 66 122.45 65.7 122.8 65.1 123.35 62.85 123.95 60.25 125.2 57.8
M 66.7 71.3
Q 66.65 71.85 66.25 72.95
L 65.3 75
Q 64.1 77.55 63.05 80.25
L 60.85 80.75 58.95 71.2 60.35 70.75 68.6 68.9 67.35 69.85
Q 66.85 70.35 66.8 70.45 66.7 70.7 66.7 71.3
M 62.35 90.3
L 141.25 90.3 141.25 144.9 62.35 144.9 62.35 90.3
M 112.75 117.65
Q 111.25 118.4 109.95 119.4 98.9 128.05 111.6 131.2 115.15 132.05 116.4 128.95 120.1 119.75 121.15 110.15 122 101.85 120.85 93.25
L 94.65 104.1 94.65 124.95
Q 94.6 125 94.55 125 86.85 127.2 82.75 134.1 82.55 139.75 88.2 140.6 91.5 141.1 93.1 138.65 101.45 126.1 99.75 110.15 99.6 108.9 99.4 107.65
L 116.1 100.5 115.85 117.9 112.75 117.65
M 115.3 122.95
Q 115.5 123 115.75 123.05 115.1 127.75 109.8 126.85
L 109.4 125.55
Q 111.55 122.35 115.3 122.95
M 93.75 132
Q 94 132.05 94.25 132.15 93.75 136.2 89.95 135.55 88.95 135.35 88 134.85
L 87.75 134.35
Q 90 131.2 93.75 132 Z"/>
</g>

<path id="icone_videoclipe_0_Layer0_0_1_STROKES" stroke="#2690FF" stroke-width="9" stroke-linejoin="round" stroke-linecap="butt" fill="none" d="
M 95 0
Q 95 39.35 67.15 67.15 39.3 95 0 95 -39.4 95 -67.25 67.15 -95 39.4 -95 0 -95 -39.35 -67.25 -67.2 -39.45 -95 0 -95 39.35 -95 67.15 -67.2 95 -39.35 95 0 Z"/>
</defs>

<g transform="matrix( 0.9947357177734375, 0, 0, 0.9947357177734375, 100,100) ">
<g transform="matrix( 1, 0, 0, 1, 0,0) ">
<use xlink:href="#icone_videoclipe_0_Layer0_0_1_STROKES"/>
</g>

<g transform="matrix( 1.1701812744140625, 0, 0, 1.1694488525390625, -117,-116.95) ">
<use xlink:href="#icone_videoclipe_0_Layer0_1_MEMBER_0_FILL"/>
</g>
</g>
</svg>
