
<svg xmlns="http://www.w3.org/2000/svg" version="1.1" xmlns:xlink="http://www.w3.org/1999/xlink" preserveAspectRatio="none" x="0px" y="0px" width="200px" height="200px" viewBox="0 0 200 200">
<defs>
<g id="icone_vinheta_0_Layer0_1_FILL">
<path fill="#F1F1F1" stroke="none" d="
M -51.9 34
Q -58.5 34 -65.15 34 -65.15 40.65 -65.15 47.3 -65.15 47.9 -65.15 48.5 -60 50.6 -51.9 49.75 -51.3 49.7 -50.65 49.7 -50.05 49.7 -50.05 49.55 -48.55 40.35 -50.65 34 -51.3 34 -51.9 34
M -36.2 47.3
Q -36.2 47.9 -36.2 48.5 -31.05 50.6 -22.95 49.75 -22.3 49.7 -21.7 49.7 -21.1 49.7 -21.1 49.55 -19.6 40.35 -21.7 34 -22.3 34 -22.95 34 -29.55 34 -36.2 34 -36.2 40.65 -36.2 47.3
M -21.7 -49.15
Q -22.3 -49.15 -22.95 -49.15 -29.55 -49.15 -36.2 -49.15 -36.2 -42.55 -36.2 -35.9 -36.2 -35.3 -36.2 -34.7 -31.05 -32.6 -22.95 -33.45 -22.3 -33.5 -21.7 -33.5 -21.1 -33.5 -21.1 -33.6 -19.6 -42.85 -21.7 -49.15
M -50.65 -49.15
Q -51.3 -49.15 -51.9 -49.15 -58.5 -49.15 -65.15 -49.15 -65.15 -42.55 -65.15 -35.9 -65.15 -35.3 -65.15 -34.7 -60 -32.6 -51.9 -33.45 -51.3 -33.5 -50.65 -33.5 -50.05 -33.5 -50.05 -33.6 -48.55 -42.85 -50.65 -49.15
M 18.1 0.25
Q 18.1 -0.35 17.8 -0.5 1.7 -12.3 -16.9 -21.45 -16.9 -0.35 -16.9 20.75 -16.9 21.35 -16.9 21.95 -16.3 21.95 -15.8 21.7 2.1 12 18.1 0.25
M 7.25 34
Q 6.65 34 6.05 34 -0.6 34 -7.25 34 -7.85 34 -8.45 34 -8.45 41.85 -7.85 49.65 -7.85 49.7 -7.25 49.7 -0.6 49.7 6.05 49.7 6.65 49.7 7.25 49.7 7.85 49.7 7.85 49.55 9.35 40.35 7.25 34
M 21.7 34
Q 21.1 34 20.5 34 20.5 41.85 21.1 49.65 21.1 49.7 21.7 49.7 28.95 49.7 36.15 49.1 36.2 49.1 36.2 48.5 36.2 47.9 36.3 47.3 39.8 29.8 21.7 34
M 65.15 47.3
Q 65.15 41.25 65.15 35.25 65.15 34.6 65.1 34.6 57.9 34 50.65 34 50.05 34 49.45 34 49.45 41.85 50.05 49.65 50.05 49.7 50.65 49.7 57.9 49.7 65.1 49.1 65.15 49.1 65.15 48.5 65.15 47.9 65.15 47.3
M 65.1 -34.1
Q 65.15 -34.1 65.15 -34.7 65.15 -35.3 65.15 -35.9 65.15 -41.95 65.15 -47.95 65.15 -48.55 65.1 -48.55 57.9 -49.15 50.65 -49.15 50.05 -49.15 49.45 -49.15 49.45 -41.35 50.05 -33.55 50.05 -33.5 50.65 -33.5 57.9 -33.5 65.1 -34.1
M 7.25 -49.15
Q 6.65 -49.15 6.05 -49.15 -0.6 -49.15 -7.25 -49.15 -7.85 -49.15 -8.45 -49.15 -8.45 -41.35 -7.85 -33.55 -7.85 -33.5 -7.25 -33.5 -0.6 -33.5 6.05 -33.5 6.65 -33.5 7.25 -33.5 7.85 -33.5 7.85 -33.6 9.35 -42.85 7.25 -49.15
M 20.5 -49.15
Q 20.5 -41.35 21.1 -33.55 21.1 -33.5 21.7 -33.5 28.95 -33.5 36.15 -34.1 36.2 -34.1 36.2 -34.7 36.2 -35.3 36.3 -35.9 39.8 -53.4 21.7 -49.15 21.1 -49.15 20.5 -49.15 Z"/>
</g>

<path id="icone_vinheta_0_Layer0_0_1_STROKES" stroke="#2690FF" stroke-width="9" stroke-linejoin="round" stroke-linecap="butt" fill="none" d="
M 95 0
Q 95 39.35 67.15 67.15 39.3 95 0 95 -39.4 95 -67.25 67.15 -95 39.4 -95 0 -95 -39.35 -67.25 -67.2 -39.45 -95 0 -95 39.35 -95 67.15 -67.2 95 -39.35 95 0 Z"/>
</defs>

<g transform="matrix( 1, 0, 0, 1, 100,100) ">
<g transform="matrix( 1, 0, 0, 1, 0,0) ">
<use xlink:href="#icone_vinheta_0_Layer0_0_1_STROKES"/>
</g>

<g transform="matrix( 1, 0, 0, 1, 0,0) ">
<use xlink:href="#icone_vinheta_0_Layer0_1_FILL"/>
</g>
</g>
</svg>
