
<svg xmlns="http://www.w3.org/2000/svg" version="1.1" xmlns:xlink="http://www.w3.org/1999/xlink" preserveAspectRatio="none" x="0px" y="0px" width="200px" height="200px" viewBox="0 0 200 200">
<defs>
<path id="icone_todos_0_Layer0_0_1_STROKES" stroke="#2690FF" stroke-width="9" stroke-linejoin="round" stroke-linecap="butt" fill="none" d="
M 95 0
Q 95 39.35 67.15 67.15 39.3 95 0 95 -39.4 95 -67.25 67.15 -95 39.4 -95 0 -95 -39.35 -67.25 -67.2 -39.45 -95 0 -95 39.35 -95 67.15 -67.2 95 -39.35 95 0 Z"/>

<path id="icone_todos_0_Layer0_0_MEMBER_0_1_STROKES" stroke="#F1F1F1" stroke-width="5" stroke-linejoin="round" stroke-linecap="butt" fill="none" d="
M 23.287429809570312 -49.26017761230469
L 49.26017761230469 -49.26017761230469 49.26017761230469 -23.06732177734375 23.287429809570312 -23.06732177734375 23.287429809570312 -49.26017761230469 Z
M -10.697250366210938 -50.448760986328125
L 10.697250366210938 -50.448760986328125 10.697250366210938 -28.878173828124996 -10.697250366210938 -28.878173828124996 -10.697250366210938 -50.448760986328125 Z
M 29.05426025390625 -10.785293579101562
L 50.448760986328125 -10.785293579101562 50.448760986328125 10.785293579101562 29.05426025390625 10.785293579101562 29.05426025390625 -10.785293579101562 Z
M 23.287429809570312 23.06732177734375
L 49.26017761230469 23.06732177734375 49.26017761230469 49.26017761230469 23.287429809570312 49.26017761230469 23.287429809570312 23.06732177734375 Z
M -10.697250366210938 28.878173828124996
L 10.697250366210938 28.878173828124996 10.697250366210938 50.448760986328125 -10.697250366210938 50.448760986328125 -10.697250366210938 28.878173828124996 Z
M -10.697250366210938 -10.785293579101562
L 10.697250366210938 -10.785293579101562 10.697250366210938 10.785293579101562 -10.697250366210938 10.785293579101562 -10.697250366210938 -10.785293579101562 Z
M -49.26017761230469 -49.26017761230469
L -23.287429809570312 -49.26017761230469 -23.287429809570312 -23.06732177734375 -49.26017761230469 -23.06732177734375 -49.26017761230469 -49.26017761230469 Z
M -50.448760986328125 -10.785293579101562
L -29.05426025390625 -10.785293579101562 -29.05426025390625 10.785293579101562 -50.448760986328125 10.785293579101562 -50.448760986328125 -10.785293579101562 Z
M -49.26017761230469 23.06732177734375
L -23.287429809570312 23.06732177734375 -23.287429809570312 49.26017761230469 -49.26017761230469 49.26017761230469 -49.26017761230469 23.06732177734375 Z"/>
</defs>

<g transform="matrix( 0.9736785888671875, 0, 0, 0.9736785888671875, 100,100) ">
<g transform="matrix( 1, 0, 0, 1, 0,0) ">
<use xlink:href="#icone_todos_0_Layer0_0_1_STROKES"/>
</g>

<g transform="matrix( 0.88043212890625, 0, 0, 0.88043212890625, 0,0) ">
<use xlink:href="#icone_todos_0_Layer0_0_MEMBER_0_1_STROKES" transform="matrix( 1.13580322265625, 0, 0, 1.13580322265625, 0,0) "/>
</g>
</g>
</svg>
