
<svg xmlns="http://www.w3.org/2000/svg" version="1.1" xmlns:xlink="http://www.w3.org/1999/xlink" preserveAspectRatio="none" x="0px" y="0px" width="200px" height="200px" viewBox="0 0 200 200">
<defs>
<g id="icone_documentario_0_Layer0_0_FILL">
<path fill="#F1F1F1" stroke="none" d="
M 150.5 40.8
L 135.5 41.8 135.35 42.35 60.5 57.8 39.5 65.8 39.25 67.55 38.5 67.8
Q 39.3 72.45 39.75 77.15 40.4 83.6 40.9 90.15 41.55 98.7 41.75 107.35 42 117.45 41.7 127.6 41.35 138.65 41.45 149.7 41.5 154.7 45.25 157.85 46.7 159.15 48.5 159.55 56.7 159.95 64.8 159.9 80.95 159.8 97.1 159.8 110.55 159.8 124 159.75 136.6 159.75 149.2 159.8 155.1 160.6 159.3 156.65 160.65 155.35 160.95 153.55 161.7 149.2 161.65 144.8 161.5 134.95 161.5 125 161.5 115.1 161.5 105.2 161.5 95.5 161.5 85.8
L 56.5 84.8 81.5 79.8 81.5 78.8 126.5 70.8 126.5 69.8 150.5 65.8 150.5 64.8 159 63.75
Q 159.3 60.85 159.2 58 158.75 47.25 150.5 40.8
M 128.5 47.8
L 150.9 45.85 154.5 60.4 140.65 61.55 123.5 50.8 123.5 49.8 128.5 48.3 128.5 47.8
M 93.75 55.5
L 93.5 54.8 116.5 50.8 134.45 63.4 113.5 68.8 93.75 55.5
M 86.3 90.35
Q 88.1 89.7 90 89.75 96.7 89.85 103.5 89.8
L 88.5 106.8 65.5 106.8 65.5 105.8
Q 72.15 98.5 80.8 92.9 83.4 91.25 86.3 90.35
M 111.45 90.25
L 111.5 89.8 134.5 89.8 118.75 106.05 118.5 106.8 95.5 106.8 95.5 105.8 111.45 90.25
M 86.5 56.8
L 105.45 69.4 83.5 74.8 66.5 63.8 66.5 63.3
Q 65.1 63.5 64.65 62.4 64.35 61.65 64.5 60.8
L 86.5 56.8
M 156.8 91.65
Q 159.15 94.5 158.45 98.4 157.75 102.55 157.5 106.8
L 125.5 105.8
Q 134.15 97.1 144.15 90.05 144.7 89.65 145.4 89.8 150.7 89.35 155.7 90.95 156.35 91.1 156.8 91.65
M 61.5 64.8
L 61.55 65.25 76.5 75.8 44.5 82.8 43.5 67.8 44.5 65.8 61.5 64.8
M 45.5 89.8
L 75.5 89.8 58.95 106.75 45.5 106.8 45.5 89.8
M 46.9 155.5
L 46.9 111.05 156.75 111.05 156.75 155.5 46.9 155.5 Z"/>
</g>

<path id="icone_documentario_0_Layer0_0_1_STROKES" stroke="#2690FF" stroke-width="9" stroke-linejoin="round" stroke-linecap="butt" fill="none" d="
M 195 100.05
Q 195 139.4 167.15 167.2 139.3 195.05 100 195.05 60.6 195.05 32.75 167.2 5 139.45 5 100.05 5 60.7 32.75 32.85 60.55 5.05 100 5.05 139.35 5.05 167.15 32.85 195 60.7 195 100.05 Z"/>
</defs>

<g transform="matrix( 1, 0, 0, 1, 100,100.05) ">
<g transform="matrix( 1, 0, 0, 1, -100,-100.05) ">
<use xlink:href="#icone_documentario_0_Layer0_0_FILL"/>

<use xlink:href="#icone_documentario_0_Layer0_0_1_STROKES"/>
</g>
</g>
</svg>
