
<svg xmlns="http://www.w3.org/2000/svg" version="1.1" xmlns:xlink="http://www.w3.org/1999/xlink" preserveAspectRatio="none" x="0px" y="0px" width="200px" height="200px" viewBox="0 0 200 200">
<defs>
<g id="icone_videoart_0_Layer0_1_MEMBER_0_FILL">
<path fill="#F1F1F1" stroke="none" d="
M 107.5 167.35
Q 107.5 167.45 107.55 167.45 110.75 169 114.2 168.35 114.2 168.25 114.2 168.15 114.85 165.7 114.6 162.25 113.4 162.05 112.95 162.05 112.85 162.05 112.75 162.05 112.75 161.95 112.75 161.85 99.1 158.2 85.4 154.6 85.35 154.6 85.2 154.6 85.2 154.5 85.2 154.4 84.55 155.3 84.6 157.2 84.65 159.1 85 160.45 85.2 160.95 85.55 161.1 90.55 163 95.75 164.45 101.55 166 107.5 167.35
M 105.25 169.55
Q 105.25 169.45 105.25 169.35 97.5 167.05 90 165.7
L 90.1 165.9
Q 89.55 167.75 90.3 169.35 92.25 173.6 97.6 173.4 97.7 173.4 97.75 173.45 99 174.5 100.6 174.2 100.75 175 101.75 175.2 107.6 176.3 109.3 171.8 109.4 171.8 109.45 171.75 109.6 171.2 109.75 170.55 109.3 170.4 108.7 170.4 108.6 170.35 108.5 170.35 108.5 170.25 108.5 170.15 107.05 169.8 105.45 169.55 105.35 169.55 105.25 169.55
M 87.05 146.1
Q 85.5 145.7 84 145.25 83.65 147.75 83.9 150.7 83.9 150.75 84 150.75 84.05 151.3 84.35 151.45 89.8 153.95 96.15 155.5 102.9 157.15 109.45 159.25 112.4 160.2 115 159.65 115.1 159.45 115.15 159.25 115.9 157 115.6 153.75 101.25 150 87.05 146.1
M 142.5 116.55
Q 142.45 116.5 142.35 116.5 139.4 116.85 139.3 119.95 139.3 120.05 139.3 120.15 141.4 123.3 145 125.1 150.95 128.05 156.5 131.5 159.65 131.9 160.3 129.85 160.35 129.75 160.35 129.65
L 160.45 129.65
Q 160.55 128.55 160.55 127.45 160.45 127.35 160.4 127.2 160.35 127.15 160.35 127.05 160.35 126.95 160.35 126.85 151.9 121.25 142.5 116.55
M 58.5 116.55
Q 58.4 116.5 58.3 116.5 55.3 117.05 53.15 118.4 46.55 122.55 39.85 126.65 39.5 127.4 39.3 128.25 39.25 128.35 39.25 128.45 39.5 130.35 40.7 131.25 40.8 131.3 40.9 131.3 41.8 131.6 43.1 131.5 43.2 131.5 43.3 131.5 52.15 126.7 60.25 121.1 60.3 121.05 60.3 120.95 60.4 120.95 60.45 120.95 60.7 120 60.7 118.95 60.4 118.9 60.4 118.35
L 60.3 118.35
Q 60.3 118.25 60.3 118.15 60.3 118.05 60.3 117.95 59.5 117.1 58.5 116.55
M 39.45 60
Q 39.45 60.1 39.45 60.2 39.45 61.45 39.45 62.65 39.8 62.7 40 62.85 48.1 68.2 56.45 73.2 56.55 73.2 56.65 73.2 59.05 73.45 59.9 72.15 60 72.15 60.05 72.1 60.8 71.1 60.7 69.35 58 66.1 53.8 64.15 53 63.75 52.15 63.25 51.65 63 51 62.85 48.9 61.4 46.8 59.9 44.75 58.45 41.5 58.2 41.4 58.2 41.3 58.25 40.2 58.95 39.45 60
M 158.3 58.2
Q 154.65 58.8 152.25 60.5 150.05 62.1 147.8 63.45 145.55 64.75 143.35 66.1 142.25 66.85 140.95 67.4 140.9 67.4 140.9 67.5 140.3 67.7 139.95 68.15 139.9 68.2 139.9 68.3 139.15 69.3 139.4 71.15
L 139.5 71.15
Q 139.5 71.25 139.5 71.35 140.1 73 142.1 73.2 142.35 73.2 142.5 73.1 147.85 70.75 152.65 67.7 154.35 66.65 156.2 66 159.9 64.65 160.75 60.65 160.35 60.15 160.15 59.4 160.15 59.3 160.15 59.2 159.3 58.75 158.5 58.25 158.4 58.2 158.3 58.2
M 102 57.15
Q 95.05 56.6 89.95 58.35 76.45 62.9 69.9 74.5 66.55 80.4 65.8 88.95 65.45 89.45 65.55 90.4 65.6 90.5 65.6 90.6 65.6 90.7 65.55 90.8 65.45 92.45 65.8 93.65 65.8 96.9 66.45 99.35 67.2 101.95 68.35 104.2 72.95 113 78.15 121.35 79.2 123.65 79.95 126.25 82.15 133.55 83 142.25 85.35 142.65 87.45 143.25 101.6 147.2 116 150.95 116.45 147.05 116.8 143.2 117.9 131.35 121.45 122.2 121.55 122.2 121.6 122.15 121.65 122 121.65 121.8 123 119.55 124.35 117.25 125.65 115.1 127.25 113.1 133.25 105.65 134.25 93
L 134.35 93
Q 134.45 91.4 134.45 89.8 134.35 89.8 134.25 89.8 134.25 89.7 134.25 89.6 134.25 88.75 134.25 87.95 131.7 72.35 121.65 64.2 114.2 58.15 102 57.15
M 100.4 62.45
Q 104.85 62.55 108.3 63.7 121.75 68.35 126.95 81.3 126.95 81.4 126.95 81.5 126.25 81.65 126.5 82.3 127.55 84.75 128.15 87.55 128.2 92.6 127.85 97.9
L 127.95 97.9
Q 125.15 107.25 119.75 113.95 118.45 115.6 117.6 117.75 112.3 128.6 111.05 143.65
L 110.95 143.65
Q 99.6 140.7 88.3 137.7 88.25 137.65 88.25 137.55 86.75 126.4 82.65 117.9 82.6 117.85 82.6 117.75 82.6 117.6 82.6 117.5 77.15 109.8 73.05 100.85 71.6 97.75 71.45 93.45 71.45 93.35 71.45 93.25 71.45 91.3 71.45 89.4 73.45 73.9 84.1 66.9 89.55 63.35 98 62.65 98.1 62.65 98.2 62.65 99.55 62.8 100.4 62.45
M 98.6 48.25
Q 98.7 48.25 98.8 48.3 100.65 48.8 102.05 47.85 102.4 47.35 102.45 46.8 103.2 38.9 103.05 30.45 102.95 30.45 102.9 30.4 102.85 30.35 102.85 30.25
L 102.95 30.25
Q 103.05 29.65 103.05 29.05 103.05 28.95 103.05 28.85 103.05 27.9 103.05 27 102.95 27 102.85 27 102.85 26.9 102.85 26.8 102.85 26.5 102.85 26.2 102.55 25.7 102 25.45 101.95 25.4 101.85 25.4 101.85 25.3 101.85 25.2 101.85 25.1 101.85 25 99.7 24.1 98.05 25.25 98 25.3 98 25.4 96.55 26.8 96.95 30.05 96.95 30.15 96.95 30.25 96.95 30.35 96.95 30.45 96.95 38.25 96.95 46.05
L 97.05 46.05
Q 97.4 47.65 98.6 48.25 Z"/>
</g>

<path id="icone_videoart_0_Layer0_0_1_STROKES" stroke="#2690FF" stroke-width="9" stroke-linejoin="round" stroke-linecap="butt" fill="none" d="
M 94.5 0
Q 94.5 39.15 66.8 66.8 39.1 94.5 0 94.5 -39.2 94.5 -66.9 66.8 -94.5 39.2 -94.5 0 -94.5 -39.15 -66.9 -66.85 -39.25 -94.5 0 -94.5 39.15 -94.5 66.8 -66.85 94.5 -39.15 94.5 0 Z"/>
</defs>

<g transform="matrix( 1, 0, 0, 1, 100,100) ">
<g transform="matrix( 1, 0, 0, 1, 0,0) ">
<use xlink:href="#icone_videoart_0_Layer0_0_1_STROKES"/>
</g>

<g transform="matrix( 0.812896728515625, 0, 0, 0.7677459716796875, -81.3,-76.8) ">
<use xlink:href="#icone_videoart_0_Layer0_1_MEMBER_0_FILL"/>
</g>
</g>
</svg>
