<?xml version="1.0" encoding="utf-8"?>
<!-- Generator: Adobe Illustrator 24.3.0, SVG Export Plug-In . SVG Version: 6.00 Build 0)  -->
<svg version="1.1" id="Layer_1" xmlns="http://www.w3.org/2000/svg" xmlns:xlink="http://www.w3.org/1999/xlink" x="0px" y="0px"
	 viewBox="0 0 103 82" style="enable-background:new 0 0 103 82;" xml:space="preserve">
<style type="text/css">
	.st0{opacity:0.8;}
	.st1{fill:#376A46;}
	.st2{fill:#BE9039;}
	.st3{fill:#329F55;}
	.st4{opacity:0.85;}
	.st5{fill:#FFFFFF;}
</style>
<g>
	<g class="st0">
		<path class="st1" d="M2.81,67.6c0.92,1.37,3.48,2.49,6.36,3.23c2.87,0.75,6,1.19,7.91,1.72c1.47,0.25,2.6,0.47,3.45,0.75
			c0.72,0.23-0.95-0.04-3.45-0.75c-1.11-0.18-2.43-0.39-3.97-0.64c1.88,1.09,3.74,2.14,5.09,2.97c0.99,0.08,2,0.15,3.02,0.23
			c4.51,0.35,8.86,0.27,13.32,0.77c1.62,0.2,5.11,0.18,6.69,0.63c-6.5-0.11-13.03-0.08-19.61-0.28c0.18,0.05,0.36,0.11,0.53,0.17
			c3.46,0.33,6.92,0.59,10.36,0.85c0.58,0,1.17,0.03,1.78,0.14l-1.78-0.14c-1.52,0.01-3,0.29-4.67,0.39
			c-1.03-0.04-2.22-0.39-3.25-0.43c-0.85-0.08-1.63-0.5-2.43-0.8l-1.55-0.15c-0.15,0.04-0.31,0.08-0.48,0.1
			c0.01,0.01,0.02,0.02,0.02,0.03c0.63,1,4.26,2.2,7.97,3c3.72,0.81,7.49,1.3,8.55,1.09c1.7-0.31,3.16-1.95,5.1-2.21
			c0.64-0.08,1.2,0.34,1.69-0.05c0.04-0.25,0.28-0.45,0.52-0.65c1.28-0.16,2.61,0.73,3.56-0.08c0.67-0.35,2.83,3.63,2.94,2.87
			c0.39-2.79,0.1-0.74,1.76-0.61c0.2,0.05,0.77-1.13,1.18-1.03c1.39,0.59,1.72-0.37,3.23-0.8c2.19-1.07,2.85,0.63,4.71-1.29
			c0.23-0.21,3.25-1.66,3.25-1.66c2.48-0.01,3.82-1.57,5.96,0.13c1.98-1.96,5.17-0.36,7.47-1.03c2.29-0.67,3.48,0.55,5.73,1.38
			c0.62,0.09,1.04-0.11,1.45,0.2c0.41,0.31,1.06-0.89,1.68-0.81l-0.01,0.77c0.21,0.03,0.62,0.08,0.83,0.11
			c0.21,0.03,0.2,0.28,0.2,0.54c-0.01,0.51-0.02,1.02,0.39,1.33c0.9,0.27,1.82,0.43,2.73,0.5c0.8-0.54,1.56-1.12,2.31-1.76
			c-0.02-0.35-0.03-0.7,0.03-1L94,74.61c0-0.77-0.22-1.56-0.23-2.07c-0.44-2.08,0.14-4.33-0.54-6.17c-0.2-0.53-1.61-0.42-2.42-1.29
			c-0.2-0.28-0.01-1.02-0.03-1.79c-0.79,0.16-0.99-0.63-0.81-1.37c-0.2-0.02-0.39-0.05-0.39-0.05c0-0.26-0.01-1.02-0.01-1.02
			c-2.17-0.52-4.71-1.91-6.49-0.64c-0.4,0.2-1,0.87-1.41,1.32c-0.2,0.22-0.79-0.12-0.99-0.16c-0.22,0.74-0.04,1.53-0.06,2.3
			c-1.59-0.5-4.93-1.32-4.44,1.33c-1.2,0.05-1.26,1.32-2.48,1.62c-1.61,0.43-3.68,0.87-5.72,1.21c-1.11,0.31-2.19,0.39-3.29,0.51
			c-0.41,0.05-0.8,0.1-1.18,0.15c-8.2,1.09-14.34-0.6-22.26,1.67c-8.17,2.25-16.83,2.12-23.76,0.89c-3.46-0.61-6.46-1.48-8.75-2.3
			c-2.29-0.84-3.89-1.58-4.74-1.9L2.81,67.6z"/>
	</g>
</g>
<g>
	<path class="st2" d="M48.33,4.36l0.46,0.71c3.72,4.03,6.47,8.11,8.51,12.09c3.67-3.17,7.8-5.86,12.4-8.04l0.87-0.41l0.34,0.9
		c1.78,4.69,2.77,9.11,3.25,13.25c4.61-1.65,9.55-2.55,14.64-2.55c0.9,0,1.8,0.03,2.7,0.08l0.83,0.05l0,0.84
		c-0.1,20.91-14.86,38.44-34.47,42.88c-6.69,0-8.6,5.38-9.53,5.38s-2.84-5.38-9.53-5.38C19.19,59.72,4.43,42.18,4.33,21.28l0-0.84
		l0.83-0.05c0.9-0.06,1.8-0.08,2.7-0.08c5.09,0,10.03,0.89,14.64,2.55c0.48-4.13,1.47-8.56,3.25-13.25l0.34-0.9l0.87,0.41
		c4.6,2.18,8.73,4.87,12.4,8.04c2.05-3.98,4.8-8.06,8.51-12.09L48.33,4.36 M48.33,27.23c2.26-3.37,4.69-6.11,7.62-8.83
		c-1.88-3.76-4.22-7.4-7.62-11.21c-3.4,3.81-5.73,7.45-7.62,11.21C43.64,21.12,46.07,23.87,48.33,27.23 M61.82,29.75
		c3.22-2.57,6.79-4.66,10.62-6.22c-0.41-3.87-1.28-8.01-2.85-12.39c-4.25,2.1-8.08,4.67-11.48,7.67
		C59.9,22.62,61.07,26.31,61.82,29.75 M34.83,29.75c0.75-3.43,1.92-7.13,3.72-10.94c-3.4-3-7.23-5.57-11.48-7.67
		c-1.58,4.38-2.45,8.52-2.85,12.39C28.04,25.09,31.61,27.18,34.83,29.75 M48.33,30.78l-0.75-1.18c-2.24-3.53-4.88-6.69-7.85-9.52
		c-1.74,3.83-2.86,7.53-3.54,10.94c6.53,4.65,12.14,17.21,12.14,17.21c2.58-6.79,6.93-12.64,12.14-17.21
		c-0.69-3.41-1.8-7.11-3.54-10.94c-2.98,2.83-5.61,5.99-7.85,9.52L48.33,30.78 M62.73,60.87c15.89-5.86,27.37-20.98,27.81-38.76
		c-0.6-0.03-1.2-0.04-1.8-0.04c-5.02,0-9.88,0.92-14.41,2.6c0.99,12.52-2.85,22.11-5.01,27.47C68.1,55.18,65.67,58.35,62.73,60.87
		 M33.92,60.87c-2.94-2.52-5.37-5.69-6.59-8.73c-2.16-5.36-6-14.96-5.01-27.47c-4.53-1.68-9.39-2.6-14.41-2.6
		c-0.6,0-1.2,0.01-1.8,0.04C6.55,39.9,18.03,55.02,33.92,60.87 M54.38,63.01c0.96-0.14,1.91-0.33,2.85-0.53
		c0.74-0.37,1.48-0.79,2.22-1.3c3.67-2.5,6.83-6.21,8.23-9.7c2.07-5.13,5.72-14.25,4.92-26.11c-3.76,1.59-7.27,3.71-10.39,6.31
		c0.99,5.48,1.01,10.18,1.01,13.43C63.22,50.96,59.69,59.13,54.38,63.01 M42.27,63.01c-5.31-3.89-8.84-12.06-8.84-17.9
		c0-3.25,0.02-7.95,1.01-13.43c-3.12-2.61-6.63-4.72-10.39-6.31c-0.8,11.86,2.85,20.98,4.92,26.11c1.4,3.49,4.56,7.2,8.23,9.7
		c0.74,0.5,1.48,0.92,2.22,1.3C40.36,62.69,41.31,62.87,42.27,63.01 M48.33,53.88l-0.84-2.69C45.24,44.05,41.2,37.89,36,33.09
		c-0.79,4.88-0.8,9.07-0.8,12.02c0,7.21,5.84,19.56,13.13,19.7c7.28-0.14,13.13-12.49,13.13-19.7c0-2.95-0.01-7.14-0.8-12.02
		c-5.2,4.81-9.24,10.96-11.48,18.11L48.33,53.88 M48.33,1.62l-1.25,1.91l-0.4,0.6c-3.05,3.32-5.66,6.91-7.78,10.69
		c-3.42-2.75-7.21-5.13-11.31-7.06l-0.86-0.41l-1.47-0.7l-0.58,1.52l-0.34,0.9c-1.46,3.86-2.5,7.81-3.09,11.78
		c-4.34-1.36-8.83-2.05-13.39-2.05c-0.93,0-1.87,0.03-2.79,0.09l-0.83,0.05l-1.41,0.09l0.01,1.42l0,0.84
		c0.05,10.36,3.69,20.5,10.26,28.56c6.47,7.93,15.48,13.54,25.38,15.78l0.16,0.04h0.17c4.17,0,6.14,2.41,7.32,3.85
		c0.67,0.82,1.25,1.52,2.21,1.52s1.54-0.71,2.21-1.52c1.18-1.44,3.15-3.85,7.32-3.85h0.17l0.16-0.04
		c9.9-2.24,18.91-7.84,25.38-15.78c6.56-8.05,10.21-18.2,10.26-28.55l0-0.84l0.01-1.42l-1.41-0.09l-0.83-0.05
		c-0.93-0.06-1.87-0.09-2.79-0.09c-4.56,0-9.06,0.69-13.39,2.05c-0.59-3.97-1.63-7.92-3.09-11.78l-0.34-0.9l-0.58-1.52l-1.47,0.7
		l-0.87,0.41c-4.09,1.94-7.89,4.31-11.3,7.06c-2.12-3.78-4.73-7.37-7.78-10.69l-0.4-0.6L48.33,1.62L48.33,1.62z M42.56,18.08
		c1.65-3.12,3.51-5.9,5.77-8.6c2.26,2.7,4.12,5.48,5.77,8.6c-2.21,2.12-4.08,4.25-5.77,6.54C46.64,22.33,44.76,20.21,42.56,18.08
		L42.56,18.08z M25.83,22.59c0.4-3.13,1.1-6.26,2.09-9.32c3.17,1.7,6.12,3.69,8.79,5.94c-1.14,2.57-2.08,5.24-2.8,7.97
		C31.39,25.37,28.68,23.84,25.83,22.59L25.83,22.59z M59.94,19.21c2.68-2.25,5.63-4.25,8.79-5.94c0.99,3.06,1.69,6.19,2.09,9.32
		c-2.85,1.25-5.56,2.79-8.08,4.59C62.02,24.45,61.08,21.78,59.94,19.21L59.94,19.21z M48.33,33.58l1.27-1.99l0.75-1.18
		c1.74-2.74,3.78-5.32,6.08-7.71c1.02,2.52,1.82,5.13,2.41,7.78c-4.5,4.08-8.11,8.91-10.59,14.14c-2.02-3.89-5.9-10.6-10.39-14.22
		c0.58-2.63,1.38-5.21,2.39-7.7c2.3,2.38,4.34,4.97,6.08,7.71l0.75,1.18L48.33,33.58L48.33,33.58z M75.91,25.7
		c4.16-1.42,8.47-2.13,12.84-2.13c0.08,0,0.16,0,0.24,0c-0.85,13.59-8.62,25.95-20.23,32.79c0.81-1.22,1.48-2.45,1.97-3.66
		C72.8,47.54,76.61,38.07,75.91,25.7L75.91,25.7z M7.67,23.57c0.08,0,0.16,0,0.24,0c4.37,0,8.68,0.72,12.84,2.13
		c-0.71,12.36,3.11,21.84,5.19,27c0.49,1.21,1.15,2.44,1.97,3.66C16.29,49.52,8.52,37.16,7.67,23.57L7.67,23.57z M63.84,32.29
		c2.25-1.79,4.72-3.35,7.36-4.64c0.23,10.53-3.08,18.73-4.91,23.27c-1.06,2.65-3.24,5.45-5.88,7.66c2.76-4.31,4.31-9.5,4.31-13.47
		C64.72,42.09,64.72,37.61,63.84,32.29L63.84,32.29z M36.24,58.58c-2.65-2.21-4.82-5.01-5.88-7.66c-1.83-4.54-5.14-12.74-4.91-23.27
		c2.64,1.29,5.11,2.84,7.36,4.64c-0.88,5.32-0.88,9.8-0.88,12.82C31.93,49.08,33.48,54.27,36.24,58.58L36.24,58.58z M48.33,63.31
		c-6-0.15-11.63-11.45-11.63-18.2c0-2.19,0-5.26,0.38-8.83c4.1,4.38,7.17,9.64,8.97,15.36l0.84,2.69l1.43,4.55l1.43-4.55l0.85-2.69
		c1.79-5.72,4.87-10.98,8.97-15.36c0.38,3.57,0.38,6.64,0.38,8.83C59.95,51.86,54.33,63.16,48.33,63.31L48.33,63.31z"/>
</g>
<path class="st3" d="M88.03,66.38c-2.17-0.29-4.2-0.63-6.18-0.99c-0.18,0.17-0.31,0.37-0.51,0.23c-0.13-0.19-0.28-0.31-0.42-0.4
	l-0.87-0.16c-0.1,0.01-0.21,0.02-0.32,0.04l-0.01,0c-0.18,0.09-0.15,0.24-0.06,0.39c0.1,0.11,0.19,0.25,0.26,0.38
	c-0.05-0.09-0.18-0.23-0.26-0.38c-0.12-0.14-0.26-0.25-0.44-0.33c-0.27,0.03-0.56,0.03-0.84-0.06c0.33-0.07,0.61-0.04,0.84,0.06
	c0.17-0.02,0.34-0.05,0.51-0.07c0.05-0.02,0.1-0.05,0.15-0.07c-0.66-0.13-1.32-0.25-1.98-0.38c-0.16,0.01-0.3,0.01-0.43,0.03
	c-0.5,0.07-0.99,0.15-1.24-0.35c-0.12-0.02-0.24-0.05-0.35-0.07c0.02,0.03,0.04,0.06,0.06,0.09c-0.05-0.03-0.09-0.07-0.12-0.11
	c-0.5-0.09-1-0.19-1.5-0.28c-0.35,0.15-0.71,0.34-1.06,0.45c0,0-0.2-0.34-0.3-0.51c-0.16,0.23-0.37,0.36-0.61,0.42
	c0.25,0.31,0.47,0.65,0.68,0.87c0.29,0.51,0.85-0.89,1.16,0.05c-0.31-0.94-0.87,0.46-1.16-0.05c-0.21-0.22-0.43-0.56-0.68-0.87
	c-0.49,0.12-1.1-0.09-1.56-0.6c0.65-0.35,1.15,0.07,1.56,0.6c0.24-0.06,0.45-0.2,0.61-0.42c0.1,0.17,0.3,0.51,0.3,0.51
	c0.35-0.1,0.71-0.3,1.06-0.45c-0.98-0.17-1.97-0.37-3-0.52c-3.27-0.57-6.5-0.87-9.76-0.87c-1.61,0.01-3.23,0.01-4.88,0.02
	c-1.65,0.05-3.32,0.08-5.05,0.08c-1.87,0.04-3.71,0.03-5.53,0.01c-1.82,0.02-3.62-0.04-5.41-0.07c-7.18-0.14-13.25,2.29-20.77,1.53
	c-2.89-0.21-7.77,1.52-10.34,2.4c-1.51,1.27-1.55,2.8-1.11,3.98c0.44,1.18,1.24,2.07,1.35,2.16c3.04,2.75,4.07,0.41,8.75,1.34
	c-3.13-0.41,1.56-2.75,4.8-0.99c2.34,1.34,4.71,1.04,7.14,0.4c2.43-0.63,4.95-1.56,7.43-1.49c1.24,0.05,2.5-0.29,3.95-0.43
	c1.91,0.05,3.76-0.01,5.58-0.2c1.83-0.13,3.63-0.39,5.45-0.63c1.82-0.2,3.65-0.5,5.53-0.65c1.85-0.14,3.85-0.31,5.65-0.21
	c1.98,0.01,3.82-0.78,5.62-1.14c1.3-0.07,2.63,0.52,3.68,0.62c1.65,0.15,3.1-0.02,4.52-0.27c-1.55-0.01-2.69,0.12-4.4,0.1
	c-1.14-0.05,0.9-1.16,1.69-1.33c0.35-0.18,0.74,0.94,1.08,0.76c0.7,0.07,1.39-0.27,2.18-0.45c0.35-0.17,0.19,0.78,0.37,0.69
	c1.05-0.09,2.01-1.2,2.63-0.86c0.48,0.21,0.91,0.41,1.33,0.62c0.27,0.09,0.54,0.17,0.84,0.18c0.19-0.05,0.39-0.11,0.59-0.16
	c-0.11-0.31-0.11-0.68-0.11-1.04c0.27,0.09,0.62,0.36,0.89,0.45c-0.27-0.09-0.62-0.36-0.89-0.45c0,0.37,0,0.73,0.11,1.04
	c1.44-0.37,3.08-0.63,4.6-0.81c0-0.03,0-0.06-0.01-0.09c-0.87-0.04-1.69-0.25-2.49-0.96c0.35,0.27,0.27,0.52-0.18,0.51l-0.27-0.52
	c0.8-0.15,1.61-0.31,2.22,0.49c0,0,0.36-0.16,0.54-0.24c0.22,0.17,0.16,0.47,0.18,0.73c0.17,0.01,0.34,0.01,0.52,0
	C89.06,67.16,88.03,66.38,88.03,66.38z"/>
<g>
	<g>
		<g class="st4">
			<path class="st3" d="M95.07,66.47l-0.93-0.2c0.15,0.09,0.28,0.22,0.41,0.42C94.74,66.82,94.88,66.63,95.07,66.47z"/>
			<path class="st3" d="M93.28,66.07c-0.06-0.01-0.11-0.03-0.16-0.04c-0.05,0.02-0.11,0.04-0.16,0.06
				C93.07,66.08,93.18,66.08,93.28,66.07z"/>
			<path class="st3" d="M91.62,66.05c0.28,0.1,0.56,0.11,0.83,0.1C92.23,66.04,91.96,65.99,91.62,66.05z"/>
			<path class="st3" d="M92.88,66.49c-0.08-0.16-0.1-0.31,0.08-0.39l0.01,0c-0.17,0.02-0.34,0.04-0.51,0.05
				C92.62,66.23,92.76,66.35,92.88,66.49z"/>
			<path class="st3" d="M92.88,66.49c0.07,0.15,0.21,0.3,0.25,0.39C93.05,66.74,92.97,66.61,92.88,66.49z"/>
			<path class="st3" d="M91.92,69.77c-0.18,0.08,0.01-0.86-0.35-0.7c-0.8,0.14-1.51,0.47-2.22,0.36c-0.36,0.16-0.7-0.97-1.06-0.81
				c-0.8,0.15-2.93,1.14-1.78,1.25c1.73,0.11,2.89,0.04,4.45,0.11c1.31-0.18,2.59-0.44,3.93-0.56c0.37,0.02,0.69,0.14,1.02,0.27
				c-0.42-0.22-0.84-0.44-1.32-0.67C93.98,68.64,92.99,69.72,91.92,69.77z"/>
			<path class="st3" d="M101.83,68.22c-0.18,0.08-0.54,0.23-0.54,0.23c-0.6-0.81-1.41-0.67-2.21-0.54l0.26,0.53
				c0.44,0.02,0.54-0.23,0.19-0.51c0.78,0.73,1.6,0.96,2.47,1.01C101.99,68.68,102.05,68.39,101.83,68.22z"/>
			<path class="st3" d="M102.51,68.96c-0.17,0-0.35,0-0.51-0.01l0,0.08c0.18-0.02,0.35-0.03,0.53-0.05L102.51,68.96z"/>
			<path class="st3" d="M79.21,65.12c0.12-0.02,0.27-0.02,0.42-0.03c-0.55-0.11-1.1-0.22-1.66-0.33
				C78.22,65.26,78.71,65.19,79.21,65.12z"/>
		</g>
	</g>
	<g>
		<path class="st5" d="M21.15,65.24h0.68l2.47,2.75v-2.75h0.66v4.39H24.5l-2.68-3.04v2.97h-0.67V65.24z"/>
		<path class="st5" d="M28.68,65.14l2.02,4.41h-1.08l-0.54-1.18H27.4l-0.57,1.18h-0.73l2.11-4.41H28.68z M27.6,67.97h1.3l-0.64-1.39
			L27.6,67.97z"/>
		<path class="st5" d="M35.16,65.24v0.37h-1.49v3.95h-1.06V65.6h-1.49v-0.37H35.16z"/>
		<path class="st5" d="M36.54,65.24h1.06v2.77c0,0.17,0.03,0.33,0.08,0.48c0.05,0.15,0.13,0.27,0.22,0.38
			c0.1,0.11,0.21,0.19,0.35,0.26c0.14,0.06,0.29,0.1,0.46,0.1s0.32-0.03,0.46-0.1c0.14-0.06,0.25-0.15,0.35-0.26
			c0.1-0.11,0.17-0.23,0.22-0.38c0.05-0.15,0.08-0.31,0.08-0.48v-2.77h0.67v2.77c0,0.22-0.04,0.44-0.12,0.63
			c-0.08,0.2-0.2,0.37-0.36,0.52c-0.16,0.15-0.37,0.27-0.62,0.36c-0.25,0.09-0.56,0.13-0.91,0.13c-0.32,0-0.6-0.04-0.84-0.13
			c-0.24-0.09-0.44-0.21-0.61-0.36c-0.17-0.15-0.29-0.33-0.37-0.53c-0.08-0.2-0.12-0.41-0.12-0.64V65.24z"/>
		<path class="st5" d="M42.17,65.24h1.63c0.28,0,0.52,0.03,0.73,0.09s0.39,0.14,0.53,0.25c0.14,0.11,0.24,0.23,0.31,0.37
			c0.07,0.14,0.11,0.3,0.11,0.47c0,0.25-0.09,0.47-0.27,0.65c-0.18,0.19-0.42,0.33-0.72,0.42l1.53,2.07h-1.15l-1.45-1.96h-0.19v1.96
			h-1.06V65.24z M43.23,67.22h0.23c0.13,0,0.25-0.02,0.36-0.05c0.11-0.03,0.21-0.09,0.29-0.16s0.14-0.15,0.19-0.25
			c0.05-0.1,0.07-0.21,0.07-0.33c0-0.23-0.07-0.42-0.2-0.56c-0.13-0.15-0.3-0.22-0.51-0.22h-0.43V67.22z"/>
		<path class="st5" d="M49.16,65.14l2.02,4.41H50.1l-0.54-1.18h-1.68l-0.57,1.18h-0.73l2.11-4.41H49.16z M48.08,67.97h1.3
			l-0.64-1.39L48.08,67.97z"/>
		<path class="st5" d="M52.33,65.24h1.06v3.88h2.21v0.44h-3.27V65.24z"/>
		<path class="st5" d="M56.9,65.24h1.03l1.5,2.95l1.47-2.95h1.01v4.32h-1.06v-2.81l-1.41,2.81h-0.41l-1.46-2.85v2.85H56.9V65.24z"/>
		<path class="st5" d="M66.81,65.24v0.37h-2.16v1.42h1.8v0.37h-1.8v1.72h2.16v0.44h-3.22v-4.32H66.81z"/>
		<path class="st5" d="M68.32,65.24h0.68l2.47,2.75v-2.75h0.66v4.39h-0.46l-2.68-3.04v2.97h-0.67V65.24z"/>
		<path class="st5" d="M77.55,65.24v0.37h-1.49v3.95H75V65.6H73.5v-0.37H77.55z"/>
		<path class="st5" d="M82.15,65.24v0.37h-2.16v1.42h1.8v0.37h-1.8v1.72h2.16v0.44h-3.22v-4.32H82.15z"/>
		<path class="st5" d="M28.64,73.85h1.8v1.67c-0.14,0.07-0.28,0.14-0.42,0.2c-0.14,0.06-0.29,0.12-0.44,0.16
			c-0.16,0.05-0.33,0.08-0.51,0.11c-0.19,0.02-0.4,0.04-0.63,0.04c-0.37,0-0.72-0.05-1.03-0.16c-0.31-0.1-0.58-0.25-0.81-0.44
			c-0.23-0.19-0.4-0.42-0.53-0.69c-0.13-0.27-0.19-0.56-0.19-0.89c0-0.34,0.06-0.66,0.19-0.94c0.13-0.29,0.31-0.53,0.53-0.73
			c0.23-0.2,0.49-0.36,0.81-0.47c0.31-0.11,0.66-0.17,1.03-0.17c0.22,0,0.43,0.03,0.63,0.09c0.2,0.06,0.39,0.14,0.56,0.23
			s0.33,0.21,0.47,0.34c0.14,0.13,0.25,0.26,0.34,0.39L30,72.99c-0.09-0.13-0.19-0.25-0.29-0.36c-0.1-0.11-0.21-0.21-0.32-0.29
			c-0.11-0.08-0.23-0.14-0.36-0.19c-0.13-0.05-0.27-0.07-0.42-0.07c-0.22,0-0.43,0.04-0.62,0.12c-0.19,0.08-0.36,0.2-0.5,0.35
			c-0.14,0.15-0.25,0.34-0.33,0.56c-0.08,0.22-0.12,0.47-0.12,0.75c0,0.28,0.04,0.53,0.13,0.74c0.08,0.21,0.2,0.39,0.34,0.54
			c0.14,0.15,0.32,0.26,0.52,0.33c0.2,0.07,0.41,0.11,0.63,0.11c0.28,0,0.51-0.07,0.71-0.21v-1.15h-0.74V73.85z"/>
		<path class="st5" d="M34.17,71.55l2.02,4.41H35.1l-0.54-1.18h-1.68l-0.57,1.18H31.6l2.11-4.41H34.17z M33.09,74.38h1.3l-0.64-1.39
			L33.09,74.38z"/>
		<path class="st5" d="M38.83,76.03c-0.26,0-0.48-0.03-0.68-0.09s-0.36-0.14-0.5-0.25c-0.14-0.11-0.25-0.24-0.33-0.39
			c-0.08-0.15-0.14-0.31-0.16-0.49h0.73c0.05,0.22,0.15,0.4,0.3,0.54c0.15,0.15,0.36,0.22,0.62,0.22c0.09,0,0.18-0.01,0.27-0.03
			c0.09-0.02,0.16-0.05,0.23-0.09c0.07-0.04,0.12-0.1,0.17-0.17c0.04-0.07,0.07-0.15,0.07-0.25c0-0.17-0.06-0.32-0.17-0.44
			c-0.11-0.12-0.26-0.23-0.43-0.33c-0.17-0.1-0.35-0.19-0.56-0.29c-0.2-0.09-0.39-0.19-0.56-0.31c-0.17-0.11-0.31-0.24-0.43-0.39
			c-0.11-0.15-0.17-0.33-0.17-0.54c0-0.17,0.04-0.33,0.11-0.48s0.18-0.27,0.33-0.38c0.14-0.11,0.32-0.19,0.53-0.25
			c0.21-0.06,0.44-0.09,0.7-0.09c0.22,0,0.42,0.03,0.59,0.09c0.18,0.06,0.33,0.14,0.47,0.24c0.13,0.1,0.25,0.23,0.34,0.37
			c0.09,0.14,0.16,0.29,0.21,0.46h-0.66c-0.04-0.1-0.08-0.2-0.13-0.29c-0.05-0.09-0.11-0.17-0.19-0.25
			c-0.07-0.07-0.16-0.13-0.27-0.17c-0.11-0.04-0.23-0.06-0.38-0.06c-0.14,0-0.25,0.02-0.34,0.05c-0.09,0.03-0.17,0.08-0.23,0.14
			c-0.06,0.06-0.1,0.12-0.13,0.19c-0.02,0.07-0.04,0.14-0.04,0.2c0,0.15,0.06,0.29,0.18,0.4c0.12,0.12,0.27,0.22,0.44,0.33
			c0.18,0.1,0.37,0.2,0.57,0.3c0.2,0.1,0.4,0.2,0.57,0.32c0.18,0.12,0.32,0.25,0.44,0.39c0.12,0.15,0.18,0.32,0.18,0.52
			c0,0.17-0.04,0.34-0.11,0.49c-0.07,0.15-0.18,0.28-0.32,0.39c-0.14,0.11-0.32,0.2-0.53,0.26C39.35,76,39.1,76.03,38.83,76.03z"/>
		<path class="st5" d="M45.24,71.64v0.37h-2.16v1.42h1.8v0.37h-1.8v1.72h2.16v0.44h-3.22v-4.32H45.24z"/>
		<path class="st5" d="M46.8,71.64h1.06v4.32H46.8V71.64z"/>
		<path class="st5" d="M52.68,71.64v0.37h-2.04v1.42h1.8v0.37h-1.8v2.16h-1.06v-4.32H52.68z"/>
		<path class="st5" d="M54.23,71.64h1.06v4.32h-1.06V71.64z"/>
		<path class="st5" d="M58.02,73.8c0,0.28,0.04,0.53,0.13,0.74c0.08,0.21,0.2,0.39,0.34,0.54c0.14,0.14,0.3,0.25,0.49,0.33
			c0.18,0.07,0.37,0.11,0.57,0.11c0.15,0,0.3-0.03,0.43-0.08c0.13-0.05,0.25-0.12,0.37-0.21c0.11-0.09,0.22-0.19,0.32-0.31
			c0.1-0.12,0.19-0.24,0.29-0.37l0.44,0.32c-0.1,0.15-0.21,0.3-0.34,0.44c-0.13,0.14-0.29,0.27-0.45,0.38
			c-0.17,0.11-0.35,0.19-0.55,0.26c-0.2,0.07-0.41,0.1-0.63,0.1c-0.37,0-0.72-0.05-1.03-0.16c-0.31-0.11-0.58-0.26-0.81-0.46
			c-0.23-0.2-0.4-0.44-0.53-0.71c-0.13-0.28-0.19-0.59-0.19-0.93c0-0.33,0.06-0.63,0.18-0.91c0.12-0.28,0.29-0.52,0.51-0.72
			c0.22-0.2,0.48-0.36,0.79-0.47c0.31-0.11,0.65-0.17,1.02-0.17c0.25,0,0.48,0.03,0.69,0.09c0.21,0.06,0.4,0.14,0.57,0.24
			c0.17,0.1,0.32,0.23,0.45,0.37c0.13,0.14,0.25,0.3,0.35,0.47l-0.45,0.31c-0.09-0.13-0.19-0.25-0.29-0.36
			c-0.11-0.11-0.22-0.21-0.34-0.3c-0.12-0.09-0.25-0.15-0.38-0.2c-0.13-0.05-0.27-0.07-0.42-0.07c-0.2,0-0.39,0.04-0.57,0.11
			c-0.18,0.07-0.34,0.18-0.47,0.33c-0.13,0.14-0.24,0.32-0.32,0.54C58.06,73.27,58.02,73.52,58.02,73.8z"/>
		<path class="st5" d="M64.91,71.55l2.02,4.41h-1.08l-0.54-1.18h-1.68l-0.57,1.18h-0.73l2.11-4.41H64.91z M63.83,74.38h1.3
			l-0.64-1.39L63.83,74.38z"/>
		<path class="st5" d="M68.09,71.64h1.57c0.4,0,0.77,0.05,1.11,0.14c0.34,0.1,0.63,0.23,0.87,0.41c0.24,0.18,0.43,0.4,0.57,0.66
			c0.13,0.26,0.2,0.56,0.2,0.9c0,0.31-0.06,0.59-0.17,0.86c-0.11,0.27-0.28,0.5-0.5,0.7c-0.22,0.2-0.49,0.36-0.81,0.47
			c-0.32,0.11-0.69,0.17-1.1,0.17h-1.74V71.64z M69.15,75.52h0.57c0.21,0,0.4-0.04,0.59-0.11c0.18-0.08,0.34-0.19,0.48-0.34
			c0.14-0.15,0.25-0.33,0.33-0.55c0.08-0.22,0.12-0.47,0.12-0.75c0-0.24-0.04-0.46-0.11-0.67c-0.07-0.21-0.18-0.39-0.31-0.54
			c-0.13-0.15-0.3-0.27-0.48-0.35c-0.19-0.08-0.39-0.13-0.61-0.13h-0.57V75.52z"/>
		<path class="st5" d="M75.57,71.55l2.02,4.41h-1.08l-0.54-1.18h-1.68l-0.57,1.18H73l2.11-4.41H75.57z M74.49,74.38h1.3l-0.64-1.39
			L74.49,74.38z"/>
	</g>
</g>
</svg>
