<?xml version="1.0" encoding="utf-8"?>
<!-- Generator: Adobe Illustrator 24.3.0, SVG Export Plug-In . SVG Version: 6.00 Build 0)  -->
<svg version="1.1" id="Layer_1" xmlns="http://www.w3.org/2000/svg" xmlns:xlink="http://www.w3.org/1999/xlink" x="0px" y="0px"
	 viewBox="0 0 1080 1067.82" style="enable-background:new 0 0 1080 1067.82;" xml:space="preserve">
<style type="text/css">
	.st0{fill:url(#SVGID_1_);}
	.st1{fill:url(#SVGID_2_);}
	.st2{fill:url(#SVGID_3_);}
	.st3{fill:url(#SVGID_4_);}
	.st4{fill:url(#SVGID_5_);}
	.st5{fill:url(#SVGID_6_);}
	.st6{fill:url(#SVGID_7_);}
	.st7{fill:url(#SVGID_8_);}
	.st8{fill:url(#SVGID_9_);}
	.st9{fill:url(#SVGID_10_);}
	.st10{fill:url(#SVGID_11_);}
	.st11{fill:url(#SVGID_12_);}
	.st12{fill:url(#SVGID_13_);}
	.st13{fill:url(#SVGID_14_);}
	.st14{fill:url(#SVGID_15_);}
	.st15{fill:url(#SVGID_16_);}
	.st16{fill:url(#SVGID_17_);}
	.st17{fill:url(#SVGID_18_);}
	.st18{fill:url(#SVGID_19_);}
	.st19{fill:url(#SVGID_20_);}
	.st20{fill:url(#SVGID_21_);}
	.st21{fill:url(#SVGID_22_);}
	.st22{fill:url(#SVGID_23_);}
	.st23{fill:url(#SVGID_24_);}
	.st24{fill:url(#SVGID_25_);}
	.st25{fill:url(#SVGID_26_);}
	.st26{fill:url(#SVGID_27_);}
	.st27{fill:url(#SVGID_28_);}
	.st28{fill:url(#SVGID_29_);}
	.st29{fill:url(#SVGID_30_);}
	.st30{fill:url(#SVGID_31_);}
	.st31{fill:url(#SVGID_32_);}
	.st32{fill:url(#SVGID_33_);}
	.st33{fill:url(#SVGID_34_);}
	.st34{fill:url(#SVGID_35_);}
	.st35{fill:url(#SVGID_36_);}
	.st36{fill:url(#SVGID_37_);}
	.st37{fill:url(#SVGID_38_);}
	.st38{fill:url(#SVGID_39_);}
	.st39{fill:url(#SVGID_40_);}
	.st40{fill:url(#SVGID_41_);}
	.st41{fill:url(#SVGID_42_);}
	.st42{fill:url(#SVGID_43_);}
	.st43{fill:url(#SVGID_44_);}
	.st44{fill:url(#SVGID_45_);}
	.st45{fill:url(#SVGID_46_);}
	.st46{fill:url(#SVGID_47_);}
	.st47{fill:url(#SVGID_48_);}
	.st48{fill:url(#SVGID_49_);}
	.st49{fill:url(#SVGID_50_);}
	.st50{fill:url(#SVGID_51_);}
	.st51{fill:url(#SVGID_52_);}
	.st52{fill:url(#SVGID_53_);}
	.st53{fill:url(#SVGID_54_);}
	.st54{fill:url(#SVGID_55_);}
	.st55{fill:url(#SVGID_56_);}
	.st56{fill:url(#SVGID_57_);}
	.st57{fill:url(#SVGID_58_);}
	.st58{fill:url(#SVGID_59_);}
	.st59{fill:url(#SVGID_60_);}
	.st60{fill:url(#SVGID_61_);}
	.st61{fill:url(#SVGID_62_);}
	.st62{fill:url(#SVGID_63_);}
	.st63{fill:url(#SVGID_64_);}
	.st64{fill:url(#SVGID_65_);}
	.st65{fill:url(#SVGID_66_);}
	.st66{fill:url(#SVGID_67_);}
	.st67{fill:url(#SVGID_68_);}
	.st68{fill:url(#SVGID_69_);}
	.st69{fill:url(#SVGID_70_);}
	.st70{fill:url(#SVGID_71_);}
	.st71{fill:url(#SVGID_72_);}
	.st72{fill:url(#SVGID_73_);}
	.st73{fill:url(#SVGID_74_);}
	.st74{fill:url(#SVGID_75_);}
	.st75{fill:url(#SVGID_76_);}
	.st76{fill:url(#SVGID_77_);}
	.st77{fill:url(#SVGID_78_);}
	.st78{fill:url(#SVGID_79_);}
	.st79{fill:url(#SVGID_80_);}
	.st80{fill:url(#SVGID_81_);}
	.st81{fill:url(#SVGID_82_);}
	.st82{fill:url(#SVGID_83_);}
	.st83{fill:url(#SVGID_84_);}
	.st84{fill:url(#SVGID_85_);}
	.st85{fill:url(#SVGID_86_);}
	.st86{fill:url(#SVGID_87_);}
	.st87{fill:url(#SVGID_88_);}
	.st88{fill:url(#SVGID_89_);}
	.st89{fill:url(#SVGID_90_);}
	.st90{fill:url(#SVGID_91_);}
	.st91{fill:url(#SVGID_92_);}
	.st92{fill:url(#SVGID_93_);}
	.st93{fill:url(#SVGID_94_);}
	.st94{fill:url(#SVGID_95_);}
	.st95{fill:url(#SVGID_96_);}
	.st96{fill:url(#SVGID_97_);}
	.st97{fill:url(#SVGID_98_);}
	.st98{fill:url(#SVGID_99_);}
	.st99{fill:url(#SVGID_100_);}
	.st100{fill:url(#SVGID_101_);}
	.st101{fill:url(#SVGID_102_);}
	.st102{fill:url(#SVGID_103_);}
	.st103{fill:url(#SVGID_104_);}
	.st104{fill:url(#SVGID_105_);}
	.st105{fill:url(#SVGID_106_);}
	.st106{fill:url(#SVGID_107_);}
	.st107{fill:url(#SVGID_108_);}
	.st108{fill:url(#SVGID_109_);}
	.st109{fill:url(#SVGID_110_);}
	.st110{fill:url(#SVGID_111_);}
	.st111{fill:url(#SVGID_112_);}
	.st112{fill:url(#SVGID_113_);}
	.st113{fill:url(#SVGID_114_);}
	.st114{fill:url(#SVGID_115_);}
	.st115{fill:url(#SVGID_116_);}
	.st116{fill:url(#SVGID_117_);}
	.st117{fill:url(#SVGID_118_);}
	.st118{fill:url(#SVGID_119_);}
	.st119{fill:url(#SVGID_120_);}
	.st120{fill:url(#SVGID_121_);}
	.st121{fill:url(#SVGID_122_);}
	.st122{fill:url(#SVGID_123_);}
	.st123{fill:url(#SVGID_124_);}
	.st124{fill:url(#SVGID_125_);}
	.st125{fill:url(#SVGID_126_);}
	.st126{fill:url(#SVGID_127_);}
	.st127{fill:url(#SVGID_128_);}
	.st128{fill:url(#SVGID_129_);}
	.st129{fill:url(#SVGID_130_);}
	.st130{fill:url(#SVGID_131_);}
	.st131{fill:url(#SVGID_132_);}
	.st132{fill:url(#SVGID_133_);}
	.st133{fill:url(#SVGID_134_);}
	.st134{fill:url(#SVGID_135_);}
	.st135{fill:url(#SVGID_136_);}
	.st136{fill:url(#SVGID_137_);}
	.st137{fill:url(#SVGID_138_);}
	.st138{fill:url(#SVGID_139_);}
	.st139{fill:url(#SVGID_140_);}
	.st140{fill:url(#SVGID_141_);}
	.st141{fill:url(#SVGID_142_);}
	.st142{fill:url(#SVGID_143_);}
	.st143{fill:url(#SVGID_144_);}
	.st144{fill:url(#SVGID_145_);}
	.st145{fill:#FFFFFF;}
</style>
<g>
	<radialGradient id="SVGID_1_" cx="541.6606" cy="529.1584" r="521.6506" gradientUnits="userSpaceOnUse">
		<stop  offset="0.54" style="stop-color:#A07F36"/>
		<stop  offset="0.7539" style="stop-color:#9C4F51"/>
		<stop  offset="1" style="stop-color:#981C6E"/>
	</radialGradient>
	<path class="st0" d="M693.82,493.92c-0.98-17.56-11.08-30.44-27.37-35.52c-9.42-2.94-18.89-2.27-27.98,1.83
		c-9.2,4.14-15.61,11.1-19.39,19.8c-3.62-5.01-6.62-10.42-10.83-14.62c-4.16-4.15-9.55-7.07-14.4-10.52
		c17.31-8.32,24.73-24.03,23.42-38.46c-1.59-17.53-11.13-30.17-27.36-34.52c-24.74-6.63-41.15,4.56-50.16,28.14
		c-6.19-20.58-20.94-29.73-37.57-30.12c-15.53-0.37-31.35,7.82-37.29,26.34c-7.02,21.85,1.72,38.19,22,49.32
		c-12.56,4.72-20.38,13.49-25.47,25.11c-9.66-18.26-24.43-26.53-43.14-23.44c-15.82,2.61-29.76,14.13-31.82,33.44
		c-2.34,22.01,9.02,36.26,30,43.39c-18.31,4.89-29.04,18.57-30.29,35.41c-1.32,17.79,9.17,33.66,25.6,39.42
		c9.64,3.38,19.38,3.09,28.88-0.95c9.57-4.06,15.89-11.48,20.87-20.91c4.96,12.37,13.49,20.39,25.28,25.27
		c-21.93,10.63-27.13,31.72-22.89,46.51c4.87,17,17.76,26.99,33.05,28.68c19.51,2.15,36.72-8.73,42.96-30.01
		c7.22,21.85,22.27,32.56,44.61,29.76c15.58-1.95,29.98-12.81,32.46-34.19c2.17-18.72-7.04-32.23-23.96-40.73
		c12.08-4.82,20.44-13.24,25.48-25.34c10.44,20.91,29.31,27.28,46.34,22.86c17.61-4.57,29.61-20.23,28.99-38.62
		c-0.61-18.15-11.89-32.5-30.49-37.12C688.25,525.99,694.59,507.56,693.82,493.92z M461.47,557.54
		c-5.86-11.98-14.53-19.97-28.05-23.52c13.02-3.87,22.18-11.38,27.97-24.08c4.13,10.85,11.37,18.15,21.01,24.05
		C472.43,539.34,465.68,546.98,461.47,557.54z M539.46,428.67c3,5.06,5.51,10.79,9.38,15.38c3.8,4.5,8.99,7.82,13.78,11.84
		c-9.52,3.74-17.27,10.34-22.62,20.71c-5.44-10.23-13.08-17.01-23.93-21.2C528.61,449.49,536.23,440.6,539.46,428.67z M557.21,533.9
		c-5.52,5.49-11.73,11.67-17.35,17.26c-5.5-5.48-11.73-11.7-17.33-17.28c5.39-5.31,11.7-11.53,17.52-17.26
		C545.58,522.19,551.71,528.37,557.21,533.9z M539.99,639.91c-3.69-12.88-11.47-21.8-23.8-27.49c10.53-4.25,18.31-11.05,23.77-21.15
		c5.51,9.81,12.97,16.99,23.7,21.13C551.53,618.17,543.47,627.04,539.99,639.91z M618.73,557.79
		c-4.66-10.42-10.85-18.57-20.68-23.34c4.38-3.84,8.65-6.94,12.08-10.78c3.32-3.72,5.77-8.21,8.74-12.56
		c5.72,11.29,14.49,19.31,27.89,22.84C633.36,537.59,624.08,544.9,618.73,557.79z"/>
	<radialGradient id="SVGID_2_" cx="541.6606" cy="529.1584" r="521.6506" gradientUnits="userSpaceOnUse">
		<stop  offset="0.54" style="stop-color:#A07F36"/>
		<stop  offset="0.7539" style="stop-color:#9C4F51"/>
		<stop  offset="1" style="stop-color:#981C6E"/>
	</radialGradient>
	<path class="st1" d="M656.28,612.73c-21.62-0.71-37.76,16.05-37.71,36.01c0.05,20.31,15.29,35.9,36.22,36.23
		c20.61,0.06,36.34-16.17,36.43-36.1C691.31,629.38,675.48,613.36,656.28,612.73z"/>
	<radialGradient id="SVGID_3_" cx="541.6606" cy="529.1584" r="521.6506" gradientUnits="userSpaceOnUse">
		<stop  offset="0.54" style="stop-color:#A07F36"/>
		<stop  offset="0.7539" style="stop-color:#9C4F51"/>
		<stop  offset="1" style="stop-color:#981C6E"/>
	</radialGradient>
	<path class="st2" d="M654.77,455.33c20.38-0.64,36.22-15.13,36.37-36.28c0.14-19.3-14.09-36.31-36.67-36.2
		c-20,0.1-35.44,14.37-35.81,35.59C618.28,439.46,633.61,454.42,654.77,455.33z"/>
	<radialGradient id="SVGID_4_" cx="541.6606" cy="529.1584" r="521.6506" gradientUnits="userSpaceOnUse">
		<stop  offset="0.54" style="stop-color:#A07F36"/>
		<stop  offset="0.7539" style="stop-color:#9C4F51"/>
		<stop  offset="1" style="stop-color:#981C6E"/>
	</radialGradient>
	<path class="st3" d="M424.72,455.18c22.12-0.03,36.65-16.33,36.61-36.32c-0.04-20.34-15.09-35.66-36.25-36.05
		c-19.84-0.36-36.37,16.29-36.37,36.22C389.21,439.58,404.9,455.21,424.72,455.18z"/>
	<radialGradient id="SVGID_5_" cx="541.6606" cy="529.1584" r="521.6506" gradientUnits="userSpaceOnUse">
		<stop  offset="0.54" style="stop-color:#A07F36"/>
		<stop  offset="0.7539" style="stop-color:#9C4F51"/>
		<stop  offset="1" style="stop-color:#981C6E"/>
	</radialGradient>
	<path class="st4" d="M425.17,612.85c-20.01-0.94-36.46,16.76-36.45,35.72c0,19.97,16.34,36.44,36.25,36.37
		c20.83-0.06,36.3-15.98,36.42-36.05C461.51,628.38,444.85,612.36,425.17,612.85z"/>
	<radialGradient id="SVGID_6_" cx="541.6606" cy="529.1584" r="521.6506" gradientUnits="userSpaceOnUse">
		<stop  offset="0.54" style="stop-color:#A07F36"/>
		<stop  offset="0.7539" style="stop-color:#9C4F51"/>
		<stop  offset="1" style="stop-color:#981C6E"/>
	</radialGradient>
	<path class="st5" d="M731.26,538.2c-19.13,0.23-33.14,14.62-33.73,33.29c-0.59,18.77,14.37,34.94,34.15,34.8
		c18.99-0.13,33.7-14.81,33.57-33.88C766.1,554.14,750.8,537.96,731.26,538.2z"/>
	<radialGradient id="SVGID_7_" cx="541.6606" cy="529.1584" r="521.6506" gradientUnits="userSpaceOnUse">
		<stop  offset="0.54" style="stop-color:#A07F36"/>
		<stop  offset="0.7539" style="stop-color:#9C4F51"/>
		<stop  offset="1" style="stop-color:#981C6E"/>
	</radialGradient>
	<path class="st6" d="M347.98,538.19c-18.87,0.23-33.69,15.58-33.3,33.51c-0.51,20.41,15.49,34.72,33.78,34.58
		c19.76-0.15,34.45-15.6,34.01-35.02C382.06,553.05,367.14,537.96,347.98,538.19z"/>
	<radialGradient id="SVGID_8_" cx="541.6606" cy="529.1584" r="521.6506" gradientUnits="userSpaceOnUse">
		<stop  offset="0.54" style="stop-color:#A07F36"/>
		<stop  offset="0.7539" style="stop-color:#9C4F51"/>
		<stop  offset="1" style="stop-color:#981C6E"/>
	</radialGradient>
	<path class="st7" d="M349.71,461.45c-18.9-0.45-35.74,15.3-35.05,33.92c-0.76,18.41,15.31,33.02,31.08,34.02
		c21.75,1.38,36.54-15.85,36.76-32.97C382.73,477.62,367.51,461.87,349.71,461.45z"/>
	<radialGradient id="SVGID_9_" cx="541.6606" cy="529.1584" r="521.6506" gradientUnits="userSpaceOnUse">
		<stop  offset="0.54" style="stop-color:#A07F36"/>
		<stop  offset="0.7539" style="stop-color:#9C4F51"/>
		<stop  offset="1" style="stop-color:#981C6E"/>
	</radialGradient>
	<path class="st8" d="M501.42,691.37c-19.13,0.11-32.78,15.17-33.62,32.25c-0.97,19.73,14.38,35.54,33.56,35.69
		c18.93,0.15,34.26-14.93,34.26-33.69C535.38,705.93,520.64,691.26,501.42,691.37z"/>
	<radialGradient id="SVGID_10_" cx="541.6606" cy="529.1584" r="521.6506" gradientUnits="userSpaceOnUse">
		<stop  offset="0.54" style="stop-color:#A07F36"/>
		<stop  offset="0.7539" style="stop-color:#9C4F51"/>
		<stop  offset="1" style="stop-color:#981C6E"/>
	</radialGradient>
	<path class="st9" d="M578.04,376.15c18.51,0.93,33.94-15.64,34.24-32.74c0.33-18.64-14.24-34.95-33.97-34.97
		c-18.43-0.02-33.28,14.94-34.02,32.75C543.47,360.82,560.98,377.11,578.04,376.15z"/>
	<radialGradient id="SVGID_11_" cx="541.6606" cy="529.1584" r="521.6506" gradientUnits="userSpaceOnUse">
		<stop  offset="0.54" style="stop-color:#A07F36"/>
		<stop  offset="0.7539" style="stop-color:#9C4F51"/>
		<stop  offset="1" style="stop-color:#981C6E"/>
	</radialGradient>
	<path class="st10" d="M732.08,461.51c-19.84-0.24-34.24,16-34.63,33.51c-0.42,19.01,16.36,33.85,32.74,34.49
		c19.73,0.77,36.09-16.96,35.05-33.67C766.16,477.22,749.94,461.73,732.08,461.51z"/>
	<radialGradient id="SVGID_12_" cx="541.6606" cy="529.1584" r="521.6506" gradientUnits="userSpaceOnUse">
		<stop  offset="0.54" style="stop-color:#A07F36"/>
		<stop  offset="0.7539" style="stop-color:#9C4F51"/>
		<stop  offset="1" style="stop-color:#981C6E"/>
	</radialGradient>
	<path class="st11" d="M500.5,376.33c19.01,0.47,35.01-15.03,35.12-33.37c0.12-19.3-14.71-34.36-33.89-34.52
		c-19.79-0.17-34.7,16.72-33.83,33.88C466.6,359.36,482.78,375.89,500.5,376.33z"/>
	<radialGradient id="SVGID_13_" cx="541.6606" cy="529.1584" r="521.6506" gradientUnits="userSpaceOnUse">
		<stop  offset="0.54" style="stop-color:#A07F36"/>
		<stop  offset="0.7539" style="stop-color:#9C4F51"/>
		<stop  offset="1" style="stop-color:#981C6E"/>
	</radialGradient>
	<path class="st12" d="M578.33,691.36c-18.94-0.03-33.89,14.54-33.89,34c-0.25,18.67,14.4,34.07,33.81,34.02
		c20.18-0.05,33.76-15.89,33.94-33.49C612.39,706.08,597.16,691.4,578.33,691.36z"/>
	<radialGradient id="SVGID_14_" cx="541.6606" cy="529.1584" r="521.6506" gradientUnits="userSpaceOnUse">
		<stop  offset="0.54" style="stop-color:#A07F36"/>
		<stop  offset="0.7539" style="stop-color:#9C4F51"/>
		<stop  offset="1" style="stop-color:#981C6E"/>
	</radialGradient>
	<path class="st13" d="M426.03,693.74c-19.07-0.25-32.72,14.53-32.61,31.92c0.11,18.52,15.1,31.34,31.68,31.51
		c16.83,0.17,32.29-15.01,31.33-31.12C457.69,707.99,441.78,693.95,426.03,693.74z"/>
	<radialGradient id="SVGID_15_" cx="541.6606" cy="529.1584" r="521.6506" gradientUnits="userSpaceOnUse">
		<stop  offset="0.54" style="stop-color:#A07F36"/>
		<stop  offset="0.7539" style="stop-color:#9C4F51"/>
		<stop  offset="1" style="stop-color:#981C6E"/>
	</radialGradient>
	<path class="st14" d="M348.12,450.6c17.48,0.46,31.11-13.25,31.9-30.2c0.79-17.15-12.77-33.21-31.34-32.84
		c-16.98-0.59-31.53,12.35-31.87,30.46C316.46,436.57,328.87,450.1,348.12,450.6z"/>
	<radialGradient id="SVGID_16_" cx="541.6606" cy="529.1584" r="521.6506" gradientUnits="userSpaceOnUse">
		<stop  offset="0.54" style="stop-color:#A07F36"/>
		<stop  offset="0.7539" style="stop-color:#9C4F51"/>
		<stop  offset="1" style="stop-color:#981C6E"/>
	</radialGradient>
	<path class="st15" d="M654.94,693.8c-18.09,0.13-31.56,13.27-31.83,31.24c-0.26,17.44,12.49,31.56,31.12,31.99
		c18.1,0.42,31.86-13.38,32.18-31.23C686.75,706.98,671.08,693.38,654.94,693.8z"/>
	<radialGradient id="SVGID_17_" cx="541.6606" cy="529.1584" r="521.6506" gradientUnits="userSpaceOnUse">
		<stop  offset="0.54" style="stop-color:#A07F36"/>
		<stop  offset="0.7539" style="stop-color:#9C4F51"/>
		<stop  offset="1" style="stop-color:#981C6E"/>
	</radialGradient>
	<path class="st16" d="M731.6,617.25c-17.17-0.47-30.82,14.11-31.58,29.49c-0.99,20.14,14.4,33.85,31.41,33.69
		c19.01-0.18,31.93-13.69,31.72-32.12C762.94,629.89,749.05,617.43,731.6,617.25z"/>
	<radialGradient id="SVGID_18_" cx="541.6606" cy="529.1584" r="521.6506" gradientUnits="userSpaceOnUse">
		<stop  offset="0.54" style="stop-color:#A07F36"/>
		<stop  offset="0.7539" style="stop-color:#9C4F51"/>
		<stop  offset="1" style="stop-color:#981C6E"/>
	</radialGradient>
	<path class="st17" d="M424.67,374.14c17.81,0.55,30.62-14.17,31.9-29c1.73-20.02-15.85-35.46-31.22-34.11
		c-16.46-1.25-32.16,13.07-32.04,30.82C393.45,360.61,405.96,373.56,424.67,374.14z"/>
	<radialGradient id="SVGID_19_" cx="541.6606" cy="529.1584" r="521.6506" gradientUnits="userSpaceOnUse">
		<stop  offset="0.54" style="stop-color:#A07F36"/>
		<stop  offset="0.7539" style="stop-color:#9C4F51"/>
		<stop  offset="1" style="stop-color:#981C6E"/>
	</radialGradient>
	<path class="st18" d="M654.06,374.12c16.26,0.58,32.47-11.71,32.21-31.55c1.2-16.34-13.4-30.17-27.12-31.55
		c-21.8-2.2-35.86,13.99-35.98,30.85C623.04,359.75,635.71,373.47,654.06,374.12z"/>
	<radialGradient id="SVGID_20_" cx="541.6606" cy="529.1584" r="521.6506" gradientUnits="userSpaceOnUse">
		<stop  offset="0.54" style="stop-color:#A07F36"/>
		<stop  offset="0.7539" style="stop-color:#9C4F51"/>
		<stop  offset="1" style="stop-color:#981C6E"/>
	</radialGradient>
	<path class="st19" d="M347.36,617.23c-17.62,0.74-30.65,14.23-30.59,31.65c0.06,17.94,13.38,31.27,31.5,31.61
		c17.75,0.33,31.79-14.03,31.72-31.74C380.28,631.48,365.78,616.46,347.36,617.23z"/>
	<radialGradient id="SVGID_21_" cx="541.6606" cy="529.1584" r="521.6506" gradientUnits="userSpaceOnUse">
		<stop  offset="0.54" style="stop-color:#A07F36"/>
		<stop  offset="0.7539" style="stop-color:#9C4F51"/>
		<stop  offset="1" style="stop-color:#981C6E"/>
	</radialGradient>
	<path class="st20" d="M732.19,450.6c18.58-0.5,30.8-13.68,30.95-31.69c0.16-18.4-14.68-31.93-31.58-31.28
		c-16.78-0.81-31.25,13.8-31.52,30.55C699.73,437.51,714.22,451.08,732.19,450.6z"/>
	<radialGradient id="SVGID_22_" cx="541.6606" cy="529.1584" r="521.6506" gradientUnits="userSpaceOnUse">
		<stop  offset="0.54" style="stop-color:#A07F36"/>
		<stop  offset="0.7539" style="stop-color:#9C4F51"/>
		<stop  offset="1" style="stop-color:#981C6E"/>
	</radialGradient>
	<path class="st21" d="M731.44,697.48c-15.43,0.01-27.76,12.35-27.82,27.62c-0.07,16.53,12.64,28.32,28.13,28.19
		c17.16-0.14,28.4-14.5,27.33-27.82C760,711.22,748.27,697.48,731.44,697.48z"/>
	<radialGradient id="SVGID_23_" cx="541.6606" cy="529.1584" r="521.6506" gradientUnits="userSpaceOnUse">
		<stop  offset="0.54" style="stop-color:#A07F36"/>
		<stop  offset="0.7539" style="stop-color:#9C4F51"/>
		<stop  offset="1" style="stop-color:#981C6E"/>
	</radialGradient>
	<path class="st22" d="M578.13,774.06c-15.33,0.11-27.41,11.81-27.58,27.66c-0.17,16.78,12.95,28.4,27.87,28.31
		c15.37-0.09,28.17-12.6,27.57-28.19C606.41,786,593.3,773.95,578.13,774.06z"/>
	<radialGradient id="SVGID_24_" cx="541.6606" cy="529.1584" r="521.6506" gradientUnits="userSpaceOnUse">
		<stop  offset="0.54" style="stop-color:#A07F36"/>
		<stop  offset="0.7539" style="stop-color:#9C4F51"/>
		<stop  offset="1" style="stop-color:#981C6E"/>
	</radialGradient>
	<path class="st23" d="M348.08,369.99c16.09,1.17,28.42-13.62,28.32-27.39c-0.12-15.59-12.31-27.95-27.79-28.02
		c-16.2-0.07-27.87,12.41-28.1,27.34C320.27,357.92,332.7,370.4,348.08,369.99z"/>
	<radialGradient id="SVGID_25_" cx="541.6606" cy="529.1584" r="521.6506" gradientUnits="userSpaceOnUse">
		<stop  offset="0.54" style="stop-color:#A07F36"/>
		<stop  offset="0.7539" style="stop-color:#9C4F51"/>
		<stop  offset="1" style="stop-color:#981C6E"/>
	</radialGradient>
	<path class="st24" d="M501.4,774.06c-15.71,0.32-26.83,12.38-27.47,26.49c-0.82,17.95,13.44,29.39,27.55,29.49
		c15.52,0.11,28.15-12.47,27.98-27.85C529.65,786.23,516.78,773.74,501.4,774.06z"/>
	<radialGradient id="SVGID_26_" cx="541.6606" cy="529.1584" r="521.6506" gradientUnits="userSpaceOnUse">
		<stop  offset="0.54" style="stop-color:#A07F36"/>
		<stop  offset="0.7539" style="stop-color:#9C4F51"/>
		<stop  offset="1" style="stop-color:#981C6E"/>
	</radialGradient>
	<path class="st25" d="M348.53,697.52c-17.1,0.12-27.96,12.45-27.95,27.84c0.02,16.28,11.43,27.77,27.82,27.9
		c15.77,0.12,27.63-11.56,27.96-28.14C376.23,710.43,364.4,697.41,348.53,697.52z"/>
	<radialGradient id="SVGID_27_" cx="541.6606" cy="529.1584" r="521.6506" gradientUnits="userSpaceOnUse">
		<stop  offset="0.54" style="stop-color:#A07F36"/>
		<stop  offset="0.7539" style="stop-color:#9C4F51"/>
		<stop  offset="1" style="stop-color:#981C6E"/>
	</radialGradient>
	<path class="st26" d="M271.84,544.23c-15.44,0.57-28.28,11.56-27.89,28.37c0.36,15.68,10.69,27.09,27.9,27.41
		c15.96,0.3,27.91-12.03,27.82-27.78C299.57,556.2,287.78,544.89,271.84,544.23z"/>
	<radialGradient id="SVGID_28_" cx="541.6606" cy="529.1584" r="521.6506" gradientUnits="userSpaceOnUse">
		<stop  offset="0.54" style="stop-color:#A07F36"/>
		<stop  offset="0.7539" style="stop-color:#9C4F51"/>
		<stop  offset="1" style="stop-color:#981C6E"/>
	</radialGradient>
	<path class="st27" d="M500.99,293.67c14.83,0.32,28.38-12.92,28.61-27.32c0.24-15.48-13.26-27.81-26.86-28.53
		c-14.64-0.77-30.4,13.43-28.69,27.77C472.72,280.58,487.53,293.38,500.99,293.67z"/>
	<radialGradient id="SVGID_29_" cx="541.6606" cy="529.1584" r="521.6506" gradientUnits="userSpaceOnUse">
		<stop  offset="0.54" style="stop-color:#A07F36"/>
		<stop  offset="0.7539" style="stop-color:#9C4F51"/>
		<stop  offset="1" style="stop-color:#981C6E"/>
	</radialGradient>
	<path class="st28" d="M730.86,370.25c16.24,0.2,29.6-14.48,28.22-27.8c1.42-13.58-11.98-27.96-27.29-27.96
		c-17.11,0.01-27.86,14.76-28.29,27.18C703.01,356.28,716.58,370.07,730.86,370.25z"/>
	<radialGradient id="SVGID_30_" cx="541.6606" cy="529.1584" r="521.6506" gradientUnits="userSpaceOnUse">
		<stop  offset="0.54" style="stop-color:#A07F36"/>
		<stop  offset="0.7539" style="stop-color:#9C4F51"/>
		<stop  offset="1" style="stop-color:#981C6E"/>
	</radialGradient>
	<path class="st29" d="M272.92,467.76c-15.29-0.81-29.02,11.01-29,28.2c0.02,15.62,13.13,27.67,27.44,27.22
		c15.51,0.97,28.38-12.09,28.35-27.22C299.68,480.15,288.63,468.59,272.92,467.76z"/>
	<radialGradient id="SVGID_31_" cx="541.6606" cy="529.1584" r="521.6506" gradientUnits="userSpaceOnUse">
		<stop  offset="0.54" style="stop-color:#A07F36"/>
		<stop  offset="0.7539" style="stop-color:#9C4F51"/>
		<stop  offset="1" style="stop-color:#981C6E"/>
	</radialGradient>
	<path class="st30" d="M808.54,467.7c-16.33,0.05-28.1,12.31-28.3,27.87c-0.19,15.18,12.96,27.66,27.62,27.83
		c15.04,0.18,28.99-13.13,27.8-27.77C836.89,480.68,823.03,467.65,808.54,467.7z"/>
	<radialGradient id="SVGID_32_" cx="541.6606" cy="529.1584" r="521.6506" gradientUnits="userSpaceOnUse">
		<stop  offset="0.54" style="stop-color:#A07F36"/>
		<stop  offset="0.7539" style="stop-color:#9C4F51"/>
		<stop  offset="1" style="stop-color:#981C6E"/>
	</radialGradient>
	<path class="st31" d="M807.93,544.29c-15.48,0.27-27.67,12.01-27.64,28.04c0.03,15.09,12.25,27.81,28.14,27.64
		c16.11-0.17,28.33-13.75,27.24-27.86C836.49,557.48,823.63,544.02,807.93,544.29z"/>
	<radialGradient id="SVGID_33_" cx="541.6606" cy="529.1584" r="521.6506" gradientUnits="userSpaceOnUse">
		<stop  offset="0.54" style="stop-color:#A07F36"/>
		<stop  offset="0.7539" style="stop-color:#9C4F51"/>
		<stop  offset="1" style="stop-color:#981C6E"/>
	</radialGradient>
	<path class="st32" d="M577.57,293.69c14.6,0.34,28.57-13.12,28.67-27.75c0.1-14.84-13.81-29.17-28.28-27.89
		c-14.25-0.79-27.05,12.77-27.5,26.81C549.91,281.69,565.28,293.4,577.57,293.69z"/>
	<radialGradient id="SVGID_34_" cx="541.6606" cy="529.1584" r="521.6506" gradientUnits="userSpaceOnUse">
		<stop  offset="0.54" style="stop-color:#A07F36"/>
		<stop  offset="0.7539" style="stop-color:#9C4F51"/>
		<stop  offset="1" style="stop-color:#981C6E"/>
	</radialGradient>
	<path class="st33" d="M272.25,622.52c-14.99-0.13-26.6,11.5-26.9,26.03c-0.3,14.43,12.01,26.73,26.38,26.74
		c14.45,0.01,26.31-11.77,26.33-26.13C298.49,634.1,285.92,622.64,272.25,622.52z"/>
	<radialGradient id="SVGID_35_" cx="541.6606" cy="529.1584" r="521.6506" gradientUnits="userSpaceOnUse">
		<stop  offset="0.54" style="stop-color:#A07F36"/>
		<stop  offset="0.7539" style="stop-color:#9C4F51"/>
		<stop  offset="1" style="stop-color:#981C6E"/>
	</radialGradient>
	<path class="st34" d="M807.99,622.51c-13.76-0.13-26.84,11.98-26,26.43c-0.7,13.28,10.72,26.44,26.2,26.26
		c14.6-0.17,26.43-11.11,26.36-26.74C834.5,634.07,823.13,622.66,807.99,622.51z"/>
	<radialGradient id="SVGID_36_" cx="541.6606" cy="529.1584" r="521.6506" gradientUnits="userSpaceOnUse">
		<stop  offset="0.54" style="stop-color:#A07F36"/>
		<stop  offset="0.7539" style="stop-color:#9C4F51"/>
		<stop  offset="1" style="stop-color:#981C6E"/>
	</radialGradient>
	<path class="st35" d="M425.15,775.63c-14.31-0.09-26.68,11.84-26.48,26.21c0.21,15.09,10.71,26.06,26.03,26.49
		c15.57,0.43,27.45-13.21,26.45-26.27C452.14,788.2,439.62,775.73,425.15,775.63z"/>
	<radialGradient id="SVGID_37_" cx="541.6606" cy="529.1584" r="521.6506" gradientUnits="userSpaceOnUse">
		<stop  offset="0.54" style="stop-color:#A07F36"/>
		<stop  offset="0.7539" style="stop-color:#9C4F51"/>
		<stop  offset="1" style="stop-color:#981C6E"/>
	</radialGradient>
	<path class="st36" d="M808.17,445.33c15.85-0.22,26.03-11.26,26.39-26.3c0.33-13.87-11.04-26.6-26.2-26.14
		c-14.3-1.19-26.37,12.49-26.49,24.91C781.71,434.5,793.59,445.54,808.17,445.33z"/>
	<radialGradient id="SVGID_38_" cx="541.6606" cy="529.1584" r="521.6506" gradientUnits="userSpaceOnUse">
		<stop  offset="0.54" style="stop-color:#A07F36"/>
		<stop  offset="0.7539" style="stop-color:#9C4F51"/>
		<stop  offset="1" style="stop-color:#981C6E"/>
	</radialGradient>
	<path class="st37" d="M654.6,775.64c-13.36,0.12-26.61,11.56-25.83,26.6c-0.76,13.52,11.37,26.45,26.62,26.14
		c14.42-0.29,26.07-12.15,25.66-26.69C680.64,787.09,669.1,775.51,654.6,775.64z"/>
	<radialGradient id="SVGID_39_" cx="541.6606" cy="529.1584" r="521.6506" gradientUnits="userSpaceOnUse">
		<stop  offset="0.54" style="stop-color:#A07F36"/>
		<stop  offset="0.7539" style="stop-color:#9C4F51"/>
		<stop  offset="1" style="stop-color:#981C6E"/>
	</radialGradient>
	<path class="st38" d="M654.74,292.13c13.65,0.22,26.56-10.02,26.21-26.49c0.55-14.26-10.85-24.77-23.04-25.87
		c-18.73-1.68-29.14,12.92-29.22,25.14C628.59,280.19,639.03,291.88,654.74,292.13z"/>
	<radialGradient id="SVGID_40_" cx="541.6606" cy="529.1584" r="521.6506" gradientUnits="userSpaceOnUse">
		<stop  offset="0.54" style="stop-color:#A07F36"/>
		<stop  offset="0.7539" style="stop-color:#9C4F51"/>
		<stop  offset="1" style="stop-color:#981C6E"/>
	</radialGradient>
	<path class="st39" d="M271.82,444.81c14.17,0.78,25.98-11.29,26.21-25.57c0.22-13.91-11.56-26.07-24.81-26.4
		c-16.42-0.41-27.57,11.52-27.74,26.05C245.32,433.27,257.16,445.57,271.82,444.81z"/>
	<radialGradient id="SVGID_41_" cx="541.6606" cy="529.1584" r="521.6506" gradientUnits="userSpaceOnUse">
		<stop  offset="0.54" style="stop-color:#A07F36"/>
		<stop  offset="0.7539" style="stop-color:#9C4F51"/>
		<stop  offset="1" style="stop-color:#981C6E"/>
	</radialGradient>
	<path class="st40" d="M426.83,291.77c12.54-0.78,24.82-11.87,24.43-27.01c-0.32-12.28-11.72-26.05-27.73-25.06
		c-13.14,0.81-25.04,11.77-24.38,26.01C398.31,280.33,411.45,292.72,426.83,291.77z"/>
	<radialGradient id="SVGID_42_" cx="541.6606" cy="529.1584" r="521.6506" gradientUnits="userSpaceOnUse">
		<stop  offset="0.54" style="stop-color:#A07F36"/>
		<stop  offset="0.7539" style="stop-color:#9C4F51"/>
		<stop  offset="1" style="stop-color:#981C6E"/>
	</radialGradient>
	<path class="st41" d="M348.41,779.14c-13.16,0.34-22.9,10.27-22.91,23c-0.01,13.57,11.82,22.65,22.66,22.86
		c11.84,0.22,23.88-10.79,22.93-22.76C372.22,790.06,360.29,778.83,348.41,779.14z"/>
	<radialGradient id="SVGID_43_" cx="541.6606" cy="529.1584" r="521.6506" gradientUnits="userSpaceOnUse">
		<stop  offset="0.54" style="stop-color:#A07F36"/>
		<stop  offset="0.7539" style="stop-color:#9C4F51"/>
		<stop  offset="1" style="stop-color:#981C6E"/>
	</radialGradient>
	<path class="st42" d="M731.67,779.19c-12.12-0.31-23.48,9.9-22.8,22.8c-0.83,12.63,10.85,22.96,22.21,22.94
		c13.15-0.03,23.5-9.91,23.27-23.05C754.12,788.75,744.91,779.53,731.67,779.19z"/>
	<radialGradient id="SVGID_44_" cx="541.6606" cy="529.1584" r="521.6506" gradientUnits="userSpaceOnUse">
		<stop  offset="0.54" style="stop-color:#A07F36"/>
		<stop  offset="0.7539" style="stop-color:#9C4F51"/>
		<stop  offset="1" style="stop-color:#981C6E"/>
	</radialGradient>
	<path class="st43" d="M348.43,288.28c12.06,1.16,23.71-10.85,22.81-24c-0.79-11.54-11.04-21.93-23.09-21.44
		c-13.26,0.54-22.43,10.01-22.63,22.71C325.33,278.02,335.59,289.03,348.43,288.28z"/>
	<radialGradient id="SVGID_45_" cx="541.6606" cy="529.1584" r="521.6506" gradientUnits="userSpaceOnUse">
		<stop  offset="0.54" style="stop-color:#A07F36"/>
		<stop  offset="0.7539" style="stop-color:#9C4F51"/>
		<stop  offset="1" style="stop-color:#981C6E"/>
	</radialGradient>
	<path class="st44" d="M271.89,702.62c-12.8,0.1-22.89,9.25-22.9,22.77c-0.01,13.19,9.06,22.27,22.38,22.83
		c12.68,0.54,23.15-10.02,23.17-22.56C294.56,712.89,284.48,702.52,271.89,702.62z"/>
	<radialGradient id="SVGID_46_" cx="541.6606" cy="529.1584" r="521.6506" gradientUnits="userSpaceOnUse">
		<stop  offset="0.54" style="stop-color:#A07F36"/>
		<stop  offset="0.7539" style="stop-color:#9C4F51"/>
		<stop  offset="1" style="stop-color:#981C6E"/>
	</radialGradient>
	<path class="st45" d="M731.25,288.25c12.98,0.81,23.11-9.8,23.13-22.44c0.01-12.72-9.48-22.56-22.49-22.93
		c-13.73-0.39-23.1,11.61-23.24,22.72C708.5,277.31,719.64,289.52,731.25,288.25z"/>
	<radialGradient id="SVGID_47_" cx="541.6606" cy="529.1584" r="521.6506" gradientUnits="userSpaceOnUse">
		<stop  offset="0.54" style="stop-color:#A07F36"/>
		<stop  offset="0.7539" style="stop-color:#9C4F51"/>
		<stop  offset="1" style="stop-color:#981C6E"/>
	</radialGradient>
	<path class="st46" d="M808.01,365.18c13.74-0.14,22.74-9.8,22.94-22.88c0.2-12.95-11-23.19-22.71-22.42
		c-11.68-0.89-23.27,9.4-22.84,23.1C785.76,354.62,794.55,365.31,808.01,365.18z"/>
	<radialGradient id="SVGID_48_" cx="541.6606" cy="529.1584" r="521.6506" gradientUnits="userSpaceOnUse">
		<stop  offset="0.54" style="stop-color:#A07F36"/>
		<stop  offset="0.7539" style="stop-color:#9C4F51"/>
		<stop  offset="1" style="stop-color:#981C6E"/>
	</radialGradient>
	<path class="st47" d="M808.2,702.61c-12.29-0.39-23.49,11.14-22.7,22.6c-0.54,11.94,9.15,23.34,22.69,22.97
		c14.67-0.4,22.72-9.99,22.69-22.98C830.84,711.73,821.35,703.02,808.2,702.61z"/>
	<radialGradient id="SVGID_49_" cx="541.6606" cy="529.1584" r="521.6506" gradientUnits="userSpaceOnUse">
		<stop  offset="0.54" style="stop-color:#A07F36"/>
		<stop  offset="0.7539" style="stop-color:#9C4F51"/>
		<stop  offset="1" style="stop-color:#981C6E"/>
	</radialGradient>
	<path class="st48" d="M271.96,365.14c12.47,0.3,22.56-10.03,22.58-22.65c0.02-13.01-9.51-22.61-22.43-22.61
		c-12.78-0.89-23.22,9.91-23.14,22.44C249.04,354.51,257.3,364.78,271.96,365.14z"/>
	<radialGradient id="SVGID_50_" cx="541.6405" cy="529.1584" r="521.6794" gradientUnits="userSpaceOnUse">
		<stop  offset="0.54" style="stop-color:#A07F36"/>
		<stop  offset="0.7539" style="stop-color:#9C4F51"/>
		<stop  offset="1" style="stop-color:#981C6E"/>
	</radialGradient>
	<path class="st49" d="M884.79,516.96c11.97-0.18,21.21-9.25,21.22-21.18c0.04-12.77-9.09-21.76-21.21-21.67
		c-12.95,0.1-21.47,8.81-21.66,21.52C862.98,507.66,872.88,517.14,884.79,516.96z"/>
	<radialGradient id="SVGID_51_" cx="541.6606" cy="529.1584" r="521.6506" gradientUnits="userSpaceOnUse">
		<stop  offset="0.54" style="stop-color:#A07F36"/>
		<stop  offset="0.7539" style="stop-color:#9C4F51"/>
		<stop  offset="1" style="stop-color:#981C6E"/>
	</radialGradient>
	<path class="st50" d="M578.48,857.44c-11.95-0.87-22.08,10.21-21.65,21.3c0.53,13.59,9.76,21.52,21.6,21.39
		c12.6-0.14,20.9-8.78,21.32-21.2C600.17,866.89,590.5,857.45,578.48,857.44z"/>
	<radialGradient id="SVGID_52_" cx="541.6606" cy="529.1584" r="521.6506" gradientUnits="userSpaceOnUse">
		<stop  offset="0.54" style="stop-color:#A07F36"/>
		<stop  offset="0.7539" style="stop-color:#9C4F51"/>
		<stop  offset="1" style="stop-color:#981C6E"/>
	</radialGradient>
	<path class="st51" d="M504.2,857.5c-14.67-1.43-22.74,8.45-23.94,19.13c-1.3,11.48,7.49,23.48,21.21,23.28
		c11.35,0.47,21.23-8.06,21.62-20.71C523.44,867.68,515.45,858.59,504.2,857.5z"/>
	<radialGradient id="SVGID_53_" cx="541.6606" cy="529.1584" r="521.6506" gradientUnits="userSpaceOnUse">
		<stop  offset="0.54" style="stop-color:#A07F36"/>
		<stop  offset="0.7539" style="stop-color:#9C4F51"/>
		<stop  offset="1" style="stop-color:#981C6E"/>
	</radialGradient>
	<path class="st52" d="M885.05,550.74c-12.71-0.16-21.69,9.01-21.88,21.3c-0.19,12.24,9.34,21.65,21.47,21.43
		c10.93,0.86,21.55-9.59,21.5-20.84C906.07,560.62,897.49,550.89,885.05,550.74z"/>
	<radialGradient id="SVGID_54_" cx="541.6606" cy="529.1584" r="521.6506" gradientUnits="userSpaceOnUse">
		<stop  offset="0.54" style="stop-color:#A07F36"/>
		<stop  offset="0.7539" style="stop-color:#9C4F51"/>
		<stop  offset="1" style="stop-color:#981C6E"/>
	</radialGradient>
	<path class="st53" d="M578.52,210.5c13.49-1,20.17-9.15,21.32-21.53c-1.02-12.07-9.02-21.24-21.56-21.14
		c-12.66,0.1-20.6,8.52-21.39,21.16C556.17,200.47,567.2,211.34,578.52,210.5z"/>
	<radialGradient id="SVGID_55_" cx="541.6606" cy="529.1584" r="521.6506" gradientUnits="userSpaceOnUse">
		<stop  offset="0.54" style="stop-color:#A07F36"/>
		<stop  offset="0.7539" style="stop-color:#9C4F51"/>
		<stop  offset="1" style="stop-color:#981C6E"/>
	</radialGradient>
	<path class="st54" d="M501.39,210.34c12.04,0.25,20.82-7.8,21.46-21.06c0.55-11.43-9.59-21.5-21.1-21.61
		c-11.36-0.11-21.48,9.87-21.54,21.24C480.83,200.97,488.05,210.06,501.39,210.34z"/>
	<radialGradient id="SVGID_56_" cx="541.6606" cy="529.1584" r="521.6506" gradientUnits="userSpaceOnUse">
		<stop  offset="0.54" style="stop-color:#A07F36"/>
		<stop  offset="0.7539" style="stop-color:#9C4F51"/>
		<stop  offset="1" style="stop-color:#981C6E"/>
	</radialGradient>
	<path class="st55" d="M195.18,551.26c-11.05-0.95-21.34,9-21.17,20.98c0.17,11.91,9.38,21.26,21.25,21.21
		c12.71-0.05,20.68-10.55,21.23-20.77C217.08,561.68,206,549.84,195.18,551.26z"/>
	<radialGradient id="SVGID_57_" cx="541.6606" cy="529.1584" r="521.6506" gradientUnits="userSpaceOnUse">
		<stop  offset="0.54" style="stop-color:#A07F36"/>
		<stop  offset="0.7539" style="stop-color:#9C4F51"/>
		<stop  offset="1" style="stop-color:#981C6E"/>
	</radialGradient>
	<path class="st56" d="M195.1,516.95c11.54,0.15,21.94-9.98,21.14-21.15c0-12.31-8.72-21.23-20.9-21.38
		c-11.93-0.15-21.29,9.08-21.3,20.99C174.03,507.37,183.34,516.8,195.1,516.95z"/>
	<radialGradient id="SVGID_58_" cx="541.6606" cy="529.1584" r="521.6506" gradientUnits="userSpaceOnUse">
		<stop  offset="0.54" style="stop-color:#A07F36"/>
		<stop  offset="0.7539" style="stop-color:#9C4F51"/>
		<stop  offset="1" style="stop-color:#981C6E"/>
	</radialGradient>
	<path class="st57" d="M425.24,209.05c10.66-0.32,19.57-9.05,19.79-19.63c0.23-10.74-9.42-19.97-19.64-20.19
		c-10.14-0.22-21.12,9.28-19.96,19.61C403.96,199.28,414.73,209.37,425.24,209.05z"/>
	<radialGradient id="SVGID_59_" cx="541.6606" cy="529.1584" r="521.6506" gradientUnits="userSpaceOnUse">
		<stop  offset="0.54" style="stop-color:#A07F36"/>
		<stop  offset="0.7539" style="stop-color:#9C4F51"/>
		<stop  offset="1" style="stop-color:#981C6E"/>
	</radialGradient>
	<path class="st58" d="M654.58,859.04c-12.05-0.57-20.33,10.54-19.6,21.26c0.66,9.69,10.1,18.87,20.22,18.41
		c10.03-0.45,20.53-8.65,19.51-22.13C673.94,866.68,665.17,858.71,654.58,859.04z"/>
	<radialGradient id="SVGID_60_" cx="541.6606" cy="529.1584" r="521.6506" gradientUnits="userSpaceOnUse">
		<stop  offset="0.54" style="stop-color:#A07F36"/>
		<stop  offset="0.7539" style="stop-color:#9C4F51"/>
		<stop  offset="1" style="stop-color:#981C6E"/>
	</radialGradient>
	<path class="st59" d="M195.22,438.62c11.74,0.78,20.27-9.97,20-19.63c-0.3-10.71-7.35-19.52-20-19.87
		c-11.05-0.31-19.98,8.82-19.89,19.87C175.44,430.73,185.03,439.45,195.22,438.62z"/>
	<radialGradient id="SVGID_61_" cx="541.6606" cy="529.1584" r="521.6506" gradientUnits="userSpaceOnUse">
		<stop  offset="0.54" style="stop-color:#A07F36"/>
		<stop  offset="0.7539" style="stop-color:#9C4F51"/>
		<stop  offset="1" style="stop-color:#981C6E"/>
	</radialGradient>
	<path class="st60" d="M654.92,208.98c10.95-0.01,19.37-8.68,19.8-19.5c0.45-11.23-9.64-20.63-19.51-20.06
		c-10.87-0.99-20.46,9.61-20.21,19.34C635.29,200.25,643.62,208.99,654.92,208.98z"/>
	<radialGradient id="SVGID_62_" cx="541.6606" cy="529.1584" r="521.6506" gradientUnits="userSpaceOnUse">
		<stop  offset="0.54" style="stop-color:#A07F36"/>
		<stop  offset="0.7539" style="stop-color:#9C4F51"/>
		<stop  offset="1" style="stop-color:#981C6E"/>
	</radialGradient>
	<path class="st61" d="M884.54,438.81c11.42,0.09,21.05-10.17,19.72-19.72c1.11-11.1-9.33-20.08-19.4-20.04
		c-11.1,0.04-20.19,9.09-20.16,20.15C864.72,428.77,873.6,438.72,884.54,438.81z"/>
	<radialGradient id="SVGID_63_" cx="541.6606" cy="529.1584" r="521.6506" gradientUnits="userSpaceOnUse">
		<stop  offset="0.54" style="stop-color:#A07F36"/>
		<stop  offset="0.7539" style="stop-color:#9C4F51"/>
		<stop  offset="1" style="stop-color:#981C6E"/>
	</radialGradient>
	<path class="st62" d="M195.38,628.84c-11.16,0.39-19.96,7.34-19.94,20.29c0.02,11.4,8.52,19.64,19.77,19.46
		c12.41-0.19,19.07-8.49,20.15-19.74C215.35,638.34,206.02,628.46,195.38,628.84z"/>
	<radialGradient id="SVGID_64_" cx="541.6606" cy="529.1584" r="521.6506" gradientUnits="userSpaceOnUse">
		<stop  offset="0.54" style="stop-color:#A07F36"/>
		<stop  offset="0.7539" style="stop-color:#9C4F51"/>
		<stop  offset="1" style="stop-color:#981C6E"/>
	</radialGradient>
	<path class="st63" d="M424.39,858.99c-10.87,0.09-18.95,8.4-18.95,19.49c-1.06,12,10.35,20.04,19.49,20.25
		c10.7,0.24,20.07-9.18,20.07-19.93C445,867.07,436.49,858.9,424.39,858.99z"/>
	<radialGradient id="SVGID_65_" cx="541.6606" cy="529.1584" r="521.6506" gradientUnits="userSpaceOnUse">
		<stop  offset="0.54" style="stop-color:#A07F36"/>
		<stop  offset="0.7539" style="stop-color:#9C4F51"/>
		<stop  offset="1" style="stop-color:#981C6E"/>
	</radialGradient>
	<path class="st64" d="M884.83,628.9c-10.78,0.09-19.66,6.89-20.06,20.18c-0.32,10.69,9.37,19.98,20.18,19.62
		c11.84-0.39,20.08-9.8,19.31-19.68C905.18,638.3,896.01,628.8,884.83,628.9z"/>
	<radialGradient id="SVGID_66_" cx="541.6606" cy="529.1584" r="521.6506" gradientUnits="userSpaceOnUse">
		<stop  offset="0.54" style="stop-color:#A07F36"/>
		<stop  offset="0.7539" style="stop-color:#9C4F51"/>
		<stop  offset="1" style="stop-color:#981C6E"/>
	</radialGradient>
	<path class="st65" d="M271.73,783.75c-11.56,0.36-17.81,6.81-18.23,18.14c-0.39,10.48,7.41,18.33,18.39,18.54
		c9.9,0.19,18.25-8.28,18.26-18.2C290.58,793.48,283.53,783.38,271.73,783.75z"/>
	<radialGradient id="SVGID_67_" cx="541.6606" cy="529.1584" r="521.6506" gradientUnits="userSpaceOnUse">
		<stop  offset="0.54" style="stop-color:#A07F36"/>
		<stop  offset="0.7539" style="stop-color:#9C4F51"/>
		<stop  offset="1" style="stop-color:#981C6E"/>
	</radialGradient>
	<path class="st66" d="M808.21,783.58c-10.85,0.15-18.81,9.35-18.29,18.24c-1.09,8.23,7.41,18.89,17.8,18.6
		c11.88-0.34,18.46-8.05,18.98-18.56C827.17,792.28,817.88,783.45,808.21,783.58z"/>
	<radialGradient id="SVGID_68_" cx="541.6606" cy="529.1584" r="521.6506" gradientUnits="userSpaceOnUse">
		<stop  offset="0.54" style="stop-color:#A07F36"/>
		<stop  offset="0.7539" style="stop-color:#9C4F51"/>
		<stop  offset="1" style="stop-color:#981C6E"/>
	</radialGradient>
	<path class="st67" d="M807.86,283.77c11.01,0.63,18.53-8.2,18.77-17.68c0.25-9.81-8.23-19.03-18.52-18.5
		c-10.64,0.55-17.89,7.54-18.3,18.02C789.47,274.64,798.09,284.86,807.86,283.77z"/>
	<radialGradient id="SVGID_69_" cx="541.6606" cy="529.1584" r="521.6506" gradientUnits="userSpaceOnUse">
		<stop  offset="0.54" style="stop-color:#A07F36"/>
		<stop  offset="0.7539" style="stop-color:#9C4F51"/>
		<stop  offset="1" style="stop-color:#981C6E"/>
	</radialGradient>
	<path class="st68" d="M271.83,283.79c10.73-0.07,18.37-7.74,18.31-18.4c-0.05-10.6-7.88-17.44-19.4-17.75
		c-8.9-0.24-17.36,8.06-17.36,18.13C253.39,276.15,261.83,284.32,271.83,283.79z"/>
	<radialGradient id="SVGID_70_" cx="541.6606" cy="529.1584" r="521.6506" gradientUnits="userSpaceOnUse">
		<stop  offset="0.54" style="stop-color:#A07F36"/>
		<stop  offset="0.7539" style="stop-color:#9C4F51"/>
		<stop  offset="1" style="stop-color:#981C6E"/>
	</radialGradient>
	<path class="st69" d="M731.61,206.25c8.91,0.39,16.92-7.97,16.92-16.91c0-9.48-7.62-17.49-16.95-17.21
		c-10.52,0.32-16.87,7.18-17.13,16.59C714.18,198.74,721.46,205.81,731.61,206.25z"/>
	<radialGradient id="SVGID_71_" cx="541.6606" cy="529.1584" r="521.6506" gradientUnits="userSpaceOnUse">
		<stop  offset="0.54" style="stop-color:#A07F36"/>
		<stop  offset="0.7539" style="stop-color:#9C4F51"/>
		<stop  offset="1" style="stop-color:#981C6E"/>
	</radialGradient>
	<path class="st70" d="M349.75,861.71c-9.67-0.97-18.33,8.68-18.41,16.39c-0.08,8.13,7.1,18.07,16.72,17.21
		c10.1,0.69,17.35-7.16,17.47-16.55C365.66,869.2,357.96,862.53,349.75,861.71z"/>
	<radialGradient id="SVGID_72_" cx="541.6606" cy="529.1584" r="521.6506" gradientUnits="userSpaceOnUse">
		<stop  offset="0.54" style="stop-color:#A07F36"/>
		<stop  offset="0.7539" style="stop-color:#9C4F51"/>
		<stop  offset="1" style="stop-color:#981C6E"/>
	</radialGradient>
	<path class="st71" d="M884.73,708.75c-9.82,0-16.95,6.94-17.04,16.59c-0.09,9.44,7.3,16.8,16.88,16.82
		c9.94,0.01,17.06-7.04,17.05-16.9C901.61,715.57,894.63,708.75,884.73,708.75z"/>
	<radialGradient id="SVGID_73_" cx="541.6606" cy="529.1584" r="521.6506" gradientUnits="userSpaceOnUse">
		<stop  offset="0.54" style="stop-color:#A07F36"/>
		<stop  offset="0.7539" style="stop-color:#9C4F51"/>
		<stop  offset="1" style="stop-color:#981C6E"/>
	</radialGradient>
	<path class="st72" d="M194.98,359.37c10,0.04,17.85-8.48,16.86-16.56c1.02-10.08-7.49-17.36-16.42-17.49
		c-10.54-0.15-16.87,8.82-17.19,16.63C177.89,350.4,185.38,359.33,194.98,359.37z"/>
	<radialGradient id="SVGID_74_" cx="541.6606" cy="529.1584" r="521.6506" gradientUnits="userSpaceOnUse">
		<stop  offset="0.54" style="stop-color:#A07F36"/>
		<stop  offset="0.7539" style="stop-color:#9C4F51"/>
		<stop  offset="1" style="stop-color:#981C6E"/>
	</radialGradient>
	<path class="st73" d="M730.91,861.78c-7.89-0.2-16.5,7.19-16.58,16.67c-0.07,8.64,7.39,17.61,17.21,16.89
		c9.72,0.84,17.08-8.63,17.01-16.58C748.47,869.15,740.91,862.03,730.91,861.78z"/>
	<radialGradient id="SVGID_75_" cx="541.6606" cy="529.1584" r="521.6506" gradientUnits="userSpaceOnUse">
		<stop  offset="0.54" style="stop-color:#A07F36"/>
		<stop  offset="0.7539" style="stop-color:#9C4F51"/>
		<stop  offset="1" style="stop-color:#981C6E"/>
	</radialGradient>
	<path class="st74" d="M195.27,708.54c-9.04-0.21-17.92,8.73-16.83,16.69c-1.27,8.12,7.51,17.34,16.43,17.01
		c10.07-0.36,16.48-6.69,17.11-16.37C212.62,715.88,203.6,708.73,195.27,708.54z"/>
	<radialGradient id="SVGID_76_" cx="541.6606" cy="529.1584" r="521.6506" gradientUnits="userSpaceOnUse">
		<stop  offset="0.54" style="stop-color:#A07F36"/>
		<stop  offset="0.7539" style="stop-color:#9C4F51"/>
		<stop  offset="1" style="stop-color:#981C6E"/>
	</radialGradient>
	<path class="st75" d="M884.64,359.43c9.33,0.05,16.98-7.7,16.97-17.19c0.06-8.64-6.38-16.79-16.8-16.88
		c-8.91-0.08-16.71,6.23-17.13,17.2C867.35,351.19,875.8,359.38,884.64,359.43z"/>
	<radialGradient id="SVGID_77_" cx="541.6606" cy="529.1584" r="521.6506" gradientUnits="userSpaceOnUse">
		<stop  offset="0.54" style="stop-color:#A07F36"/>
		<stop  offset="0.7539" style="stop-color:#9C4F51"/>
		<stop  offset="1" style="stop-color:#981C6E"/>
	</radialGradient>
	<path class="st76" d="M348.28,206.1c9.07,0.2,17.38-7.5,16.72-16.57c0.83-10.01-7.81-17.55-16.75-17.24
		c-10.05,0.35-16.63,6.98-16.58,17.13C331.71,199.48,339.05,205.9,348.28,206.1z"/>
	<radialGradient id="SVGID_78_" cx="541.6606" cy="529.1584" r="521.6506" gradientUnits="userSpaceOnUse">
		<stop  offset="0.54" style="stop-color:#A07F36"/>
		<stop  offset="0.7539" style="stop-color:#9C4F51"/>
		<stop  offset="1" style="stop-color:#981C6E"/>
	</radialGradient>
	<path class="st77" d="M578.64,941.05c-9.25-0.04-14.7,6.31-14.61,14.27c0.1,9.01,7.38,14.69,14.08,13.82
		c8.14,0,14.94-6.16,14.6-13.89C592.39,947.79,587.11,941.09,578.64,941.05z"/>
	<radialGradient id="SVGID_79_" cx="541.6606" cy="529.1584" r="521.6506" gradientUnits="userSpaceOnUse">
		<stop  offset="0.54" style="stop-color:#A07F36"/>
		<stop  offset="0.7539" style="stop-color:#9C4F51"/>
		<stop  offset="1" style="stop-color:#981C6E"/>
	</radialGradient>
	<path class="st78" d="M501.64,940.98c-7.96,0.18-14.3,6.47-14.42,14.37c-0.1,6.21,6.71,14.96,14.34,13.81
		c8.68,0.01,13.84-5.39,14.07-14.06C515.83,946.74,508.41,940.82,501.64,940.98z"/>
	<radialGradient id="SVGID_80_" cx="541.6606" cy="529.1584" r="521.6506" gradientUnits="userSpaceOnUse">
		<stop  offset="0.54" style="stop-color:#A07F36"/>
		<stop  offset="0.7539" style="stop-color:#9C4F51"/>
		<stop  offset="1" style="stop-color:#981C6E"/>
	</radialGradient>
	<path class="st79" d="M578.11,126.92c7.13,0.15,14.43-6.82,14.69-14.02c0.26-7.3-6.87-14.86-14.27-14.69
		c-8.19,0.18-14.6,6.03-14.49,14.28C564.14,120.21,569.1,126.1,578.11,126.92z"/>
	<radialGradient id="SVGID_81_" cx="541.6606" cy="529.1584" r="521.6506" gradientUnits="userSpaceOnUse">
		<stop  offset="0.54" style="stop-color:#A07F36"/>
		<stop  offset="0.7539" style="stop-color:#9C4F51"/>
		<stop  offset="1" style="stop-color:#981C6E"/>
	</radialGradient>
	<path class="st80" d="M961.21,558.23c-8.34,0.01-13.8,5.5-13.81,13.88c-1.15,7.3,6.61,14.57,14.04,14.36
		c7.75-0.21,14.05-6.35,14.08-14.09C975.56,564.35,969.36,558.22,961.21,558.23z"/>
	<radialGradient id="SVGID_82_" cx="541.6606" cy="529.1584" r="521.6506" gradientUnits="userSpaceOnUse">
		<stop  offset="0.54" style="stop-color:#A07F36"/>
		<stop  offset="0.7539" style="stop-color:#9C4F51"/>
		<stop  offset="1" style="stop-color:#981C6E"/>
	</radialGradient>
	<path class="st81" d="M961.2,481.66c-8.58,0.04-13.84,5.49-13.79,14.28c0.04,7.89,6.23,14.04,14.1,13.93
		c7.28-0.1,14.38-6.73,14.07-14.59C975.26,487.54,969.22,481.62,961.2,481.66z"/>
	<radialGradient id="SVGID_83_" cx="541.6606" cy="529.1584" r="521.6506" gradientUnits="userSpaceOnUse">
		<stop  offset="0.54" style="stop-color:#A07F36"/>
		<stop  offset="0.7539" style="stop-color:#9C4F51"/>
		<stop  offset="1" style="stop-color:#981C6E"/>
	</radialGradient>
	<path class="st82" d="M118.47,558.15c-7.93,0.44-13.96,6.24-13.93,14.23c0.02,7.9,6.21,14.08,14.06,14.05
		c8.11-0.03,14.09-6.19,14.06-14.47C133.17,564.86,126.06,557.73,118.47,558.15z"/>
	<radialGradient id="SVGID_84_" cx="541.6606" cy="529.1584" r="521.6506" gradientUnits="userSpaceOnUse">
		<stop  offset="0.54" style="stop-color:#A07F36"/>
		<stop  offset="0.7539" style="stop-color:#9C4F51"/>
		<stop  offset="1" style="stop-color:#981C6E"/>
	</radialGradient>
	<path class="st83" d="M118.5,509.78c7.48-0.39,14.02-5.34,14.14-14.07c0.11-7.81-5.87-13.9-13.47-13.96
		c-7.85-1.14-14.7,6.82-14.64,13.79C104.58,502.95,111.24,510.16,118.5,509.78z"/>
	<radialGradient id="SVGID_85_" cx="541.6606" cy="529.1584" r="521.6506" gradientUnits="userSpaceOnUse">
		<stop  offset="0.54" style="stop-color:#A07F36"/>
		<stop  offset="0.7539" style="stop-color:#9C4F51"/>
		<stop  offset="1" style="stop-color:#981C6E"/>
	</radialGradient>
	<path class="st84" d="M501.64,126.55c8.22-0.02,13.74-5.71,13.74-14.12c0-7.91-6.17-14.12-13.99-14.09
		c-6.9,0.03-14.32,7.16-14.04,14.13C487.61,119.14,492.73,126.58,501.64,126.55z"/>
	<radialGradient id="SVGID_86_" cx="541.6606" cy="529.1584" r="521.6506" gradientUnits="userSpaceOnUse">
		<stop  offset="0.54" style="stop-color:#A07F36"/>
		<stop  offset="0.7539" style="stop-color:#9C4F51"/>
		<stop  offset="1" style="stop-color:#981C6E"/>
	</radialGradient>
	<path class="st85" d="M884.82,789.02c-6.97-0.55-13.22,6.21-13.08,13.27c0.14,6.97,6.46,13.13,13.23,12.89
		c7.07-0.26,12.89-6.37,12.73-13.37C897.03,793.29,891.79,789.57,884.82,789.02z"/>
	<radialGradient id="SVGID_87_" cx="541.6606" cy="529.1584" r="521.6506" gradientUnits="userSpaceOnUse">
		<stop  offset="0.54" style="stop-color:#A07F36"/>
		<stop  offset="0.7539" style="stop-color:#9C4F51"/>
		<stop  offset="1" style="stop-color:#981C6E"/>
	</radialGradient>
	<path class="st86" d="M807.99,865.42c-6.7-0.1-12.82,6.29-12.8,13.38c0.02,7.09,6,13,13.09,12.92c6.54-0.06,12.91-6.3,13.12-12.82
		C821.61,872.3,814.86,865.52,807.99,865.42z"/>
	<radialGradient id="SVGID_88_" cx="541.6606" cy="529.1584" r="521.6506" gradientUnits="userSpaceOnUse">
		<stop  offset="0.54" style="stop-color:#A07F36"/>
		<stop  offset="0.7539" style="stop-color:#9C4F51"/>
		<stop  offset="1" style="stop-color:#981C6E"/>
	</radialGradient>
	<path class="st87" d="M808.26,201.94c7.04-0.07,12.44-5.69,12.42-12.91c-0.02-7.19-5.42-12.58-12.58-12.57
		c-7.12,0.01-12.95,5.69-12.9,12.56C795.24,196.16,801.16,202.02,808.26,201.94z"/>
	<radialGradient id="SVGID_89_" cx="541.6606" cy="529.1584" r="521.6506" gradientUnits="userSpaceOnUse">
		<stop  offset="0.54" style="stop-color:#A07F36"/>
		<stop  offset="0.7539" style="stop-color:#9C4F51"/>
		<stop  offset="1" style="stop-color:#981C6E"/>
	</radialGradient>
	<path class="st88" d="M654.86,125.4c6.96,0.07,12.68-5.66,12.73-12.74c0.04-7.11-5.36-12.63-12.49-12.74
		c-7.33-0.12-12.99,5.42-13,12.73C642.1,119.58,647.85,125.33,654.86,125.4z"/>
	<radialGradient id="SVGID_90_" cx="541.6606" cy="529.1584" r="521.6506" gradientUnits="userSpaceOnUse">
		<stop  offset="0.54" style="stop-color:#A07F36"/>
		<stop  offset="0.7539" style="stop-color:#9C4F51"/>
		<stop  offset="1" style="stop-color:#981C6E"/>
	</radialGradient>
	<path class="st89" d="M118.53,431.63c6.13,0.19,12.29-3.94,13.02-12.48c0.56-6.52-6.31-13.4-12.98-12.98
		c-6.52,0.41-12.53,3.97-12.43,12.72C106.11,426.59,110.99,431.4,118.53,431.63z"/>
	<radialGradient id="SVGID_91_" cx="541.6606" cy="529.1584" r="521.6506" gradientUnits="userSpaceOnUse">
		<stop  offset="0.54" style="stop-color:#A07F36"/>
		<stop  offset="0.7539" style="stop-color:#9C4F51"/>
		<stop  offset="1" style="stop-color:#981C6E"/>
	</radialGradient>
	<path class="st90" d="M271.61,201.99c6.64,0.24,13.03-6.12,13.22-12.99c0.19-6.74-5.94-12.52-13.05-12.53
		c-6.77-0.01-13.05,6-13.09,12.54C258.65,195.6,264.94,201.74,271.61,201.99z"/>
	<radialGradient id="SVGID_92_" cx="541.6606" cy="529.1584" r="521.6506" gradientUnits="userSpaceOnUse">
		<stop  offset="0.54" style="stop-color:#A07F36"/>
		<stop  offset="0.7539" style="stop-color:#9C4F51"/>
		<stop  offset="1" style="stop-color:#981C6E"/>
	</radialGradient>
	<path class="st91" d="M425.04,125.4c6.72-0.06,12.86-6.09,12.91-12.7c0.05-7.16-5.71-12.81-13.02-12.78
		c-7.27,0.03-12.48,5.36-12.46,12.75C412.49,119.75,418.13,125.46,425.04,125.4z"/>
	<radialGradient id="SVGID_93_" cx="541.6606" cy="529.1584" r="521.6506" gradientUnits="userSpaceOnUse">
		<stop  offset="0.54" style="stop-color:#A07F36"/>
		<stop  offset="0.7539" style="stop-color:#9C4F51"/>
		<stop  offset="1" style="stop-color:#981C6E"/>
	</radialGradient>
	<path class="st92" d="M195.42,278.49c6.57-0.06,12.75-6.16,12.85-12.69c0.11-7-5.85-12.8-13.14-12.79
		c-7.25,0-12.53,5.3-12.53,12.58C182.6,272.95,188.17,278.55,195.42,278.49z"/>
	<radialGradient id="SVGID_94_" cx="541.6606" cy="529.1584" r="521.6506" gradientUnits="userSpaceOnUse">
		<stop  offset="0.54" style="stop-color:#A07F36"/>
		<stop  offset="0.7539" style="stop-color:#9C4F51"/>
		<stop  offset="1" style="stop-color:#981C6E"/>
	</radialGradient>
	<path class="st93" d="M961.49,431.63c7.3-0.28,12.27-5.25,12.27-12.8c0.67-6.16-4.28-12.67-12.52-12.6
		c-7.88,0.06-12.58,5.31-12.77,12.6C948.27,427.12,954.94,431.88,961.49,431.63z"/>
	<radialGradient id="SVGID_95_" cx="541.6606" cy="529.1584" r="521.6506" gradientUnits="userSpaceOnUse">
		<stop  offset="0.54" style="stop-color:#A07F36"/>
		<stop  offset="0.7539" style="stop-color:#9C4F51"/>
		<stop  offset="1" style="stop-color:#981C6E"/>
	</radialGradient>
	<path class="st94" d="M271.24,866.03c-8.22,0.34-12.17,6.79-12.35,12.61c-0.21,6.72,6.95,13.38,13.25,13.05
		c6.5-0.34,12.88-7,12.72-13.27C284.27,872.65,279.92,865.68,271.24,866.03z"/>
	<radialGradient id="SVGID_96_" cx="541.6606" cy="529.1584" r="521.6506" gradientUnits="userSpaceOnUse">
		<stop  offset="0.54" style="stop-color:#A07F36"/>
		<stop  offset="0.7539" style="stop-color:#9C4F51"/>
		<stop  offset="1" style="stop-color:#981C6E"/>
	</radialGradient>
	<path class="st95" d="M961.39,635.92c-6.69-0.36-13.35,6.4-13.05,13.04c0.33,7.27,6.39,13.09,13.04,12.28
		c7.74-0.02,12.14-4.69,12.45-12.44C974.1,642.16,969.09,636.33,961.39,635.92z"/>
	<radialGradient id="SVGID_97_" cx="541.6606" cy="529.1584" r="521.6506" gradientUnits="userSpaceOnUse">
		<stop  offset="0.54" style="stop-color:#A07F36"/>
		<stop  offset="0.7539" style="stop-color:#9C4F51"/>
		<stop  offset="1" style="stop-color:#981C6E"/>
	</radialGradient>
	<path class="st96" d="M195.16,789.65c-6.11-0.75-12.64,4.45-12.61,12.42c0.03,7.91,5.47,12.32,12.53,12.94
		c6.54,0.58,13.64-6.44,13.1-13.04C207.59,794.86,202.79,789.18,195.16,789.65z"/>
	<radialGradient id="SVGID_98_" cx="541.6606" cy="529.1584" r="521.6506" gradientUnits="userSpaceOnUse">
		<stop  offset="0.54" style="stop-color:#A07F36"/>
		<stop  offset="0.7539" style="stop-color:#9C4F51"/>
		<stop  offset="1" style="stop-color:#981C6E"/>
	</radialGradient>
	<path class="st97" d="M425.2,942.56c-7.14-0.11-12.7,5.39-12.72,12.58c-0.03,7.39,5.62,13.24,12.68,13.13
		c6.45-0.11,12.78-6.5,12.8-12.94C437.98,948.45,432.2,942.67,425.2,942.56z"/>
	<radialGradient id="SVGID_99_" cx="541.6606" cy="529.1584" r="521.6506" gradientUnits="userSpaceOnUse">
		<stop  offset="0.54" style="stop-color:#A07F36"/>
		<stop  offset="0.7539" style="stop-color:#9C4F51"/>
		<stop  offset="1" style="stop-color:#981C6E"/>
	</radialGradient>
	<path class="st98" d="M884.69,278.49c6.96,0,12.49-5.41,12.54-12.29c0.05-7.44-5.07-13.08-11.97-13.19
		c-7.51-0.12-13.29,5.2-13.5,12.43C871.55,272.38,877.6,278.49,884.69,278.49z"/>
	<radialGradient id="SVGID_100_" cx="541.6606" cy="529.1584" r="521.6506" gradientUnits="userSpaceOnUse">
		<stop  offset="0.54" style="stop-color:#A07F36"/>
		<stop  offset="0.7539" style="stop-color:#9C4F51"/>
		<stop  offset="1" style="stop-color:#981C6E"/>
	</radialGradient>
	<path class="st99" d="M654.89,942.57c-7.07,0.04-12.75,5.66-12.78,12.64c-0.03,6.64,5.98,13.1,12.57,13
		c8.26-0.13,13.25-6.72,12.91-12.96C667.6,948.25,661.87,942.53,654.89,942.57z"/>
	<radialGradient id="SVGID_101_" cx="541.6606" cy="529.1584" r="521.6506" gradientUnits="userSpaceOnUse">
		<stop  offset="0.54" style="stop-color:#A07F36"/>
		<stop  offset="0.7539" style="stop-color:#9C4F51"/>
		<stop  offset="1" style="stop-color:#981C6E"/>
	</radialGradient>
	<path class="st100" d="M118.4,636.01c-6.75-0.02-12.73,5.29-12.22,12.66c0,7.89,4.85,12.65,12.78,12.66
		c6.57,0.01,12.33-4.34,12.42-12.44C131.47,640.88,126.09,636.04,118.4,636.01z"/>
	<radialGradient id="SVGID_102_" cx="541.6606" cy="529.1584" r="521.6506" gradientUnits="userSpaceOnUse">
		<stop  offset="0.54" style="stop-color:#A07F36"/>
		<stop  offset="0.7539" style="stop-color:#9C4F51"/>
		<stop  offset="1" style="stop-color:#981C6E"/>
	</radialGradient>
	<path class="st101" d="M348.42,122.79c5.46-0.11,10.4-4.79,10.35-10.1c-0.05-5.96-4.2-10.1-10.14-10.13
		c-6.11-0.03-10.07,3.89-10.08,9.97C337.58,118.37,343.77,122.89,348.42,122.79z"/>
	<radialGradient id="SVGID_103_" cx="541.6606" cy="529.1584" r="521.6506" gradientUnits="userSpaceOnUse">
		<stop  offset="0.54" style="stop-color:#A07F36"/>
		<stop  offset="0.7539" style="stop-color:#9C4F51"/>
		<stop  offset="1" style="stop-color:#981C6E"/>
	</radialGradient>
	<path class="st102" d="M731.38,122.76c5.7,0.04,10.06-4.34,10.11-10.17c0.05-6.06-3.9-10.04-10-10.04c-5.94,0-10.18,4.16-10.2,10
		C721.27,118.11,725.83,122.72,731.38,122.76z"/>
	<radialGradient id="SVGID_104_" cx="541.6606" cy="529.1584" r="521.6506" gradientUnits="userSpaceOnUse">
		<stop  offset="0.54" style="stop-color:#A07F36"/>
		<stop  offset="0.7539" style="stop-color:#9C4F51"/>
		<stop  offset="1" style="stop-color:#981C6E"/>
	</radialGradient>
	<path class="st103" d="M118.56,715.11c-5.41,0.13-10.7,5.05-10.27,10.36c0.46,5.6,3.19,9.8,10.38,9.95
		c5.74-0.09,10.63-4.8,10.46-10.08C128.96,720.17,123.6,714.98,118.56,715.11z"/>
	<radialGradient id="SVGID_105_" cx="541.6606" cy="529.1584" r="521.6506" gradientUnits="userSpaceOnUse">
		<stop  offset="0.54" style="stop-color:#A07F36"/>
		<stop  offset="0.7539" style="stop-color:#9C4F51"/>
		<stop  offset="1" style="stop-color:#981C6E"/>
	</radialGradient>
	<path class="st104" d="M118.67,352.39c6.93,0.28,10.23-5.76,10.39-10c0.2-5.16-5.11-10.15-10.41-10.2
		c-5.32-0.05-10.38,4.91-10.47,10.25C108.09,347.7,113.06,352.42,118.67,352.39z"/>
	<radialGradient id="SVGID_106_" cx="541.6606" cy="529.1584" r="521.6506" gradientUnits="userSpaceOnUse">
		<stop  offset="0.54" style="stop-color:#A07F36"/>
		<stop  offset="0.7539" style="stop-color:#9C4F51"/>
		<stop  offset="1" style="stop-color:#981C6E"/>
	</radialGradient>
	<path class="st105" d="M348.67,945.26c-6.12-0.04-10.22,3.9-10.26,9.89c-0.02,7.2,4.33,9.91,9.92,10.29
		c5.49,0.37,10.41-4.72,10.45-10.03C358.83,949.78,354.42,945.3,348.67,945.26z"/>
	<radialGradient id="SVGID_107_" cx="541.6606" cy="529.1584" r="521.6506" gradientUnits="userSpaceOnUse">
		<stop  offset="0.54" style="stop-color:#A07F36"/>
		<stop  offset="0.7539" style="stop-color:#9C4F51"/>
		<stop  offset="1" style="stop-color:#981C6E"/>
	</radialGradient>
	<path class="st106" d="M961.41,715.14c-4.95-0.52-10.29,4.98-10.48,10.13c-0.2,5.37,4.54,10.04,10.27,10.12
		c6.25,0.09,10.06-3.66,10.1-9.91C971.58,718.6,966.71,715.69,961.41,715.14z"/>
	<radialGradient id="SVGID_108_" cx="541.6606" cy="529.1584" r="521.6506" gradientUnits="userSpaceOnUse">
		<stop  offset="0.54" style="stop-color:#A07F36"/>
		<stop  offset="0.7539" style="stop-color:#9C4F51"/>
		<stop  offset="1" style="stop-color:#981C6E"/>
	</radialGradient>
	<path class="st107" d="M731.81,945.31c-5.92-0.1-10.42,4.07-10.52,9.74c-0.09,5.36,4.78,10.77,10.05,10.48
		c5.39-0.3,10.39-3.87,10.15-10.21C741.53,949.47,737.6,945.41,731.81,945.31z"/>
	<radialGradient id="SVGID_109_" cx="541.6606" cy="529.1584" r="521.6506" gradientUnits="userSpaceOnUse">
		<stop  offset="0.54" style="stop-color:#A07F36"/>
		<stop  offset="0.7539" style="stop-color:#9C4F51"/>
		<stop  offset="1" style="stop-color:#981C6E"/>
	</radialGradient>
	<path class="st108" d="M960.94,352.39c6.13,0.12,10.27-3.81,10.33-9.84c0.06-5.81-4.35-10.42-9.92-10.36
		c-5.45,0.05-10.33,4.85-10.43,10.25C950.83,347.55,955.59,352.29,960.94,352.39z"/>
	<radialGradient id="SVGID_110_" cx="541.6606" cy="529.1584" r="521.6506" gradientUnits="userSpaceOnUse">
		<stop  offset="0.54" style="stop-color:#A07F36"/>
		<stop  offset="0.7539" style="stop-color:#9C4F51"/>
		<stop  offset="1" style="stop-color:#981C6E"/>
	</radialGradient>
	<path class="st109" d="M884.86,870.66c-3.99-0.05-7.71,3.61-7.84,7.71c-0.13,4.19,3.29,7.92,7.4,8.07
		c4.15,0.15,7.89-3.25,8.21-7.46C892.92,875.18,888.74,870.71,884.86,870.66z"/>
	<radialGradient id="SVGID_111_" cx="541.6606" cy="529.1584" r="521.6506" gradientUnits="userSpaceOnUse">
		<stop  offset="0.54" style="stop-color:#A07F36"/>
		<stop  offset="0.7539" style="stop-color:#9C4F51"/>
		<stop  offset="1" style="stop-color:#981C6E"/>
	</radialGradient>
	<path class="st110" d="M195.29,870.89c-3.86-0.07-7.9,3.91-7.83,7.71c0.08,3.99,4,7.91,7.84,7.84c3.84-0.07,7.49-3.67,7.71-7.59
		C203.21,875.24,199.06,870.96,195.29,870.89z"/>
	<radialGradient id="SVGID_112_" cx="541.6606" cy="529.1584" r="521.6506" gradientUnits="userSpaceOnUse">
		<stop  offset="0.54" style="stop-color:#A07F36"/>
		<stop  offset="0.7539" style="stop-color:#9C4F51"/>
		<stop  offset="1" style="stop-color:#981C6E"/>
	</radialGradient>
	<path class="st111" d="M194.85,196.66c4.16,0.18,7.98-3.26,8.16-7.34c0.16-3.59-3.7-7.49-7.5-7.58c-4.26-0.1-8.07,3.34-8.1,7.32
		C187.38,192.97,190.81,196.49,194.85,196.66z"/>
	<radialGradient id="SVGID_113_" cx="541.6606" cy="529.1584" r="521.6506" gradientUnits="userSpaceOnUse">
		<stop  offset="0.54" style="stop-color:#A07F36"/>
		<stop  offset="0.7539" style="stop-color:#9C4F51"/>
		<stop  offset="1" style="stop-color:#981C6E"/>
	</radialGradient>
	<path class="st112" d="M884.74,196.67c4.39-0.02,7.24-2.86,7.34-7.31c0.11-4.62-2.78-7.57-7.47-7.61c-4.09-0.04-7.46,3.16-7.6,7.22
		C876.89,192.92,880.66,196.69,884.74,196.67z"/>
	<radialGradient id="SVGID_114_" cx="541.6606" cy="529.1584" r="521.6506" gradientUnits="userSpaceOnUse">
		<stop  offset="0.54" style="stop-color:#A07F36"/>
		<stop  offset="0.7539" style="stop-color:#9C4F51"/>
		<stop  offset="1" style="stop-color:#981C6E"/>
	</radialGradient>
	<path class="st113" d="M961.36,272.3c3.53,0.06,6.19-2.74,6.24-6.35c0.05-4.13-2.34-6.77-6.16-6.79c-3.71-0.02-7.09,2.82-6.86,6.33
		C954.85,269.56,956.89,272.22,961.36,272.3z"/>
	<radialGradient id="SVGID_115_" cx="541.6606" cy="529.1584" r="521.6506" gradientUnits="userSpaceOnUse">
		<stop  offset="0.54" style="stop-color:#A07F36"/>
		<stop  offset="0.7539" style="stop-color:#9C4F51"/>
		<stop  offset="1" style="stop-color:#981C6E"/>
	</radialGradient>
	<path class="st114" d="M808.29,119.22c3.28-0.09,6.17-3.09,6.23-6.46c0.06-3.96-2.42-6.64-6.18-6.68
		c-3.91-0.04-7.05,2.96-6.98,6.67C801.43,115.97,805,119.31,808.29,119.22z"/>
	<radialGradient id="SVGID_116_" cx="541.6606" cy="529.1584" r="521.6506" gradientUnits="userSpaceOnUse">
		<stop  offset="0.54" style="stop-color:#A07F36"/>
		<stop  offset="0.7539" style="stop-color:#9C4F51"/>
		<stop  offset="1" style="stop-color:#981C6E"/>
	</radialGradient>
	<path class="st115" d="M578.36,42.68c3.54-0.03,6.64-3.31,6.52-6.9c-0.12-3.58-2.88-6.24-6.48-6.25c-4.08,0-6.71,2.52-6.67,6.4
		C571.75,39.5,574.91,42.71,578.36,42.68z"/>
	<radialGradient id="SVGID_117_" cx="541.6606" cy="529.1584" r="521.6506" gradientUnits="userSpaceOnUse">
		<stop  offset="0.54" style="stop-color:#A07F36"/>
		<stop  offset="0.7539" style="stop-color:#9C4F51"/>
		<stop  offset="1" style="stop-color:#981C6E"/>
	</radialGradient>
	<path class="st116" d="M501.44,42.67c3.38,0.15,6.82-3.12,6.89-6.55c0.07-3.54-2.97-6.53-6.71-6.58c-3.91-0.06-6.33,2.22-6.45,6.07
		C495.06,39.36,497.85,42.5,501.44,42.67z"/>
	<radialGradient id="SVGID_118_" cx="541.6606" cy="529.1584" r="521.6506" gradientUnits="userSpaceOnUse">
		<stop  offset="0.54" style="stop-color:#A07F36"/>
		<stop  offset="0.7539" style="stop-color:#9C4F51"/>
		<stop  offset="1" style="stop-color:#981C6E"/>
	</radialGradient>
	<path class="st117" d="M42.22,501.96c3.64-0.08,6.38-3.07,6.22-6.76c-0.15-3.48-3.48-6.57-6.88-6.39
		c-2.94,0.16-6.62,4.16-6.48,7.04C35.26,499.31,38.46,502.05,42.22,501.96z"/>
	<radialGradient id="SVGID_119_" cx="541.6606" cy="529.1584" r="521.6506" gradientUnits="userSpaceOnUse">
		<stop  offset="0.54" style="stop-color:#A07F36"/>
		<stop  offset="0.7539" style="stop-color:#9C4F51"/>
		<stop  offset="1" style="stop-color:#981C6E"/>
	</radialGradient>
	<path class="st118" d="M501.47,1025.49c-3.65,0.06-6.26,2.7-6.29,6.36c-0.04,3.66,3.07,6.88,6.55,6.78
		c3.47-0.09,6.64-3.37,6.61-6.83C508.29,1028.18,505.3,1025.42,501.47,1025.49z"/>
	<radialGradient id="SVGID_120_" cx="541.6606" cy="529.1584" r="521.6506" gradientUnits="userSpaceOnUse">
		<stop  offset="0.54" style="stop-color:#A07F36"/>
		<stop  offset="0.7539" style="stop-color:#9C4F51"/>
		<stop  offset="1" style="stop-color:#981C6E"/>
	</radialGradient>
	<path class="st119" d="M1038.06,578.53c3.81-0.06,6.52-2.55,6.59-6.07c0.07-3.43-3.66-7.22-6.96-7.07
		c-3.14,0.15-6.48,3.94-6.35,7.2C1031.5,576.08,1034.33,578.58,1038.06,578.53z"/>
	<radialGradient id="SVGID_121_" cx="541.6606" cy="529.1584" r="521.6506" gradientUnits="userSpaceOnUse">
		<stop  offset="0.54" style="stop-color:#A07F36"/>
		<stop  offset="0.7539" style="stop-color:#9C4F51"/>
		<stop  offset="1" style="stop-color:#981C6E"/>
	</radialGradient>
	<path class="st120" d="M271.62,119.18c3.09,0.31,7.02-3.4,7.04-6.39c0.02-3.82-3.01-6.73-6.98-6.7c-4.11,0.03-6.14,2.19-6.14,6.58
		C264.7,116.22,268.75,118.89,271.62,119.18z"/>
	<radialGradient id="SVGID_122_" cx="541.6606" cy="529.1584" r="521.6506" gradientUnits="userSpaceOnUse">
		<stop  offset="0.54" style="stop-color:#A07F36"/>
		<stop  offset="0.7539" style="stop-color:#9C4F51"/>
		<stop  offset="1" style="stop-color:#981C6E"/>
	</radialGradient>
	<path class="st121" d="M578.67,1025.49c-3.95-0.1-6.86,2.48-6.95,6.18c-0.09,3.59,2.9,6.82,6.42,6.96c3.5,0.14,6.56-2.87,6.73-6.63
		C585.02,1028.81,581.94,1025.58,578.67,1025.49z"/>
	<radialGradient id="SVGID_123_" cx="541.6606" cy="529.1584" r="521.6506" gradientUnits="userSpaceOnUse">
		<stop  offset="0.54" style="stop-color:#A07F36"/>
		<stop  offset="0.7539" style="stop-color:#9C4F51"/>
		<stop  offset="1" style="stop-color:#981C6E"/>
	</radialGradient>
	<path class="st122" d="M118.54,272.32c3.67,0.04,6.75-2.89,6.82-6.48c0.07-3.32-3.09-6.52-6.61-6.68
		c-3.99-0.18-6.31,2.17-6.36,6.44C112.33,269.92,114.5,272.28,118.54,272.32z"/>
	<radialGradient id="SVGID_124_" cx="541.6606" cy="529.1584" r="521.6506" gradientUnits="userSpaceOnUse">
		<stop  offset="0.54" style="stop-color:#A07F36"/>
		<stop  offset="0.7539" style="stop-color:#9C4F51"/>
		<stop  offset="1" style="stop-color:#981C6E"/>
	</radialGradient>
	<path class="st123" d="M961.4,795.86c-3.91,0.01-7.02,2.83-6.91,6.27c0.1,3.28,3.62,6.73,6.85,6.71c3.59-0.02,6.28-2.99,6.26-6.91
		C967.59,797.85,965.54,795.85,961.4,795.86z"/>
	<radialGradient id="SVGID_125_" cx="541.6606" cy="529.1584" r="521.6506" gradientUnits="userSpaceOnUse">
		<stop  offset="0.54" style="stop-color:#A07F36"/>
		<stop  offset="0.7539" style="stop-color:#9C4F51"/>
		<stop  offset="1" style="stop-color:#981C6E"/>
	</radialGradient>
	<path class="st124" d="M808.11,948.95c-3.73,0.04-6.84,3.02-6.75,6.48c0.08,3.16,3.88,6.77,7,6.65c3.48-0.13,6.23-3.3,6.16-7.11
		C814.45,951.21,812.01,948.91,808.11,948.95z"/>
	<radialGradient id="SVGID_126_" cx="541.6606" cy="529.1584" r="521.6506" gradientUnits="userSpaceOnUse">
		<stop  offset="0.54" style="stop-color:#A07F36"/>
		<stop  offset="0.7539" style="stop-color:#9C4F51"/>
		<stop  offset="1" style="stop-color:#981C6E"/>
	</radialGradient>
	<path class="st125" d="M41.85,565.4c-3.07,0.15-6.91,4.07-6.77,6.92c0.18,3.46,3.34,6.28,6.99,6.24c3.91-0.04,6.64-2.76,6.47-6.45
		C48.4,568.66,44.99,565.25,41.85,565.4z"/>
	<radialGradient id="SVGID_127_" cx="541.6606" cy="529.1584" r="521.6506" gradientUnits="userSpaceOnUse">
		<stop  offset="0.54" style="stop-color:#A07F36"/>
		<stop  offset="0.7539" style="stop-color:#9C4F51"/>
		<stop  offset="1" style="stop-color:#981C6E"/>
	</radialGradient>
	<path class="st126" d="M118.54,795.86c-4.12-0.05-6.17,1.97-6.19,6.09c-0.02,3.83,2.81,6.95,6.29,6.93
		c3.25-0.02,6.62-3.4,6.71-6.75C125.45,798.51,122.63,795.9,118.54,795.86z"/>
	<radialGradient id="SVGID_128_" cx="541.6606" cy="529.1584" r="521.6506" gradientUnits="userSpaceOnUse">
		<stop  offset="0.54" style="stop-color:#A07F36"/>
		<stop  offset="0.7539" style="stop-color:#9C4F51"/>
		<stop  offset="1" style="stop-color:#981C6E"/>
	</radialGradient>
	<path class="st127" d="M271.58,948.95c-3.9,0.07-6.06,2.32-6.03,6.29c0.02,3.74,3.03,6.95,6.41,6.84c2.97-0.09,6.79-4.06,6.72-6.99
		C278.6,951.68,275.36,948.88,271.58,948.95z"/>
	<radialGradient id="SVGID_129_" cx="541.6606" cy="529.1584" r="521.6506" gradientUnits="userSpaceOnUse">
		<stop  offset="0.54" style="stop-color:#A07F36"/>
		<stop  offset="0.7539" style="stop-color:#9C4F51"/>
		<stop  offset="1" style="stop-color:#981C6E"/>
	</radialGradient>
	<path class="st128" d="M1038.01,501.96c3.98,0,6.6-2.57,6.59-6.47c-0.01-3.24-3.58-6.77-6.76-6.68c-3.25,0.1-6.2,3.22-6.25,6.62
		C1031.53,499.52,1033.93,501.96,1038.01,501.96z"/>
	<radialGradient id="SVGID_130_" cx="541.6606" cy="529.1584" r="521.6506" gradientUnits="userSpaceOnUse">
		<stop  offset="0.54" style="stop-color:#A07F36"/>
		<stop  offset="0.7539" style="stop-color:#9C4F51"/>
		<stop  offset="1" style="stop-color:#981C6E"/>
	</radialGradient>
	<path class="st129" d="M40.21,643.73c-1.53,0.24-3.45,2.05-3.34,5.22c0.11,3.09,1.92,5.23,5.23,5.16c3.29-0.07,5.21-2.29,5.04-5.32
		C46.99,645.94,45.47,643.47,40.21,643.73z"/>
	<radialGradient id="SVGID_131_" cx="541.6606" cy="529.1584" r="521.6506" gradientUnits="userSpaceOnUse">
		<stop  offset="0.54" style="stop-color:#A07F36"/>
		<stop  offset="0.7539" style="stop-color:#9C4F51"/>
		<stop  offset="1" style="stop-color:#981C6E"/>
	</radialGradient>
	<path class="st130" d="M1036.57,643.69c-2.18,0.31-3.74,2.39-3.72,5.2c0.03,3.07,1.87,5.27,5.16,5.22
		c3.18-0.05,5.02-2.08,5.21-5.22C1043.39,645.93,1040.62,643.54,1036.57,643.69z"/>
	<radialGradient id="SVGID_132_" cx="541.6606" cy="529.1584" r="521.6506" gradientUnits="userSpaceOnUse">
		<stop  offset="0.54" style="stop-color:#A07F36"/>
		<stop  offset="0.7539" style="stop-color:#9C4F51"/>
		<stop  offset="1" style="stop-color:#981C6E"/>
	</radialGradient>
	<path class="st131" d="M424.98,1026.7c-1.98,0.35-4.66,3.02-4.96,4.97c-0.36,2.39,0.94,5.39,4.84,5.28
		c3.52-0.1,4.89-1.93,5.18-4.37C430.12,1028.37,427.86,1026.19,424.98,1026.7z"/>
	<radialGradient id="SVGID_133_" cx="541.6606" cy="529.1584" r="521.6506" gradientUnits="userSpaceOnUse">
		<stop  offset="0.54" style="stop-color:#A07F36"/>
		<stop  offset="0.7539" style="stop-color:#9C4F51"/>
		<stop  offset="1" style="stop-color:#981C6E"/>
	</radialGradient>
	<path class="st132" d="M1038.11,424.39c3-0.44,5.16-2.52,5-5.5c-0.15-2.82-1.76-5.22-5.33-4.88c-2.81,0.07-4.99,2.15-5.03,4.8
		C1032.71,421.8,1035.39,424.8,1038.11,424.39z"/>
	<radialGradient id="SVGID_134_" cx="541.6606" cy="529.1584" r="521.6506" gradientUnits="userSpaceOnUse">
		<stop  offset="0.54" style="stop-color:#A07F36"/>
		<stop  offset="0.7539" style="stop-color:#9C4F51"/>
		<stop  offset="1" style="stop-color:#981C6E"/>
	</radialGradient>
	<path class="st133" d="M424.9,41.02c3.05-0.32,5-1.74,5.14-5.13c0.14-3.3-2.14-5.49-4.6-5.12c-2.11,0.32-5,2.89-5.43,4.92
		C419.51,38.06,421.04,41.16,424.9,41.02z"/>
	<radialGradient id="SVGID_135_" cx="541.6606" cy="529.1584" r="521.6506" gradientUnits="userSpaceOnUse">
		<stop  offset="0.54" style="stop-color:#A07F36"/>
		<stop  offset="0.7539" style="stop-color:#9C4F51"/>
		<stop  offset="1" style="stop-color:#981C6E"/>
	</radialGradient>
	<path class="st134" d="M42.04,424.35c3.17,0.1,5.1-2.46,5.08-5.3c-0.02-2.8-1.57-5.28-5.2-5.07c-3.31,0.16-4.98,2.11-5.08,5.24
		C36.73,422.6,39.17,424.25,42.04,424.35z"/>
	<radialGradient id="SVGID_136_" cx="541.6606" cy="529.1584" r="521.6506" gradientUnits="userSpaceOnUse">
		<stop  offset="0.54" style="stop-color:#A07F36"/>
		<stop  offset="0.7539" style="stop-color:#9C4F51"/>
		<stop  offset="1" style="stop-color:#981C6E"/>
	</radialGradient>
	<path class="st135" d="M654.73,40.98c3.69,0.11,4.76-1.98,4.97-5.06c0.3-3.62-2.17-5.29-4.93-5.26c-2.48,0.03-4.93,1.52-4.78,4.99
		C650.13,38.82,651.08,40.87,654.73,40.98z"/>
	<radialGradient id="SVGID_137_" cx="541.6606" cy="529.1584" r="521.6506" gradientUnits="userSpaceOnUse">
		<stop  offset="0.54" style="stop-color:#A07F36"/>
		<stop  offset="0.7539" style="stop-color:#9C4F51"/>
		<stop  offset="1" style="stop-color:#981C6E"/>
	</radialGradient>
	<path class="st136" d="M654.58,1026.61c-2.73,0.04-4.75,1.97-4.58,5.27c0.17,3.33,1.74,4.93,5.13,5.04
		c3.68,0.12,4.22-2.31,4.48-4.1C659.9,1028.24,657.45,1026.57,654.58,1026.61z"/>
	<radialGradient id="SVGID_138_" cx="541.6606" cy="529.1584" r="521.6506" gradientUnits="userSpaceOnUse">
		<stop  offset="0.54" style="stop-color:#A07F36"/>
		<stop  offset="0.7539" style="stop-color:#9C4F51"/>
		<stop  offset="1" style="stop-color:#981C6E"/>
	</radialGradient>
	<path class="st137" d="M1038.11,345.15c0.9,0.13,2.05-1.4,4.05-2.93c-2.2-1.44-3.36-2.77-4.43-2.71c-0.84,0.05-2.27,1.92-2.16,2.84
		C1035.69,343.42,1037.08,344.99,1038.11,345.15z"/>
	<radialGradient id="SVGID_139_" cx="541.6606" cy="529.1584" r="521.6506" gradientUnits="userSpaceOnUse">
		<stop  offset="0.54" style="stop-color:#A07F36"/>
		<stop  offset="0.7539" style="stop-color:#9C4F51"/>
		<stop  offset="1" style="stop-color:#981C6E"/>
	</radialGradient>
	<path class="st138" d="M42.09,345.14c0.86,0.15,1.99-1.24,3.78-2.5c-1.93-1.5-3.08-2.39-4.23-3.28c-0.74,1.05-2.12,2.14-2.05,3.13
		C39.66,343.49,41.07,344.96,42.09,345.14z"/>
	<radialGradient id="SVGID_140_" cx="541.6606" cy="529.1584" r="521.6506" gradientUnits="userSpaceOnUse">
		<stop  offset="0.54" style="stop-color:#A07F36"/>
		<stop  offset="0.7539" style="stop-color:#9C4F51"/>
		<stop  offset="1" style="stop-color:#981C6E"/>
	</radialGradient>
	<path class="st139" d="M351.08,36.02c-0.16-1.08-1.56-2.71-2.48-2.74c-0.95-0.04-2.53,1.43-2.76,2.47c-0.18,0.84,1.26,2.02,2.5,3.8
		C349.7,37.89,351.2,36.84,351.08,36.02z"/>
	<radialGradient id="SVGID_141_" cx="541.6606" cy="529.1584" r="521.6506" gradientUnits="userSpaceOnUse">
		<stop  offset="0.54" style="stop-color:#A07F36"/>
		<stop  offset="0.7539" style="stop-color:#9C4F51"/>
		<stop  offset="1" style="stop-color:#981C6E"/>
	</radialGradient>
	<path class="st140" d="M39.45,725.4c0.06,0.94,1.55,2.46,2.45,2.48c0.89,0.03,2.42-1.38,2.59-2.35c0.16-0.9-1.11-2.05-2.3-3.96
		C40.78,723.41,39.4,724.45,39.45,725.4z"/>
	<radialGradient id="SVGID_142_" cx="541.6606" cy="529.1584" r="521.6506" gradientUnits="userSpaceOnUse">
		<stop  offset="0.54" style="stop-color:#A07F36"/>
		<stop  offset="0.7539" style="stop-color:#9C4F51"/>
		<stop  offset="1" style="stop-color:#981C6E"/>
	</radialGradient>
	<path class="st141" d="M731.47,1029.27c-0.95,0.02-2.43,1.59-2.62,2.66c-0.14,0.78,1.44,1.87,2.81,3.46
		c1.24-1.64,2.73-2.82,2.54-3.57C733.93,1030.74,732.43,1029.25,731.47,1029.27z"/>
	<radialGradient id="SVGID_143_" cx="541.6606" cy="529.1584" r="521.6506" gradientUnits="userSpaceOnUse">
		<stop  offset="0.54" style="stop-color:#A07F36"/>
		<stop  offset="0.7539" style="stop-color:#9C4F51"/>
		<stop  offset="1" style="stop-color:#981C6E"/>
	</radialGradient>
	<path class="st142" d="M1035.59,725.62c0.11,0.9,1.66,2.22,2.64,2.27c0.91,0.04,1.89-1.34,3.72-2.79c-2.03-1.1-3.22-2.27-4.13-2.09
		C1036.87,723.2,1035.49,724.79,1035.59,725.62z"/>
	<radialGradient id="SVGID_144_" cx="541.6606" cy="529.1584" r="521.6506" gradientUnits="userSpaceOnUse">
		<stop  offset="0.54" style="stop-color:#A07F36"/>
		<stop  offset="0.7539" style="stop-color:#9C4F51"/>
		<stop  offset="1" style="stop-color:#981C6E"/>
	</radialGradient>
	<path class="st143" d="M345.82,1031.93c-0.26,0.62,1.31,2,2.7,3.96c1.12-1.87,2.2-2.89,2.2-3.91c0-0.96-1.13-1.93-1.77-2.89
		C347.85,1030.01,346.31,1030.75,345.82,1031.93z"/>
	<radialGradient id="SVGID_145_" cx="541.6606" cy="529.1584" r="521.6506" gradientUnits="userSpaceOnUse">
		<stop  offset="0.54" style="stop-color:#A07F36"/>
		<stop  offset="0.7539" style="stop-color:#9C4F51"/>
		<stop  offset="1" style="stop-color:#981C6E"/>
	</radialGradient>
	<path class="st144" d="M735.76,35.97c-2.21-1.36-3.38-2.5-4.69-2.69c-0.6-0.09-1.47,1.71-2.22,2.65c1.02,0.79,1.97,2,3.1,2.22
		C732.77,38.3,733.84,37.13,735.76,35.97z"/>
</g>
<g>
	<path class="st145" d="M363.91,437.6c5.37,12.39,12.71,23.18,22.04,32.38c9.32,9.2,20.5,16.48,33.53,21.84
		c13.03,5.37,27.21,8.05,42.54,8.05s29.51-2.94,42.54-8.81s24.2-13.8,33.53-23.76c9.33-9.96,16.67-21.65,22.04-35.06
		c5.36-13.41,8.04-27.65,8.04-42.73c0-13.8-2.68-26.69-8.04-38.7c-5.37-12.01-12.71-22.48-22.04-31.42
		c-9.33-8.94-20.5-15.96-33.53-21.08c-13.03-5.11-27.21-7.66-42.54-7.66s-29.51,2.81-42.54,8.43
		c-13.03,5.62-24.21,13.29-33.53,22.99c-9.33,9.71-16.67,21.08-22.04,34.11c-5.36,13.03-8.05,26.95-8.05,41.77
		C355.86,411.99,358.54,425.21,363.91,437.6z M404.91,350.8c2.81-8.94,6.64-16.73,11.5-23.38c4.85-6.64,10.41-11.94,16.67-15.9
		c6.26-3.96,12.7-5.94,19.35-5.94c13.03,0,24.08,2.75,33.15,8.24c9.07,5.5,16.34,12.9,21.84,22.23c5.49,9.33,9.51,20.38,12.07,33.15
		c2.55,12.78,3.83,26.44,3.83,41c0,9.96-1.34,19.48-4.02,28.55c-2.68,9.07-6.39,17.05-11.11,23.95
		c-4.73,6.9-10.35,12.39-16.86,16.48c-6.51,4.09-13.74,6.13-21.65,6.13c-10.99,0-20.76-2.74-29.32-8.24
		c-8.56-5.49-15.78-13.03-21.65-22.61c-5.88-9.58-10.35-20.82-13.41-33.72c-3.07-12.9-4.6-26.63-4.6-41.19
		C400.69,369.33,402.1,359.75,404.91,350.8z"/>
	<path class="st145" d="M797.12,320.14c5.75-1.53,11.31-2.3,16.67-2.3c4.85,0,9.45,1.09,13.8,3.26c4.34,2.17,8.17,5.18,11.49,9
		c3.32,3.83,5.94,8.31,7.86,13.41c1.92,5.11,2.87,10.48,2.87,16.1v136.04l39.85-61.91v-80.26c0-8.43-1.41-16.48-4.21-24.14
		c-2.82-7.67-6.7-14.37-11.69-20.12c-4.98-5.75-10.8-10.28-17.44-13.6c-6.65-3.32-13.8-4.98-21.46-4.98
		c-7.67,0-15.46,1.15-23.38,3.45c-7.92,2.3-15.39,5.37-22.42,9.2c-7.03,3.83-13.48,8.31-19.35,13.41
		c-5.88,5.11-10.48,10.6-13.8,16.48c-1.28-6.13-3.77-11.82-7.47-17.05c-3.71-5.23-8.11-9.71-13.22-13.41
		c-5.11-3.7-10.72-6.64-16.86-8.81c-6.13-2.17-12.13-3.26-18.01-3.26c-6.13,0-12.58,1.15-19.35,3.45c-6.77,2.3-13.6,5.37-20.5,9.2
		c-6.9,3.83-13.54,8.24-19.93,13.22c-6.39,4.98-12.13,10.29-17.24,15.9v-37.56h-39.85v200.8l39.85-61.91V346.2
		c3.07-3.83,6.77-7.47,11.11-10.92c4.34-3.45,9.13-6.45,14.37-9c5.24-2.55,10.54-4.6,15.9-6.13c5.37-1.53,10.6-2.3,15.71-2.3
		c4.85,0,9.52,1.09,13.99,3.26c4.47,2.17,8.36,5.18,11.69,9c3.32,3.83,5.94,8.31,7.86,13.41c1.91,5.11,2.87,10.48,2.87,16.1v136.04
		l39.85-61.91V346.2c2.55-3.83,5.94-7.47,10.16-10.92c4.21-3.45,8.88-6.45,13.98-9C785.94,323.73,791.38,321.68,797.12,320.14z"/>
	<path class="st145" d="M320.68,579.96c-5.69-6.07-12.48-10.91-20.35-14.52c-7.88-3.6-16.47-5.41-25.76-5.41
		c-6.45,0-13.14,1.24-20.07,3.7c-6.93,2.47-13.24,5.6-18.93,9.39v-82.55l-0.03,0v-104.9l95.8,109.98h52.5L272.32,367.66l90.05-72.81
		h-26.06l-100.79,80.86V191.77h-11.5l-28.36,11.5v292.39l-5.66,199.6c8.54,6.83,18.17,11.86,28.89,15.08
		c10.72,3.23,21.96,4.84,33.73,4.84c11.96,0,23.15-2.38,33.59-7.12c10.43-4.75,19.59-11.11,27.47-19.07
		c7.87-7.97,14.04-17.31,18.5-28.04c4.46-10.72,6.69-22.06,6.69-34.02c0-9.11-1.61-17.7-4.84-25.76
		C330.83,593.1,326.37,586.03,320.68,579.96z M289.79,659.52c-1.62,7.31-3.89,13.67-6.83,19.07c-2.94,5.41-6.5,9.64-10.67,12.67
		c-4.18,3.03-8.83,4.55-13.95,4.55c-4.94,0-9.16-1.09-12.67-3.28c-3.52-2.18-6.88-4.59-10.11-7.25v-82.84
		c3.23-3.79,7.12-6.92,11.67-9.39c4.55-2.47,9.01-3.71,13.38-3.71c4.36,0,8.49,1.24,12.38,3.71c3.89,2.47,7.26,5.79,10.11,9.96
		c2.85,4.17,5.08,9.1,6.69,14.8c1.61,5.7,2.42,11.67,2.42,17.94C292.21,644.29,291.4,652.22,289.79,659.52z"/>
	<path class="st145" d="M447.35,671.91c-1.9,3.42-4.23,6.6-6.97,9.53c-2.75,2.94-5.74,5.51-8.97,7.68c-3.23,2.19-6.5,3.89-9.82,5.13
		c-3.32,1.24-6.5,1.85-9.53,1.85c-4.56,0-8.78-0.71-12.67-2.13c-3.89-1.43-7.36-3.32-10.39-5.7c-3.04-2.37-5.41-5.17-7.12-8.4
		c-1.71-3.22-2.56-6.73-2.56-10.53V563.16h-29.61v106.18c0,6.26,1.23,12.19,3.7,17.79c2.46,5.6,5.83,10.49,10.11,14.66
		c4.27,4.18,9.25,7.5,14.94,9.96c5.69,2.46,11.86,3.7,18.5,3.7c4.36,0,8.97-0.81,13.81-2.42c4.84-1.61,9.54-3.85,14.09-6.69
		c4.56-2.85,8.78-6.12,12.67-9.82c3.89-3.7,7.16-7.73,9.82-12.1v27.9h29.61V563.16h-29.61V671.91z"/>
	<path class="st145" d="M610.32,667.92c-2.74,4.94-5.97,9.26-9.67,12.96c-3.7,3.7-8.11,6.64-13.24,8.83
		c-5.13,2.18-11.1,3.27-17.93,3.27c-7.97,0-15.14-1.89-21.5-5.69c-6.36-3.79-11.81-8.87-16.37-15.23
		c-4.56-6.35-8.07-13.81-10.53-22.34c-2.47-8.54-3.7-17.55-3.7-27.04c0-7.02,0.95-13.67,2.84-19.93c1.9-6.26,4.7-11.76,8.4-16.51
		c3.7-4.75,8.21-8.45,13.52-11.11c5.31-2.65,11.38-3.98,18.21-3.98c10.06,0,16.75,2.32,20.07,6.98c3.33,4.65,4.98,10.48,4.98,17.5
		c0,3.99,1.57,7.69,4.7,11.11c3.13,3.42,7.35,5.12,12.66,5.12c2.47,0,4.88-0.42,7.27-1.28c2.37-0.85,4.5-1.99,6.4-3.42
		c1.9-1.42,3.42-3.13,4.56-5.12c1.14-2,1.7-4.13,1.7-6.41c0-5.12-1.41-9.82-4.27-14.09c-2.84-4.27-6.83-8.01-11.96-11.24
		c-5.11-3.23-11.2-5.74-18.21-7.54c-7.03-1.8-14.72-2.71-23.06-2.71c-10.82,0-20.93,2.13-30.32,6.41
		c-9.39,4.27-17.56,10.1-24.48,17.51c-6.93,7.4-12.43,16.04-16.51,25.91c-4.08,9.87-6.12,20.49-6.12,31.88
		c0,10.25,1.8,19.84,5.41,28.75c3.6,8.92,8.58,16.75,14.94,23.49c6.36,6.74,13.81,12.01,22.34,15.8c8.54,3.8,17.74,5.7,27.61,5.7
		c17.27,0,31.74-5.17,43.41-15.51c11.68-10.34,19.97-25,24.92-43.98l-8.83-3.7C615.49,657.77,613.07,662.99,610.32,667.92z"/>
	<path class="st145" d="M751.09,573.27c-3.42-4.08-7.4-7.3-11.96-9.68c-4.55-2.37-9.39-3.56-14.52-3.56
		c-10.06,0-19.93,2.47-29.61,7.4c-9.68,4.94-19.07,12.53-28.18,22.77V443.25l-29.61,51.87v217.2h29.61V601.59
		c6.64-6.45,13.71-11.62,21.21-15.51c7.5-3.89,14.38-5.84,20.64-5.84c7.02,0,12.76,2.52,17.22,7.54c4.46,5.04,6.69,12.48,6.69,22.35
		v102.2h29.61V605.29c0-6.26-0.99-12.14-2.99-17.65C757.21,582.14,754.51,577.35,751.09,573.27z"/>
	<path class="st145" d="M886.87,583.37c-1.9-4.93-4.94-9.1-9.11-12.52c-4.18-3.42-9.63-6.07-16.37-7.97
		c-6.74-1.9-14.94-2.85-24.62-2.85c-8.16,0-15.9,0.9-23.2,2.71c-7.31,1.8-13.71,4.27-19.21,7.4c-5.51,3.13-9.87,6.79-13.09,10.96
		c-3.23,4.18-4.84,8.73-4.84,13.66c0,5.13,1.47,9.35,4.41,12.67c2.94,3.33,6.69,4.99,11.24,4.99c5.88,0,9.82-2,11.81-5.98
		c2-3.99,2.99-8.63,2.99-13.95c0-2.84,0.33-5.59,0.99-8.25s1.9-5.03,3.7-7.12c1.8-2.08,4.27-3.79,7.41-5.12
		c3.13-1.32,7.16-1.99,12.1-1.99c9.11,0,16.23,2.66,21.35,7.97c5.13,5.31,7.69,14.81,7.69,28.47v9.39
		c-10.06,2.47-20.36,5.31-30.89,8.54c-10.53,3.23-20.12,7.22-28.75,11.96c-8.64,4.75-15.75,10.49-21.35,17.22
		c-5.6,6.73-8.4,14.94-8.4,24.62c0,10.82,3.42,19.74,10.25,26.76s16.23,10.53,28.18,10.53c6.26,0,11.76-0.71,16.51-2.13
		c4.75-1.43,9.11-3.28,13.09-5.55c3.99-2.28,7.69-4.84,11.11-7.69c3.42-2.85,6.83-5.59,10.25-8.25v20.49h29.61V599.6
		C889.72,593.72,888.77,588.32,886.87,583.37z M860.12,681.01c-6.08,4.37-11.86,8.22-17.36,11.53c-5.51,3.33-11.58,4.98-18.22,4.98
		c-3.23,0-6.26-0.71-9.11-2.13c-2.85-1.42-5.4-3.37-7.68-5.83c-2.28-2.47-4.09-5.36-5.41-8.68c-1.33-3.32-1.99-6.78-1.99-10.39
		c0-5.31,1.89-10.25,5.69-14.8c3.8-4.56,8.63-8.78,14.52-12.67c5.88-3.89,12.33-7.3,19.36-10.25c7.02-2.94,13.75-5.45,20.21-7.54
		V681.01z"/>
</g>
</svg>
