<?xml version="1.0" encoding="utf-8"?>
<!-- Generator: Adobe Illustrator 24.3.0, SVG Export Plug-In . SVG Version: 6.00 Build 0)  -->
<svg version="1.1" id="Layer_1" xmlns="http://www.w3.org/2000/svg" xmlns:xlink="http://www.w3.org/1999/xlink" x="0px" y="0px"
	 viewBox="0 0 668.44 617.46" style="enable-background:new 0 0 668.44 617.46;" xml:space="preserve">
<style type="text/css">
	.st0{fill:#680040;}
	.st1{fill:#BE9039;}
	.st2{fill:#FFFFFF;}
	.st3{fill:#0B1D27;}
</style>
<g>
	<circle class="st0" cx="335.95" cy="160.2" r="153.17"/>
	<g>
		<g>
			<g>
				<path class="st1" d="M318.49,172.51c6.29,3.14,12.34,3.91,17.47,2.08c1.85,0.66,3.83,0.99,5.89,0.99c3.67,0,7.63-1.05,11.68-3.1
					c35.16-8.01,61.62-39.48,61.82-76.98l0.01-1.49l-1.49-0.1c-9.38-0.66-18.71,0.37-27.74,3.07c-1.17,0.35-2.31,0.74-3.45,1.14
					c-0.86-7.38-2.65-15.26-5.81-23.62l-0.61-1.61l-1.56,0.74c-8.26,3.91-15.69,8.75-22.28,14.45c-3.68-7.15-8.62-14.49-15.3-21.74
					l-1.17-1.27l-1.17,1.27c-6.68,7.24-11.62,14.58-15.3,21.73c-6.59-5.69-14.02-10.53-22.28-14.44l-1.56-0.74l-0.61,1.61
					c-3.19,8.43-4.98,16.38-5.84,23.8c-9.74-3.49-20.3-5.1-31.16-4.42l-1.5,0.09l0.01,1.5
					C256.74,133.04,283.26,164.55,318.49,172.51z M336.2,171.28l-0.25-0.1l-0.25,0.1c-13.09-0.25-23.67-20.03-23.67-32.97
					c0-5.31,0.02-12.83,1.44-21.6c9.35,8.63,16.6,19.69,20.63,32.53l1.52,4.82l1.52-4.82c4.07-12.92,11.48-24.25,21.22-33.04
					c1.5,8.99,1.53,16.71,1.53,22.11C359.88,151.25,349.29,171.02,336.2,171.28z M383.01,101.37c1.33-0.48,2.67-0.93,4.04-1.34
					c8.19-2.44,16.62-3.45,25.11-3.03c-0.8,31.95-21.43,59.1-49.96,69.63c5.28-4.54,9.64-10.23,11.84-15.68
					C377.91,141.28,384.85,123.96,383.01,101.37z M371.07,149.75c-2.52,6.26-8.19,12.94-14.79,17.43c-1.33,0.9-2.66,1.65-3.98,2.32
					c-1.69,0.37-3.4,0.71-5.14,0.96c9.54-6.99,15.89-21.66,15.89-32.17c0-5.92-0.03-14.51-1.89-24.53
					c5.62-4.59,11.91-8.37,18.73-11.18C381.4,124.03,374.8,140.5,371.07,149.75z M374.5,77.26c2.8,7.78,4.36,15.13,5.1,22.02
					c-6.94,2.76-13.38,6.48-19.15,11c-1.35-6.05-3.43-12.54-6.58-19.24C359.98,85.65,366.86,81.04,374.5,77.26z M335.95,69.78
					c6.11,6.85,10.64,13.77,14.03,20.52c-5.26,4.88-9.97,10.32-14.03,16.37c-4.06-6.05-8.77-11.49-14.03-16.37
					C325.31,83.55,329.84,76.63,335.95,69.78z M320.5,93.33c5.35,5.08,10.09,10.76,14.11,17.1l1.34,2.11l1.34-2.11
					c4.03-6.34,8.77-12.02,14.11-17.1c3.06,6.71,5.03,13.2,6.27,19.21c-9.73,8.36-17.38,19.08-22.05,31.36
					c-4.63-12.21-12.11-22.7-21.49-30.92C315.37,106.86,317.37,100.21,320.5,93.33z M297.41,77.26c7.64,3.78,14.52,8.39,20.63,13.78
					c-3.22,6.86-5.33,13.49-6.68,19.66c-5.78-4.61-12.2-8.37-19.08-11.17C293.01,92.57,294.58,85.13,297.41,77.26z M292,102.84
					c6.75,2.86,13.06,6.66,18.67,11.34c-1.79,9.84-1.82,18.29-1.82,24.12c0,10.5,6.35,25.18,15.89,32.17
					c-1.73-0.26-3.44-0.59-5.13-0.96c-1.32-0.67-2.65-1.42-3.98-2.33c-6.6-4.49-12.26-11.16-14.79-17.43
					C297.12,140.54,290.56,124.15,292,102.84z M288.89,101.58c-1.78,22.49,5.12,39.74,9,49.36c2.2,5.45,6.56,11.15,11.84,15.68
					c-28.55-10.52-49.18-37.69-49.97-69.65C269.92,96.53,279.78,98.19,288.89,101.58z"/>
			</g>
		</g>
		<g>
			<path class="st2" d="M403.28,204.43c-1.99-1.21-2.24-1.87-4.05-6.35l-11.37-31.63h-0.73c-1.39,3.69-2.84,7.92-5.2,12.94
				l-10.34,22.13c-0.54,1.15-1.45,2.18-2.66,2.9c-0.79,0.47-1.62,0.64-2.24,0.83h-7.1c-0.97,0-2.06-0.24-2.9-0.24
				c-0.38,0-0.64,0.08-0.81,0.21v-9.8c0-6.95,0.18-13.79,0.48-19.65c0.18-3.27,0.42-3.93,2.06-4.23c3.21-0.6,3.33-0.73,3.33-1.33
				c0-0.73-0.42-0.97-1.39-0.97c-0.97,0-2.66,0.24-5.93,0.24c-1.94,0-4.23-0.24-5.62-0.24c-1.39,0-1.57,0.54-1.57,1.27
				s0.18,0.97,1.27,1.03c4.41,0.24,4.84,0.66,4.84,4.35v19.41c0,0.12-0.12,0.24-0.3,0.24c-0.12,0-0.24-0.06-0.48-0.3
				c-0.85-0.85-2.96-2.54-7.44-7.98l-14.63-17.9c-2.3,0.18-3.63,0.24-12.22,0.24c-0.85,0-0.97,0.42-0.97,0.85
				c0,0.85,0.12,0.97,0.97,1.09c4.17,0.6,4.9,1.03,4.9,3.81v12.03c0,0.73-0.36,9.86-0.42,13.18c-0.06,3.33-1.09,3.69-3.33,3.87
				c-1.75,0.12-2.48,0.6-2.48,1.27c0,0.91,0.79,0.91,1.81,0.91c1.69,0,3.27-0.24,5.81-0.24c0.59,0,1.16,0.02,1.74,0.04
				c0,0.04-0.01,0.08-0.01,0.12c0,0.73,0.06,1.03,3.81,1.03c1.63,0,1.94,0.91,1.87,2.72l-0.36,21.53
				c-0.18,10.04,11.79,11.31,16.81,11.31c10.1,0,15.06-3.87,15.24-12.46l0.36-19.29c0.06-2.72,0.85-3.45,3.45-4.17
				c1.09-0.29,1.56-0.43,1.77-0.65c1.49-0.07,2.83-0.18,4.42-0.18c0.94,0,1.69,0.04,2.31,0.09c0.12,0.47,0.54,0.69,1.77,0.73
				c2.48,0.12,2.9,0.91,2.9,3.39v24.73c0,4.6-1.39,4.66-3.45,4.78c-2.42,0.12-2.66,0.18-2.66,1.03c0,0.73,0.12,1.15,1.03,1.15
				c1.69,0,3.57-0.24,7.02-0.24c4.41,0,7.44,0.24,9.07,0.24c1.27,0,1.39-0.18,1.39-0.73c0-0.97-0.73-1.15-2-1.45
				c-2.18-0.48-3.27-0.6-3.27-3.75v-26.61c0-2.3,0.24-2.66,3.33-2.9c0.79-0.07,1.27-0.24,1.56-0.46h4.64c4.23,0,5.62,0.24,7.68,0.24
				c1.21,0,1.45-0.06,1.45-0.48C406.43,205.46,404.97,205.46,403.28,204.43z M361.77,211.36l-0.3,20.38
				c-0.12,6.77-5.87,9.07-11.91,9.07c-6.77,0-10.95-1.93-10.76-12.09l0.24-16.15c0.06-5.14,0.42-5.32,3.39-5.38
				c1.88-0.12,2.06-0.24,2.06-0.85c0-0.79-0.18-1.09-1.27-1.09h-10.54c-0.24-0.31-0.9-0.55-2.18-0.83
				c-3.81-0.85-4.54-1.81-4.54-4.78c0-3.63-0.24-7.44-0.24-12.21v-11.19c0-0.18,0.24-0.24,0.36-0.12l24.67,27.7
				c2.72,3.08,3.39,4.84,4.47,4.84c0.36,0,0.67-0.24,0.67-1.21v-0.84c0.3,0.17,0.84,0.33,1.84,0.58
				C361.59,208.16,361.83,209.12,361.77,211.36z M380.73,187.01l3.33-7.5c0.18-0.48,0.48-0.85,0.73-0.85c0.12,0,0.36,0,0.48,0.3
				l3.33,9.13c0.06,0.18,0.12,0.42,0.12,0.67c0,0.36-1.75,0.36-4.11,0.36c-2,0-4.35-0.06-4.35-0.48
				C380.24,188.16,380.48,187.62,380.73,187.01z M390.7,204.43c-0.78,0.09-1.28,0.29-1.47,0.67c-1.12,0.07-2.56,0.16-5.57,0.16
				c-1.76,0-3.05-0.09-4.11-0.15c-0.34-0.5-1.18-0.62-1.66-0.67c-1.45-0.12-2.84-0.3-2.84-2.06c0-1.39,1.69-4.84,2.78-7.38
				c0.97-2.42,1.51-3.21,3.02-3.21c4.17,0,6.17,0.24,7.68,0.24c1.33,0,1.51,0.18,1.63,0.6l2.48,8.04c0.24,0.85,0.6,1.57,0.6,2.18
				C393.24,203.94,392.09,204.31,390.7,204.43z"/>
			<path class="st2" d="M319.57,252.66c-7.56,0.85-13.48-6.47-15.48-9.8c10.34-1.33,17.05-10.04,17.05-19.23
				c0-9.43-7.05-18.33-17.83-19.37c2.39-2.04,3.63-5.1,3.71-9.28l0.36-19.29c0.06-2.72,0.85-3.45,3.45-4.17
				c1.81-0.48,1.94-0.54,1.94-1.27c0-0.24,0-0.66-0.48-0.66h-9.31c-0.97,0-2.06-0.24-2.9-0.24c-0.91,0-1.15,0.42-1.15,1.03
				c0,0.54,0.3,0.67,2.18,1.15c3.87,0.97,4.11,1.93,4.05,4.17l-0.3,20.38c-0.08,4.56-2.72,7.09-6.28,8.26
				c-1.19,0.14-2.34,0.38-3.44,0.71c-0.72,0.07-1.45,0.11-2.19,0.11c-6.77,0-10.94-1.93-10.76-12.09l0.24-16.15
				c0.06-5.14,0.42-5.32,3.39-5.38c1.87-0.12,2.06-0.24,2.06-0.85c0-0.79-0.18-1.09-1.27-1.09h-14.82c-1.09,0-2.12,0.06-2.12,1.27
				c0,0.73,0.06,1.03,3.81,1.03c1.63,0,1.94,0.91,1.87,2.72l-0.36,21.53c-0.16,9.02,9.48,10.96,15.08,11.26
				c-5.52,3.61-8.83,9.79-8.83,16.24c0,7.92,4.96,15.48,13,18.26c1.15,3.45,6.11,13.42,20.5,13.42c3.51,0,7.38-0.73,7.38-1.99
				C322.11,252.6,321.8,252.42,319.57,252.66z M288.97,223.64c0-9.52,2.97-14.65,7.55-16.54c1.16-0.19,2.23-0.45,3.19-0.79
				c0.48-0.05,0.97-0.08,1.47-0.08c7.14,0,12.21,4.96,12.21,17.42c0,10.88-5.08,17.41-12.21,17.41S288.97,234.52,288.97,223.64z"/>
		</g>
	</g>
</g>
<g>
	<g>
		<circle class="st3" cx="504.94" cy="450.2" r="153.17"/>
		<g>
			<g>
				<g>
					<path class="st1" d="M487.48,462.51c6.29,3.14,12.34,3.91,17.47,2.08c1.85,0.66,3.83,0.99,5.89,0.99
						c3.67,0,7.63-1.05,11.68-3.1c35.16-8.01,61.62-39.48,61.82-76.98l0.01-1.49l-1.49-0.1c-9.38-0.66-18.71,0.37-27.74,3.07
						c-1.17,0.35-2.31,0.74-3.45,1.14c-0.86-7.38-2.65-15.26-5.81-23.62l-0.61-1.61l-1.56,0.74c-8.26,3.91-15.69,8.75-22.28,14.45
						c-3.68-7.15-8.62-14.49-15.3-21.74l-1.17-1.27l-1.17,1.27c-6.68,7.24-11.62,14.58-15.3,21.73
						c-6.59-5.69-14.02-10.53-22.28-14.44l-1.56-0.74l-0.61,1.61c-3.19,8.43-4.98,16.38-5.84,23.8c-9.74-3.49-20.3-5.1-31.16-4.42
						l-1.5,0.09l0.01,1.5C425.73,423.04,452.25,454.55,487.48,462.51z M505.19,461.28l-0.25-0.1l-0.25,0.1
						c-13.09-0.25-23.67-20.03-23.67-32.97c0-5.31,0.02-12.83,1.44-21.6c9.35,8.63,16.6,19.69,20.63,32.53l1.52,4.82l1.52-4.82
						c4.07-12.92,11.48-24.25,21.22-33.04c1.5,8.99,1.53,16.71,1.53,22.11C528.86,441.25,518.28,461.02,505.19,461.28z
						 M551.99,391.37c1.33-0.48,2.67-0.93,4.04-1.34c8.19-2.44,16.62-3.45,25.11-3.03c-0.8,31.95-21.43,59.1-49.96,69.63
						c5.28-4.54,9.64-10.23,11.84-15.68C546.9,431.28,553.84,413.96,551.99,391.37z M540.06,439.75
						c-2.52,6.26-8.19,12.94-14.79,17.43c-1.33,0.9-2.66,1.65-3.98,2.32c-1.69,0.37-3.4,0.71-5.14,0.96
						c9.54-6.99,15.89-21.66,15.89-32.17c0-5.92-0.03-14.51-1.89-24.53c5.62-4.59,11.91-8.37,18.73-11.18
						C550.39,414.03,543.79,430.5,540.06,439.75z M543.49,367.26c2.8,7.78,4.36,15.13,5.1,22.02c-6.94,2.76-13.38,6.48-19.15,11
						c-1.35-6.05-3.43-12.54-6.58-19.24C528.96,375.65,535.85,371.04,543.49,367.26z M504.94,359.78
						c6.11,6.85,10.64,13.77,14.03,20.52c-5.26,4.88-9.97,10.32-14.03,16.37c-4.06-6.05-8.77-11.49-14.03-16.37
						C494.3,373.55,498.83,366.63,504.94,359.78z M489.49,383.33c5.35,5.08,10.09,10.76,14.11,17.1l1.34,2.11l1.34-2.11
						c4.03-6.34,8.77-12.02,14.11-17.1c3.06,6.71,5.03,13.2,6.27,19.21c-9.73,8.36-17.38,19.08-22.05,31.36
						c-4.63-12.21-12.11-22.7-21.49-30.92C484.36,396.86,486.36,390.21,489.49,383.33z M466.4,367.26
						c7.64,3.78,14.52,8.39,20.63,13.78c-3.22,6.86-5.33,13.49-6.68,19.66c-5.78-4.61-12.2-8.37-19.08-11.17
						C462,382.57,463.57,375.13,466.4,367.26z M460.98,392.84c6.75,2.86,13.06,6.66,18.67,11.34c-1.79,9.84-1.82,18.29-1.82,24.12
						c0,10.5,6.35,25.18,15.89,32.17c-1.73-0.26-3.44-0.59-5.13-0.96c-1.32-0.67-2.65-1.42-3.98-2.33
						c-6.6-4.49-12.26-11.16-14.79-17.43C466.11,430.54,459.55,414.15,460.98,392.84z M457.88,391.58
						c-1.78,22.49,5.12,39.74,9,49.36c2.2,5.45,6.56,11.15,11.84,15.68c-28.55-10.52-49.18-37.69-49.97-69.65
						C438.91,386.53,448.77,388.19,457.88,391.58z"/>
				</g>
			</g>
			<g>
				<path class="st2" d="M572.27,494.43c-1.99-1.21-2.24-1.87-4.05-6.35l-11.37-31.63h-0.73c-1.39,3.69-2.84,7.92-5.2,12.94
					l-10.34,22.13c-0.54,1.15-1.45,2.18-2.66,2.9c-0.79,0.47-1.62,0.64-2.24,0.83h-7.1c-0.97,0-2.06-0.24-2.9-0.24
					c-0.38,0-0.64,0.08-0.81,0.21v-9.8c0-6.95,0.18-13.79,0.48-19.65c0.18-3.27,0.42-3.93,2.06-4.23c3.21-0.6,3.33-0.73,3.33-1.33
					c0-0.73-0.42-0.97-1.39-0.97c-0.97,0-2.66,0.24-5.93,0.24c-1.94,0-4.23-0.24-5.62-0.24s-1.57,0.54-1.57,1.27
					s0.18,0.97,1.27,1.03c4.41,0.24,4.84,0.66,4.84,4.35v19.41c0,0.12-0.12,0.24-0.3,0.24c-0.12,0-0.24-0.06-0.48-0.3
					c-0.85-0.85-2.96-2.54-7.44-7.98l-14.63-17.9c-2.3,0.18-3.63,0.24-12.21,0.24c-0.85,0-0.97,0.42-0.97,0.85
					c0,0.85,0.12,0.97,0.97,1.09c4.17,0.6,4.9,1.03,4.9,3.81v12.03c0,0.73-0.36,9.86-0.42,13.18c-0.06,3.33-1.09,3.69-3.33,3.87
					c-1.75,0.12-2.48,0.6-2.48,1.27c0,0.91,0.79,0.91,1.81,0.91c1.69,0,3.27-0.24,5.81-0.24c0.59,0,1.16,0.02,1.74,0.04
					c0,0.04-0.01,0.08-0.01,0.12c0,0.73,0.06,1.03,3.81,1.03c1.63,0,1.94,0.91,1.87,2.72l-0.36,21.53
					c-0.18,10.04,11.79,11.31,16.81,11.31c10.1,0,15.06-3.87,15.24-12.46l0.36-19.29c0.06-2.72,0.85-3.45,3.45-4.17
					c1.09-0.29,1.56-0.43,1.77-0.65c1.49-0.07,2.83-0.18,4.42-0.18c0.94,0,1.69,0.04,2.31,0.09c0.12,0.47,0.54,0.69,1.77,0.73
					c2.48,0.12,2.9,0.91,2.9,3.39v24.73c0,4.6-1.39,4.66-3.45,4.78c-2.42,0.12-2.66,0.18-2.66,1.03c0,0.73,0.12,1.15,1.03,1.15
					c1.69,0,3.57-0.24,7.02-0.24c4.41,0,7.44,0.24,9.07,0.24c1.27,0,1.39-0.18,1.39-0.73c0-0.97-0.73-1.15-2-1.45
					c-2.18-0.48-3.27-0.6-3.27-3.75v-26.61c0-2.3,0.24-2.66,3.33-2.9c0.79-0.07,1.27-0.24,1.56-0.46h4.64
					c4.23,0,5.62,0.24,7.68,0.24c1.21,0,1.45-0.06,1.45-0.48C575.41,495.46,573.96,495.46,572.27,494.43z M530.76,501.36l-0.3,20.38
					c-0.12,6.77-5.87,9.07-11.91,9.07c-6.77,0-10.95-1.93-10.76-12.09l0.24-16.15c0.06-5.14,0.42-5.32,3.39-5.38
					c1.88-0.12,2.06-0.24,2.06-0.85c0-0.79-0.18-1.09-1.27-1.09h-10.54c-0.24-0.31-0.9-0.55-2.18-0.83
					c-3.81-0.85-4.54-1.81-4.54-4.78c0-3.63-0.24-7.44-0.24-12.21v-11.19c0-0.18,0.24-0.24,0.36-0.12l24.67,27.7
					c2.72,3.08,3.39,4.84,4.47,4.84c0.36,0,0.67-0.24,0.67-1.21v-0.84c0.3,0.17,0.84,0.33,1.84,0.58
					C530.58,498.16,530.82,499.12,530.76,501.36z M549.71,477.01l3.33-7.5c0.18-0.48,0.48-0.85,0.73-0.85c0.12,0,0.36,0,0.48,0.3
					l3.33,9.13c0.06,0.18,0.12,0.42,0.12,0.67c0,0.36-1.75,0.36-4.11,0.36c-2,0-4.35-0.06-4.35-0.48
					C549.23,478.16,549.47,477.62,549.71,477.01z M559.69,494.43c-0.78,0.09-1.28,0.29-1.47,0.67c-1.12,0.07-2.56,0.16-5.57,0.16
					c-1.76,0-3.05-0.09-4.11-0.15c-0.34-0.5-1.18-0.62-1.66-0.67c-1.45-0.12-2.84-0.3-2.84-2.06c0-1.39,1.69-4.84,2.78-7.38
					c0.97-2.42,1.51-3.21,3.02-3.21c4.17,0,6.17,0.24,7.68,0.24c1.33,0,1.51,0.18,1.63,0.6l2.48,8.04c0.24,0.85,0.6,1.57,0.6,2.18
					C562.23,493.94,561.08,494.31,559.69,494.43z"/>
				<path class="st2" d="M488.56,542.66c-7.56,0.85-13.48-6.47-15.48-9.8c10.34-1.33,17.05-10.04,17.05-19.23
					c0-9.43-7.05-18.33-17.83-19.37c2.39-2.04,3.63-5.1,3.71-9.28l0.36-19.29c0.06-2.72,0.85-3.45,3.45-4.17
					c1.81-0.48,1.94-0.54,1.94-1.27c0-0.24,0-0.66-0.48-0.66h-9.31c-0.97,0-2.06-0.24-2.9-0.24c-0.91,0-1.15,0.42-1.15,1.03
					c0,0.54,0.3,0.67,2.18,1.15c3.87,0.97,4.11,1.93,4.05,4.17l-0.3,20.38c-0.08,4.56-2.72,7.09-6.28,8.26
					c-1.19,0.14-2.34,0.38-3.44,0.71c-0.72,0.07-1.45,0.11-2.19,0.11c-6.77,0-10.94-1.93-10.76-12.09l0.24-16.15
					c0.06-5.14,0.42-5.32,3.39-5.38c1.87-0.12,2.06-0.24,2.06-0.85c0-0.79-0.18-1.09-1.27-1.09h-14.82c-1.09,0-2.12,0.06-2.12,1.27
					c0,0.73,0.06,1.03,3.81,1.03c1.63,0,1.94,0.91,1.87,2.72l-0.36,21.53c-0.16,9.02,9.48,10.96,15.08,11.26
					c-5.52,3.61-8.83,9.79-8.83,16.24c0,7.92,4.96,15.48,13,18.26c1.15,3.45,6.11,13.42,20.5,13.42c3.51,0,7.38-0.73,7.38-1.99
					C491.1,542.6,490.79,542.42,488.56,542.66z M457.96,513.64c0-9.52,2.97-14.65,7.55-16.54c1.16-0.19,2.23-0.45,3.19-0.79
					c0.48-0.05,0.97-0.08,1.47-0.08c7.14,0,12.22,4.96,12.22,17.42c0,10.88-5.08,17.41-12.22,17.41
					C463.04,531.05,457.96,524.52,457.96,513.64z"/>
			</g>
		</g>
	</g>
	<g>
		<circle class="st2" cx="166.97" cy="450.2" r="153.17"/>
		<g>
			<g>
				<g>
					<path class="st1" d="M149.5,462.51c6.29,3.14,12.34,3.91,17.47,2.08c1.85,0.66,3.83,0.99,5.89,0.99c3.67,0,7.63-1.05,11.68-3.1
						c35.16-8.01,61.62-39.48,61.82-76.98l0.01-1.49l-1.49-0.1c-9.38-0.66-18.71,0.37-27.74,3.07c-1.17,0.35-2.31,0.74-3.45,1.14
						c-0.86-7.38-2.65-15.26-5.81-23.62l-0.61-1.61l-1.56,0.74c-8.26,3.91-15.69,8.75-22.28,14.45c-3.68-7.15-8.62-14.49-15.3-21.74
						l-1.17-1.27l-1.17,1.27c-6.68,7.24-11.62,14.58-15.3,21.73c-6.59-5.69-14.02-10.53-22.28-14.44l-1.56-0.74l-0.61,1.61
						c-3.19,8.43-4.98,16.38-5.84,23.8c-9.74-3.49-20.3-5.1-31.16-4.42l-1.5,0.09l0.01,1.5C87.75,423.04,114.27,454.55,149.5,462.51
						z M167.21,461.28l-0.25-0.1l-0.25,0.1c-13.09-0.25-23.67-20.03-23.67-32.97c0-5.31,0.02-12.83,1.44-21.6
						c9.35,8.63,16.6,19.69,20.63,32.53l1.52,4.82l1.52-4.82c4.07-12.92,11.48-24.25,21.22-33.04c1.5,8.99,1.53,16.71,1.53,22.11
						C190.89,441.25,180.3,461.02,167.21,461.28z M214.02,391.37c1.33-0.48,2.67-0.93,4.04-1.34c8.19-2.44,16.62-3.45,25.11-3.03
						c-0.8,31.95-21.43,59.1-49.96,69.63c5.28-4.54,9.64-10.23,11.84-15.68C208.93,431.28,215.86,413.96,214.02,391.37z
						 M202.08,439.75c-2.52,6.26-8.19,12.94-14.79,17.43c-1.33,0.9-2.66,1.65-3.98,2.32c-1.69,0.37-3.4,0.71-5.14,0.96
						c9.54-6.99,15.89-21.66,15.89-32.17c0-5.92-0.03-14.51-1.89-24.53c5.62-4.59,11.91-8.37,18.73-11.18
						C212.41,414.03,205.81,430.5,202.08,439.75z M205.51,367.26c2.8,7.78,4.36,15.13,5.1,22.02c-6.94,2.76-13.38,6.48-19.15,11
						c-1.35-6.05-3.43-12.54-6.58-19.24C190.99,375.65,197.87,371.04,205.51,367.26z M166.96,359.78
						c6.11,6.85,10.64,13.77,14.03,20.52c-5.26,4.88-9.97,10.32-14.03,16.37c-4.06-6.05-8.77-11.49-14.03-16.37
						C156.32,373.55,160.86,366.63,166.96,359.78z M151.51,383.33c5.35,5.08,10.09,10.76,14.11,17.1l1.34,2.11l1.34-2.11
						c4.03-6.34,8.77-12.02,14.11-17.1c3.06,6.71,5.03,13.2,6.27,19.21c-9.73,8.36-17.38,19.08-22.05,31.36
						c-4.63-12.21-12.11-22.7-21.49-30.92C146.38,396.86,148.38,390.21,151.51,383.33z M128.42,367.26
						c7.64,3.78,14.52,8.39,20.63,13.78c-3.22,6.86-5.33,13.49-6.68,19.66c-5.78-4.61-12.2-8.37-19.08-11.17
						C124.02,382.57,125.59,375.13,128.42,367.26z M123.01,392.84c6.75,2.86,13.06,6.66,18.67,11.34
						c-1.79,9.84-1.82,18.29-1.82,24.12c0,10.5,6.35,25.18,15.89,32.17c-1.73-0.26-3.44-0.59-5.13-0.96
						c-1.32-0.67-2.65-1.42-3.98-2.33c-6.6-4.49-12.26-11.16-14.79-17.43C128.13,430.54,121.57,414.15,123.01,392.84z M119.9,391.58
						c-1.78,22.49,5.12,39.74,9,49.36c2.2,5.45,6.56,11.15,11.84,15.68c-28.55-10.52-49.18-37.69-49.97-69.65
						C100.93,386.53,110.79,388.19,119.9,391.58z"/>
				</g>
			</g>
			<g>
				<path class="st0" d="M234.29,494.43c-1.99-1.21-2.24-1.87-4.05-6.35l-11.37-31.63h-0.73c-1.39,3.69-2.84,7.92-5.2,12.94
					l-10.34,22.13c-0.54,1.15-1.45,2.18-2.66,2.9c-0.79,0.47-1.62,0.64-2.24,0.83h-7.1c-0.97,0-2.06-0.24-2.9-0.24
					c-0.38,0-0.64,0.08-0.81,0.21v-9.8c0-6.95,0.18-13.79,0.48-19.65c0.18-3.27,0.42-3.93,2.06-4.23c3.21-0.6,3.33-0.73,3.33-1.33
					c0-0.73-0.42-0.97-1.39-0.97c-0.97,0-2.66,0.24-5.93,0.24c-1.94,0-4.23-0.24-5.62-0.24s-1.57,0.54-1.57,1.27
					s0.18,0.97,1.27,1.03c4.41,0.24,4.84,0.66,4.84,4.35v19.41c0,0.12-0.12,0.24-0.3,0.24c-0.12,0-0.24-0.06-0.48-0.3
					c-0.85-0.85-2.96-2.54-7.44-7.98l-14.63-17.9c-2.3,0.18-3.63,0.24-12.22,0.24c-0.85,0-0.97,0.42-0.97,0.85
					c0,0.85,0.12,0.97,0.97,1.09c4.17,0.6,4.9,1.03,4.9,3.81v12.03c0,0.73-0.36,9.86-0.42,13.18c-0.06,3.33-1.09,3.69-3.33,3.87
					c-1.75,0.12-2.48,0.6-2.48,1.27c0,0.91,0.79,0.91,1.81,0.91c1.69,0,3.27-0.24,5.81-0.24c0.59,0,1.16,0.02,1.74,0.04
					c0,0.04-0.01,0.08-0.01,0.12c0,0.73,0.06,1.03,3.81,1.03c1.63,0,1.94,0.91,1.87,2.72l-0.36,21.53
					c-0.18,10.04,11.79,11.31,16.81,11.31c10.1,0,15.06-3.87,15.24-12.46l0.36-19.29c0.06-2.72,0.85-3.45,3.45-4.17
					c1.09-0.29,1.56-0.43,1.77-0.65c1.49-0.07,2.83-0.18,4.42-0.18c0.94,0,1.69,0.04,2.31,0.09c0.12,0.47,0.54,0.69,1.77,0.73
					c2.48,0.12,2.9,0.91,2.9,3.39v24.73c0,4.6-1.39,4.66-3.45,4.78c-2.42,0.12-2.66,0.18-2.66,1.03c0,0.73,0.12,1.15,1.03,1.15
					c1.69,0,3.57-0.24,7.02-0.24c4.41,0,7.44,0.24,9.07,0.24c1.27,0,1.39-0.18,1.39-0.73c0-0.97-0.73-1.15-2-1.45
					c-2.18-0.48-3.27-0.6-3.27-3.75v-26.61c0-2.3,0.24-2.66,3.33-2.9c0.79-0.07,1.27-0.24,1.56-0.46h4.64
					c4.23,0,5.62,0.24,7.68,0.24c1.21,0,1.45-0.06,1.45-0.48C237.44,495.46,235.99,495.46,234.29,494.43z M192.78,501.36l-0.3,20.38
					c-0.12,6.77-5.87,9.07-11.91,9.07c-6.77,0-10.95-1.93-10.76-12.09l0.24-16.15c0.06-5.14,0.42-5.32,3.39-5.38
					c1.88-0.12,2.06-0.24,2.06-0.85c0-0.79-0.18-1.09-1.27-1.09h-10.54c-0.24-0.31-0.9-0.55-2.18-0.83
					c-3.81-0.85-4.54-1.81-4.54-4.78c0-3.63-0.24-7.44-0.24-12.21v-11.19c0-0.18,0.24-0.24,0.36-0.12l24.67,27.7
					c2.72,3.08,3.39,4.84,4.47,4.84c0.36,0,0.67-0.24,0.67-1.21v-0.84c0.3,0.17,0.84,0.33,1.84,0.58
					C192.6,498.16,192.84,499.12,192.78,501.36z M211.74,477.01l3.33-7.5c0.18-0.48,0.48-0.85,0.73-0.85c0.12,0,0.36,0,0.48,0.3
					l3.33,9.13c0.06,0.18,0.12,0.42,0.12,0.67c0,0.36-1.75,0.36-4.11,0.36c-2,0-4.35-0.06-4.35-0.48
					C211.25,478.16,211.5,477.62,211.74,477.01z M221.72,494.43c-0.78,0.09-1.28,0.29-1.47,0.67c-1.12,0.07-2.56,0.16-5.57,0.16
					c-1.76,0-3.05-0.09-4.11-0.15c-0.34-0.5-1.18-0.62-1.66-0.67c-1.45-0.12-2.84-0.3-2.84-2.06c0-1.39,1.69-4.84,2.78-7.38
					c0.97-2.42,1.51-3.21,3.02-3.21c4.17,0,6.17,0.24,7.68,0.24c1.33,0,1.51,0.18,1.63,0.6l2.48,8.04c0.24,0.85,0.6,1.57,0.6,2.18
					C224.25,493.94,223.11,494.31,221.72,494.43z"/>
				<path class="st0" d="M150.58,542.66c-7.56,0.85-13.48-6.47-15.48-9.8c10.34-1.33,17.05-10.04,17.05-19.23
					c0-9.43-7.05-18.33-17.83-19.37c2.4-2.04,3.63-5.1,3.71-9.28l0.36-19.29c0.06-2.72,0.85-3.45,3.45-4.17
					c1.81-0.48,1.94-0.54,1.94-1.27c0-0.24,0-0.66-0.48-0.66h-9.31c-0.97,0-2.06-0.24-2.9-0.24c-0.91,0-1.15,0.42-1.15,1.03
					c0,0.54,0.3,0.67,2.18,1.15c3.87,0.97,4.11,1.93,4.05,4.17l-0.3,20.38c-0.08,4.56-2.72,7.09-6.28,8.26
					c-1.19,0.14-2.34,0.38-3.44,0.71c-0.72,0.07-1.45,0.11-2.19,0.11c-6.77,0-10.94-1.93-10.76-12.09l0.24-16.15
					c0.06-5.14,0.42-5.32,3.39-5.38c1.87-0.12,2.06-0.24,2.06-0.85c0-0.79-0.18-1.09-1.27-1.09h-14.82c-1.09,0-2.12,0.06-2.12,1.27
					c0,0.73,0.06,1.03,3.81,1.03c1.63,0,1.94,0.91,1.87,2.72l-0.36,21.53c-0.16,9.02,9.48,10.96,15.08,11.26
					c-5.52,3.61-8.83,9.79-8.83,16.24c0,7.92,4.96,15.48,13,18.26c1.15,3.45,6.11,13.42,20.5,13.42c3.51,0,7.38-0.73,7.38-1.99
					C153.12,542.6,152.82,542.42,150.58,542.66z M119.98,513.64c0-9.52,2.97-14.65,7.55-16.54c1.16-0.19,2.23-0.45,3.19-0.79
					c0.48-0.05,0.97-0.08,1.47-0.08c7.14,0,12.21,4.96,12.21,17.42c0,10.88-5.08,17.41-12.21,17.41
					C125.06,531.05,119.98,524.52,119.98,513.64z"/>
			</g>
		</g>
	</g>
</g>
</svg>
