<?xml version="1.0" encoding="utf-8"?>
<!-- Generator: Adobe Illustrator 24.3.0, SVG Export Plug-In . SVG Version: 6.00 Build 0)  -->
<svg version="1.1" id="Layer_1" xmlns="http://www.w3.org/2000/svg" xmlns:xlink="http://www.w3.org/1999/xlink" x="0px" y="0px"
	 viewBox="0 0 3589 902" style="enable-background:new 0 0 3589 902;" xml:space="preserve">
<style type="text/css">
	.st0{fill:#D5C743;}
	.st1{fill:#4C55A0;}
	.st2{fill:#AB422E;}
	.st3{fill:#C5C5C7;}
	.st4{fill:#FFFFFF;}
</style>
<g>
	<rect x="66.44" y="240.67" class="st0" width="157.95" height="537.69"/>
	<rect x="260.51" y="137.92" class="st1" width="157.95" height="640.44"/>
	<rect x="454.58" y="305.74" class="st2" width="157.95" height="472.62"/>
	<g>
		<path class="st3" d="M792.55,779.22h-15.31V659.05h15.31V779.22z"/>
		<path class="st3" d="M836.01,779.22h-14.32V659.05h24.8l30.29,100.86h0.33l30.62-100.86h25.3v120.17h-15.31V672.37h-0.33
			l-33.62,106.85h-14.48l-32.95-106.85h-0.33V779.22z"/>
		<path class="st3" d="M962.19,779.22V659.05h35.62c16.15,0,33.46,6,33.46,34.29c0,27.3-21.3,32.96-33.62,32.96h-20.14v52.93H962.19
			z M977.51,712.98h16.81c6.32,0,21.3-1.66,21.3-20.47c0-18.31-13.65-20.14-16.98-20.14h-21.14V712.98z"/>
		<path class="st3" d="M1052.25,659.05h15.31v76.89c0,26.3,7.99,32.96,22.47,32.96c14.48,0,22.47-6.66,22.47-32.96v-76.89h15.31
			v76.24c0,33.28-12.32,46.43-37.78,46.43s-37.78-13.15-37.78-46.43V659.05z"/>
		<path class="st3" d="M1154.47,779.22V659.05h15.31V765.9h44.11v13.32H1154.47z"/>
		<path class="st3" d="M1240.02,743.44v3.49c0,16.32,10.32,21.47,20.14,21.47c12.15,0,21.47-5.15,21.47-19.47
			c0-26.63-53.92-23.63-53.92-59.75c0-21.3,15.15-32.62,35.29-32.62c21.97,0,34.29,10.65,33.29,35.11h-15.98
			c0.16-13.15-4-21.81-18.48-21.81c-9.15,0-18.48,4.66-18.48,17.64c0,26.47,53.93,22.63,53.93,60.75c0,25.3-17.48,33.45-37.28,33.45
			c-35.45,0.33-35.45-26.8-35.12-38.28H1240.02z"/>
		<path class="st3" d="M1338.24,779.22h-15.31V659.05h15.31V779.22z"/>
		<path class="st3" d="M1366.72,735.29v-39.45c0-23.97,12.31-39.27,37.78-39.27c25.46,0,37.78,15.3,37.78,39.27v39.45
			c0,33.28-12.32,46.43-37.78,46.43C1379.03,781.72,1366.72,768.57,1366.72,735.29z M1426.63,735.94v-40.61
			c0-25.13-17.31-25.96-22.14-25.96c-4.82,0-22.14,0.83-22.14,25.96v40.61c0,26.3,7.66,32.96,22.14,32.96
			C1418.98,768.9,1426.63,762.24,1426.63,735.94z"/>
		<path class="st3" d="M1552.15,659.05v120.17h-20.97l-47.44-104.19h-0.33v104.19h-13.65V659.05h21.63l46.77,102.86h0.33V659.05
			H1552.15z"/>
		<path class="st3" d="M1607.1,659.05h19.47l39.11,120.17h-17.14l-8.66-28.63h-46.43l-8.99,28.63h-15.48L1607.1,659.05z
			 M1616.41,673.2h-0.33l-18.81,64.08h38.45L1616.41,673.2z"/>
		<path class="st3" d="M1764.89,659.05v120.17h-20.97l-47.44-104.19h-0.33v104.19h-13.65V659.05h21.63l46.77,102.86h0.33V659.05
			H1764.89z"/>
		<path class="st3" d="M1793.05,659.05h36.95c15.31,0,26.3,5.5,32.29,18.31c4.83,10.15,5.33,34.12,5.33,37.95
			c0,25.63-2.33,40.44-7.33,48.43c-6.49,10.32-18.64,15.48-39.61,15.48h-27.63V659.05z M1808.36,765.9h14.48
			c21.31,0,29.13-7.99,29.13-35.95v-24.29c0-24.3-7.49-33.29-23.47-33.29h-20.14V765.9z"/>
		<path class="st3" d="M1893.92,735.29v-39.45c0-23.97,12.31-39.27,37.78-39.27c25.46,0,37.78,15.3,37.78,39.27v39.45
			c0,33.28-12.31,46.43-37.78,46.43C1906.24,781.72,1893.92,768.57,1893.92,735.29z M1953.84,735.94v-40.61
			c0-25.13-17.31-25.96-22.14-25.96c-4.83,0-22.13,0.83-22.13,25.96v40.61c0,26.3,7.65,32.96,22.13,32.96
			S1953.84,762.24,1953.84,735.94z"/>
		<path class="st3" d="M2086.02,692.18c0.17-6.83-0.33-13.65-3.5-17.48c-3.16-3.83-10.32-5.16-13.48-5.16
			c-12.65,0-17.65,7.66-18.15,9.32c-0.49,1.33-3.49,4.33-3.49,24.96v32.12c0,29.46,9.65,32.96,21.47,32.96
			c4.66,0,18.81-1.66,18.97-25.13h15.82c0.66,37.95-26.13,37.95-33.96,37.95c-14.97,0-37.95-1-37.95-47.6v-33.95
			c0-33.95,14.98-43.6,38.61-43.6c23.8,0,32.96,12.31,31.45,35.61H2086.02z"/>
		<path class="st3" d="M2125.16,735.29v-39.45c0-23.97,12.31-39.27,37.78-39.27s37.78,15.3,37.78,39.27v39.45
			c0,33.28-12.31,46.43-37.78,46.43S2125.16,768.57,2125.16,735.29z M2185.07,735.94v-40.61c0-25.13-17.31-25.96-22.14-25.96
			s-22.13,0.83-22.13,25.96v40.61c0,26.3,7.65,32.96,22.13,32.96C2177.41,768.9,2185.07,762.24,2185.07,735.94z"/>
		<path class="st3" d="M2310.59,659.05v120.17h-20.98l-47.43-104.19h-0.33v104.19h-13.65V659.05h21.64l46.77,102.86h0.33V659.05
			H2310.59z"/>
		<path class="st3" d="M2339.39,779.22V659.05h15.31v51.93h42.11v-51.93h15.31v120.17h-15.31V724.3h-42.11v54.92H2339.39z"/>
		<path class="st3" d="M2440.12,779.22V659.05h61.92v13.32h-46.61v38.61h43.28v13.32h-43.28v41.6h47.6v13.32H2440.12z"/>
		<path class="st3" d="M2576.28,692.18c0.17-6.83-0.33-13.65-3.5-17.48c-3.16-3.83-10.32-5.16-13.48-5.16
			c-12.65,0-17.65,7.66-18.15,9.32c-0.49,1.33-3.49,4.33-3.49,24.96v32.12c0,29.46,9.65,32.96,21.47,32.96
			c4.66,0,18.81-1.66,18.97-25.13h15.82c0.66,37.95-26.13,37.95-33.96,37.95c-14.97,0-37.95-1-37.95-47.6v-33.95
			c0-33.95,14.98-43.6,38.61-43.6c23.8,0,32.96,12.31,31.45,35.61H2576.28z"/>
		<path class="st3" d="M2633.22,779.22h-15.31V659.05h15.31V779.22z"/>
		<path class="st3" d="M2676.67,779.22h-14.31V659.05h24.8l30.29,100.86h0.33l30.62-100.86h25.3v120.17h-15.3V672.37h-0.33
			l-33.63,106.85h-14.48l-32.95-106.85h-0.33V779.22z"/>
		<path class="st3" d="M2800.86,779.22V659.05h61.92v13.32h-46.61v38.61h43.28v13.32h-43.28v41.6h47.6v13.32H2800.86z"/>
		<path class="st3" d="M2967.31,659.05v120.17h-20.98l-47.43-104.19h-0.33v104.19h-13.65V659.05h21.64l46.77,102.86h0.33V659.05
			H2967.31z"/>
		<path class="st3" d="M3062.54,659.05v13.32h-31.62v106.85h-15.31V672.37h-31.62v-13.32H3062.54z"/>
		<path class="st3" d="M3077.87,735.29v-39.45c0-23.97,12.31-39.27,37.78-39.27c25.46,0,37.78,15.3,37.78,39.27v39.45
			c0,33.28-12.31,46.43-37.78,46.43C3090.19,781.72,3077.87,768.57,3077.87,735.29z M3137.79,735.94v-40.61
			c0-25.13-17.31-25.96-22.14-25.96s-22.13,0.83-22.13,25.96v40.61c0,26.3,7.65,32.96,22.13,32.96
			C3130.13,768.9,3137.79,762.24,3137.79,735.94z"/>
	</g>
	<g>
		<path class="st4" d="M768.87,596.05c2.61-30.66,4.57-63.83,5.88-99.51c1.3-35.67,1.96-78.41,1.96-128.22
			c0-47.85-0.65-90.37-1.96-127.56c-1.31-37.19-3.26-70.91-5.88-101.14c9.35,1.3,18.71,2.34,28.06,3.1
			c9.35,0.76,18.71,1.14,28.06,1.14c9.35,0,18.71-0.38,28.06-1.14c9.35-0.76,18.7-1.8,28.06-3.1c-2.83,30.88-4.89,64.92-6.2,102.12
			c-1.3,37.19-1.96,79.39-1.96,126.59c0,46.12,0.38,82.76,1.14,109.95c0.76,27.2,1.9,50.57,3.43,70.14
			c27.41-0.64,53.61-1.73,78.63-3.26c25.01-1.52,49.59-3.48,73.73-5.88c-0.65,4.36-1.14,8.87-1.47,13.54
			c-0.33,4.68-0.49,9.52-0.49,14.52c0,4.57,0.16,9.19,0.49,13.86c0.33,4.68,0.81,9.63,1.47,14.85c-31.11-1.73-57.53-2.94-79.28-3.59
			c-21.75-0.65-41.43-0.98-59.05-0.98c-15.88,0-33.39,0.32-52.53,0.98C819.88,593.11,796.49,594.31,768.87,596.05z"/>
		<path class="st4" d="M1154.18,437.16c0,38.5,9.19,69.06,27.57,91.68c18.37,22.62,43.12,33.92,74.22,33.92
			c15.44,0,30.23-2.61,44.37-7.83c14.13-5.22,27.84-13.16,41.11-23.81l6.52,4.89l-14.68,37.85c-13.92,9.79-30.29,17.29-49.1,22.51
			c-18.81,5.22-39.21,7.84-61.17,7.84c-51.99,0-92.71-15.33-122.18-46.01c-29.48-30.66-44.21-73.08-44.21-127.24
			c0-48.72,14.68-88.09,44.04-118.11c29.37-30.02,68.19-45.02,116.48-45.02c45.89,0,81.07,12.72,105.54,38.17
			c24.47,25.45,36.71,61.99,36.71,109.62c0,5.66-0.06,10.01-0.17,13.05s-0.27,5.77-0.49,8.15L1154.18,437.16z M1154.18,404.21
			h113.21c0-2.39,0.11-5.38,0.33-8.97c0.21-3.59,0.33-5.92,0.33-7.02c0-30.23-4.41-53.07-13.21-68.51
			c-8.81-15.44-21.81-23.16-38.99-23.16c-19.57,0-34.74,8.81-45.51,26.43c-10.77,17.62-16.15,42.74-16.15,75.36V404.21z"/>
		<path class="st4" d="M1580.6,553.96c-9.58,16.1-22.14,28.49-37.69,37.19c-15.55,8.69-33.11,13.05-52.69,13.05
			c-28.06,0-50.08-8.32-66.07-24.96s-23.98-39.32-23.98-68.03c0-21.09,5.65-38.49,16.97-52.19c11.31-13.7,29.04-24.58,53.18-32.63
			c7.83-2.61,19.14-6.2,33.93-10.77c34.8-10.44,58.61-20,71.45-28.71c0.21-1.3,0.37-2.77,0.49-4.41c0.11-1.63,0.16-3.97,0.16-7.01
			c0-20.23-5.76-36.32-17.29-48.29c-11.53-11.96-26.86-17.94-46-17.94c-15.01,0-28.66,4.24-40.95,12.72
			c-12.29,8.49-23.65,21.43-34.09,38.82c-3.26-10.44-5.99-18.81-8.16-25.12c-2.17-6.31-4.35-12.18-6.52-17.62
			c19.79-17.18,39.36-29.96,58.72-38.34c19.36-8.37,39.48-12.56,60.36-12.56c40.02,0,70.74,9.25,92.17,27.73
			c21.42,18.49,32.13,44.92,32.13,79.28v3.26l-1.96,116.48v12.72c0,27.2,2.98,44.65,8.97,52.37c5.98,7.72,17.67,11.59,35.07,11.59
			h1.96v16.63c-11.31,4.79-23.06,8.43-35.24,10.94c-12.18,2.49-23.81,3.75-34.91,3.75c-16.1,0-29.25-4.08-39.47-12.23
			C1590.92,581.53,1584.07,569.62,1580.6,553.96z M1577.66,420.19c-30.89,6.31-53.18,15.88-66.88,28.71
			c-13.7,12.84-20.55,30.67-20.55,53.51c0,19.14,3.48,33.5,10.44,43.06c6.96,9.58,17.29,14.36,31,14.36
			c14.79,0,26.15-5.33,34.1-15.99c7.94-10.65,11.91-25.98,11.91-46V420.19z"/>
		<path class="st4" d="M1755.47,596.05c1.74-29.52,3.05-57.41,3.92-83.67c0.86-26.27,1.3-51.45,1.3-75.54
			c0-27.13-0.44-54.05-1.3-80.75c-0.87-26.7-2.18-53.18-3.92-79.44c6.96,0.87,14.2,1.53,21.7,1.96c7.51,0.44,15.61,0.65,24.31,0.65
			c8.7,0,16.69-0.21,23.97-0.65c7.29-0.43,14.2-1.09,20.72-1.96v46.04c13.7-18.07,29.04-31.46,46-40.16
			c16.97-8.71,36-13.06,57.09-13.06c16.32,0,31.21,2.77,44.7,8.32s24.9,13.65,34.26,24.31c7.39,8.7,12.67,19.41,15.83,32.13
			c3.16,12.73,4.73,34.54,4.73,65.41c0,4.35-0.1,15.83-0.32,34.42c-0.22,18.59-0.33,34.97-0.33,49.11c0,20.88,0.38,40.57,1.15,59.05
			c0.76,18.49,1.9,36.44,3.42,53.83c-9.35-1.09-18.1-1.9-26.26-2.44c-8.16-0.54-16.04-0.81-23.65-0.81
			c-7.62,0-15.39,0.27-23.33,0.81c-7.94,0.54-16.58,1.36-25.94,2.44c1.52-18.92,2.78-41.54,3.75-67.86
			c0.98-26.32,1.47-55.57,1.47-87.76c0-48.5-3.87-79.78-11.58-93.8c-7.72-14.03-21.7-21.04-41.92-21.04
			c-20.23,0-34.75,8.37-43.56,25.12c-8.8,16.75-13.21,45.02-13.21,84.83c0,18.71,0.32,41.43,0.98,68.19
			c0.65,26.75,1.53,57.53,2.62,92.33c-8.27-1.09-16.43-1.9-24.48-2.44c-8.05-0.54-15.88-0.81-23.49-0.81
			c-7.4,0-15.12,0.27-23.16,0.81C1772.87,594.14,1764.39,594.96,1755.47,596.05z"/>
		<path class="st4" d="M2119.58,573.21c3.91-13.7,7.71-28.22,11.42-43.55c3.7-15.33,7.17-31.49,10.43-48.45h8.81
			c5.88,25.89,17.34,45.95,34.42,60.19c17.08,14.25,38.11,21.37,63.13,21.37c22.62,0,40.73-6.14,54.33-18.43
			c13.59-12.28,20.38-28.66,20.38-49.11c0-14.78-4.35-27.51-13.05-38.17c-8.7-10.65-29.91-25.12-63.61-43.39
			c-51.77-27.62-85.43-51.49-100.98-71.61c-15.55-20.12-23.33-45.07-23.33-74.88c0-40.45,14.36-73.25,43.07-98.37
			c28.71-25.12,66.66-37.68,113.87-37.68c20.66,0,39.74,2.56,57.26,7.67c17.5,5.12,34.1,13,49.75,23.66
			c-4.57,13.05-8.7,25.72-12.39,38.01c-3.71,12.29-6.97,24.09-9.79,35.4h-7.17c-6.75-19.79-18.11-35.4-34.1-46.82
			s-34.53-17.13-55.62-17.13c-19.58,0-35.35,5.39-47.31,16.15c-11.96,10.76-17.94,24.96-17.94,42.58c0,14.79,4.45,27.41,13.37,37.84
			c8.92,10.44,28.71,23.61,59.39,39.48c6.74,3.7,16.53,8.59,29.36,14.68c35.67,17.62,58.4,31.43,68.19,41.43
			c11.96,12.4,20.82,25.99,26.59,40.78c5.76,14.79,8.64,31.32,8.64,49.59c0,45.24-15.23,81.62-45.68,109.13
			c-30.46,27.52-71.12,41.28-122.02,41.28c-26.76,0-49.92-2.62-69.5-7.84C2149.92,591.8,2133.28,583.87,2119.58,573.21z"/>
		<path class="st4" d="M2472.25,596.05c1.95-23.49,3.31-52.57,4.07-87.28c0.76-34.69,1.15-84.87,1.15-150.57
			c0-69.6-0.39-123.86-1.15-162.8c-0.77-38.93-2.12-72.43-4.07-100.49c9.14,1.74,17.66,3.05,25.6,3.91
			c7.94,0.87,15.61,1.31,23.01,1.31c7.83,0,15.77-0.44,23.81-1.31c8.05-0.87,16.42-2.17,25.12-3.91
			c-2.18,18.27-3.87,37.85-5.06,58.72c-1.19,20.88-1.79,43.4-1.79,67.54v103.75c12.18-18.48,26.86-32.35,44.05-41.6
			c17.18-9.24,36.86-13.87,59.06-13.87c16.09,0,30.83,2.77,44.21,8.32c13.37,5.55,24.63,13.65,33.76,24.31
			c7.83,8.92,13.38,20.01,16.64,33.28c3.26,13.27,4.89,34.7,4.89,64.27c0,4.35-0.1,15.83-0.32,34.42
			c-0.22,18.59-0.32,34.97-0.32,49.11c0,24.58,0.32,45.73,0.98,63.45c0.65,17.73,1.63,34.21,2.94,49.43
			c-9.14-1.09-17.84-1.9-26.11-2.44c-8.26-0.54-15.99-0.81-23.16-0.81c-7.62,0-15.39,0.27-23.33,0.81
			c-7.94,0.54-16.58,1.36-25.94,2.44c1.53-18.92,2.72-41.54,3.59-67.86c0.86-26.32,1.31-55.57,1.31-87.76
			c0-48.5-3.81-79.78-11.42-93.8c-7.62-14.03-21.54-21.04-41.76-21.04c-20.23,0-34.75,8.37-43.56,25.12
			c-8.8,16.75-13.21,45.02-13.21,84.83c0,20.88,0.38,44.92,1.15,72.1c0.76,27.19,1.79,56.66,3.1,88.41
			c-8.71-1.09-17.09-1.9-25.12-2.44c-8.05-0.54-15.88-0.81-23.49-0.81c-7.4,0-15.12,0.27-23.17,0.81
			C2489.65,594.14,2481.17,594.96,2472.25,596.05z"/>
		<path class="st4" d="M2829.5,436.5c0-53.28,14.79-94.72,44.38-124.3c29.58-29.58,70.68-44.37,123.32-44.37
			c53.5,0,94.72,14.63,123.65,43.88c28.92,29.26,43.39,70.85,43.39,124.79c0,52.86-14.74,94.02-44.21,123.49
			c-29.48,29.47-70.64,44.21-123.49,44.21c-53.08,0-94.18-14.69-123.32-44.05C2844.08,530.79,2829.5,489.58,2829.5,436.5z
			 M2927.72,436.5c0,50.69,5.27,86.36,15.82,107.01c10.55,20.67,28.23,31,53.02,31c25.01,0,42.85-10.39,53.5-31.16
			c10.66-20.77,16-56.39,16-106.85c0-50.67-5.34-86.51-16-107.5c-10.65-20.99-28.49-31.48-53.5-31.48
			c-24.79,0-42.47,10.39-53.02,31.16C2932.98,349.45,2927.72,385.39,2927.72,436.5z"/>
		<path class="st4" d="M3319.54,557.22v69.49c0,25.24,0.33,50.46,0.98,75.7c0.65,25.23,1.64,50.56,2.94,76.02
			c-8.05-1.53-16.26-2.67-24.63-3.43c-8.38-0.76-17.13-1.14-26.27-1.14c-8.7,0-17.02,0.38-24.95,1.14
			c-7.95,0.76-15.62,1.9-23.01,3.43c1.74-22.17,2.94-46.3,3.59-72.39c0.65-26.08,0.98-58.9,0.98-98.46c0-75.21-0.38-139.88-1.14-194
			c-0.77-54.12-1.9-99.77-3.43-136.94c7.18,0.65,14.69,1.2,22.52,1.63c7.83,0.44,16.09,0.65,24.8,0.65c8.69,0,16.85-0.19,24.47-0.57
			c7.61-0.37,14.9-0.95,21.85-1.71v40.78c12.84-16.96,27.19-29.47,43.07-37.52c15.87-8.05,34.26-12.07,55.14-12.07
			c38.49,0,69.38,15.33,92.65,46c23.27,30.66,34.91,71.56,34.91,122.67c0,52.64-11.74,93.75-35.23,123.32
			c-23.49,29.58-56.12,44.38-97.88,44.38c-22.62,0-41.27-3.81-55.95-11.42C3340.25,585.18,3328.45,573.32,3319.54,557.22z
			 M3318.23,437.81c0,42.63,5.22,74.01,15.66,94.13c10.44,20.12,26.75,30.17,48.94,30.17c22.19,0,38.23-9.68,48.13-29.04
			c9.89-19.35,14.84-51.11,14.84-95.26c0-43.28-5.22-74.93-15.65-94.94c-10.44-20.01-26.86-30.02-49.27-30.02
			c-20.89,0-36.54,10.39-46.98,31.16C3323.45,364.78,3318.23,396.05,3318.23,437.81z"/>
	</g>
</g>
</svg>
